<svg id="svg" version="1.1" xmlns="http://www.w3.org/2000/svg" xmlns:xlink="http://www.w3.org/1999/xlink" width="400" height="420.3821656050955" viewBox="0, 0, 400,420.3821656050955"><g id="svgg"><path id="path0" d="M182.739 11.891 C 182.706 12.061,182.636 12.380,182.585 12.600 C 182.534 12.820,182.472 13.225,182.446 13.500 C 182.416 13.831,181.685 14.000,180.280 14.000 C 178.084 14.000,177.200 14.471,177.200 15.641 C 177.200 16.176,176.682 16.382,174.782 16.602 C 172.531 16.863,172.348 16.962,172.135 18.023 C 171.921 19.094,171.773 19.170,169.670 19.281 C 167.656 19.388,167.410 19.500,167.201 20.400 C 167.016 21.197,166.687 21.423,165.584 21.515 C 164.823 21.579,163.930 21.743,163.600 21.881 C 163.270 22.018,162.820 22.147,162.600 22.166 C 162.380 22.186,162.199 22.554,162.199 22.983 C 162.198 23.859,161.076 24.297,158.676 24.360 C 157.771 24.384,157.253 24.562,157.400 24.800 C 157.536 25.020,157.457 25.200,157.224 25.200 C 156.991 25.200,156.800 25.560,156.800 26.000 C 156.800 26.692,156.533 26.800,154.829 26.800 C 152.849 26.800,151.600 27.487,151.600 28.576 C 151.600 28.867,150.940 29.199,150.100 29.332 C 147.237 29.785,147.070 29.862,146.926 30.809 C 146.739 32.035,146.870 31.969,144.473 32.054 C 142.383 32.127,141.474 32.651,141.686 33.658 C 141.764 34.030,141.298 34.233,140.200 34.307 C 137.832 34.464,136.737 34.775,137.007 35.212 C 137.139 35.425,137.057 35.600,136.824 35.600 C 136.591 35.600,136.400 35.849,136.400 36.154 C 136.400 36.526,135.668 36.799,134.168 36.987 C 132.167 37.237,131.893 37.387,131.529 38.433 C 131.170 39.463,130.932 39.600,129.505 39.600 C 128.450 39.600,127.689 39.843,127.314 40.300 C 126.999 40.685,126.872 40.747,127.032 40.438 C 127.226 40.064,127.166 39.974,126.851 40.168 C 126.591 40.329,126.429 40.762,126.489 41.130 C 126.576 41.654,126.229 41.827,124.900 41.923 C 123.965 41.991,123.200 42.196,123.200 42.379 C 123.200 42.561,122.887 42.686,122.504 42.656 C 122.122 42.625,121.636 42.989,121.425 43.464 C 121.127 44.134,120.560 44.388,118.888 44.597 C 116.972 44.836,116.691 44.994,116.329 46.033 C 115.957 47.099,115.759 47.200,114.041 47.200 C 112.075 47.200,111.200 47.701,111.200 48.828 C 111.200 49.348,110.668 49.557,108.803 49.768 C 106.727 50.003,106.374 50.165,106.169 50.982 C 105.923 51.961,104.995 52.385,103.081 52.395 C 102.261 52.399,101.781 52.719,101.281 53.597 C 100.749 54.533,100.321 54.795,99.326 54.797 C 97.522 54.801,96.143 55.410,95.908 56.308 C 95.759 56.878,95.214 57.144,93.794 57.339 C 91.624 57.636,90.800 58.162,90.800 59.249 C 90.800 59.882,90.490 60.000,88.829 60.000 C 86.816 60.000,85.600 60.689,85.600 61.829 C 85.600 62.163,85.207 62.400,84.650 62.400 C 82.515 62.400,81.135 62.919,80.779 63.856 C 80.531 64.508,80.104 64.800,79.397 64.800 C 77.647 64.800,75.600 65.867,75.600 66.780 C 75.600 67.448,75.345 67.600,74.226 67.600 C 72.303 67.600,70.760 68.267,70.515 69.205 C 70.371 69.754,69.968 70.000,69.213 70.000 C 67.489 70.000,65.699 70.779,65.478 71.625 C 65.364 72.061,64.930 72.400,64.486 72.400 C 63.112 72.400,60.721 73.617,60.510 74.424 C 60.360 74.996,59.957 75.200,58.972 75.200 C 57.246 75.200,55.678 75.925,55.381 76.861 C 55.213 77.391,54.757 77.600,53.773 77.600 C 53.018 77.600,52.400 77.780,52.400 78.000 C 52.400 78.220,52.136 78.400,51.814 78.400 C 51.492 78.400,51.044 78.744,50.819 79.164 C 50.567 79.636,49.766 80.037,48.726 80.213 C 47.670 80.391,46.611 80.927,45.890 81.649 C 45.070 82.469,44.344 82.800,43.369 82.800 C 42.616 82.800,42.000 82.959,42.000 83.153 C 42.000 83.348,41.640 83.601,41.200 83.716 C 40.760 83.831,40.400 84.212,40.400 84.563 C 40.400 85.028,40.011 85.200,38.962 85.200 C 37.395 85.200,35.200 86.500,35.200 87.427 C 35.200 87.829,34.722 88.000,33.600 88.000 C 32.720 88.000,32.000 88.180,32.000 88.400 C 32.000 89.431,30.353 90.400,28.600 90.400 C 27.359 90.400,26.800 90.567,26.800 90.938 C 26.800 91.955,25.373 92.800,23.656 92.800 C 22.416 92.800,21.910 92.984,21.727 93.500 C 21.193 95.004,20.294 95.600,18.561 95.600 C 17.079 95.600,16.749 95.763,16.136 96.800 C 15.506 97.867,15.216 98.000,13.514 98.000 C 12.177 98.000,11.600 98.162,11.600 98.538 C 11.600 99.363,10.250 100.399,9.169 100.405 C 6.831 100.419,6.540 100.709,6.444 103.129 C 6.347 105.582,6.216 105.848,5.000 106.066 C 4.278 106.195,4.189 106.571,4.085 109.905 C 3.983 113.185,3.887 113.600,3.234 113.600 C 1.675 113.600,1.406 114.643,1.266 121.220 L 1.131 127.518 2.566 128.823 L 4.000 130.129 4.000 135.664 C 4.000 140.035,4.113 141.200,4.538 141.200 C 6.047 141.200,6.400 142.501,6.400 148.056 L 6.400 153.450 7.600 154.337 L 8.800 155.224 8.800 160.225 C 8.800 165.610,9.276 167.584,10.766 168.382 C 11.542 168.797,11.600 169.171,11.600 173.754 C 11.600 179.052,12.021 181.026,13.233 181.411 C 13.925 181.630,14.005 182.093,14.046 186.127 C 14.107 192.051,14.051 191.783,15.252 191.922 C 16.282 192.041,16.309 192.120,16.550 195.722 C 16.882 200.707,16.849 200.533,17.565 201.130 C 17.943 201.445,17.973 201.541,17.638 201.368 C 17.264 201.174,17.174 201.234,17.368 201.549 C 17.529 201.809,17.962 201.971,18.330 201.911 C 18.912 201.815,19.015 202.310,19.114 205.671 L 19.228 209.543 20.414 209.803 L 21.600 210.064 21.640 213.532 C 21.690 217.891,21.964 218.870,23.317 219.522 C 24.380 220.034,24.400 220.114,24.400 223.772 L 24.400 227.500 25.600 227.740 L 26.800 227.980 26.800 231.590 C 26.800 233.882,26.956 235.200,27.227 235.200 C 27.462 235.200,27.548 235.535,27.418 235.944 C 27.162 236.748,28.116 237.823,28.743 237.435 C 28.966 237.298,29.178 238.704,29.260 240.868 C 29.355 243.350,29.562 244.588,29.902 244.701 C 30.179 244.793,30.294 245.048,30.159 245.267 C 30.015 245.500,30.304 245.610,30.856 245.533 C 31.789 245.402,31.801 245.448,31.914 249.500 C 31.977 251.755,32.196 253.600,32.401 253.600 C 32.607 253.600,32.678 253.852,32.560 254.160 C 32.442 254.467,32.566 254.855,32.835 255.021 C 33.173 255.230,33.225 255.150,33.003 254.762 C 32.827 254.453,33.056 254.584,33.514 255.054 C 34.203 255.761,34.367 256.511,34.472 259.436 C 34.595 262.827,34.639 262.975,35.600 263.199 C 36.558 263.423,36.609 263.588,36.807 267.149 C 36.972 270.115,37.154 270.942,37.707 271.252 C 38.088 271.465,38.397 271.856,38.394 272.120 C 38.390 272.420,38.229 272.375,37.963 272.000 C 37.588 271.470,37.558 271.469,37.702 271.998 C 37.792 272.327,38.211 272.597,38.633 272.598 C 39.332 272.600,39.410 272.966,39.514 276.713 L 39.628 280.826 40.814 281.063 L 42.000 281.300 42.000 284.790 C 42.000 288.559,42.540 290.800,43.449 290.800 C 44.293 290.800,44.732 292.338,44.835 295.651 C 44.922 298.476,44.970 298.609,45.963 298.803 C 46.978 299.001,47.005 299.090,47.217 303.003 C 47.456 307.400,47.702 308.251,48.837 308.612 C 49.503 308.823,49.604 309.272,49.628 312.127 C 49.656 315.335,49.949 316.889,50.516 316.830 C 52.374 316.636,52.366 316.619,52.486 320.700 C 52.557 323.135,52.761 324.600,53.029 324.600 C 53.264 324.600,53.772 324.915,54.157 325.300 C 54.841 325.984,54.542 326.295,53.772 325.700 C 53.558 325.535,53.688 325.688,54.062 326.040 C 54.435 326.392,54.799 327.292,54.870 328.040 C 54.990 329.291,55.118 329.410,56.479 329.523 C 57.580 329.614,57.900 329.794,57.734 330.228 C 57.355 331.215,58.286 331.845,60.276 331.948 C 62.481 332.062,62.342 331.987,62.521 333.157 C 62.710 334.398,63.465 334.787,65.700 334.794 C 67.543 334.800,67.600 334.836,67.600 336.000 C 67.600 337.130,67.692 337.200,69.173 337.200 C 70.318 337.200,70.808 337.390,70.972 337.900 C 71.239 338.726,73.338 340.000,74.432 340.000 C 74.855 340.000,75.200 340.260,75.200 340.577 C 75.200 341.529,76.867 342.400,78.689 342.400 C 80.323 342.400,80.400 342.454,80.400 343.600 C 80.400 344.797,80.406 344.800,82.750 344.800 C 85.045 344.800,85.106 344.828,85.342 346.009 C 85.586 347.229,85.740 347.346,87.656 347.763 C 88.344 347.913,88.693 348.239,88.656 348.697 C 88.623 349.109,88.878 349.402,89.272 349.405 C 89.641 349.408,90.076 349.543,90.238 349.705 C 90.401 349.867,91.121 350.000,91.840 350.000 C 92.968 350.000,93.164 350.150,93.273 351.100 C 93.408 352.268,93.419 352.273,96.200 352.350 C 97.833 352.395,98.000 352.491,98.000 353.386 C 98.000 354.522,99.014 355.200,100.712 355.200 C 101.855 355.200,103.200 356.231,103.200 357.107 C 103.200 357.352,103.875 357.608,104.700 357.676 C 106.020 357.785,106.184 357.913,106.067 358.744 C 105.983 359.343,106.093 359.590,106.367 359.420 C 106.605 359.273,106.800 359.355,106.800 359.602 C 106.800 359.848,107.115 360.018,107.500 359.979 C 109.899 359.735,110.800 360.000,110.800 360.951 C 110.800 361.772,111.862 363.188,112.261 362.900 C 113.325 362.132,116.000 362.919,116.000 364.000 C 116.000 365.205,117.079 365.570,119.578 365.212 C 120.056 365.143,120.067 365.237,119.644 365.747 C 119.091 366.414,119.352 367.204,120.124 367.194 C 120.410 367.190,120.361 367.033,120.000 366.800 C 119.670 366.587,119.597 366.409,119.838 366.406 C 120.079 366.403,120.602 366.760,121.000 367.200 C 121.398 367.640,122.230 368.000,122.849 368.000 C 123.729 368.000,123.920 368.143,123.722 368.658 C 123.340 369.654,124.691 370.400,126.876 370.400 C 128.747 370.400,128.800 370.433,128.800 371.600 C 128.800 372.797,128.806 372.800,131.150 372.800 C 133.445 372.800,133.506 372.828,133.742 374.009 C 133.987 375.236,134.130 375.342,136.115 375.778 C 136.848 375.939,137.191 376.243,137.115 376.666 C 136.999 377.315,137.248 377.416,140.059 377.863 C 141.272 378.055,141.558 378.290,141.750 379.250 C 141.877 379.886,142.120 380.384,142.291 380.356 C 144.439 380.005,146.400 380.465,146.400 381.320 C 146.400 382.525,147.115 383.200,148.391 383.200 C 148.958 383.200,149.720 383.515,150.083 383.900 C 151.373 385.267,151.981 385.600,153.183 385.600 C 153.865 385.600,154.420 385.820,154.446 386.100 C 154.472 386.375,154.517 386.870,154.546 387.199 C 154.604 387.847,154.711 387.875,157.400 387.950 C 159.015 387.995,159.200 388.098,159.200 388.951 C 159.200 389.772,160.262 391.188,160.661 390.900 C 161.725 390.132,164.400 390.919,164.400 392.000 C 164.400 393.088,164.522 393.200,165.705 393.200 C 166.675 393.200,167.112 393.431,167.405 394.100 C 167.622 394.595,167.960 394.940,168.155 394.866 C 168.351 394.792,168.640 394.941,168.798 395.196 C 168.956 395.452,169.835 395.761,170.752 395.884 C 172.152 396.072,172.382 396.227,172.183 396.854 C 172.021 397.365,172.143 397.600,172.573 397.600 C 172.918 397.600,173.200 397.780,173.200 398.000 C 173.200 398.220,174.100 398.400,175.200 398.400 C 177.156 398.400,177.200 398.427,177.200 399.600 C 177.200 400.754,177.269 400.800,178.980 400.800 C 180.543 400.800,180.889 400.970,181.827 402.200 C 182.521 403.109,183.229 403.600,183.847 403.600 C 184.427 403.600,184.800 403.835,184.800 404.200 C 184.800 404.530,184.991 404.800,185.224 404.800 C 185.457 404.800,185.533 404.984,185.394 405.210 C 185.255 405.435,185.289 405.594,185.470 405.563 C 185.652 405.531,185.935 405.549,186.100 405.603 C 186.826 405.838,187.282 405.903,188.550 405.950 C 189.715 405.993,189.933 406.165,190.141 407.203 C 190.273 407.865,190.520 408.384,190.691 408.356 C 192.924 407.991,194.800 408.462,194.800 409.386 C 194.800 410.573,195.796 411.180,197.953 411.307 C 198.822 411.358,199.510 411.490,199.482 411.600 C 199.278 412.390,200.568 413.600,201.614 413.600 C 202.379 413.600,202.818 413.813,202.850 414.200 C 202.878 414.530,202.923 415.025,202.950 415.300 C 202.986 415.660,204.264 415.832,207.516 415.913 L 212.032 416.027 212.451 414.825 L 212.870 413.624 217.735 413.512 L 222.600 413.400 222.727 412.300 L 222.853 411.200 227.178 411.200 C 231.847 411.200,234.037 410.626,234.800 409.201 C 235.103 408.635,235.637 408.400,236.624 408.400 C 237.855 408.400,238.048 408.258,238.260 407.200 C 238.460 406.201,238.692 406.000,239.650 406.000 C 240.481 406.000,240.800 405.805,240.800 405.296 C 240.800 404.389,241.816 403.769,243.871 403.422 C 245.275 403.185,245.545 402.976,245.746 401.972 C 245.943 400.986,246.172 400.800,247.190 400.800 C 248.268 400.800,248.400 400.669,248.400 399.600 C 248.400 398.607,248.562 398.400,249.340 398.400 C 250.848 398.400,252.749 397.591,252.984 396.849 C 253.104 396.473,253.786 395.993,254.501 395.783 C 255.503 395.487,255.829 395.149,255.927 394.300 C 256.033 393.379,256.244 393.200,257.227 393.200 C 258.264 393.200,258.400 393.061,258.400 392.000 C 258.400 391.004,258.561 390.800,259.350 390.800 C 261.670 390.800,262.914 390.283,263.346 389.138 C 263.677 388.260,264.032 388.000,264.898 388.000 C 265.825 388.000,266.062 387.791,266.260 386.800 C 266.460 385.801,266.692 385.600,267.650 385.600 C 268.647 385.600,268.800 385.449,268.800 384.465 C 268.800 383.392,268.926 383.310,271.100 382.965 C 273.206 382.631,273.411 382.507,273.527 381.500 C 273.637 380.538,273.826 380.400,275.027 380.400 C 276.286 380.400,276.400 380.300,276.400 379.200 C 276.400 378.133,276.533 378.000,277.600 378.000 C 278.353 378.000,278.800 377.795,278.800 377.449 C 278.800 376.583,279.951 375.835,281.956 375.399 C 283.539 375.055,283.818 374.846,283.924 373.923 C 284.027 373.038,284.275 372.825,285.324 372.724 C 286.382 372.621,286.622 372.412,286.727 371.500 C 286.825 370.643,287.064 370.400,287.808 370.400 C 289.164 370.400,290.746 369.599,291.006 368.781 C 291.133 368.380,291.804 367.976,292.585 367.829 C 293.678 367.624,293.993 367.343,294.203 366.387 C 294.419 365.401,294.662 365.200,295.632 365.200 C 296.648 365.200,296.800 365.053,296.800 364.065 C 296.800 362.992,296.926 362.910,299.100 362.565 C 301.206 362.231,301.411 362.107,301.527 361.100 C 301.637 360.138,301.826 360.000,303.027 360.000 C 304.279 360.000,304.400 359.897,304.400 358.825 C 304.400 357.792,304.557 357.636,305.700 357.525 C 306.769 357.422,307.022 357.212,307.122 356.343 C 307.233 355.384,307.447 355.261,309.439 355.012 C 311.458 354.760,311.651 354.646,311.866 353.569 C 312.060 352.599,312.298 352.400,313.260 352.400 C 314.229 352.400,314.460 352.202,314.660 351.200 C 314.860 350.201,315.092 350.000,316.050 350.000 C 317.050 350.000,317.200 349.850,317.200 348.852 C 317.200 347.746,317.289 347.693,319.575 347.435 C 321.781 347.185,321.959 347.089,322.075 346.083 C 322.179 345.185,322.422 344.979,323.500 344.875 C 324.643 344.764,324.800 344.608,324.800 343.575 C 324.800 342.536,324.939 342.400,326.000 342.400 C 326.660 342.400,327.200 342.220,327.200 342.000 C 327.200 341.780,327.460 341.600,327.777 341.600 C 328.095 341.600,328.590 341.275,328.877 340.878 C 329.165 340.481,330.030 339.980,330.800 339.765 C 331.895 339.460,332.227 339.143,332.324 338.311 C 332.426 337.440,332.679 337.225,333.724 337.124 C 334.782 337.021,335.022 336.812,335.127 335.900 C 335.223 335.058,335.467 334.800,336.167 334.800 C 337.903 334.800,339.518 333.981,339.771 332.974 C 339.962 332.212,340.277 332.000,341.218 332.000 C 342.234 332.000,342.457 331.814,342.660 330.800 C 342.860 329.801,343.092 329.600,344.050 329.600 C 345.047 329.600,345.200 329.449,345.200 328.465 C 345.200 327.392,345.326 327.310,347.500 326.965 C 349.606 326.631,349.811 326.507,349.927 325.500 C 350.037 324.538,350.226 324.400,351.427 324.400 C 352.679 324.400,352.800 324.297,352.800 323.225 C 352.800 322.192,352.957 322.036,354.100 321.925 C 355.162 321.823,355.422 321.610,355.521 320.762 C 355.629 319.830,355.876 319.686,357.921 319.362 C 359.230 319.154,360.221 318.787,360.250 318.500 C 360.278 318.225,360.322 317.741,360.350 317.425 C 360.380 317.083,360.926 316.800,361.700 316.725 C 362.783 316.621,363.021 316.417,363.127 315.500 C 363.233 314.579,363.444 314.400,364.427 314.400 C 365.297 314.400,365.600 314.211,365.600 313.668 C 365.600 312.853,366.719 312.181,368.735 311.784 C 369.734 311.587,370.171 311.230,370.474 310.361 C 370.795 309.439,371.118 309.200,372.039 309.200 C 373.062 309.200,373.200 309.058,373.200 308.000 C 373.200 307.007,373.362 306.800,374.140 306.800 C 375.884 306.800,377.595 305.960,377.840 304.983 C 378.015 304.286,378.400 304.014,379.338 303.923 C 380.373 303.822,380.622 303.606,380.724 302.724 C 380.827 301.838,381.075 301.625,382.124 301.524 C 383.182 301.421,383.422 301.212,383.527 300.300 C 383.623 299.458,383.867 299.200,384.567 299.200 C 386.303 299.200,387.918 298.381,388.171 297.374 C 388.362 296.612,388.677 296.400,389.618 296.400 C 390.634 296.400,390.857 296.214,391.060 295.200 C 391.260 294.201,391.492 294.000,392.450 294.000 C 393.447 294.000,393.600 293.849,393.600 292.865 C 393.600 291.792,393.726 291.710,395.900 291.365 C 397.887 291.050,398.218 290.871,398.334 290.054 C 398.408 289.532,398.811 289.018,399.234 288.907 C 400.285 288.632,400.450 266.000,399.400 266.000 C 398.877 266.000,398.799 264.009,398.795 250.500 C 398.788 233.351,398.784 233.299,397.259 233.123 L 396.200 233.000 396.000 215.685 C 395.790 197.532,395.800 197.627,394.100 197.606 C 393.710 197.601,393.591 194.327,393.557 182.700 C 393.533 174.505,393.509 167.305,393.503 166.700 C 393.497 166.095,393.336 165.600,393.146 165.600 C 392.956 165.600,392.845 165.375,392.900 165.100 C 392.955 164.825,392.640 164.600,392.200 164.600 C 391.417 164.600,391.395 164.254,391.164 148.000 C 390.902 129.636,390.973 131.046,390.332 131.442 C 390.015 131.638,389.949 131.511,390.127 131.045 C 390.272 130.667,390.256 130.442,390.091 130.544 C 389.926 130.646,389.433 130.451,388.996 130.111 C 388.202 129.494,388.202 129.493,389.000 129.747 C 389.734 129.981,389.743 129.958,389.115 129.468 C 388.491 128.981,388.426 127.534,388.383 113.035 C 388.333 96.207,388.264 95.600,386.406 95.600 C 386.157 95.600,385.972 90.908,385.906 82.900 L 385.800 70.200 384.746 70.078 C 383.940 69.984,383.636 69.678,383.456 68.778 C 383.257 67.786,383.029 67.600,382.010 67.600 C 380.930 67.600,380.800 67.470,380.800 66.390 C 380.800 65.375,380.613 65.143,379.642 64.948 C 378.764 64.773,378.427 64.436,378.252 63.558 C 378.057 62.587,377.825 62.400,376.810 62.400 C 375.732 62.400,375.600 62.269,375.600 61.200 C 375.600 60.133,375.467 60.000,374.400 60.000 C 373.331 60.000,373.200 59.868,373.200 58.790 C 373.200 57.771,373.014 57.543,372.022 57.344 C 371.133 57.167,370.781 56.826,370.590 55.954 C 370.383 55.011,370.128 54.800,369.195 54.800 C 368.247 54.800,368.032 54.613,367.927 53.700 C 367.828 52.843,367.562 52.573,366.724 52.476 C 365.893 52.380,365.620 52.107,365.524 51.276 C 365.430 50.457,365.093 50.110,364.119 49.823 C 363.167 49.542,362.808 49.183,362.719 48.423 L 362.600 47.400 357.700 47.288 L 352.800 47.175 352.800 46.040 C 352.800 44.662,351.775 44.411,346.127 44.404 C 342.867 44.400,342.427 44.314,342.212 43.637 C 341.836 42.454,340.995 42.260,335.217 42.022 C 329.881 41.802,329.832 41.791,329.599 40.800 L 329.365 39.800 323.282 39.690 L 317.200 39.579 317.200 38.580 C 317.200 37.155,315.920 36.800,310.788 36.800 C 306.838 36.800,306.388 36.725,306.000 36.000 C 305.765 35.560,305.308 35.200,304.986 35.200 C 304.664 35.200,304.400 35.020,304.400 34.800 C 304.400 34.554,302.400 34.400,299.200 34.400 C 294.459 34.400,294.000 34.336,294.000 33.680 C 294.000 32.196,293.226 32.000,287.352 32.000 L 281.664 32.000 281.409 30.841 C 281.078 29.335,280.531 29.212,274.127 29.205 L 268.853 29.200 268.727 28.100 L 268.600 27.000 263.486 26.888 C 258.543 26.780,258.359 26.744,258.016 25.842 C 257.523 24.546,257.019 24.424,250.954 24.133 C 246.083 23.899,245.600 23.809,245.600 23.128 C 245.600 21.951,243.961 21.600,238.462 21.600 L 233.375 21.600 232.922 20.400 L 232.469 19.200 227.097 19.200 C 221.621 19.200,220.400 18.857,220.400 17.319 C 220.400 16.693,218.354 16.400,213.993 16.400 C 210.216 16.400,210.079 16.369,209.849 15.451 C 209.539 14.216,208.396 14.000,202.177 14.000 L 197.253 14.000 197.127 12.900 L 197.000 11.800 189.900 11.691 C 185.995 11.631,182.773 11.721,182.739 11.891 M195.045 29.596 C 198.342 30.263,203.257 31.490,206.200 32.380 C 208.964 33.215,214.152 34.366,220.000 35.440 C 221.650 35.743,224.890 36.450,227.200 37.010 C 232.608 38.321,232.262 38.253,237.400 38.998 C 242.421 39.726,244.544 40.147,253.200 42.131 C 256.610 42.913,261.560 43.926,264.200 44.383 C 269.707 45.336,274.691 46.411,281.065 48.022 C 283.521 48.643,287.301 49.444,289.465 49.803 C 293.323 50.442,305.681 52.821,313.200 54.371 C 317.354 55.228,321.431 55.744,329.400 56.421 C 340.346 57.351,343.588 60.103,340.626 65.949 C 339.235 68.694,337.243 70.250,332.002 72.690 C 329.471 73.868,326.950 75.042,326.400 75.298 C 325.105 75.901,312.813 83.962,311.910 84.801 C 311.530 85.153,310.540 85.813,309.710 86.268 C 302.522 90.207,296.733 93.499,295.400 94.407 C 293.562 95.658,286.930 99.630,283.400 101.594 C 282.080 102.328,279.399 103.808,277.443 104.884 C 272.710 107.486,265.341 111.910,263.600 113.196 C 260.387 115.569,255.951 117.939,249.600 120.678 C 248.830 121.010,247.750 121.484,247.200 121.732 C 246.650 121.979,244.670 123.202,242.800 124.448 C 239.383 126.726,238.526 127.241,233.434 130.073 C 231.913 130.919,230.473 131.771,230.234 131.966 C 229.995 132.160,227.370 133.657,224.400 135.293 C 215.979 139.929,215.093 140.428,213.600 141.373 C 209.364 144.055,207.126 145.301,200.425 148.706 C 196.368 150.766,192.588 152.776,192.025 153.171 C 177.751 163.183,169.925 164.982,160.282 160.467 C 158.347 159.561,155.647 158.458,154.282 158.015 C 148.477 156.133,139.849 153.145,130.000 149.605 C 127.470 148.695,123.150 147.175,120.400 146.227 C 117.650 145.279,114.410 144.049,113.200 143.494 C 109.667 141.874,105.872 140.482,102.728 139.655 C 99.819 138.890,96.949 137.861,91.200 135.525 C 88.159 134.290,86.832 133.709,81.800 131.414 C 80.260 130.712,78.370 129.907,77.600 129.625 C 74.913 128.640,70.173 126.682,66.600 125.081 C 61.616 122.849,53.550 119.600,52.992 119.600 C 52.401 119.600,46.640 117.833,43.000 116.536 C 41.460 115.988,38.220 114.893,35.800 114.104 C 21.918 109.578,26.358 102.926,47.800 96.127 C 54.742 93.926,55.483 93.600,60.790 90.412 C 63.548 88.755,67.063 86.966,68.602 86.435 C 71.642 85.387,74.709 84.032,76.600 82.900 C 83.284 78.902,85.094 78.010,91.800 75.413 C 97.781 73.097,100.394 71.852,103.200 69.980 C 105.648 68.347,108.554 66.800,109.172 66.800 C 109.394 66.800,110.527 66.370,111.688 65.844 C 112.850 65.318,115.202 64.308,116.916 63.600 C 118.630 62.891,121.382 61.431,123.032 60.354 C 127.000 57.763,129.670 56.451,135.161 54.391 C 137.669 53.450,141.089 51.976,142.761 51.116 C 144.432 50.255,147.947 48.641,150.572 47.529 C 158.528 44.157,167.976 39.616,176.400 35.114 C 178.270 34.115,180.970 32.671,182.400 31.905 C 186.839 29.529,190.979 28.773,195.045 29.596 M359.119 80.242 C 360.922 81.422,361.513 83.033,361.799 87.548 C 362.080 91.969,363.082 97.559,364.210 101.000 C 364.705 102.510,364.950 105.598,365.208 113.600 C 365.485 122.193,365.718 124.957,366.440 128.200 C 367.251 131.840,367.324 133.138,367.254 142.623 C 367.177 152.896,367.345 155.057,368.818 162.800 C 369.842 168.181,369.984 170.150,369.745 175.604 C 369.394 183.611,369.812 186.430,373.069 198.000 C 373.531 199.640,373.623 201.116,373.432 203.800 C 372.591 215.571,372.654 216.636,374.576 223.100 C 374.919 224.255,375.479 226.145,375.820 227.300 C 376.301 228.929,376.418 231.060,376.343 236.800 C 376.197 247.841,376.283 249.997,377.008 253.449 C 379.890 267.184,378.482 272.126,369.837 278.625 C 367.083 280.696,365.852 281.731,363.400 284.038 C 359.767 287.456,356.128 290.631,352.800 293.285 C 351.150 294.601,349.417 296.000,348.949 296.394 C 348.481 296.787,346.681 298.063,344.949 299.229 C 343.217 300.395,340.793 302.171,339.561 303.175 C 338.330 304.179,335.064 306.577,332.303 308.505 C 329.542 310.433,326.278 312.773,325.049 313.705 C 323.819 314.637,321.956 316.030,320.907 316.800 C 319.858 317.570,318.759 318.428,318.465 318.706 C 318.171 318.984,317.271 319.699,316.465 320.293 C 314.356 321.849,311.445 324.275,305.600 329.346 C 304.170 330.587,301.650 332.677,300.000 333.990 C 298.350 335.303,295.200 337.917,293.000 339.799 C 290.800 341.680,287.200 344.548,285.000 346.173 C 282.800 347.797,280.634 349.457,280.186 349.863 C 278.942 350.990,276.418 352.902,274.200 354.398 C 273.100 355.140,272.110 355.850,272.000 355.976 C 271.890 356.102,271.080 356.732,270.200 357.376 C 269.320 358.020,267.430 359.554,266.000 360.786 C 264.570 362.017,262.320 363.820,261.000 364.793 C 259.680 365.766,258.400 366.751,258.156 366.981 C 254.892 370.059,251.946 372.405,247.805 375.225 C 243.876 377.900,243.651 378.074,240.611 380.800 C 235.989 384.944,235.583 385.221,233.246 385.820 C 226.762 387.481,222.991 382.579,222.386 371.701 C 222.041 365.508,221.845 364.348,219.794 356.400 C 218.574 351.670,216.488 342.580,215.158 336.200 C 212.100 321.527,212.197 321.964,211.192 318.400 C 209.975 314.088,208.525 307.390,208.205 304.600 C 207.889 301.845,206.174 291.380,205.649 289.000 C 205.455 288.120,204.989 285.960,204.614 284.200 C 204.239 282.440,203.671 280.010,203.351 278.800 C 203.031 277.590,202.398 274.800,201.943 272.600 C 200.860 267.363,200.490 265.694,200.038 264.000 C 197.743 255.409,195.490 244.711,194.015 235.400 C 193.771 233.860,193.225 231.070,192.801 229.200 C 192.376 227.330,191.742 224.180,191.390 222.200 C 191.039 220.220,190.413 217.160,189.999 215.400 C 187.713 205.679,186.591 201.010,185.720 197.600 C 182.390 184.563,182.156 180.760,184.479 177.491 C 185.150 176.547,189.196 173.600,189.821 173.600 C 190.066 173.600,194.420 170.683,197.888 168.196 C 199.943 166.722,215.033 158.800,215.786 158.800 C 216.028 158.800,218.328 157.350,224.400 153.371 C 226.490 152.001,229.790 150.045,231.733 149.024 C 233.677 148.003,236.557 146.390,238.133 145.439 C 239.710 144.489,243.610 142.217,246.800 140.392 C 249.990 138.567,253.950 136.239,255.600 135.219 C 257.250 134.199,260.850 132.255,263.600 130.898 C 266.350 129.542,269.950 127.440,271.600 126.227 C 275.175 123.599,277.695 122.211,284.517 119.112 C 287.332 117.834,290.842 116.047,292.317 115.141 C 293.793 114.235,295.878 112.969,296.951 112.328 C 298.023 111.686,299.913 110.481,301.151 109.650 C 302.388 108.818,304.840 107.364,306.600 106.418 C 308.360 105.472,310.430 104.299,311.200 103.811 C 314.390 101.792,320.003 98.661,327.000 94.999 C 332.256 92.248,333.952 91.236,339.400 87.604 C 351.317 79.658,355.717 78.015,359.119 80.242 M27.574 128.644 C 29.018 128.998,32.538 130.457,35.395 131.885 C 38.253 133.313,42.408 135.084,44.630 135.819 C 46.852 136.555,50.094 137.726,51.835 138.422 C 53.576 139.118,56.440 140.129,58.200 140.669 C 65.814 143.004,68.862 144.039,70.980 145.008 C 73.543 146.180,79.619 148.532,81.646 149.136 C 85.752 150.360,88.652 151.309,92.600 152.722 C 101.437 155.885,103.015 156.464,103.800 156.828 C 104.676 157.235,113.349 160.304,117.800 161.781 C 121.340 162.957,128.482 165.768,136.200 169.023 C 139.500 170.415,144.270 172.260,146.800 173.123 C 164.405 179.129,168.274 183.929,170.983 203.124 C 171.303 205.392,172.185 209.802,172.943 212.924 C 173.701 216.046,174.802 220.760,175.390 223.400 C 175.978 226.040,176.615 228.650,176.806 229.200 C 177.232 230.428,179.377 239.391,179.964 242.400 C 180.201 243.610,180.763 246.490,181.215 248.800 C 181.666 251.110,182.300 254.170,182.623 255.600 C 183.224 258.257,184.870 266.687,185.630 271.000 C 186.181 274.122,186.521 275.543,188.217 281.800 C 190.409 289.889,191.242 294.766,191.804 302.800 C 192.114 307.229,192.522 309.418,194.792 318.800 C 195.830 323.090,196.909 327.680,197.189 329.000 C 197.470 330.320,198.311 333.969,199.058 337.109 C 200.948 345.051,201.458 347.897,201.980 353.409 C 202.229 356.044,202.810 360.270,203.270 362.800 C 204.054 367.109,204.508 368.600,207.043 375.200 C 212.474 389.341,200.637 391.955,187.071 379.609 C 184.231 377.025,181.846 375.678,177.036 373.941 C 175.290 373.310,171.946 371.644,169.605 370.238 C 167.264 368.833,163.659 366.834,161.594 365.797 C 156.675 363.326,153.499 361.378,150.780 359.164 C 149.562 358.172,147.493 356.936,146.183 356.418 C 141.397 354.525,138.503 352.997,133.961 349.965 C 131.409 348.262,126.639 345.474,123.361 343.769 C 118.090 341.029,112.978 337.963,112.400 337.194 C 112.290 337.048,110.040 335.795,107.400 334.411 C 104.760 333.026,101.880 331.405,101.000 330.807 C 99.404 329.723,91.659 325.200,91.400 325.200 C 90.034 325.200,78.081 316.848,71.600 311.366 C 65.705 306.379,65.559 306.122,63.774 297.600 C 62.499 291.513,61.466 287.659,59.563 281.885 C 57.638 276.043,56.988 273.694,55.996 269.000 C 54.884 263.737,53.103 256.421,52.149 253.200 C 51.595 251.330,50.696 248.270,50.152 246.400 C 48.819 241.824,46.177 233.369,44.778 229.200 C 43.556 225.556,42.891 223.195,41.402 217.200 C 40.883 215.110,40.259 212.877,40.016 212.239 C 39.773 211.600,38.848 208.270,37.961 204.839 C 37.074 201.407,35.926 197.340,35.411 195.800 C 34.895 194.260,34.193 191.917,33.850 190.594 C 33.507 189.271,32.856 187.026,32.402 185.606 C 31.948 184.185,31.227 181.398,30.799 179.411 C 28.792 170.093,28.373 168.351,27.282 164.800 C 26.640 162.710,25.718 159.200,25.232 157.000 C 24.746 154.800,23.968 151.290,23.503 149.200 C 23.038 147.110,21.700 143.123,20.529 140.340 C 16.440 130.622,18.912 126.519,27.574 128.644 " stroke="none" fill="#ebeae9" fill-rule="evenodd"></path><path id="path1" d="M187.400 29.885 C 186.080 30.231,183.830 31.140,182.400 31.905 C 180.970 32.671,178.270 34.115,176.400 35.114 C 167.976 39.616,158.528 44.157,150.572 47.529 C 147.947 48.641,144.432 50.255,142.761 51.116 C 141.089 51.976,137.669 53.450,135.161 54.391 C 129.670 56.451,127.000 57.763,123.032 60.354 C 121.382 61.431,118.630 62.891,116.916 63.600 C 115.202 64.308,112.850 65.318,111.688 65.844 C 110.527 66.370,109.394 66.800,109.172 66.800 C 108.554 66.800,105.648 68.347,103.200 69.980 C 100.394 71.852,97.781 73.097,91.800 75.413 C 85.094 78.010,83.284 78.902,76.600 82.900 C 74.709 84.032,71.642 85.387,68.602 86.435 C 67.063 86.966,63.548 88.755,60.790 90.412 C 55.483 93.600,54.742 93.926,47.800 96.127 C 26.358 102.926,21.918 109.578,35.800 114.104 C 38.220 114.893,41.460 115.988,43.000 116.536 C 46.640 117.833,52.401 119.600,52.992 119.600 C 53.550 119.600,61.616 122.849,66.600 125.081 C 70.173 126.682,74.913 128.640,77.600 129.625 C 78.370 129.907,80.260 130.712,81.800 131.414 C 86.832 133.709,88.159 134.290,91.200 135.525 C 96.949 137.861,99.819 138.890,102.728 139.655 C 105.872 140.482,109.667 141.874,113.200 143.494 C 114.410 144.049,117.650 145.279,120.400 146.227 C 123.150 147.175,127.470 148.695,130.000 149.605 C 139.849 153.145,148.477 156.133,154.282 158.015 C 155.647 158.458,158.347 159.561,160.282 160.467 C 169.925 164.982,177.751 163.183,192.025 153.171 C 192.588 152.776,196.368 150.766,200.425 148.706 C 207.126 145.301,209.364 144.055,213.600 141.373 C 215.093 140.428,215.979 139.929,224.400 135.293 C 227.370 133.657,229.995 132.160,230.234 131.966 C 230.473 131.771,231.913 130.919,233.434 130.073 C 238.526 127.241,239.383 126.726,242.800 124.448 C 244.670 123.202,246.650 121.979,247.200 121.732 C 247.750 121.484,248.830 121.010,249.600 120.678 C 255.951 117.939,260.387 115.569,263.600 113.196 C 265.341 111.910,272.710 107.486,277.443 104.884 C 279.399 103.808,282.080 102.328,283.400 101.594 C 286.930 99.630,293.562 95.658,295.400 94.407 C 296.733 93.499,302.522 90.207,309.710 86.268 C 310.540 85.813,311.530 85.153,311.910 84.801 C 312.813 83.962,325.105 75.901,326.400 75.298 C 326.950 75.042,329.471 73.868,332.002 72.690 C 337.243 70.250,339.235 68.694,340.626 65.949 C 343.588 60.103,340.346 57.351,329.400 56.421 C 321.431 55.744,317.354 55.228,313.200 54.371 C 305.681 52.821,293.323 50.442,289.465 49.803 C 287.301 49.444,283.521 48.643,281.065 48.022 C 274.691 46.411,269.707 45.336,264.200 44.383 C 261.560 43.926,256.610 42.913,253.200 42.131 C 244.544 40.147,242.421 39.726,237.400 38.998 C 232.262 38.253,232.608 38.321,227.200 37.010 C 224.890 36.450,221.650 35.743,220.000 35.440 C 214.152 34.366,208.964 33.215,206.200 32.380 C 204.660 31.914,201.960 31.186,200.200 30.762 C 192.756 28.969,191.288 28.869,187.400 29.885 M353.800 79.559 C 351.342 80.197,346.202 83.068,339.400 87.604 C 333.952 91.236,332.256 92.248,327.000 94.999 C 320.003 98.661,314.390 101.792,311.200 103.811 C 310.430 104.299,308.360 105.472,306.600 106.418 C 304.840 107.364,302.388 108.818,301.151 109.650 C 299.913 110.481,298.023 111.686,296.951 112.328 C 295.878 112.969,293.793 114.235,292.317 115.141 C 290.842 116.047,287.332 117.834,284.517 119.112 C 277.695 122.211,275.175 123.599,271.600 126.227 C 269.950 127.440,266.350 129.542,263.600 130.898 C 260.850 132.255,257.250 134.199,255.600 135.219 C 253.950 136.239,249.990 138.567,246.800 140.392 C 243.610 142.217,239.710 144.489,238.133 145.439 C 236.557 146.390,233.677 148.003,231.733 149.024 C 229.790 150.045,226.490 152.001,224.400 153.371 C 218.328 157.350,216.028 158.800,215.786 158.800 C 215.033 158.800,199.943 166.722,197.888 168.196 C 194.420 170.683,190.066 173.600,189.821 173.600 C 189.196 173.600,185.150 176.547,184.479 177.491 C 182.156 180.760,182.390 184.563,185.720 197.600 C 186.591 201.010,187.713 205.679,189.999 215.400 C 190.413 217.160,191.039 220.220,191.390 222.200 C 191.742 224.180,192.376 227.330,192.801 229.200 C 193.225 231.070,193.771 233.860,194.015 235.400 C 195.490 244.711,197.743 255.409,200.038 264.000 C 200.490 265.694,200.860 267.363,201.943 272.600 C 202.398 274.800,203.031 277.590,203.351 278.800 C 203.671 280.010,204.239 282.440,204.614 284.200 C 204.989 285.960,205.455 288.120,205.649 289.000 C 206.174 291.380,207.889 301.845,208.205 304.600 C 208.525 307.390,209.975 314.088,211.192 318.400 C 212.197 321.964,212.100 321.527,215.158 336.200 C 216.488 342.580,218.574 351.670,219.794 356.400 C 221.845 364.348,222.041 365.508,222.386 371.701 C 222.991 382.579,226.762 387.481,233.246 385.820 C 235.583 385.221,235.989 384.944,240.611 380.800 C 243.651 378.074,243.876 377.900,247.805 375.225 C 251.946 372.405,254.892 370.059,258.156 366.981 C 258.400 366.751,259.680 365.766,261.000 364.793 C 262.320 363.820,264.570 362.017,266.000 360.786 C 267.430 359.554,269.320 358.020,270.200 357.376 C 271.080 356.732,271.890 356.102,272.000 355.976 C 272.110 355.850,273.100 355.140,274.200 354.398 C 276.418 352.902,278.942 350.990,280.186 349.863 C 280.634 349.457,282.800 347.797,285.000 346.173 C 287.200 344.548,290.800 341.680,293.000 339.799 C 295.200 337.917,298.350 335.303,300.000 333.990 C 301.650 332.677,304.170 330.587,305.600 329.346 C 311.445 324.275,314.356 321.849,316.465 320.293 C 317.271 319.699,318.171 318.984,318.465 318.706 C 318.759 318.428,319.858 317.570,320.907 316.800 C 321.956 316.030,323.819 314.637,325.049 313.705 C 326.278 312.773,329.542 310.433,332.303 308.505 C 335.064 306.577,338.330 304.179,339.561 303.175 C 340.793 302.171,343.217 300.395,344.949 299.229 C 346.681 298.063,348.481 296.787,348.949 296.394 C 349.417 296.000,351.150 294.601,352.800 293.285 C 356.128 290.631,359.767 287.456,363.400 284.038 C 365.852 281.731,367.083 280.696,369.837 278.625 C 378.482 272.126,379.890 267.184,377.008 253.449 C 376.283 249.997,376.197 247.841,376.343 236.800 C 376.418 231.060,376.301 228.929,375.820 227.300 C 375.479 226.145,374.919 224.255,374.576 223.100 C 372.654 216.636,372.591 215.571,373.432 203.800 C 373.623 201.116,373.531 199.640,373.069 198.000 C 369.812 186.430,369.394 183.611,369.745 175.604 C 369.984 170.150,369.842 168.181,368.818 162.800 C 367.345 155.057,367.177 152.896,367.254 142.623 C 367.324 133.138,367.251 131.840,366.440 128.200 C 365.718 124.957,365.485 122.193,365.208 113.600 C 364.950 105.598,364.705 102.510,364.210 101.000 C 363.082 97.559,362.080 91.969,361.799 87.548 C 361.374 80.841,358.792 78.264,353.800 79.559 M22.217 128.292 C 17.927 129.381,17.425 132.964,20.529 140.340 C 21.700 143.123,23.038 147.110,23.503 149.200 C 23.968 151.290,24.746 154.800,25.232 157.000 C 25.718 159.200,26.640 162.710,27.282 164.800 C 28.373 168.351,28.792 170.093,30.799 179.411 C 31.227 181.398,31.948 184.185,32.402 185.606 C 32.856 187.026,33.507 189.271,33.850 190.594 C 34.193 191.917,34.895 194.260,35.411 195.800 C 35.926 197.340,37.074 201.407,37.961 204.839 C 38.848 208.270,39.773 211.600,40.016 212.239 C 40.259 212.877,40.883 215.110,41.402 217.200 C 42.891 223.195,43.556 225.556,44.778 229.200 C 46.177 233.369,48.819 241.824,50.152 246.400 C 50.696 248.270,51.595 251.330,52.149 253.200 C 53.103 256.421,54.884 263.737,55.996 269.000 C 56.988 273.694,57.638 276.043,59.563 281.885 C 61.466 287.659,62.499 291.513,63.774 297.600 C 65.559 306.122,65.705 306.379,71.600 311.366 C 78.081 316.848,90.034 325.200,91.400 325.200 C 91.659 325.200,99.404 329.723,101.000 330.807 C 101.880 331.405,104.760 333.026,107.400 334.411 C 110.040 335.795,112.290 337.048,112.400 337.194 C 112.978 337.963,118.090 341.029,123.361 343.769 C 126.639 345.474,131.409 348.262,133.961 349.965 C 138.503 352.997,141.397 354.525,146.183 356.418 C 147.493 356.936,149.562 358.172,150.780 359.164 C 153.499 361.378,156.675 363.326,161.594 365.797 C 163.659 366.834,167.264 368.833,169.605 370.238 C 171.946 371.644,175.290 373.310,177.036 373.941 C 181.846 375.678,184.231 377.025,187.071 379.609 C 192.986 384.992,197.515 387.211,202.837 387.333 C 208.287 387.458,209.930 382.719,207.043 375.200 C 204.508 368.600,204.054 367.109,203.270 362.800 C 202.810 360.270,202.229 356.044,201.980 353.409 C 201.458 347.897,200.948 345.051,199.058 337.109 C 198.311 333.969,197.470 330.320,197.189 329.000 C 196.909 327.680,195.830 323.090,194.792 318.800 C 192.522 309.418,192.114 307.229,191.804 302.800 C 191.242 294.766,190.409 289.889,188.217 281.800 C 186.521 275.543,186.181 274.122,185.630 271.000 C 184.870 266.687,183.224 258.257,182.623 255.600 C 182.300 254.170,181.666 251.110,181.215 248.800 C 180.763 246.490,180.201 243.610,179.964 242.400 C 179.377 239.391,177.232 230.428,176.806 229.200 C 176.615 228.650,175.978 226.040,175.390 223.400 C 174.802 220.760,173.701 216.046,172.943 212.924 C 172.185 209.802,171.303 205.392,170.983 203.124 C 168.274 183.929,164.405 179.129,146.800 173.123 C 144.270 172.260,139.500 170.415,136.200 169.023 C 128.482 165.768,121.340 162.957,117.800 161.781 C 113.349 160.304,104.676 157.235,103.800 156.828 C 103.015 156.464,101.437 155.885,92.600 152.722 C 88.652 151.309,85.752 150.360,81.646 149.136 C 79.619 148.532,73.543 146.180,70.980 145.008 C 68.862 144.039,65.814 143.004,58.200 140.669 C 56.440 140.129,53.576 139.118,51.835 138.422 C 50.094 137.726,46.852 136.555,44.630 135.819 C 42.408 135.084,38.253 133.313,35.395 131.885 C 28.979 128.678,24.984 127.589,22.217 128.292 M388.995 129.507 C 388.745 129.688,388.933 130.136,389.486 130.677 C 389.979 131.159,390.487 131.384,390.615 131.177 C 390.743 130.969,390.677 130.800,390.468 130.800 C 390.260 130.800,390.114 130.504,390.144 130.143 C 390.207 129.400,389.603 129.066,388.995 129.507 M37.200 271.624 C 37.200 271.857,37.411 271.917,37.668 271.758 C 37.985 271.562,38.051 271.689,37.873 272.155 C 37.716 272.563,37.770 272.742,38.005 272.597 C 38.222 272.463,38.400 272.513,38.400 272.710 C 38.400 272.906,38.660 273.067,38.978 273.067 C 39.395 273.067,39.312 272.809,38.678 272.140 C 37.728 271.138,37.200 270.953,37.200 271.624 M52.993 324.811 C 52.624 325.408,53.658 326.463,54.242 326.086 C 54.543 325.891,54.461 325.569,53.982 325.073 C 53.484 324.556,53.198 324.480,52.993 324.811 M120.400 367.200 C 120.907 367.640,121.413 368.000,121.523 368.000 C 121.634 368.000,121.398 367.640,121.000 367.200 C 120.602 366.760,120.096 366.400,119.877 366.400 C 119.657 366.400,119.893 366.760,120.400 367.200 M136.400 376.400 C 136.400 376.620,136.591 376.800,136.824 376.800 C 137.057 376.800,137.155 376.950,137.041 377.133 C 136.928 377.317,137.080 377.467,137.379 377.467 C 137.807 377.467,137.825 377.310,137.466 376.733 C 136.968 375.937,136.400 375.759,136.400 376.400 M198.121 411.728 C 197.973 411.968,198.086 411.994,198.406 411.796 C 198.782 411.564,198.867 411.647,198.700 412.085 C 198.545 412.487,198.802 412.855,199.444 413.147 C 200.381 413.574,200.403 413.554,199.928 412.697 C 199.654 412.204,199.458 411.695,199.493 411.567 C 199.600 411.167,198.378 411.311,198.121 411.728 " stroke="none" fill="#160904" fill-rule="evenodd"></path></g></svg>