<svg id="svg" version="1.1" xmlns="http://www.w3.org/2000/svg" xmlns:xlink="http://www.w3.org/1999/xlink" width="400" height="409.9378881987578" viewBox="0, 0, 400,409.9378881987578"><g id="svgg"><path id="path0" d="M177.600 7.600 L 177.600 8.800 175.200 8.800 L 172.800 8.800 172.800 10.000 L 172.800 11.200 169.000 11.200 L 165.200 11.200 165.200 12.400 L 165.200 13.600 162.800 13.600 C 160.409 13.600,160.400 13.604,160.400 14.781 C 160.400 15.950,160.375 15.963,157.900 16.081 C 155.400 16.200,155.400 16.200,155.275 17.500 L 155.149 18.800 152.775 18.800 C 150.403 18.800,150.400 18.801,150.400 20.000 L 150.400 21.200 146.600 21.200 L 142.800 21.200 142.800 22.400 L 142.800 23.600 140.400 23.600 C 138.009 23.600,138.000 23.604,138.000 24.781 C 138.000 25.950,137.975 25.963,135.500 26.081 C 133.116 26.194,132.994 26.250,132.875 27.281 C 132.758 28.297,132.615 28.369,130.475 28.481 C 128.236 28.598,128.198 28.620,128.076 29.882 C 127.953 31.157,127.941 31.164,125.476 31.282 C 123.106 31.395,122.995 31.447,122.873 32.500 L 122.747 33.600 119.173 33.600 L 115.600 33.600 115.600 34.781 C 115.600 35.950,115.575 35.963,113.100 36.081 C 110.704 36.195,110.595 36.246,110.473 37.300 C 110.351 38.362,110.265 38.400,107.973 38.400 C 105.603 38.400,105.600 38.401,105.600 39.600 L 105.600 40.800 103.200 40.800 L 100.800 40.800 100.800 42.200 L 100.800 43.600 97.000 43.600 L 93.200 43.600 93.200 44.800 L 93.200 46.000 90.800 46.000 L 88.400 46.000 88.400 47.200 L 88.400 48.400 85.800 48.400 L 83.200 48.400 83.200 49.600 L 83.200 50.800 80.800 50.800 C 78.407 50.800,78.400 50.803,78.400 51.985 L 78.400 53.170 74.700 53.285 L 71.000 53.400 70.875 54.700 L 70.749 56.000 68.375 56.000 C 66.003 56.000,66.000 56.001,66.000 57.200 L 66.000 58.400 63.400 58.400 L 60.800 58.400 60.800 59.600 L 60.800 60.800 58.400 60.800 C 56.009 60.800,56.000 60.804,56.000 61.981 C 56.000 63.150,55.975 63.163,53.500 63.281 C 51.113 63.395,50.994 63.449,50.875 64.485 C 50.751 65.561,50.724 65.570,47.275 65.685 L 43.800 65.800 43.675 67.100 L 43.549 68.400 40.975 68.400 L 38.400 68.400 38.400 69.600 L 38.400 70.800 36.000 70.800 C 33.609 70.800,33.600 70.804,33.600 71.981 C 33.600 73.150,33.575 73.163,31.100 73.281 C 28.704 73.395,28.595 73.446,28.473 74.500 L 28.347 75.600 24.773 75.600 L 21.200 75.600 21.200 77.000 L 21.200 78.400 18.600 78.400 L 16.000 78.400 16.000 79.600 L 16.000 80.800 13.600 80.800 L 11.200 80.800 11.200 83.200 L 11.200 85.600 10.000 85.600 L 8.800 85.600 8.800 89.400 L 8.800 93.200 7.600 93.200 L 6.400 93.200 6.400 111.800 L 6.400 130.400 7.600 130.400 L 8.800 130.400 8.800 144.000 L 8.800 157.600 10.000 157.600 L 11.200 157.600 11.200 165.000 L 11.200 172.400 12.400 172.400 L 13.600 172.400 13.600 176.200 L 13.600 180.000 14.800 180.000 L 16.000 180.000 16.046 183.100 C 16.072 184.805,16.175 185.885,16.276 185.500 C 16.673 183.980,18.800 184.610,18.800 186.247 C 18.800 187.480,18.686 187.663,18.026 187.491 C 17.563 187.370,17.160 187.526,17.025 187.880 C 16.714 188.691,17.158 189.302,17.861 189.032 C 18.185 188.907,18.334 188.984,18.197 189.205 C 18.063 189.422,18.143 189.600,18.376 189.600 C 18.645 189.600,18.800 190.992,18.800 193.400 L 18.800 197.200 20.000 197.200 L 21.200 197.200 21.200 201.000 L 21.200 204.800 22.400 204.800 L 23.600 204.800 23.600 208.600 L 23.600 212.400 25.000 212.400 C 25.978 212.400,26.400 212.581,26.400 213.000 C 26.400 213.398,26.798 213.600,27.580 213.600 C 29.327 213.600,29.518 214.356,28.922 218.920 C 28.628 221.164,28.436 224.980,28.494 227.400 L 28.600 231.800 29.900 231.925 L 31.200 232.051 31.200 235.825 L 31.200 239.600 32.385 239.600 L 33.570 239.600 33.685 243.300 L 33.800 247.000 34.900 247.127 C 35.944 247.247,36.000 247.360,36.000 249.346 L 36.000 251.439 37.343 251.283 C 38.974 251.092,39.204 251.535,38.814 254.109 C 38.476 256.333,38.226 256.685,37.445 256.038 C 37.001 255.669,36.804 255.670,36.574 256.042 C 36.385 256.347,36.445 256.419,36.738 256.238 C 36.992 256.081,37.200 256.143,37.200 256.376 C 37.200 256.609,37.463 256.800,37.785 256.800 C 38.248 256.800,38.394 257.572,38.485 260.500 L 38.600 264.200 39.700 264.327 L 40.800 264.453 40.800 268.177 C 40.800 273.536,41.029 274.400,42.450 274.400 L 43.600 274.400 43.600 278.000 L 43.600 281.600 44.800 281.600 L 46.000 281.600 46.000 285.400 L 46.000 289.200 47.200 289.200 L 48.400 289.200 48.400 294.200 L 48.400 299.200 49.600 299.200 C 50.667 299.200,50.800 299.333,50.800 300.400 C 50.800 301.505,50.911 301.600,52.200 301.600 L 53.600 301.600 53.600 304.000 L 53.600 306.400 54.800 306.400 L 56.000 306.400 56.000 309.000 L 56.000 311.600 57.200 311.600 C 58.267 311.600,58.400 311.733,58.400 312.800 L 58.400 314.000 60.800 314.000 L 63.200 314.000 63.200 315.200 C 63.200 316.305,63.311 316.400,64.600 316.400 C 65.889 316.400,66.000 316.495,66.000 317.600 L 66.000 318.800 68.400 318.800 L 70.800 318.800 70.800 320.200 L 70.800 321.600 73.150 321.600 C 75.441 321.600,75.506 321.630,75.740 322.800 C 75.943 323.816,76.166 324.000,77.190 324.000 C 78.268 324.000,78.400 324.131,78.400 325.200 L 78.400 326.400 80.800 326.400 L 83.200 326.400 83.200 327.600 L 83.200 328.800 85.800 328.800 L 88.400 328.800 88.400 330.200 L 88.400 331.600 90.800 331.600 L 93.200 331.600 93.200 332.800 C 93.200 333.867,93.333 334.000,94.400 334.000 C 95.467 334.000,95.600 334.133,95.600 335.200 L 95.600 336.400 98.200 336.400 L 100.800 336.400 100.800 337.600 L 100.800 338.800 103.200 338.800 L 105.600 338.800 105.600 340.000 C 105.600 341.061,105.736 341.200,106.775 341.200 C 107.808 341.200,107.964 341.357,108.075 342.500 C 108.200 343.800,108.200 343.800,110.700 343.919 C 113.175 344.037,113.200 344.050,113.200 345.219 C 113.200 346.396,113.209 346.400,115.600 346.400 L 118.000 346.400 118.000 347.600 C 118.000 348.762,119.238 349.216,121.349 348.831 C 121.541 348.796,121.597 349.031,121.473 349.354 C 121.207 350.048,122.181 350.983,122.782 350.611 C 123.012 350.469,123.200 350.543,123.200 350.776 C 123.200 351.009,123.740 351.200,124.400 351.200 C 125.467 351.200,125.600 351.333,125.600 352.400 C 125.600 353.599,125.603 353.600,127.975 353.600 L 130.349 353.600 130.475 354.900 C 130.578 355.975,130.786 356.221,131.676 356.324 C 132.507 356.420,132.780 356.693,132.876 357.524 C 132.994 358.549,133.119 358.606,135.500 358.719 C 137.975 358.837,138.000 358.850,138.000 360.019 C 138.000 361.196,138.009 361.200,140.400 361.200 L 142.800 361.200 142.800 362.400 C 142.800 363.467,142.933 363.600,144.000 363.600 C 145.067 363.600,145.200 363.733,145.200 364.800 L 145.200 366.000 147.775 366.000 L 150.349 366.000 150.475 367.300 C 150.599 368.585,150.626 368.601,152.900 368.720 C 155.153 368.837,155.200 368.864,155.200 370.020 L 155.200 371.200 157.800 371.200 L 160.400 371.200 160.400 372.400 C 160.400 373.467,160.533 373.600,161.600 373.600 C 162.667 373.600,162.800 373.733,162.800 374.800 L 162.800 376.000 165.200 376.000 L 167.600 376.000 167.600 377.200 L 167.600 378.400 170.200 378.400 L 172.800 378.400 172.800 379.800 C 172.800 381.089,172.895 381.200,174.000 381.200 C 175.067 381.200,175.200 381.333,175.200 382.400 L 175.200 383.600 177.600 383.600 L 180.000 383.600 180.000 384.800 L 180.000 386.000 182.600 386.000 L 185.200 386.000 185.200 387.200 C 185.200 388.267,185.333 388.400,186.400 388.400 C 187.467 388.400,187.600 388.533,187.600 389.600 L 187.600 390.800 191.400 390.800 L 195.200 390.800 195.200 392.200 C 195.200 393.489,195.295 393.600,196.400 393.600 C 197.467 393.600,197.600 393.733,197.600 394.800 C 197.600 395.867,197.733 396.000,198.800 396.000 C 199.867 396.000,200.000 396.133,200.000 397.200 C 200.000 398.399,200.003 398.400,202.373 398.400 C 204.665 398.400,204.751 398.438,204.873 399.500 L 205.000 400.600 214.900 400.707 L 224.800 400.814 224.800 399.607 L 224.800 398.400 227.400 398.400 L 230.000 398.400 230.000 397.200 L 230.000 396.000 232.400 396.000 L 234.800 396.000 234.800 394.800 C 234.800 393.787,234.956 393.600,235.800 393.600 C 236.350 393.600,236.800 393.758,236.800 393.951 C 236.800 394.516,235.756 395.220,235.399 394.897 C 235.219 394.733,235.201 394.825,235.359 395.100 C 235.792 395.852,236.207 395.708,236.800 394.600 C 237.177 393.895,237.669 393.600,238.468 393.600 C 239.495 393.600,239.600 393.470,239.600 392.200 L 239.600 390.800 243.400 390.800 L 247.200 390.800 247.200 389.600 C 247.200 388.533,247.333 388.400,248.400 388.400 C 249.467 388.400,249.600 388.267,249.600 387.200 C 249.600 386.133,249.733 386.000,250.800 386.000 C 251.861 386.000,252.000 385.864,252.000 384.825 C 252.000 383.792,252.157 383.636,253.300 383.525 C 254.375 383.422,254.621 383.214,254.724 382.324 C 254.820 381.493,255.093 381.220,255.924 381.124 C 256.814 381.021,257.022 380.775,257.125 379.700 L 257.251 378.400 259.625 378.400 C 261.997 378.400,262.000 378.399,262.000 377.200 C 262.000 376.133,262.133 376.000,263.200 376.000 C 264.267 376.000,264.400 375.867,264.400 374.800 C 264.400 373.695,264.511 373.600,265.800 373.600 C 267.089 373.600,267.200 373.505,267.200 372.400 C 267.200 371.333,267.333 371.200,268.400 371.200 C 269.467 371.200,269.600 371.067,269.600 370.000 C 269.600 368.933,269.733 368.800,270.800 368.800 C 271.905 368.800,272.000 368.689,272.000 367.400 C 272.000 366.011,272.014 366.000,273.771 366.000 C 276.328 366.000,277.001 365.188,276.815 362.329 C 276.757 361.432,276.928 361.237,277.873 361.129 C 278.819 361.021,279.020 360.792,279.125 359.700 C 279.228 358.634,279.422 358.400,280.199 358.400 C 280.933 358.400,281.175 358.155,281.273 357.309 C 281.353 356.622,281.770 356.035,282.400 355.723 C 282.950 355.451,283.499 354.817,283.619 354.314 C 283.832 353.424,283.945 353.404,287.919 353.544 L 292.000 353.688 292.000 352.444 C 292.000 351.328,292.124 351.200,293.200 351.200 C 294.267 351.200,294.400 351.067,294.400 350.000 C 294.400 348.933,294.533 348.800,295.600 348.800 C 296.667 348.800,296.800 348.667,296.800 347.600 C 296.800 346.533,296.933 346.400,298.000 346.400 C 299.062 346.400,299.200 346.265,299.200 345.219 C 299.200 344.050,299.225 344.037,301.700 343.919 C 304.200 343.800,304.200 343.800,304.325 342.500 C 304.436 341.357,304.592 341.200,305.625 341.200 C 306.664 341.200,306.800 341.061,306.800 340.000 C 306.800 338.933,306.933 338.800,308.000 338.800 C 309.067 338.800,309.200 338.667,309.200 337.600 C 309.200 336.495,309.311 336.400,310.600 336.400 C 311.882 336.400,312.000 336.301,312.000 335.227 C 312.000 334.244,312.179 334.033,313.100 333.927 C 313.964 333.827,314.227 333.564,314.327 332.700 C 314.449 331.638,314.535 331.600,316.827 331.600 L 319.200 331.600 319.200 330.200 C 319.200 328.911,319.295 328.800,320.400 328.800 C 321.467 328.800,321.600 328.667,321.600 327.600 C 321.600 326.495,321.711 326.400,323.000 326.400 C 324.289 326.400,324.400 326.305,324.400 325.200 C 324.400 324.133,324.533 324.000,325.600 324.000 C 326.667 324.000,326.800 323.867,326.800 322.800 L 326.800 321.600 329.200 321.600 L 331.600 321.600 331.600 320.200 C 331.600 318.911,331.695 318.800,332.800 318.800 C 333.867 318.800,334.000 318.667,334.000 317.600 C 334.000 316.495,334.111 316.400,335.400 316.400 C 336.689 316.400,336.800 316.305,336.800 315.200 C 336.800 314.133,336.933 314.000,338.000 314.000 C 339.067 314.000,339.200 313.867,339.200 312.800 C 339.200 311.733,339.333 311.600,340.400 311.600 C 341.467 311.600,341.600 311.467,341.600 310.400 L 341.600 309.200 344.000 309.200 L 346.400 309.200 346.400 307.800 C 346.400 306.467,346.467 306.400,347.800 306.400 C 349.089 306.400,349.200 306.305,349.200 305.200 C 349.200 304.133,349.333 304.000,350.400 304.000 C 351.467 304.000,351.600 303.867,351.600 302.800 C 351.600 301.733,351.733 301.600,352.800 301.600 C 353.867 301.600,354.000 301.467,354.000 300.400 C 354.000 299.333,354.133 299.200,355.200 299.200 C 356.262 299.200,356.400 299.065,356.400 298.019 C 356.400 296.850,356.425 296.837,358.900 296.719 C 361.400 296.600,361.400 296.600,361.525 295.300 C 361.636 294.157,361.792 294.000,362.825 294.000 C 363.864 294.000,364.000 293.861,364.000 292.800 C 364.000 291.733,364.133 291.600,365.200 291.600 C 366.267 291.600,366.400 291.467,366.400 290.400 C 366.400 289.333,366.533 289.200,367.600 289.200 C 368.661 289.200,368.800 289.064,368.800 288.025 C 368.800 286.992,368.957 286.836,370.100 286.725 C 371.183 286.621,371.421 286.417,371.527 285.500 C 371.649 284.438,371.735 284.400,374.027 284.400 L 376.400 284.400 376.400 283.000 C 376.400 281.711,376.495 281.600,377.600 281.600 C 378.667 281.600,378.800 281.467,378.800 280.400 C 378.800 279.333,378.933 279.200,380.000 279.200 C 381.067 279.200,381.200 279.067,381.200 278.000 C 381.200 276.895,381.311 276.800,382.600 276.800 C 383.889 276.800,384.000 276.705,384.000 275.600 C 384.000 274.533,384.133 274.400,385.200 274.400 C 386.267 274.400,386.400 274.267,386.400 273.200 L 386.400 272.000 388.800 272.000 L 391.200 272.000 391.200 260.800 L 391.200 249.600 390.000 249.600 L 388.800 249.600 388.800 233.400 L 388.800 217.200 387.600 217.200 L 386.400 217.200 386.400 199.800 L 386.400 182.400 385.200 182.400 L 384.000 182.400 384.000 169.000 L 384.000 155.600 382.600 155.600 L 381.200 155.600 381.200 138.200 L 381.200 120.800 380.000 120.800 L 378.800 120.800 378.800 102.000 L 378.800 83.200 377.600 83.200 L 376.400 83.200 376.400 69.600 L 376.400 56.000 375.225 56.000 C 374.192 56.000,374.036 55.843,373.925 54.700 C 373.822 53.625,373.614 53.379,372.724 53.276 C 371.893 53.180,371.620 52.907,371.524 52.076 C 371.421 51.186,371.175 50.978,370.100 50.875 C 368.957 50.764,368.800 50.608,368.800 49.575 C 368.800 48.536,368.661 48.400,367.600 48.400 C 366.533 48.400,366.400 48.267,366.400 47.200 C 366.400 46.133,366.267 46.000,365.200 46.000 C 364.133 46.000,364.000 45.867,364.000 44.800 C 364.000 43.739,363.864 43.600,362.825 43.600 C 361.792 43.600,361.636 43.443,361.525 42.300 C 361.422 41.225,361.214 40.979,360.324 40.876 C 359.493 40.780,359.220 40.507,359.124 39.676 C 359.021 38.786,358.775 38.578,357.700 38.475 C 356.557 38.364,356.400 38.208,356.400 37.175 C 356.400 36.136,356.261 36.000,355.200 36.000 C 354.133 36.000,354.000 35.867,354.000 34.800 C 354.000 33.733,353.867 33.600,352.800 33.600 C 351.733 33.600,351.600 33.467,351.600 32.400 L 351.600 31.200 345.425 31.200 L 339.251 31.200 339.125 29.900 L 339.000 28.600 334.379 28.488 L 329.758 28.376 329.928 29.834 C 330.120 31.477,329.638 31.984,327.874 31.994 C 326.005 32.004,325.200 31.338,325.200 29.782 L 325.200 28.393 322.900 28.696 C 321.635 28.863,319.610 29.000,318.400 29.000 L 316.200 29.000 316.000 27.600 L 315.800 26.200 312.500 26.084 L 309.200 25.968 309.200 24.784 L 309.200 23.600 301.800 23.600 L 294.400 23.600 294.400 22.400 L 294.400 21.200 287.000 21.200 L 279.600 21.200 279.600 20.000 L 279.600 18.800 270.825 18.800 L 262.051 18.800 261.925 17.500 L 261.800 16.200 256.900 16.088 L 252.000 15.975 252.000 14.788 L 252.000 13.600 244.600 13.600 L 237.200 13.600 237.200 12.400 L 237.200 11.200 229.800 11.200 L 222.400 11.200 222.400 10.000 L 222.400 8.800 215.000 8.800 L 207.600 8.800 207.600 7.600 L 207.600 6.400 192.600 6.400 L 177.600 6.400 177.600 7.600 M199.350 20.424 C 200.295 20.931,202.298 21.406,204.544 21.658 C 206.777 21.908,208.589 22.337,209.200 22.761 C 210.809 23.876,211.559 24.056,216.200 24.439 C 219.527 24.713,220.858 24.992,221.658 25.582 C 222.502 26.204,223.680 26.419,227.458 26.639 C 231.319 26.864,232.542 27.092,234.041 27.869 C 235.445 28.596,237.012 28.926,240.641 29.259 C 243.480 29.520,246.046 29.986,247.000 30.415 C 247.880 30.810,250.580 31.347,253.000 31.609 C 256.005 31.933,258.034 32.383,259.400 33.028 C 260.871 33.723,262.406 34.036,265.200 34.211 C 270.079 34.517,270.618 34.638,271.557 35.646 C 272.243 36.382,272.940 36.508,277.408 36.701 C 281.933 36.896,282.599 37.019,283.570 37.836 C 284.276 38.430,285.632 38.913,287.429 39.211 C 288.953 39.463,290.708 40.029,291.330 40.469 C 292.592 41.362,297.362 41.971,303.240 41.989 C 306.541 42.000,309.200 42.534,309.200 43.188 C 309.200 43.704,312.272 44.071,318.871 44.346 C 324.489 44.580,325.239 44.695,326.071 45.453 C 326.820 46.135,327.734 46.351,330.792 46.571 C 335.829 46.932,336.128 47.202,335.917 51.196 L 335.759 54.200 333.055 57.066 C 331.378 58.845,329.724 60.183,328.699 60.594 C 327.790 60.957,326.586 61.569,326.023 61.953 C 325.460 62.337,324.235 62.893,323.300 63.189 C 322.365 63.486,321.600 63.846,321.600 63.990 C 321.600 64.289,318.976 65.600,318.377 65.600 C 318.159 65.600,317.065 66.230,315.945 67.000 C 314.826 67.770,313.754 68.400,313.563 68.400 C 313.171 68.400,309.525 70.743,308.000 71.975 C 307.450 72.419,306.793 72.786,306.540 72.791 C 306.287 72.796,305.122 73.520,303.951 74.400 C 302.780 75.280,301.684 76.000,301.515 76.000 C 301.346 76.000,299.901 76.840,298.304 77.866 C 296.707 78.892,293.690 80.629,291.600 81.726 C 289.510 82.823,286.578 84.600,285.085 85.676 C 283.591 86.751,281.881 87.841,281.285 88.098 C 280.688 88.355,279.480 89.039,278.600 89.617 C 277.720 90.196,275.965 91.170,274.700 91.782 C 273.435 92.393,272.400 93.033,272.400 93.204 C 272.400 93.374,271.919 93.634,271.332 93.781 C 270.744 93.929,269.029 94.848,267.519 95.825 C 266.010 96.801,264.556 97.613,264.288 97.629 C 264.019 97.645,263.322 97.960,262.739 98.329 C 262.155 98.698,260.499 99.679,259.059 100.508 C 257.619 101.338,256.207 102.244,255.920 102.523 C 255.127 103.296,251.785 105.227,245.491 108.549 C 241.662 110.570,239.066 112.073,238.348 112.683 C 237.989 112.988,237.089 113.564,236.348 113.964 C 235.606 114.363,232.312 116.155,229.027 117.945 C 225.742 119.735,222.921 121.200,222.758 121.200 C 222.595 121.200,221.939 121.639,221.301 122.176 C 220.250 123.061,218.712 123.877,209.871 128.241 C 208.369 128.982,205.669 130.645,203.871 131.937 C 201.059 133.956,193.627 137.897,190.105 139.236 C 189.503 139.465,188.288 140.184,187.405 140.834 C 184.428 143.027,178.217 146.908,177.205 147.209 C 176.652 147.373,174.800 148.068,173.090 148.754 C 171.379 149.439,169.472 150.000,168.852 150.000 C 168.231 150.000,167.398 150.360,167.000 150.800 C 166.093 151.802,164.791 151.822,163.554 150.852 C 163.029 150.441,161.970 149.968,161.200 149.801 C 160.430 149.634,158.988 149.074,157.995 148.556 C 157.002 148.039,155.274 147.442,154.154 147.229 C 153.035 147.017,151.507 146.487,150.760 146.052 C 150.012 145.617,148.361 145.073,147.092 144.842 C 145.822 144.612,144.007 143.969,143.057 143.412 C 142.107 142.855,141.073 142.400,140.759 142.400 C 140.445 142.400,139.471 142.015,138.594 141.544 C 137.717 141.074,135.830 140.356,134.400 139.951 C 132.970 139.545,131.440 139.038,131.000 138.825 C 130.560 138.612,129.030 138.084,127.600 137.652 C 126.170 137.220,124.010 136.429,122.800 135.893 C 121.590 135.358,119.923 134.813,119.096 134.684 C 118.269 134.555,117.099 134.103,116.496 133.680 C 115.893 133.257,114.680 132.686,113.800 132.411 C 112.920 132.136,111.840 131.698,111.400 131.437 C 110.041 130.632,105.621 128.976,100.600 127.391 C 97.960 126.557,93.937 125.171,91.660 124.310 C 89.383 123.449,86.593 122.592,85.460 122.405 C 83.037 122.006,81.381 121.417,81.015 120.825 C 80.871 120.591,80.465 120.400,80.113 120.400 C 79.538 120.400,76.760 119.157,71.600 116.591 C 70.610 116.098,68.810 115.461,67.600 115.176 C 66.390 114.890,64.827 114.238,64.127 113.728 C 63.426 113.218,62.542 112.800,62.162 112.800 C 61.781 112.800,60.734 112.374,59.835 111.853 C 58.936 111.333,57.210 110.688,56.000 110.420 C 54.790 110.153,52.900 109.497,51.800 108.962 C 50.700 108.428,48.810 107.790,47.600 107.545 C 46.390 107.300,44.888 106.738,44.263 106.296 C 43.638 105.854,41.856 105.251,40.304 104.955 C 38.752 104.660,37.191 104.154,36.835 103.832 C 35.987 103.064,33.126 102.422,30.501 102.410 C 27.837 102.397,24.035 99.038,24.879 97.442 C 25.912 95.490,30.286 91.241,31.586 90.928 C 32.144 90.793,33.050 90.377,33.600 90.003 C 35.389 88.787,40.542 86.490,43.000 85.813 C 44.320 85.450,46.030 84.823,46.800 84.420 C 47.570 84.017,48.761 83.568,49.446 83.424 C 50.131 83.279,51.075 82.803,51.543 82.367 C 52.011 81.931,53.161 81.221,54.097 80.790 C 55.034 80.358,56.610 79.371,57.600 78.597 C 59.500 77.110,61.606 76.000,62.525 76.000 C 62.828 76.000,63.556 75.587,64.144 75.082 C 64.731 74.577,66.416 73.843,67.888 73.451 C 69.359 73.059,71.022 72.424,71.582 72.039 C 72.142 71.654,73.230 71.090,74.000 70.784 C 75.333 70.255,78.776 68.134,79.200 67.581 C 79.677 66.958,81.253 66.400,82.533 66.400 C 83.295 66.400,84.896 65.886,86.091 65.257 C 87.286 64.629,88.949 63.986,89.787 63.829 C 90.625 63.672,92.522 62.926,94.002 62.171 C 95.482 61.417,96.909 60.800,97.173 60.800 C 97.437 60.800,98.226 60.379,98.927 59.864 C 99.627 59.349,100.830 58.689,101.600 58.398 C 102.370 58.107,103.270 57.659,103.600 57.403 C 103.930 57.147,106.632 55.753,109.605 54.305 C 112.578 52.856,115.626 51.133,116.380 50.475 C 117.144 49.808,118.426 49.170,119.275 49.034 C 120.114 48.900,120.800 48.604,120.800 48.376 C 120.800 47.813,123.949 46.420,125.244 46.409 C 125.818 46.404,127.299 45.860,128.536 45.200 C 129.773 44.540,131.103 43.997,131.492 43.993 C 131.882 43.989,132.992 43.449,133.960 42.793 C 134.928 42.137,136.090 41.600,136.542 41.600 C 136.995 41.600,138.722 40.987,140.382 40.238 C 142.042 39.489,143.985 38.657,144.700 38.389 C 145.415 38.122,146.000 37.767,146.000 37.600 C 146.000 37.433,146.585 37.069,147.300 36.789 C 148.966 36.138,152.311 34.115,153.600 32.978 C 154.150 32.493,155.320 31.873,156.200 31.599 C 157.080 31.325,158.160 30.782,158.600 30.391 C 159.040 30.000,160.493 29.404,161.829 29.066 C 163.165 28.729,165.127 27.991,166.189 27.426 C 167.250 26.862,168.514 26.400,168.998 26.400 C 169.481 26.400,170.196 26.047,170.586 25.615 C 170.977 25.183,171.950 24.623,172.748 24.369 C 173.547 24.116,175.010 23.411,176.000 22.803 C 176.990 22.195,178.661 21.589,179.712 21.455 C 180.764 21.321,182.384 20.856,183.312 20.421 C 185.883 19.215,197.098 19.218,199.350 20.424 M322.000 26.284 C 322.330 26.405,322.915 26.779,323.300 27.114 C 323.928 27.661,324.000 27.660,324.000 27.109 C 324.000 26.770,323.595 26.385,323.100 26.252 C 321.996 25.956,321.174 25.980,322.000 26.284 M350.675 65.332 C 351.112 65.887,352.028 66.365,352.940 66.513 C 355.426 66.916,355.598 67.241,355.615 71.549 C 355.645 79.363,356.254 85.431,357.131 86.664 C 357.914 87.764,357.950 88.626,358.270 113.800 L 358.600 139.800 359.582 141.110 C 360.556 142.408,360.567 142.515,360.802 153.710 L 361.039 165.000 362.120 166.158 C 363.177 167.292,363.200 167.427,363.200 172.425 L 363.200 177.533 364.300 178.334 L 365.400 179.135 365.647 195.324 L 365.894 211.514 366.947 212.895 L 368.000 214.276 368.000 222.863 C 368.000 232.402,368.910 243.753,369.813 245.485 C 370.652 247.092,370.550 249.950,369.599 251.510 C 369.159 252.230,368.799 253.310,368.798 253.910 C 368.793 256.467,368.012 257.846,364.824 260.928 C 363.076 262.617,361.369 264.000,361.032 264.000 C 360.269 264.000,355.026 268.455,349.870 273.486 C 348.694 274.633,346.937 275.916,345.966 276.337 C 344.995 276.758,343.829 277.530,343.376 278.051 C 342.923 278.573,340.780 280.620,338.613 282.600 C 336.447 284.580,333.488 287.323,332.037 288.696 C 330.497 290.154,329.043 291.194,328.541 291.196 C 327.725 291.200,327.031 291.691,323.590 294.700 C 322.772 295.415,321.855 296.001,321.552 296.001 C 320.597 296.004,318.706 297.392,315.404 300.516 C 313.509 302.308,311.741 303.632,311.061 303.768 C 309.777 304.025,308.443 305.045,304.613 308.700 C 303.013 310.227,301.644 311.203,301.097 311.207 C 300.570 311.211,299.127 312.186,297.600 313.570 C 293.266 317.496,289.589 320.941,288.531 322.066 C 287.979 322.653,286.959 323.359,286.264 323.636 C 284.913 324.174,281.307 327.132,277.400 330.907 C 276.080 332.183,274.567 333.337,274.038 333.472 C 273.023 333.731,268.800 336.724,268.800 337.184 C 268.800 337.332,268.055 337.872,267.144 338.383 C 265.573 339.266,262.655 341.681,258.200 345.784 C 257.100 346.798,255.358 348.067,254.330 348.605 C 253.301 349.143,250.674 351.296,248.492 353.390 C 246.310 355.484,243.821 357.713,242.962 358.344 C 242.103 358.975,238.850 362.036,235.732 365.146 L 230.065 370.800 227.606 370.800 C 224.293 370.800,221.172 368.639,218.512 364.501 C 218.123 363.895,217.422 363.091,216.955 362.713 C 216.295 362.178,216.042 361.380,215.820 359.128 C 215.597 356.861,215.338 356.049,214.628 355.391 C 213.748 354.575,213.713 354.258,213.449 344.575 C 213.146 333.445,212.551 327.042,211.697 325.714 C 211.383 325.227,210.893 323.041,210.608 320.858 C 210.257 318.176,209.827 316.516,209.282 315.744 C 208.838 315.115,208.355 313.898,208.208 313.040 C 208.061 312.183,207.577 311.186,207.133 310.826 C 206.197 310.068,205.642 307.632,205.617 304.170 C 205.603 302.107,205.449 301.597,204.600 300.800 C 203.656 299.913,203.600 299.623,203.597 295.630 C 203.593 289.972,202.594 282.078,201.768 281.164 C 201.347 280.699,201.018 279.195,200.799 276.730 C 200.341 271.592,199.971 269.548,199.312 268.532 C 199.003 268.055,198.556 265.813,198.318 263.550 C 197.973 260.263,197.726 259.306,197.093 258.794 C 196.448 258.272,196.230 257.372,195.924 253.976 C 195.603 250.407,195.409 249.654,194.588 248.793 C 193.706 247.867,193.595 247.287,193.216 241.643 C 192.878 236.608,192.654 235.259,191.977 234.163 C 191.335 233.124,191.068 231.728,190.781 227.913 C 190.352 222.208,190.167 221.174,189.184 218.987 C 188.786 218.100,188.331 216.239,188.174 214.851 C 187.973 213.076,187.643 212.099,187.063 211.558 C 186.438 210.976,186.167 210.058,185.950 207.784 C 185.715 205.327,185.494 204.642,184.736 204.029 C 183.743 203.225,183.315 200.125,183.235 193.170 C 183.204 190.514,183.081 190.028,182.241 189.239 C 181.439 188.485,181.201 187.674,180.785 184.277 C 180.429 181.370,180.052 179.896,179.458 179.093 C 178.046 177.184,177.952 168.368,179.315 165.741 C 179.869 164.673,180.561 163.284,180.854 162.653 C 181.187 161.934,182.158 161.111,183.449 160.453 C 184.584 159.874,186.846 158.728,188.476 157.907 C 190.106 157.086,192.150 155.780,193.019 155.006 C 193.889 154.232,195.230 153.391,196.000 153.138 C 196.770 152.886,197.940 152.280,198.600 151.792 C 199.260 151.304,200.329 150.779,200.976 150.626 C 201.622 150.472,202.649 149.992,203.258 149.559 C 203.867 149.125,204.958 148.572,205.682 148.330 C 206.407 148.088,207.540 147.503,208.200 147.031 C 208.860 146.559,209.928 145.943,210.574 145.661 C 211.656 145.190,214.259 143.321,215.535 142.100 C 215.829 141.818,217.089 141.081,218.335 140.462 C 219.581 139.843,220.960 139.131,221.400 138.881 C 223.151 137.885,228.226 135.600,228.687 135.600 C 228.956 135.600,229.947 135.082,230.888 134.448 C 231.830 133.814,233.462 132.812,234.516 132.222 C 235.570 131.631,237.037 130.616,237.777 129.967 C 238.517 129.317,239.725 128.584,240.461 128.338 C 241.197 128.091,242.340 127.490,243.000 127.002 C 243.660 126.514,244.584 125.994,245.054 125.845 C 245.523 125.697,247.233 124.591,248.853 123.388 C 250.472 122.184,252.039 121.200,252.334 121.200 C 252.629 121.200,253.997 120.570,255.373 119.800 C 256.750 119.030,258.141 118.400,258.463 118.400 C 258.785 118.400,259.427 118.048,259.888 117.619 C 260.349 117.189,261.623 116.405,262.718 115.877 C 264.835 114.856,264.921 114.796,267.402 112.662 C 268.284 111.904,269.748 111.083,270.656 110.839 C 271.564 110.594,272.529 110.127,272.800 109.800 C 273.071 109.473,273.968 109.024,274.793 108.802 C 275.618 108.580,276.971 107.859,277.801 107.199 C 278.631 106.540,279.618 106.000,279.995 106.000 C 280.372 106.000,281.382 105.501,282.240 104.892 C 283.098 104.283,284.250 103.582,284.800 103.335 C 285.350 103.087,287.149 101.876,288.799 100.643 C 290.448 99.409,292.036 98.400,292.327 98.400 C 292.618 98.400,293.640 97.861,294.598 97.202 C 295.556 96.542,296.812 95.824,297.389 95.604 C 298.619 95.137,302.462 93.422,304.241 92.548 C 304.923 92.212,306.452 91.142,307.638 90.169 C 308.824 89.196,309.976 88.400,310.199 88.400 C 310.422 88.400,311.909 87.418,313.504 86.218 C 315.099 85.018,317.031 83.863,317.796 83.652 C 318.561 83.441,319.665 82.893,320.248 82.434 C 320.831 81.975,321.623 81.600,322.009 81.600 C 322.395 81.600,323.585 81.000,324.655 80.266 C 325.725 79.532,327.090 78.810,327.689 78.661 C 328.289 78.512,330.066 77.312,331.638 75.995 C 333.211 74.678,334.708 73.600,334.964 73.600 C 335.220 73.600,336.053 73.067,336.815 72.416 C 337.577 71.765,338.353 71.225,338.540 71.216 C 338.726 71.207,339.368 70.705,339.967 70.100 C 342.736 67.298,344.042 66.400,345.344 66.400 C 346.231 66.400,346.967 66.074,347.600 65.400 C 348.773 64.151,349.730 64.130,350.675 65.332 M22.942 114.826 C 23.583 115.330,25.046 115.801,26.696 116.036 C 28.183 116.247,29.940 116.667,30.600 116.969 C 31.807 117.523,39.226 121.212,41.682 122.481 C 42.407 122.855,43.378 123.170,43.840 123.181 C 44.981 123.207,47.266 123.999,48.000 124.623 C 48.330 124.904,49.770 125.339,51.200 125.590 C 55.639 126.370,57.367 126.827,57.995 127.390 C 58.328 127.688,59.925 128.205,61.545 128.538 C 63.301 128.900,64.845 129.478,65.370 129.972 C 65.855 130.427,66.562 130.800,66.942 130.800 C 67.322 130.800,68.788 131.340,70.200 132.000 C 71.612 132.660,72.882 133.200,73.023 133.200 C 73.164 133.200,73.846 133.468,74.540 133.795 C 75.233 134.123,77.060 134.741,78.600 135.169 C 80.140 135.597,82.390 136.293,83.600 136.715 C 84.810 137.138,86.790 137.704,88.000 137.974 C 89.210 138.244,91.100 138.878,92.200 139.384 C 93.300 139.889,94.830 140.535,95.600 140.817 C 96.370 141.100,97.284 141.572,97.631 141.866 C 97.979 142.160,98.401 142.400,98.570 142.400 C 98.739 142.400,100.209 143.032,101.837 143.805 C 103.465 144.577,105.743 145.458,106.899 145.762 C 108.054 146.066,109.450 146.499,110.000 146.724 C 111.115 147.180,113.454 147.754,116.893 148.414 C 118.154 148.656,119.281 149.008,119.398 149.196 C 119.514 149.385,120.552 149.848,121.705 150.226 C 122.857 150.603,124.278 151.247,124.862 151.656 C 125.446 152.065,126.042 152.400,126.187 152.400 C 126.331 152.400,127.383 152.835,128.525 153.367 C 131.651 154.824,133.637 155.600,134.237 155.600 C 134.534 155.600,135.760 156.050,136.963 156.600 C 138.165 157.150,139.252 157.600,139.379 157.600 C 139.505 157.600,140.372 157.947,141.304 158.370 C 142.237 158.794,144.260 159.595,145.800 160.151 C 147.340 160.707,149.500 161.614,150.600 162.168 C 151.700 162.722,152.993 163.181,153.474 163.187 C 155.342 163.214,156.393 163.857,160.276 167.351 C 163.271 170.045,166.795 178.291,166.808 182.631 C 166.812 184.154,166.986 186.480,167.193 187.800 C 167.400 189.120,167.849 191.972,168.191 194.138 C 168.533 196.303,168.964 198.373,169.150 198.738 C 169.336 199.102,169.595 200.091,169.725 200.936 C 169.855 201.781,170.343 202.804,170.809 203.208 C 171.424 203.741,171.775 204.748,172.086 206.872 C 172.374 208.834,172.807 210.150,173.399 210.861 C 174.069 211.665,174.349 212.682,174.557 215.061 C 174.861 218.541,175.405 221.872,176.212 225.200 C 176.505 226.410,176.942 229.290,177.182 231.600 C 177.422 233.910,177.898 236.880,178.239 238.200 C 178.580 239.520,179.144 242.028,179.492 243.774 C 179.840 245.519,180.519 247.529,181.000 248.239 C 181.658 249.207,181.943 250.400,182.144 253.011 C 182.341 255.577,182.629 256.798,183.237 257.652 C 183.859 258.525,184.152 259.823,184.425 262.906 C 184.908 268.369,185.057 269.075,185.997 270.395 C 186.439 271.016,186.800 272.146,186.800 272.907 C 186.800 273.668,186.989 275.260,187.220 276.445 C 187.451 277.630,187.897 280.580,188.210 283.000 C 188.831 287.804,189.726 294.212,190.388 298.600 C 190.620 300.140,191.055 302.030,191.354 302.800 C 191.653 303.570,192.028 305.270,192.187 306.577 C 192.377 308.133,192.809 309.390,193.438 310.215 C 194.133 311.125,194.400 311.988,194.400 313.321 C 194.400 316.044,195.245 321.281,195.832 322.200 C 196.113 322.640,196.547 325.471,196.797 328.492 C 197.271 334.218,197.630 336.072,198.461 337.073 C 198.756 337.429,199.080 339.773,199.264 342.893 C 199.539 347.545,199.683 348.276,200.580 349.571 C 201.217 350.491,201.712 351.940,201.928 353.517 C 202.160 355.211,202.556 356.315,203.167 356.965 C 203.663 357.493,204.165 358.662,204.287 359.575 C 204.437 360.690,204.836 361.485,205.514 362.018 C 206.276 362.618,206.564 363.287,206.709 364.793 C 206.840 366.158,207.103 366.842,207.551 366.984 C 209.114 367.480,209.306 368.755,208.014 370.048 C 207.185 370.876,206.800 371.654,206.800 372.499 C 206.800 375.234,202.578 376.451,200.932 374.191 C 200.441 373.518,199.664 373.101,198.598 372.939 C 197.719 372.805,196.550 372.298,196.000 371.812 C 194.340 370.345,192.650 369.293,190.777 368.559 C 189.047 367.881,186.734 366.170,183.378 363.084 C 182.471 362.251,181.025 361.197,180.165 360.742 C 179.304 360.288,178.240 359.596,177.800 359.205 C 177.360 358.815,175.862 358.300,174.471 358.063 C 173.081 357.825,171.371 357.286,170.671 356.866 C 169.972 356.446,168.880 355.980,168.245 355.830 C 167.610 355.680,165.936 354.578,164.526 353.381 C 163.115 352.185,161.481 351.085,160.895 350.938 C 160.309 350.791,158.862 349.882,157.680 348.919 C 156.497 347.956,154.690 346.742,153.665 346.221 C 148.769 343.735,147.082 342.761,145.713 341.633 C 144.898 340.961,143.594 340.127,142.816 339.780 C 140.729 338.849,138.229 337.500,138.000 337.181 C 137.890 337.028,136.960 336.522,135.934 336.057 C 134.908 335.592,133.827 334.984,133.531 334.706 C 133.236 334.427,132.006 333.557,130.797 332.771 C 129.589 331.985,127.340 330.521,125.800 329.519 C 124.260 328.517,122.010 327.299,120.800 326.812 C 115.961 324.865,111.268 322.260,108.800 320.151 C 106.207 317.935,99.102 314.188,96.600 313.718 C 95.940 313.594,94.500 312.819,93.400 311.995 C 90.301 309.674,84.181 306.007,83.397 306.002 C 83.176 306.001,82.006 305.172,80.797 304.160 C 79.589 303.148,77.804 301.956,76.832 301.511 C 75.060 300.701,66.000 292.089,66.000 291.215 C 66.000 290.978,65.576 290.113,65.058 289.292 C 64.541 288.471,63.979 287.350,63.811 286.800 C 63.642 286.250,63.170 285.053,62.760 284.140 C 62.351 283.227,61.753 280.850,61.430 278.858 C 61.108 276.866,60.486 274.553,60.049 273.718 C 59.611 272.883,59.029 271.120,58.756 269.800 C 58.484 268.480,57.914 266.897,57.490 266.281 C 57.066 265.666,56.621 264.433,56.501 263.541 C 56.375 262.597,55.891 261.527,55.342 260.978 C 54.573 260.209,54.398 259.611,54.390 257.718 C 54.368 252.935,53.640 247.580,52.860 246.473 C 52.445 245.883,51.896 244.185,51.641 242.701 C 51.383 241.203,50.764 239.393,50.249 238.634 C 49.652 237.755,49.229 236.383,49.062 234.793 C 48.881 233.055,48.527 231.991,47.873 231.213 C 47.146 230.350,46.837 229.256,46.465 226.230 C 46.129 223.500,45.769 222.119,45.246 221.557 C 44.792 221.070,44.311 219.566,44.008 217.687 C 43.725 215.935,43.187 214.201,42.756 213.653 C 42.269 213.034,41.995 212.034,41.987 210.846 C 41.963 207.514,41.291 203.620,40.467 202.038 C 40.021 201.184,39.434 199.340,39.161 197.942 C 38.888 196.544,38.325 194.937,37.910 194.372 C 37.495 193.806,36.883 192.027,36.550 190.418 C 36.217 188.809,35.612 187.022,35.206 186.446 C 34.729 185.771,34.323 184.112,34.061 181.769 C 33.819 179.603,33.344 177.586,32.886 176.769 C 32.463 176.016,31.886 173.870,31.604 172.000 C 31.322 170.130,30.756 167.933,30.346 167.118 C 29.937 166.302,29.437 164.471,29.235 163.048 C 29.029 161.588,28.513 159.968,28.052 159.330 C 27.512 158.584,27.046 156.892,26.679 154.349 C 26.321 151.865,25.838 150.089,25.318 149.349 C 24.817 148.634,24.431 147.270,24.298 145.740 C 24.157 144.121,23.792 142.886,23.231 142.128 C 22.602 141.277,22.276 139.983,21.984 137.188 C 21.548 133.004,20.872 130.000,20.368 130.000 C 20.188 130.000,19.720 128.965,19.328 127.700 C 18.935 126.435,18.371 125.147,18.074 124.838 C 16.656 123.365,16.215 116.614,17.423 114.889 C 18.277 113.670,21.426 113.634,22.942 114.826 M379.200 116.000 C 379.200 116.220,379.374 116.400,379.587 116.400 C 379.800 116.400,380.243 116.895,380.571 117.500 C 381.134 118.537,381.169 118.548,381.184 117.700 C 381.193 117.205,381.009 116.800,380.776 116.800 C 380.543 116.800,380.481 116.592,380.638 116.338 C 380.815 116.052,380.748 115.985,380.462 116.162 C 380.208 116.319,380.000 116.257,380.000 116.024 C 380.000 115.791,379.820 115.600,379.600 115.600 C 379.380 115.600,379.200 115.780,379.200 116.000 M312.390 123.724 C 310.954 124.426,309.345 125.405,308.814 125.900 C 308.283 126.395,307.706 126.800,307.531 126.800 C 307.357 126.800,306.716 127.244,306.107 127.786 C 300.098 133.140,294.474 136.800,292.256 136.800 C 291.845 136.800,290.854 137.157,290.054 137.593 C 289.255 138.029,287.747 138.742,286.705 139.177 C 285.663 139.611,283.795 140.740,282.554 141.684 C 281.313 142.628,279.916 143.663,279.449 143.985 C 278.982 144.306,278.110 144.966,277.510 145.450 C 276.911 145.935,275.741 146.553,274.910 146.824 C 274.080 147.095,272.971 147.650,272.446 148.058 C 271.921 148.466,271.171 148.800,270.779 148.800 C 269.113 148.800,265.105 151.042,261.564 153.956 C 258.955 156.103,257.773 156.883,253.600 159.210 C 252.390 159.885,250.500 160.963,249.400 161.607 C 247.024 162.997,241.967 165.466,240.000 166.197 C 237.042 167.296,231.700 170.027,231.004 170.796 C 230.604 171.238,230.072 171.600,229.822 171.600 C 229.173 171.600,222.714 178.394,222.014 179.812 C 221.692 180.466,221.084 181.510,220.663 182.134 C 216.795 187.861,215.080 202.664,217.564 208.875 C 218.741 211.817,220.450 220.274,221.226 227.000 C 221.480 229.200,222.036 232.890,222.461 235.200 C 222.886 237.510,223.391 240.840,223.584 242.600 C 223.781 244.413,224.566 247.620,225.392 250.000 C 226.701 253.767,227.125 255.322,228.387 261.000 C 230.016 268.334,230.426 270.653,231.179 276.800 C 231.650 280.650,232.199 284.340,232.397 285.000 C 232.596 285.660,233.043 287.910,233.390 290.000 C 233.738 292.090,234.647 295.745,235.411 298.123 C 236.175 300.501,236.800 302.765,236.800 303.155 C 236.800 304.556,238.952 309.830,240.116 311.281 C 244.976 317.342,251.886 316.894,259.454 310.027 C 262.558 307.210,266.327 304.443,269.259 302.829 C 270.061 302.387,272.221 300.602,274.059 298.862 C 278.458 294.698,280.405 293.018,281.500 292.444 C 282.488 291.926,282.960 291.521,286.829 287.877 C 288.275 286.514,290.232 284.770,291.177 284.000 C 292.122 283.230,293.189 282.305,293.548 281.944 C 295.653 279.826,302.723 273.936,303.766 273.430 C 304.445 273.101,305.630 272.285,306.400 271.617 C 307.170 270.949,307.918 270.401,308.063 270.401 C 308.207 270.400,309.663 269.263,311.299 267.873 C 314.150 265.450,318.413 262.382,321.511 260.523 C 323.565 259.290,326.318 256.541,328.413 253.630 C 329.396 252.264,330.700 250.574,331.310 249.874 C 333.089 247.833,335.201 242.993,335.856 239.456 C 336.881 233.930,336.933 232.846,336.460 227.035 C 336.208 223.936,335.919 216.090,335.818 209.600 C 335.718 203.110,335.460 196.450,335.246 194.800 C 334.149 186.328,333.900 182.433,334.151 177.662 C 334.316 174.532,334.253 171.760,333.987 170.400 C 331.908 159.792,331.520 155.416,331.808 145.796 C 332.146 134.529,331.434 131.792,327.022 127.387 C 321.667 122.039,317.810 121.074,312.390 123.724 M308.293 157.801 C 311.552 159.869,313.002 162.194,313.581 166.280 C 313.793 167.776,314.168 170.260,314.416 171.800 C 315.661 179.546,315.972 182.626,315.986 187.325 C 315.996 191.195,316.245 193.634,317.000 197.278 C 317.961 201.914,318.000 202.682,318.000 216.754 L 318.000 231.403 316.608 234.272 C 315.156 237.264,313.434 239.143,309.600 241.916 C 308.390 242.791,306.715 244.113,305.879 244.854 C 302.636 247.723,302.011 248.244,300.186 249.600 C 298.184 251.088,295.081 253.553,293.867 254.621 C 293.464 254.976,292.519 255.629,291.767 256.072 C 291.015 256.516,290.400 257.029,290.400 257.213 C 290.400 257.396,290.085 257.647,289.700 257.771 C 289.315 257.895,288.370 258.543,287.600 259.212 C 286.830 259.881,285.480 260.787,284.600 261.226 C 281.989 262.529,279.870 263.742,278.533 264.700 C 277.842 265.195,277.141 265.600,276.975 265.600 C 276.679 265.600,272.551 269.252,268.600 273.009 C 265.610 275.852,258.550 278.825,256.193 278.234 C 254.566 277.826,251.656 274.906,251.225 273.250 C 251.017 272.453,250.629 270.900,250.362 269.800 C 250.094 268.700,249.738 267.619,249.570 267.398 C 249.402 267.177,249.072 265.467,248.836 263.598 C 248.600 261.729,247.962 257.770,247.419 254.800 C 246.876 251.830,246.141 247.510,245.785 245.200 C 245.066 240.522,243.995 236.008,242.606 231.800 C 241.435 228.251,240.878 224.904,240.573 219.600 C 240.441 217.290,239.966 213.536,239.518 211.258 C 237.422 200.595,240.033 194.117,248.155 189.824 C 254.146 186.657,256.143 185.493,257.591 184.324 C 258.356 183.706,259.189 183.200,259.442 183.200 C 259.695 183.200,260.113 182.946,260.371 182.634 C 260.630 182.323,261.619 181.703,262.570 181.256 C 263.522 180.809,264.547 180.205,264.850 179.914 C 265.152 179.624,266.166 179.046,267.102 178.631 C 268.039 178.216,269.007 177.632,269.255 177.334 C 269.503 177.035,270.486 176.446,271.439 176.024 C 272.393 175.602,273.404 175.058,273.686 174.814 C 273.969 174.571,275.010 173.848,276.000 173.209 C 276.990 172.569,279.330 170.965,281.200 169.646 C 283.070 168.326,285.524 166.782,286.653 166.216 C 288.615 165.233,290.877 163.667,292.600 162.101 C 298.381 156.844,304.250 155.236,308.293 157.801 M24.193 213.611 C 23.927 214.043,24.922 214.559,25.591 214.336 C 25.820 214.260,25.654 213.977,25.222 213.707 C 24.724 213.395,24.348 213.360,24.193 213.611 M123.200 349.151 C 123.200 349.650,122.173 350.440,121.891 350.157 C 121.504 349.771,122.042 348.800,122.643 348.800 C 122.949 348.800,123.200 348.958,123.200 349.151 M277.800 363.200 C 277.664 363.420,277.823 363.600,278.153 363.600 C 278.483 363.600,278.864 363.420,279.000 363.200 C 279.136 362.980,278.977 362.800,278.647 362.800 C 278.317 362.800,277.936 362.980,277.800 363.200 M275.949 363.969 C 276.031 363.986,275.876 364.268,275.604 364.596 C 275.055 365.257,274.400 365.048,274.400 364.212 C 274.400 363.753,274.681 363.709,275.949 363.969 M241.719 391.453 C 241.858 391.592,241.792 392.042,241.572 392.453 C 241.337 392.892,241.325 393.200,241.543 393.200 C 241.912 393.200,242.400 392.270,242.400 391.567 C 242.400 391.365,242.190 391.200,241.933 391.200 C 241.677 391.200,241.580 391.314,241.719 391.453 " stroke="none" fill="#0b0a09" fill-rule="evenodd"></path><path id="path1" d="M261.924 17.398 C 262.086 18.790,262.101 18.800,264.074 18.800 L 266.061 18.800 265.130 17.670 C 264.619 17.048,264.020 16.536,263.800 16.532 C 263.580 16.529,263.031 16.407,262.580 16.261 C 261.842 16.023,261.777 16.136,261.924 17.398 M183.312 20.421 C 182.384 20.856,180.764 21.321,179.712 21.455 C 178.661 21.589,176.990 22.195,176.000 22.803 C 175.010 23.411,173.547 24.116,172.748 24.369 C 171.950 24.623,170.977 25.183,170.586 25.615 C 170.196 26.047,169.481 26.400,168.998 26.400 C 168.514 26.400,167.250 26.862,166.189 27.426 C 165.127 27.991,163.165 28.729,161.829 29.066 C 160.493 29.404,159.040 30.000,158.600 30.391 C 158.160 30.782,157.080 31.325,156.200 31.599 C 155.320 31.873,154.150 32.493,153.600 32.978 C 152.311 34.115,148.966 36.138,147.300 36.789 C 146.585 37.069,146.000 37.433,146.000 37.600 C 146.000 37.767,145.415 38.122,144.700 38.389 C 143.985 38.657,142.042 39.489,140.382 40.238 C 138.722 40.987,136.995 41.600,136.542 41.600 C 136.090 41.600,134.928 42.137,133.960 42.793 C 132.992 43.449,131.882 43.989,131.492 43.993 C 131.103 43.997,129.773 44.540,128.536 45.200 C 127.299 45.860,125.818 46.404,125.244 46.409 C 123.949 46.420,120.800 47.813,120.800 48.376 C 120.800 48.604,120.114 48.900,119.275 49.034 C 118.426 49.170,117.144 49.808,116.380 50.475 C 115.626 51.133,112.578 52.856,109.605 54.305 C 106.632 55.753,103.930 57.147,103.600 57.403 C 103.270 57.659,102.370 58.107,101.600 58.398 C 100.830 58.689,99.627 59.349,98.927 59.864 C 98.226 60.379,97.437 60.800,97.173 60.800 C 96.909 60.800,95.482 61.417,94.002 62.171 C 92.522 62.926,90.625 63.672,89.787 63.829 C 88.949 63.986,87.286 64.629,86.091 65.257 C 84.896 65.886,83.295 66.400,82.533 66.400 C 81.253 66.400,79.677 66.958,79.200 67.581 C 78.776 68.134,75.333 70.255,74.000 70.784 C 73.230 71.090,72.142 71.654,71.582 72.039 C 71.022 72.424,69.359 73.059,67.888 73.451 C 66.416 73.843,64.731 74.577,64.144 75.082 C 63.556 75.587,62.828 76.000,62.525 76.000 C 61.606 76.000,59.500 77.110,57.600 78.597 C 56.610 79.371,55.034 80.358,54.097 80.790 C 53.161 81.221,52.011 81.931,51.543 82.367 C 51.075 82.803,50.131 83.279,49.446 83.424 C 48.761 83.568,47.570 84.017,46.800 84.420 C 46.030 84.823,44.320 85.450,43.000 85.813 C 40.542 86.490,35.389 88.787,33.600 90.003 C 33.050 90.377,32.144 90.793,31.586 90.928 C 30.286 91.241,25.912 95.490,24.879 97.442 C 24.035 99.038,27.837 102.397,30.501 102.410 C 33.126 102.422,35.987 103.064,36.835 103.832 C 37.191 104.154,38.752 104.660,40.304 104.955 C 41.856 105.251,43.638 105.854,44.263 106.296 C 44.888 106.738,46.390 107.300,47.600 107.545 C 48.810 107.790,50.700 108.428,51.800 108.962 C 52.900 109.497,54.790 110.153,56.000 110.420 C 57.210 110.688,58.936 111.333,59.835 111.853 C 60.734 112.374,61.781 112.800,62.162 112.800 C 62.542 112.800,63.426 113.218,64.127 113.728 C 64.827 114.238,66.390 114.890,67.600 115.176 C 68.810 115.461,70.610 116.098,71.600 116.591 C 76.760 119.157,79.538 120.400,80.113 120.400 C 80.465 120.400,80.871 120.591,81.015 120.825 C 81.381 121.417,83.037 122.006,85.460 122.405 C 86.593 122.592,89.383 123.449,91.660 124.310 C 93.937 125.171,97.960 126.557,100.600 127.391 C 105.621 128.976,110.041 130.632,111.400 131.437 C 111.840 131.698,112.920 132.136,113.800 132.411 C 114.680 132.686,115.893 133.257,116.496 133.680 C 117.099 134.103,118.269 134.555,119.096 134.684 C 119.923 134.813,121.590 135.358,122.800 135.893 C 124.010 136.429,126.170 137.220,127.600 137.652 C 129.030 138.084,130.560 138.612,131.000 138.825 C 131.440 139.038,132.970 139.545,134.400 139.951 C 135.830 140.356,137.717 141.074,138.594 141.544 C 139.471 142.015,140.445 142.400,140.759 142.400 C 141.073 142.400,142.107 142.855,143.057 143.412 C 144.007 143.969,145.822 144.612,147.092 144.842 C 148.361 145.073,150.012 145.617,150.760 146.052 C 151.507 146.487,153.035 147.017,154.154 147.229 C 155.274 147.442,157.002 148.039,157.995 148.556 C 158.988 149.074,160.430 149.634,161.200 149.801 C 161.970 149.968,163.029 150.441,163.554 150.852 C 164.791 151.822,166.093 151.802,167.000 150.800 C 167.398 150.360,168.231 150.000,168.852 150.000 C 169.472 150.000,171.379 149.439,173.090 148.754 C 174.800 148.068,176.652 147.373,177.205 147.209 C 178.217 146.908,184.428 143.027,187.405 140.834 C 188.288 140.184,189.503 139.465,190.105 139.236 C 193.627 137.897,201.059 133.956,203.871 131.937 C 205.669 130.645,208.369 128.982,209.871 128.241 C 218.712 123.877,220.250 123.061,221.301 122.176 C 221.939 121.639,222.595 121.200,222.758 121.200 C 222.921 121.200,225.742 119.735,229.027 117.945 C 232.312 116.155,235.606 114.363,236.348 113.964 C 237.089 113.564,237.989 112.988,238.348 112.683 C 239.066 112.073,241.662 110.570,245.491 108.549 C 251.785 105.227,255.127 103.296,255.920 102.523 C 256.207 102.244,257.619 101.338,259.059 100.508 C 260.499 99.679,262.155 98.698,262.739 98.329 C 263.322 97.960,264.019 97.645,264.288 97.629 C 264.556 97.613,266.010 96.801,267.519 95.825 C 269.029 94.848,270.744 93.929,271.332 93.781 C 271.919 93.634,272.400 93.374,272.400 93.204 C 272.400 93.033,273.435 92.393,274.700 91.782 C 275.965 91.170,277.720 90.196,278.600 89.617 C 279.480 89.039,280.688 88.355,281.285 88.098 C 281.881 87.841,283.591 86.751,285.085 85.676 C 286.578 84.600,289.510 82.823,291.600 81.726 C 293.690 80.629,296.707 78.892,298.304 77.866 C 299.901 76.840,301.346 76.000,301.515 76.000 C 301.684 76.000,302.780 75.280,303.951 74.400 C 305.122 73.520,306.287 72.796,306.540 72.791 C 306.793 72.786,307.450 72.419,308.000 71.975 C 309.525 70.743,313.171 68.400,313.563 68.400 C 313.754 68.400,314.826 67.770,315.945 67.000 C 317.065 66.230,318.159 65.600,318.377 65.600 C 318.976 65.600,321.600 64.289,321.600 63.990 C 321.600 63.846,322.365 63.486,323.300 63.189 C 324.235 62.893,325.460 62.337,326.023 61.953 C 326.586 61.569,327.790 60.957,328.699 60.594 C 329.724 60.183,331.378 58.845,333.055 57.066 L 335.759 54.200 335.917 51.196 C 336.128 47.202,335.829 46.932,330.792 46.571 C 327.734 46.351,326.820 46.135,326.071 45.453 C 325.239 44.695,324.489 44.580,318.871 44.346 C 312.272 44.071,309.200 43.704,309.200 43.188 C 309.200 42.534,306.541 42.000,303.240 41.989 C 297.362 41.971,292.592 41.362,291.330 40.469 C 290.708 40.029,288.953 39.463,287.429 39.211 C 285.632 38.913,284.276 38.430,283.570 37.836 C 282.599 37.019,281.933 36.896,277.408 36.701 C 272.940 36.508,272.243 36.382,271.557 35.646 C 270.618 34.638,270.079 34.517,265.200 34.211 C 262.406 34.036,260.871 33.723,259.400 33.028 C 258.034 32.383,256.005 31.933,253.000 31.609 C 250.580 31.347,247.880 30.810,247.000 30.415 C 246.046 29.986,243.480 29.520,240.641 29.259 C 237.012 28.926,235.445 28.596,234.041 27.869 C 232.542 27.092,231.319 26.864,227.458 26.639 C 223.680 26.419,222.502 26.204,221.658 25.582 C 220.858 24.992,219.527 24.713,216.200 24.439 C 211.559 24.056,210.809 23.876,209.200 22.761 C 208.589 22.337,206.777 21.908,204.544 21.658 C 202.298 21.406,200.295 20.931,199.350 20.424 C 197.098 19.218,185.883 19.215,183.312 20.421 M315.971 27.461 L 316.229 29.000 319.800 28.894 C 325.913 28.712,325.275 26.321,319.046 26.061 L 315.713 25.923 315.971 27.461 M325.200 29.766 C 325.200 31.339,325.998 32.004,327.874 31.994 C 331.270 31.975,330.917 28.658,327.500 28.480 L 325.200 28.360 325.200 29.766 M347.600 65.400 C 346.967 66.074,346.231 66.400,345.344 66.400 C 344.042 66.400,342.736 67.298,339.967 70.100 C 339.368 70.705,338.726 71.207,338.540 71.216 C 338.353 71.225,337.577 71.765,336.815 72.416 C 336.053 73.067,335.220 73.600,334.964 73.600 C 334.708 73.600,333.211 74.678,331.638 75.995 C 330.066 77.312,328.289 78.512,327.689 78.661 C 327.090 78.810,325.725 79.532,324.655 80.266 C 323.585 81.000,322.395 81.600,322.009 81.600 C 321.623 81.600,320.831 81.975,320.248 82.434 C 319.665 82.893,318.561 83.441,317.796 83.652 C 317.031 83.863,315.099 85.018,313.504 86.218 C 311.909 87.418,310.422 88.400,310.199 88.400 C 309.976 88.400,308.824 89.196,307.638 90.169 C 306.452 91.142,304.923 92.212,304.241 92.548 C 302.462 93.422,298.619 95.137,297.389 95.604 C 296.812 95.824,295.556 96.542,294.598 97.202 C 293.640 97.861,292.618 98.400,292.327 98.400 C 292.036 98.400,290.448 99.409,288.799 100.643 C 287.149 101.876,285.350 103.087,284.800 103.335 C 284.250 103.582,283.098 104.283,282.240 104.892 C 281.382 105.501,280.372 106.000,279.995 106.000 C 279.618 106.000,278.631 106.540,277.801 107.199 C 276.971 107.859,275.618 108.580,274.793 108.802 C 273.968 109.024,273.071 109.473,272.800 109.800 C 272.529 110.127,271.564 110.594,270.656 110.839 C 269.748 111.083,268.284 111.904,267.402 112.662 C 264.921 114.796,264.835 114.856,262.718 115.877 C 261.623 116.405,260.349 117.189,259.888 117.619 C 259.427 118.048,258.785 118.400,258.463 118.400 C 258.141 118.400,256.750 119.030,255.373 119.800 C 253.997 120.570,252.629 121.200,252.334 121.200 C 252.039 121.200,250.472 122.184,248.853 123.388 C 247.233 124.591,245.523 125.697,245.054 125.845 C 244.584 125.994,243.660 126.514,243.000 127.002 C 242.340 127.490,241.197 128.091,240.461 128.338 C 239.725 128.584,238.517 129.317,237.777 129.967 C 237.037 130.616,235.570 131.631,234.516 132.222 C 233.462 132.812,231.830 133.814,230.888 134.448 C 229.947 135.082,228.956 135.600,228.687 135.600 C 228.226 135.600,223.151 137.885,221.400 138.881 C 220.960 139.131,219.581 139.843,218.335 140.462 C 217.089 141.081,215.829 141.818,215.535 142.100 C 214.259 143.321,211.656 145.190,210.574 145.661 C 209.928 145.943,208.860 146.559,208.200 147.031 C 207.540 147.503,206.407 148.088,205.682 148.330 C 204.958 148.572,203.867 149.125,203.258 149.559 C 202.649 149.992,201.622 150.472,200.976 150.626 C 200.329 150.779,199.260 151.304,198.600 151.792 C 197.940 152.280,196.770 152.886,196.000 153.138 C 195.230 153.391,193.889 154.232,193.019 155.006 C 192.150 155.780,190.106 157.086,188.476 157.907 C 186.846 158.728,184.584 159.874,183.449 160.453 C 182.158 161.111,181.187 161.934,180.854 162.653 C 180.561 163.284,179.869 164.673,179.315 165.741 C 177.952 168.368,178.046 177.184,179.458 179.093 C 180.052 179.896,180.429 181.370,180.785 184.277 C 181.201 187.674,181.439 188.485,182.241 189.239 C 183.081 190.028,183.204 190.514,183.235 193.170 C 183.315 200.125,183.743 203.225,184.736 204.029 C 185.494 204.642,185.715 205.327,185.950 207.784 C 186.167 210.058,186.438 210.976,187.063 211.558 C 187.643 212.099,187.973 213.076,188.174 214.851 C 188.331 216.239,188.786 218.100,189.184 218.987 C 190.167 221.174,190.352 222.208,190.781 227.913 C 191.068 231.728,191.335 233.124,191.977 234.163 C 192.654 235.259,192.878 236.608,193.216 241.643 C 193.595 247.287,193.706 247.867,194.588 248.793 C 195.409 249.654,195.603 250.407,195.924 253.976 C 196.230 257.372,196.448 258.272,197.093 258.794 C 197.726 259.306,197.973 260.263,198.318 263.550 C 198.556 265.813,199.003 268.055,199.312 268.532 C 199.971 269.548,200.341 271.592,200.799 276.730 C 201.018 279.195,201.347 280.699,201.768 281.164 C 202.594 282.078,203.593 289.972,203.597 295.630 C 203.600 299.623,203.656 299.913,204.600 300.800 C 205.449 301.597,205.603 302.107,205.617 304.170 C 205.642 307.632,206.197 310.068,207.133 310.826 C 207.577 311.186,208.061 312.183,208.208 313.040 C 208.355 313.898,208.838 315.115,209.282 315.744 C 209.827 316.516,210.257 318.176,210.608 320.858 C 210.893 323.041,211.383 325.227,211.697 325.714 C 212.551 327.042,213.146 333.445,213.449 344.575 C 213.713 354.258,213.748 354.575,214.628 355.391 C 215.338 356.049,215.597 356.861,215.820 359.128 C 216.042 361.380,216.295 362.178,216.955 362.713 C 217.422 363.091,218.123 363.895,218.512 364.501 C 221.172 368.639,224.293 370.800,227.606 370.800 L 230.065 370.800 235.732 365.146 C 238.850 362.036,242.103 358.975,242.962 358.344 C 243.821 357.713,246.310 355.484,248.492 353.390 C 250.674 351.296,253.301 349.143,254.330 348.605 C 255.358 348.067,257.100 346.798,258.200 345.784 C 262.655 341.681,265.573 339.266,267.144 338.383 C 268.055 337.872,268.800 337.332,268.800 337.184 C 268.800 336.724,273.023 333.731,274.038 333.472 C 274.567 333.337,276.080 332.183,277.400 330.907 C 281.307 327.132,284.913 324.174,286.264 323.636 C 286.959 323.359,287.979 322.653,288.531 322.066 C 289.589 320.941,293.266 317.496,297.600 313.570 C 299.127 312.186,300.570 311.211,301.097 311.207 C 301.644 311.203,303.013 310.227,304.613 308.700 C 308.443 305.045,309.777 304.025,311.061 303.768 C 311.741 303.632,313.509 302.308,315.404 300.516 C 318.706 297.392,320.597 296.004,321.552 296.001 C 321.855 296.001,322.772 295.415,323.590 294.700 C 327.031 291.691,327.725 291.200,328.541 291.196 C 329.043 291.194,330.497 290.154,332.037 288.696 C 333.488 287.323,336.447 284.580,338.613 282.600 C 340.780 280.620,342.923 278.573,343.376 278.051 C 343.829 277.530,344.995 276.758,345.966 276.337 C 346.937 275.916,348.694 274.633,349.870 273.486 C 355.026 268.455,360.269 264.000,361.032 264.000 C 361.369 264.000,363.076 262.617,364.824 260.928 C 368.012 257.846,368.793 256.467,368.798 253.910 C 368.799 253.310,369.159 252.230,369.599 251.510 C 370.550 249.950,370.652 247.092,369.813 245.485 C 368.910 243.753,368.000 232.402,368.000 222.863 L 368.000 214.276 366.947 212.895 L 365.894 211.514 365.647 195.324 L 365.400 179.135 364.300 178.334 L 363.200 177.533 363.200 172.425 C 363.200 167.427,363.177 167.292,362.120 166.158 L 361.039 165.000 360.802 153.710 C 360.567 142.515,360.556 142.408,359.582 141.110 L 358.600 139.800 358.270 113.800 C 357.950 88.626,357.914 87.764,357.131 86.664 C 356.254 85.431,355.645 79.363,355.615 71.549 C 355.598 67.241,355.426 66.916,352.940 66.513 C 352.028 66.365,351.112 65.887,350.675 65.332 C 349.730 64.130,348.773 64.151,347.600 65.400 M17.423 114.889 C 16.215 116.614,16.656 123.365,18.074 124.838 C 18.371 125.147,18.935 126.435,19.328 127.700 C 19.720 128.965,20.188 130.000,20.368 130.000 C 20.872 130.000,21.548 133.004,21.984 137.188 C 22.276 139.983,22.602 141.277,23.231 142.128 C 23.792 142.886,24.157 144.121,24.298 145.740 C 24.431 147.270,24.817 148.634,25.318 149.349 C 25.838 150.089,26.321 151.865,26.679 154.349 C 27.046 156.892,27.512 158.584,28.052 159.330 C 28.513 159.968,29.029 161.588,29.235 163.048 C 29.437 164.471,29.937 166.302,30.346 167.118 C 30.756 167.933,31.322 170.130,31.604 172.000 C 31.886 173.870,32.463 176.016,32.886 176.769 C 33.344 177.586,33.819 179.603,34.061 181.769 C 34.323 184.112,34.729 185.771,35.206 186.446 C 35.612 187.022,36.217 188.809,36.550 190.418 C 36.883 192.027,37.495 193.806,37.910 194.372 C 38.325 194.937,38.888 196.544,39.161 197.942 C 39.434 199.340,40.021 201.184,40.467 202.038 C 41.291 203.620,41.963 207.514,41.987 210.846 C 41.995 212.034,42.269 213.034,42.756 213.653 C 43.187 214.201,43.725 215.935,44.008 217.687 C 44.311 219.566,44.792 221.070,45.246 221.557 C 45.769 222.119,46.129 223.500,46.465 226.230 C 46.837 229.256,47.146 230.350,47.873 231.213 C 48.527 231.991,48.881 233.055,49.062 234.793 C 49.229 236.383,49.652 237.755,50.249 238.634 C 50.764 239.393,51.383 241.203,51.641 242.701 C 51.896 244.185,52.445 245.883,52.860 246.473 C 53.640 247.580,54.368 252.935,54.390 257.718 C 54.398 259.611,54.573 260.209,55.342 260.978 C 55.891 261.527,56.375 262.597,56.501 263.541 C 56.621 264.433,57.066 265.666,57.490 266.281 C 57.914 266.897,58.484 268.480,58.756 269.800 C 59.029 271.120,59.611 272.883,60.049 273.718 C 60.486 274.553,61.108 276.866,61.430 278.858 C 61.753 280.850,62.351 283.227,62.760 284.140 C 63.170 285.053,63.642 286.250,63.811 286.800 C 63.979 287.350,64.541 288.471,65.058 289.292 C 65.576 290.113,66.000 290.978,66.000 291.215 C 66.000 292.089,75.060 300.701,76.832 301.511 C 77.804 301.956,79.589 303.148,80.797 304.160 C 82.006 305.172,83.176 306.001,83.397 306.002 C 84.181 306.007,90.301 309.674,93.400 311.995 C 94.500 312.819,95.940 313.594,96.600 313.718 C 99.102 314.188,106.207 317.935,108.800 320.151 C 111.268 322.260,115.961 324.865,120.800 326.812 C 122.010 327.299,124.260 328.517,125.800 329.519 C 127.340 330.521,129.589 331.985,130.797 332.771 C 132.006 333.557,133.236 334.427,133.531 334.706 C 133.827 334.984,134.908 335.592,135.934 336.057 C 136.960 336.522,137.890 337.028,138.000 337.181 C 138.229 337.500,140.729 338.849,142.816 339.780 C 143.594 340.127,144.898 340.961,145.713 341.633 C 147.082 342.761,148.769 343.735,153.665 346.221 C 154.690 346.742,156.497 347.956,157.680 348.919 C 158.862 349.882,160.309 350.791,160.895 350.938 C 161.481 351.085,163.115 352.185,164.526 353.381 C 165.936 354.578,167.610 355.680,168.245 355.830 C 168.880 355.980,169.972 356.446,170.671 356.866 C 171.371 357.286,173.081 357.825,174.471 358.063 C 175.862 358.300,177.360 358.815,177.800 359.205 C 178.240 359.596,179.304 360.288,180.165 360.742 C 181.025 361.197,182.471 362.251,183.378 363.084 C 186.734 366.170,189.047 367.881,190.777 368.559 C 192.650 369.293,194.340 370.345,196.000 371.812 C 196.550 372.298,197.719 372.805,198.598 372.939 C 199.664 373.101,200.441 373.518,200.932 374.191 C 202.578 376.451,206.800 375.234,206.800 372.499 C 206.800 371.654,207.185 370.876,208.014 370.048 C 209.306 368.755,209.114 367.480,207.551 366.984 C 207.103 366.842,206.840 366.158,206.709 364.793 C 206.564 363.287,206.276 362.618,205.514 362.018 C 204.836 361.485,204.437 360.690,204.287 359.575 C 204.165 358.662,203.663 357.493,203.167 356.965 C 202.556 356.315,202.160 355.211,201.928 353.517 C 201.712 351.940,201.217 350.491,200.580 349.571 C 199.683 348.276,199.539 347.545,199.264 342.893 C 199.080 339.773,198.756 337.429,198.461 337.073 C 197.630 336.072,197.271 334.218,196.797 328.492 C 196.547 325.471,196.113 322.640,195.832 322.200 C 195.245 321.281,194.400 316.044,194.400 313.321 C 194.400 311.988,194.133 311.125,193.438 310.215 C 192.809 309.390,192.377 308.133,192.187 306.577 C 192.028 305.270,191.653 303.570,191.354 302.800 C 191.055 302.030,190.620 300.140,190.388 298.600 C 189.726 294.212,188.831 287.804,188.210 283.000 C 187.897 280.580,187.451 277.630,187.220 276.445 C 186.989 275.260,186.800 273.668,186.800 272.907 C 186.800 272.146,186.439 271.016,185.997 270.395 C 185.057 269.075,184.908 268.369,184.425 262.906 C 184.152 259.823,183.859 258.525,183.237 257.652 C 182.629 256.798,182.341 255.577,182.144 253.011 C 181.943 250.400,181.658 249.207,181.000 248.239 C 180.519 247.529,179.840 245.519,179.492 243.774 C 179.144 242.028,178.580 239.520,178.239 238.200 C 177.898 236.880,177.422 233.910,177.182 231.600 C 176.942 229.290,176.505 226.410,176.212 225.200 C 175.405 221.872,174.861 218.541,174.557 215.061 C 174.349 212.682,174.069 211.665,173.399 210.861 C 172.807 210.150,172.374 208.834,172.086 206.872 C 171.775 204.748,171.424 203.741,170.809 203.208 C 170.343 202.804,169.855 201.781,169.725 200.936 C 169.595 200.091,169.336 199.102,169.150 198.738 C 168.964 198.373,168.533 196.303,168.191 194.138 C 167.849 191.972,167.400 189.120,167.193 187.800 C 166.986 186.480,166.812 184.154,166.808 182.631 C 166.795 178.291,163.271 170.045,160.276 167.351 C 156.393 163.857,155.342 163.214,153.474 163.187 C 152.993 163.181,151.700 162.722,150.600 162.168 C 149.500 161.614,147.340 160.707,145.800 160.151 C 144.260 159.595,142.237 158.794,141.304 158.370 C 140.372 157.947,139.505 157.600,139.379 157.600 C 139.252 157.600,138.165 157.150,136.963 156.600 C 135.760 156.050,134.534 155.600,134.237 155.600 C 133.637 155.600,131.651 154.824,128.525 153.367 C 127.383 152.835,126.331 152.400,126.187 152.400 C 126.042 152.400,125.446 152.065,124.862 151.656 C 124.278 151.247,122.857 150.603,121.705 150.226 C 120.552 149.848,119.514 149.385,119.398 149.196 C 119.281 149.008,118.154 148.656,116.893 148.414 C 113.454 147.754,111.115 147.180,110.000 146.724 C 109.450 146.499,108.054 146.066,106.899 145.762 C 105.743 145.458,103.465 144.577,101.837 143.805 C 100.209 143.032,98.739 142.400,98.570 142.400 C 98.401 142.400,97.979 142.160,97.631 141.866 C 97.284 141.572,96.370 141.100,95.600 140.817 C 94.830 140.535,93.300 139.889,92.200 139.384 C 91.100 138.878,89.210 138.244,88.000 137.974 C 86.790 137.704,84.810 137.138,83.600 136.715 C 82.390 136.293,80.140 135.597,78.600 135.169 C 77.060 134.741,75.233 134.123,74.540 133.795 C 73.846 133.468,73.164 133.200,73.023 133.200 C 72.882 133.200,71.612 132.660,70.200 132.000 C 68.788 131.340,67.322 130.800,66.942 130.800 C 66.562 130.800,65.855 130.427,65.370 129.972 C 64.845 129.478,63.301 128.900,61.545 128.538 C 59.925 128.205,58.328 127.688,57.995 127.390 C 57.367 126.827,55.639 126.370,51.200 125.590 C 49.770 125.339,48.330 124.904,48.000 124.623 C 47.266 123.999,44.981 123.207,43.840 123.181 C 43.378 123.170,42.407 122.855,41.682 122.481 C 39.226 121.212,31.807 117.523,30.600 116.969 C 29.940 116.667,28.183 116.247,26.696 116.036 C 25.046 115.801,23.583 115.330,22.942 114.826 C 21.426 113.634,18.277 113.670,17.423 114.889 M378.806 118.100 L 378.800 120.800 380.044 120.800 C 381.391 120.800,381.367 120.953,380.649 117.000 C 380.569 116.560,380.271 116.255,379.988 116.321 C 379.705 116.388,379.325 116.208,379.143 115.921 C 378.950 115.617,378.810 116.522,378.806 118.100 M321.081 122.886 C 324.068 124.185,328.515 128.391,330.086 131.403 C 331.866 134.814,332.083 136.625,331.808 145.796 C 331.520 155.416,331.908 159.792,333.987 170.400 C 334.253 171.760,334.316 174.532,334.151 177.662 C 333.900 182.433,334.149 186.328,335.246 194.800 C 335.460 196.450,335.718 203.110,335.818 209.600 C 335.919 216.090,336.208 223.936,336.460 227.035 C 336.933 232.846,336.881 233.930,335.856 239.456 C 335.201 242.993,333.089 247.833,331.310 249.874 C 330.700 250.574,329.396 252.264,328.413 253.630 C 326.318 256.541,323.565 259.290,321.511 260.523 C 318.413 262.382,314.150 265.450,311.299 267.873 C 309.663 269.263,308.207 270.400,308.063 270.401 C 307.918 270.401,307.170 270.949,306.400 271.617 C 305.630 272.285,304.445 273.101,303.766 273.430 C 302.723 273.936,295.653 279.826,293.548 281.944 C 293.189 282.305,292.122 283.230,291.177 284.000 C 290.232 284.770,288.275 286.514,286.829 287.877 C 282.960 291.521,282.488 291.926,281.500 292.444 C 280.405 293.018,278.458 294.698,274.059 298.862 C 272.221 300.602,270.061 302.387,269.259 302.829 C 266.327 304.443,262.558 307.210,259.454 310.027 C 251.886 316.894,244.976 317.342,240.116 311.281 C 238.952 309.830,236.800 304.556,236.800 303.155 C 236.800 302.765,236.175 300.501,235.411 298.123 C 234.647 295.745,233.738 292.090,233.390 290.000 C 233.043 287.910,232.596 285.660,232.397 285.000 C 232.199 284.340,231.650 280.650,231.179 276.800 C 230.426 270.653,230.016 268.334,228.387 261.000 C 227.125 255.322,226.701 253.767,225.392 250.000 C 224.566 247.620,223.781 244.413,223.584 242.600 C 223.391 240.840,222.886 237.510,222.461 235.200 C 222.036 232.890,221.480 229.200,221.226 227.000 C 220.450 220.274,218.741 211.817,217.564 208.875 C 215.080 202.664,216.795 187.861,220.663 182.134 C 221.084 181.510,221.692 180.466,222.014 179.812 C 222.714 178.394,229.173 171.600,229.822 171.600 C 230.072 171.600,230.604 171.238,231.004 170.796 C 231.700 170.027,237.042 167.296,240.000 166.197 C 241.967 165.466,247.024 162.997,249.400 161.607 C 250.500 160.963,252.390 159.885,253.600 159.210 C 257.773 156.883,258.955 156.103,261.564 153.956 C 265.105 151.042,269.113 148.800,270.779 148.800 C 271.171 148.800,271.921 148.466,272.446 148.058 C 272.971 147.650,274.080 147.095,274.910 146.824 C 275.741 146.553,276.911 145.935,277.510 145.450 C 278.110 144.966,278.982 144.306,279.449 143.985 C 279.916 143.663,281.313 142.628,282.554 141.684 C 283.795 140.740,285.663 139.611,286.705 139.177 C 287.747 138.742,289.255 138.029,290.054 137.593 C 290.854 137.157,291.845 136.800,292.256 136.800 C 294.474 136.800,300.098 133.140,306.107 127.786 C 306.716 127.244,307.357 126.800,307.531 126.800 C 307.706 126.800,308.283 126.395,308.814 125.900 C 311.819 123.098,318.048 121.568,321.081 122.886 M381.200 153.024 L 381.200 155.600 382.645 155.600 L 384.091 155.600 383.801 153.700 C 383.641 152.655,383.469 151.533,383.418 151.206 C 383.367 150.878,382.848 150.575,382.263 150.530 C 381.214 150.449,381.200 150.482,381.200 153.024 M299.000 157.332 C 297.894 157.843,294.507 160.366,292.600 162.101 C 290.877 163.667,288.615 165.233,286.653 166.216 C 285.524 166.782,283.070 168.326,281.200 169.646 C 279.330 170.965,276.990 172.569,276.000 173.209 C 275.010 173.848,273.969 174.571,273.686 174.814 C 273.404 175.058,272.393 175.602,271.439 176.024 C 270.486 176.446,269.503 177.035,269.255 177.334 C 269.007 177.632,268.039 178.216,267.102 178.631 C 266.166 179.046,265.152 179.624,264.850 179.914 C 264.547 180.205,263.522 180.809,262.570 181.256 C 261.619 181.703,260.630 182.323,260.371 182.634 C 260.113 182.946,259.695 183.200,259.442 183.200 C 259.189 183.200,258.356 183.706,257.591 184.324 C 256.143 185.493,254.146 186.657,248.155 189.824 C 240.033 194.117,237.422 200.595,239.518 211.258 C 239.966 213.536,240.441 217.290,240.573 219.600 C 240.878 224.904,241.435 228.251,242.606 231.800 C 243.995 236.008,245.066 240.522,245.785 245.200 C 246.141 247.510,246.876 251.830,247.419 254.800 C 247.962 257.770,248.600 261.729,248.836 263.598 C 249.072 265.467,249.402 267.177,249.570 267.398 C 249.738 267.619,250.094 268.700,250.362 269.800 C 250.629 270.900,251.017 272.453,251.225 273.250 C 251.656 274.906,254.566 277.826,256.193 278.234 C 258.550 278.825,265.610 275.852,268.600 273.009 C 272.551 269.252,276.679 265.600,276.975 265.600 C 277.141 265.600,277.842 265.195,278.533 264.700 C 279.870 263.742,281.989 262.529,284.600 261.226 C 285.480 260.787,286.830 259.881,287.600 259.212 C 288.370 258.543,289.315 257.895,289.700 257.771 C 290.085 257.647,290.400 257.396,290.400 257.213 C 290.400 257.029,291.015 256.516,291.767 256.072 C 292.519 255.629,293.464 254.976,293.867 254.621 C 295.081 253.553,298.184 251.088,300.186 249.600 C 302.011 248.244,302.636 247.723,305.879 244.854 C 306.715 244.113,308.390 242.791,309.600 241.916 C 313.434 239.143,315.156 237.264,316.608 234.272 L 318.000 231.403 318.000 216.754 C 318.000 202.682,317.961 201.914,317.000 197.278 C 316.245 193.634,315.996 191.195,315.986 187.325 C 315.972 182.626,315.661 179.546,314.416 171.800 C 314.168 170.260,313.793 167.776,313.581 166.280 C 313.002 162.194,311.552 159.869,308.293 157.801 C 306.799 156.853,300.703 156.545,299.000 157.332 M16.428 185.700 C 16.458 186.673,17.126 188.500,17.172 187.737 C 17.188 187.476,17.547 187.366,18.000 187.484 C 18.691 187.665,18.800 187.496,18.800 186.247 C 18.800 184.906,18.712 184.800,17.600 184.800 C 16.614 184.800,16.405 184.960,16.428 185.700 M24.000 212.976 C 24.000 213.293,24.208 213.681,24.462 213.838 C 24.758 214.021,24.815 213.947,24.620 213.632 C 24.389 213.258,24.510 213.262,25.129 213.649 C 25.793 214.063,25.981 214.710,26.152 217.178 C 26.407 220.839,26.517 221.616,26.749 221.384 C 26.847 221.287,27.172 221.411,27.473 221.660 C 28.319 222.363,28.567 221.804,29.018 218.175 C 29.493 214.351,29.257 213.600,27.580 213.600 C 26.798 213.600,26.400 213.398,26.400 213.000 C 26.400 212.600,26.000 212.400,25.200 212.400 C 24.422 212.400,24.000 212.603,24.000 212.976 M36.267 251.467 C 35.845 251.888,35.956 253.926,36.416 254.210 C 36.645 254.352,36.728 254.797,36.600 255.200 C 36.472 255.603,36.583 256.066,36.846 256.228 C 37.176 256.432,37.219 256.350,36.985 255.962 C 36.695 255.481,36.745 255.480,37.333 255.957 C 38.332 256.768,39.569 253.428,38.908 251.705 C 38.706 251.179,36.732 251.001,36.267 251.467 M121.200 349.075 C 121.200 349.871,122.215 350.425,122.730 349.910 C 123.386 349.254,123.316 348.800,122.557 348.800 C 122.119 348.800,121.992 349.023,122.158 349.500 C 122.361 350.084,122.302 350.071,121.801 349.424 C 121.470 348.996,121.200 348.839,121.200 349.075 M283.879 353.454 C 283.726 353.608,283.600 354.054,283.600 354.445 C 283.600 354.836,283.105 355.392,282.500 355.681 C 281.766 356.031,281.358 356.571,281.273 357.303 C 281.175 358.155,280.935 358.400,280.199 358.400 C 279.422 358.400,279.228 358.634,279.125 359.700 C 279.021 360.783,278.817 361.021,277.900 361.127 C 276.839 361.249,276.249 362.860,277.100 363.312 C 277.476 363.511,279.270 362.594,279.195 362.241 C 279.074 361.668,279.440 361.267,280.200 361.137 C 281.083 360.986,281.990 360.324,281.784 359.981 C 281.397 359.336,282.506 358.593,284.100 358.431 C 284.265 358.414,284.400 357.950,284.400 357.400 C 284.400 356.597,284.599 356.400,285.413 356.400 C 286.010 356.400,286.533 356.113,286.688 355.700 C 286.832 355.315,287.231 354.790,287.575 354.533 C 287.918 354.276,288.109 353.984,287.999 353.884 C 287.619 353.538,284.157 353.176,283.879 353.454 M274.400 364.212 C 274.400 365.048,275.055 365.257,275.604 364.596 C 275.876 364.268,276.031 363.986,275.949 363.969 C 274.681 363.709,274.400 363.753,274.400 364.212 M272.000 366.633 C 272.000 366.982,272.214 367.195,272.475 367.108 C 273.217 366.861,273.340 366.000,272.633 366.000 C 272.285 366.000,272.000 366.285,272.000 366.633 M192.981 391.855 C 193.011 393.528,195.200 393.644,195.200 391.973 C 195.200 390.955,195.052 390.800,194.081 390.800 C 193.135 390.800,192.966 390.962,192.981 391.855 M239.600 392.163 C 239.600 393.335,239.713 393.495,240.413 393.313 C 241.204 393.106,242.340 391.606,241.714 391.594 C 241.541 391.591,241.670 391.413,242.000 391.200 C 242.446 390.912,242.216 390.811,241.100 390.806 C 239.659 390.800,239.600 390.854,239.600 392.163 M234.800 394.600 C 234.800 395.614,235.345 395.936,235.804 395.193 C 235.942 394.970,236.185 394.867,236.345 394.966 C 236.504 395.064,236.660 394.797,236.692 394.372 C 236.735 393.805,236.492 393.600,235.775 393.600 C 235.002 393.600,234.800 393.807,234.800 394.600 " stroke="none" fill="#fc8720" fill-rule="evenodd"></path></g></svg>