<svg id="svg" version="1.1" xmlns="http://www.w3.org/2000/svg" xmlns:xlink="http://www.w3.org/1999/xlink" width="400" height="507.69230769230774" viewBox="0, 0, 400,507.69230769230774"><g id="svgg"><path id="path0" d="M190.011 8.587 C 189.743 8.909,189.617 9.404,189.731 9.687 C 189.857 10.000,189.949 9.919,189.968 9.476 C 189.988 9.035,190.180 8.864,190.462 9.038 C 190.769 9.228,190.814 9.146,190.596 8.794 C 190.358 8.409,190.451 8.334,190.934 8.519 C 191.300 8.660,191.600 8.601,191.600 8.387 C 191.600 7.796,190.559 7.926,190.011 8.587 M199.860 12.588 C 199.731 12.925,199.429 13.200,199.189 13.200 C 198.949 13.200,198.836 13.065,198.938 12.900 C 199.040 12.735,198.151 12.600,196.962 12.600 C 195.773 12.600,194.800 12.704,194.800 12.832 C 194.800 13.198,193.028 13.039,192.744 12.647 C 192.603 12.453,192.371 12.660,192.229 13.107 C 192.061 13.639,191.336 14.107,190.135 14.460 C 185.383 15.858,181.416 21.942,182.352 26.400 C 183.604 32.364,184.057 34.906,184.313 37.400 C 184.667 40.854,184.651 55.145,184.290 57.600 C 183.819 60.805,183.527 62.188,183.189 62.820 C 182.667 63.796,182.271 67.858,182.298 71.968 C 182.317 74.960,182.116 76.359,181.321 78.768 C 180.770 80.436,180.241 82.340,180.144 83.000 C 179.976 84.145,179.862 84.489,178.884 86.800 C 178.651 87.350,178.373 88.250,178.267 88.800 C 178.161 89.350,177.590 91.060,176.998 92.600 C 176.405 94.140,175.577 97.008,175.156 98.973 C 174.735 100.939,174.168 102.829,173.896 103.173 C 172.211 105.304,172.212 105.270,172.309 143.800 C 172.346 158.320,172.219 171.010,172.027 172.000 C 171.835 172.990,171.405 175.141,171.070 176.779 C 170.387 180.132,171.932 184.344,174.099 185.031 C 174.485 185.154,174.800 185.472,174.800 185.738 C 174.800 186.628,180.649 190.411,182.834 190.934 C 183.402 191.071,184.546 191.721,185.376 192.381 C 186.205 193.040,187.540 193.699,188.342 193.845 C 190.370 194.213,193.363 195.652,192.811 195.993 C 192.489 196.192,192.509 196.386,192.881 196.678 C 193.871 197.454,195.151 197.503,200.263 196.962 C 203.088 196.663,205.546 196.414,205.724 196.409 C 205.902 196.404,205.934 196.216,205.795 195.992 C 205.504 195.521,207.635 194.556,210.777 193.737 C 213.599 193.002,214.008 192.623,213.884 190.857 C 213.777 189.344,211.449 184.400,210.843 184.400 C 210.440 184.400,209.823 182.925,209.191 180.456 C 208.665 178.398,209.506 173.395,210.882 170.400 C 212.099 167.751,212.314 167.182,212.849 165.200 C 213.116 164.210,213.662 163.130,214.061 162.800 C 215.340 161.742,215.558 158.470,215.557 140.355 C 215.556 130.590,215.591 120.710,215.633 118.400 C 215.740 112.621,215.195 64.837,215.008 63.600 C 213.843 55.902,215.525 36.765,217.272 37.844 C 217.452 37.956,217.600 37.587,217.600 37.024 C 217.600 36.461,217.791 36.000,218.024 36.000 C 218.257 36.000,218.345 35.835,218.221 35.634 C 218.097 35.433,218.221 35.192,218.498 35.100 C 218.873 34.974,218.983 33.533,218.932 29.398 C 218.832 21.316,218.989 21.783,215.159 18.116 C 214.191 17.190,213.202 16.192,212.961 15.898 C 212.719 15.604,211.009 15.123,209.161 14.829 C 207.312 14.535,205.598 14.135,205.351 13.941 C 205.104 13.746,204.637 13.687,204.315 13.811 C 203.992 13.935,203.497 13.758,203.215 13.418 C 202.912 13.053,202.872 12.800,203.118 12.800 C 203.346 12.800,203.624 13.025,203.735 13.300 C 203.888 13.679,203.944 13.682,203.968 13.313 C 203.986 13.044,204.270 12.929,204.600 13.055 C 205.291 13.321,205.421 12.584,204.755 12.172 C 204.511 12.021,204.153 12.146,203.961 12.449 C 203.696 12.868,203.611 12.877,203.606 12.486 C 203.601 12.094,203.408 12.075,202.792 12.404 C 202.347 12.642,201.807 12.728,201.592 12.595 C 201.376 12.462,201.194 12.588,201.187 12.876 C 201.179 13.220,200.989 13.155,200.635 12.688 C 200.168 12.073,200.063 12.059,199.860 12.588 M177.680 17.680 C 176.975 18.385,177.096 19.205,177.900 19.168 C 178.318 19.150,178.399 19.056,178.100 18.935 C 177.825 18.824,177.600 18.558,177.600 18.343 C 177.600 18.128,177.808 18.081,178.062 18.238 C 178.348 18.415,178.415 18.348,178.238 18.062 C 178.081 17.808,178.128 17.600,178.343 17.600 C 178.558 17.600,178.824 17.825,178.935 18.100 C 179.056 18.399,179.150 18.318,179.168 17.900 C 179.205 17.096,178.385 16.975,177.680 17.680 M222.914 28.600 C 222.917 29.700,222.995 30.103,223.087 29.495 C 223.179 28.886,223.177 27.986,223.082 27.495 C 222.987 27.003,222.911 27.500,222.914 28.600 M222.937 33.800 C 222.939 35.560,223.009 36.230,223.093 35.289 C 223.178 34.349,223.177 32.909,223.091 32.089 C 223.005 31.270,222.936 32.040,222.937 33.800 M107.000 43.608 C 104.617 44.093,104.278 44.196,103.353 44.705 C 102.887 44.962,102.382 45.048,102.231 44.898 C 102.080 44.747,101.815 44.853,101.641 45.133 C 101.468 45.413,100.443 45.751,99.363 45.883 C 97.247 46.142,97.012 46.145,91.000 46.007 C 88.800 45.956,86.910 45.947,86.800 45.987 C 86.690 46.027,86.164 46.140,85.631 46.238 C 85.098 46.336,84.001 47.132,83.193 48.008 C 82.384 48.884,81.425 49.623,81.061 49.650 C 80.698 49.678,80.175 49.723,79.900 49.750 C 79.523 49.788,79.429 50.984,79.519 54.600 C 79.651 59.952,79.888 61.716,80.431 61.381 C 80.894 61.094,82.800 63.122,82.800 63.901 C 82.800 64.958,84.149 70.195,84.480 70.425 C 84.659 70.549,84.785 71.991,84.760 73.631 C 84.714 76.727,85.566 80.915,86.821 83.757 C 88.319 87.147,88.924 91.074,88.583 95.180 C 87.984 102.390,88.260 110.508,89.225 114.093 C 89.475 115.023,89.752 117.857,89.839 120.392 C 89.926 122.926,90.019 125.090,90.046 125.200 C 90.073 125.310,90.084 125.504,90.070 125.632 C 89.728 128.853,89.532 138.184,89.364 159.200 C 89.251 173.390,89.099 187.070,89.025 189.600 C 88.846 195.733,88.976 196.375,90.449 196.670 C 91.098 196.800,91.553 196.980,91.463 197.071 C 90.382 198.151,94.044 199.774,97.791 199.876 C 99.986 199.935,102.031 200.080,102.335 200.197 C 102.720 200.344,102.811 200.207,102.635 199.748 C 102.429 199.209,102.488 199.175,102.959 199.566 C 103.435 199.961,103.501 199.908,103.333 199.266 C 102.947 197.790,107.724 197.113,115.200 197.585 C 115.970 197.634,116.870 197.612,117.200 197.537 C 117.530 197.462,117.770 197.580,117.733 197.800 C 117.697 198.020,118.105 198.200,118.641 198.200 C 119.362 198.200,119.483 198.096,119.107 197.800 C 118.409 197.249,118.305 195.200,118.976 195.200 C 119.265 195.200,119.726 194.930,120.000 194.600 C 120.274 194.270,120.830 194.000,121.235 194.000 C 122.253 194.000,126.186 189.792,126.211 188.676 C 126.216 188.414,126.370 187.962,126.552 187.672 C 126.971 187.002,126.483 183.645,125.866 182.951 C 124.745 181.692,124.400 181.214,124.398 180.917 C 124.396 180.743,124.126 180.084,123.797 179.453 C 123.168 178.247,122.987 177.577,122.321 174.000 C 122.095 172.790,121.751 171.629,121.556 171.420 C 121.089 170.922,121.099 165.535,121.572 162.773 C 122.433 157.741,122.677 146.465,121.954 145.114 C 121.731 144.697,121.592 143.961,121.645 143.478 C 121.698 142.995,121.593 141.790,121.412 140.800 C 121.066 138.914,121.004 138.491,120.507 134.600 C 120.338 133.280,120.239 126.800,120.286 120.200 C 120.469 94.670,120.506 84.200,120.452 73.400 C 120.422 67.240,120.492 61.750,120.609 61.200 C 121.504 56.998,120.393 49.740,118.741 49.000 C 118.250 48.780,117.559 48.071,117.205 47.423 C 116.851 46.776,115.940 45.908,115.180 45.493 C 114.421 45.078,113.567 44.438,113.283 44.070 C 112.998 43.701,112.683 43.445,112.583 43.500 C 112.482 43.555,112.355 43.585,112.300 43.567 C 111.592 43.331,108.234 43.357,107.000 43.608 M222.800 43.704 C 222.800 44.055,222.485 44.424,222.100 44.524 C 221.444 44.696,221.445 44.710,222.113 44.754 C 222.836 44.801,223.506 43.773,223.049 43.316 C 222.912 43.179,222.800 43.353,222.800 43.704 M78.667 45.067 C 78.520 45.213,78.403 45.708,78.406 46.167 C 78.411 46.829,78.488 46.881,78.780 46.419 C 78.982 46.100,79.067 45.708,78.969 45.549 C 78.871 45.391,79.107 45.178,79.495 45.077 C 80.055 44.931,80.069 44.883,79.567 44.846 C 79.218 44.821,78.813 44.920,78.667 45.067 M78.400 47.533 C 78.400 47.790,78.062 48.000,77.649 48.000 C 77.236 48.000,76.651 48.315,76.349 48.700 C 75.852 49.333,75.866 49.348,76.495 48.855 C 76.877 48.556,77.447 48.409,77.762 48.530 C 78.319 48.744,79.028 47.694,78.609 47.276 C 78.494 47.161,78.400 47.277,78.400 47.533 M75.600 50.467 C 75.600 50.943,75.725 51.208,75.878 51.055 C 76.311 50.623,76.371 49.600,75.965 49.600 C 75.764 49.600,75.600 49.990,75.600 50.467 M177.280 57.280 C 177.016 57.544,176.800 57.938,176.800 58.156 C 176.800 58.375,177.025 58.264,177.300 57.910 C 177.575 57.557,178.160 57.183,178.600 57.080 C 179.383 56.897,179.382 56.892,178.580 56.846 C 178.129 56.821,177.544 57.016,177.280 57.280 M299.400 67.636 C 298.520 67.842,297.530 68.128,297.200 68.271 C 296.870 68.414,296.510 68.556,296.400 68.587 C 296.290 68.617,294.850 69.283,293.200 70.065 C 291.550 70.848,289.840 71.614,289.400 71.768 C 285.939 72.981,282.905 76.187,282.177 79.400 C 282.027 80.060,281.667 80.982,281.376 81.450 C 281.085 81.917,280.757 83.717,280.647 85.450 C 280.363 89.896,279.615 98.011,279.378 99.205 C 279.268 99.758,279.072 104.258,278.943 109.205 C 278.520 125.359,277.547 134.213,276.028 135.732 C 275.793 135.967,275.600 136.401,275.600 136.696 C 275.600 137.411,272.759 143.600,272.431 143.600 C 271.906 143.600,270.882 145.854,270.613 147.600 C 270.081 151.052,269.619 152.302,268.797 152.517 C 268.359 152.631,268.000 152.579,268.000 152.400 C 268.000 152.221,267.655 152.165,267.233 152.276 C 266.666 152.424,266.419 152.232,266.287 151.538 C 266.189 151.022,266.084 151.624,266.054 152.876 C 266.025 154.128,266.192 155.272,266.427 155.417 C 266.662 155.562,266.758 155.933,266.640 156.240 C 266.522 156.548,266.554 156.800,266.713 156.800 C 267.140 156.800,267.163 157.330,267.440 173.674 L 267.697 188.748 266.776 190.674 C 266.270 191.733,265.715 192.696,265.543 192.814 C 265.371 192.932,264.938 193.730,264.579 194.589 C 264.220 195.447,263.517 196.701,263.016 197.375 C 260.927 200.187,261.594 203.337,264.871 206.126 C 265.822 206.936,266.935 207.889,267.344 208.243 C 267.867 208.697,269.408 208.989,272.544 209.229 C 277.314 209.593,281.181 210.213,282.800 210.871 C 288.329 213.119,296.701 212.365,297.933 209.509 C 298.007 209.339,298.300 209.200,298.585 209.200 C 299.210 209.200,302.248 205.295,303.499 202.882 C 304.350 201.242,304.521 200.507,304.975 196.544 C 305.079 195.633,305.517 194.261,305.948 193.493 C 306.689 192.173,307.018 191.096,308.631 184.718 C 309.004 183.243,309.419 182.049,309.554 182.066 C 310.581 182.188,311.604 181.930,311.400 181.600 C 311.264 181.380,311.433 181.200,311.776 181.200 C 312.643 181.200,312.593 178.250,311.660 174.404 C 311.146 172.283,310.900 169.480,310.818 164.804 C 310.698 157.975,310.672 157.367,310.230 151.485 C 309.940 147.626,310.465 143.900,311.621 141.600 C 312.859 139.140,314.972 135.820,315.871 134.925 C 316.683 134.117,316.923 133.201,317.390 129.113 C 317.747 125.996,318.400 124.574,319.520 124.482 C 321.415 124.325,321.608 123.262,320.807 117.400 C 320.503 115.178,320.340 109.744,320.380 103.200 C 320.451 91.521,320.434 91.772,321.408 87.800 C 323.090 80.939,322.064 76.391,318.052 72.924 C 315.936 71.095,313.307 69.600,312.205 69.600 C 311.926 69.600,311.487 69.346,311.229 69.035 C 310.250 67.855,302.417 66.928,299.400 67.636 M281.600 69.545 C 281.600 69.734,282.050 69.803,282.600 69.698 C 283.150 69.593,283.600 69.438,283.600 69.353 C 283.600 69.269,283.150 69.200,282.600 69.200 C 282.050 69.200,281.600 69.355,281.600 69.545 M176.893 77.200 C 176.893 77.970,176.975 78.285,177.076 77.900 C 177.176 77.515,177.176 76.885,177.076 76.500 C 176.975 76.115,176.893 76.430,176.893 77.200 M78.493 77.600 C 78.493 78.370,78.575 78.685,78.676 78.300 C 78.776 77.915,78.776 77.285,78.676 76.900 C 78.575 76.515,78.493 76.830,78.493 77.600 M78.406 79.900 C 78.403 80.395,78.580 80.800,78.800 80.800 C 79.301 80.800,79.301 80.376,78.800 79.600 C 78.486 79.115,78.411 79.172,78.406 79.900 M275.277 106.433 C 275.319 111.585,275.419 114.635,275.498 113.210 C 275.578 111.786,275.858 110.484,276.121 110.316 C 276.486 110.084,276.481 110.011,276.100 110.006 C 275.825 110.003,275.600 109.730,275.600 109.400 C 275.600 109.070,275.802 108.800,276.049 108.800 C 276.363 108.800,276.373 108.649,276.083 108.300 C 275.845 108.012,275.668 105.618,275.667 102.666 C 275.665 99.842,275.560 97.427,275.432 97.299 C 275.304 97.171,275.235 101.282,275.277 106.433 M27.182 101.990 C 26.907 102.459,26.822 102.473,26.812 102.051 C 26.802 101.605,26.686 101.597,26.190 102.008 C 25.855 102.286,25.471 102.405,25.338 102.271 C 25.204 102.137,24.736 102.220,24.298 102.455 C 23.200 103.042,21.856 103.268,18.712 103.394 C 15.046 103.540,13.009 104.592,9.417 108.196 C 5.095 112.532,4.725 115.414,7.478 123.266 C 7.991 124.730,8.040 126.466,7.786 134.400 C 7.423 145.793,7.421 145.497,7.852 151.200 C 8.384 158.241,8.296 172.370,7.718 172.727 C 7.404 172.921,7.369 173.222,7.615 173.611 C 7.820 173.935,7.994 176.270,8.002 178.800 C 8.010 181.330,8.182 184.546,8.384 185.947 C 9.183 191.473,9.290 199.241,8.634 204.120 C 8.286 206.717,8.000 208.932,8.000 209.044 C 8.000 209.156,7.778 209.110,7.507 208.943 C 6.702 208.445,5.733 208.506,5.733 209.054 C 5.733 209.335,5.928 209.448,6.167 209.306 C 6.461 209.130,6.457 209.232,6.154 209.623 C 5.469 210.510,5.928 217.200,6.674 217.200 C 7.718 217.200,10.400 219.678,10.400 220.643 C 10.400 221.144,10.572 221.659,10.783 221.789 C 10.993 221.919,11.069 222.335,10.952 222.713 C 10.757 223.343,10.777 223.342,11.190 222.700 C 11.724 221.869,13.588 221.786,16.175 222.478 C 18.482 223.095,20.000 222.422,20.000 220.781 C 20.000 219.665,20.742 219.169,23.309 218.568 C 23.919 218.425,24.649 217.980,24.930 217.578 C 25.627 216.583,30.024 213.200,30.621 213.200 C 30.886 213.200,31.307 212.953,31.558 212.651 C 31.990 212.130,33.505 211.870,39.000 211.373 C 40.320 211.254,42.326 210.793,43.457 210.349 C 44.589 209.905,45.759 209.483,46.057 209.412 C 47.827 208.989,48.456 208.571,49.186 207.334 C 49.634 206.575,50.000 205.728,50.000 205.451 C 50.000 205.175,50.597 204.663,51.327 204.316 C 52.565 203.725,52.659 203.541,52.734 201.541 C 52.779 200.364,52.919 198.891,53.046 198.269 C 53.173 197.646,53.329 196.746,53.392 196.269 C 53.454 195.791,53.623 195.120,53.765 194.779 C 53.974 194.279,53.706 194.150,52.389 194.121 C 49.685 194.062,49.653 193.770,49.562 168.682 C 49.510 154.399,49.353 148.025,49.044 147.623 C 48.707 147.185,48.719 147.118,49.095 147.344 C 49.432 147.546,49.514 147.442,49.353 147.021 C 49.222 146.679,48.816 146.400,48.452 146.400 C 47.760 146.400,46.652 144.281,46.245 142.183 C 45.547 138.585,45.256 137.478,44.945 137.251 C 44.755 137.113,44.545 136.550,44.477 136.000 C 44.410 135.450,44.189 134.460,43.987 133.800 C 43.342 131.690,43.195 127.571,43.632 123.832 C 44.148 119.409,44.156 116.463,43.656 115.147 C 43.151 113.819,32.404 102.232,31.634 102.186 C 31.505 102.178,31.009 101.954,30.530 101.688 C 29.396 101.057,27.635 101.216,27.182 101.990 M167.709 103.600 C 167.709 104.590,167.787 104.995,167.882 104.500 C 167.978 104.005,167.978 103.195,167.882 102.700 C 167.787 102.205,167.709 102.610,167.709 103.600 M167.751 112.400 C 167.751 114.930,167.816 115.965,167.896 114.700 C 167.975 113.435,167.975 111.365,167.896 110.100 C 167.816 108.835,167.751 109.870,167.751 112.400 M167.760 128.600 C 167.761 131.900,167.822 133.197,167.898 131.482 C 167.973 129.767,167.972 127.067,167.897 125.482 C 167.821 123.897,167.759 125.300,167.760 128.600 M126.400 137.339 C 127.498 137.917,127.821 137.882,127.416 137.227 C 127.271 136.992,126.758 136.803,126.276 136.806 C 125.436 136.812,125.441 136.833,126.400 137.339 M167.709 138.800 C 167.709 139.790,167.787 140.195,167.882 139.700 C 167.978 139.205,167.978 138.395,167.882 137.900 C 167.787 137.405,167.709 137.810,167.709 138.800 M266.667 140.267 C 266.181 140.753,266.390 141.179,267.000 140.945 C 267.330 140.818,267.600 140.554,267.600 140.357 C 267.600 139.938,267.049 139.884,266.667 140.267 M266.101 144.600 C 266.105 145.480,266.187 145.793,266.283 145.295 C 266.379 144.798,266.375 144.078,266.275 143.695 C 266.175 143.313,266.096 143.720,266.101 144.600 M266.101 148.600 C 266.105 149.480,266.187 149.793,266.283 149.295 C 266.379 148.798,266.375 148.078,266.275 147.695 C 266.175 147.313,266.096 147.720,266.101 148.600 M167.728 152.800 C 167.728 154.230,167.801 154.815,167.889 154.100 C 167.978 153.385,167.978 152.215,167.889 151.500 C 167.801 150.785,167.728 151.370,167.728 152.800 M263.680 156.080 C 262.979 156.781,263.082 157.620,263.834 157.332 C 264.344 157.136,264.363 157.023,263.934 156.750 C 263.449 156.443,263.747 156.234,264.500 156.353 C 264.665 156.379,264.800 156.220,264.800 156.000 C 264.800 155.458,264.264 155.496,263.680 156.080 M256.914 201.000 C 256.917 202.100,256.995 202.503,257.087 201.895 C 257.179 201.286,257.177 200.386,257.082 199.895 C 256.987 199.403,256.911 199.900,256.914 201.000 M87.606 200.276 C 87.603 200.758,87.792 201.271,88.027 201.416 C 88.682 201.821,88.717 201.498,88.139 200.400 C 87.633 199.441,87.612 199.436,87.606 200.276 M56.038 203.355 C 55.710 203.749,55.693 204.011,55.983 204.190 C 56.216 204.333,56.517 204.162,56.652 203.808 C 56.990 202.928,56.619 202.654,56.038 203.355 M2.976 208.587 C 1.966 209.351,2.404 209.359,3.854 208.602 C 4.484 208.274,4.719 208.004,4.376 208.002 C 4.034 208.001,3.404 208.264,2.976 208.587 M147.289 233.023 C 146.800 233.365,146.411 233.950,146.425 234.323 C 146.443 234.795,146.565 234.714,146.828 234.058 C 147.076 233.438,147.416 233.197,147.823 233.354 C 148.227 233.508,148.342 233.430,148.155 233.127 C 147.970 232.828,148.081 232.746,148.471 232.895 C 148.802 233.022,149.326 232.965,149.636 232.769 C 150.054 232.505,149.937 232.411,149.189 232.406 C 148.633 232.403,147.778 232.680,147.289 233.023 M140.705 235.483 C 141.202 235.579,141.922 235.575,142.305 235.475 C 142.687 235.375,142.280 235.296,141.400 235.301 C 140.520 235.305,140.207 235.387,140.705 235.483 M154.925 235.948 C 154.345 236.877,152.876 237.180,150.795 236.799 C 149.571 236.575,149.200 236.635,149.200 237.054 C 149.200 237.354,149.020 237.600,148.800 237.600 C 148.580 237.600,148.400 237.846,148.400 238.146 C 148.400 238.450,147.338 239.080,146.009 239.565 C 144.694 240.044,143.119 240.848,142.509 241.351 C 141.899 241.854,140.770 242.611,140.000 243.033 C 139.230 243.455,138.030 244.250,137.333 244.800 C 131.714 249.235,130.102 249.634,119.000 249.337 C 103.346 248.919,100.027 248.948,100.484 249.500 C 101.110 250.256,100.168 251.141,98.460 251.401 C 95.294 251.884,89.778 254.816,86.626 257.692 C 86.200 258.080,84.850 258.765,83.626 259.213 C 82.401 259.661,81.130 260.145,80.800 260.288 C 78.758 261.174,73.696 261.505,62.959 261.455 L 51.319 261.400 51.359 262.376 C 51.397 263.272,51.179 263.393,48.725 263.846 C 45.034 264.528,43.002 265.555,40.200 268.154 C 38.880 269.379,37.496 270.385,37.124 270.391 C 36.752 270.396,36.351 270.555,36.234 270.745 C 36.116 270.935,34.452 271.125,32.536 271.168 C 22.053 271.399,15.821 276.896,17.760 284.200 C 18.830 288.233,19.980 293.685,20.035 294.993 C 20.239 299.774,19.959 311.329,19.625 311.953 C 19.360 312.449,19.389 312.841,19.719 313.197 C 20.102 313.611,20.078 313.649,19.600 313.382 C 19.101 313.103,19.084 313.150,19.502 313.667 C 19.814 314.052,19.989 315.410,19.963 317.244 C 19.941 318.870,20.197 321.910,20.534 324.000 C 20.870 326.090,21.254 330.040,21.388 332.777 C 21.659 338.315,22.134 340.991,23.000 341.857 C 24.150 343.007,24.690 347.227,24.776 355.737 C 24.795 357.610,24.939 358.114,25.500 358.271 C 25.885 358.379,26.740 359.171,27.400 360.031 C 28.060 360.890,28.870 361.930,29.200 362.340 C 29.699 362.961,30.431 363.101,33.537 363.169 L 37.273 363.250 39.092 361.325 C 41.820 358.438,42.669 357.183,43.239 355.200 C 43.523 354.210,44.171 352.729,44.678 351.908 C 45.185 351.087,45.600 350.254,45.600 350.057 C 45.600 348.211,47.060 343.762,47.972 342.829 C 48.866 341.914,49.124 341.120,49.563 337.917 C 49.985 334.843,50.282 333.888,51.081 333.026 C 51.794 332.258,52.126 331.366,52.256 329.877 C 52.532 326.705,53.213 323.600,53.633 323.600 C 53.841 323.600,54.431 322.649,54.945 321.486 C 55.459 320.324,56.402 318.927,57.040 318.382 C 57.678 317.838,58.470 316.872,58.800 316.236 C 59.130 315.600,59.895 314.612,60.500 314.041 C 61.105 313.470,61.600 312.760,61.600 312.463 C 61.600 312.166,62.320 311.105,63.200 310.105 C 64.080 309.105,64.800 308.165,64.800 308.016 C 64.800 305.691,76.174 303.516,83.000 304.536 C 86.512 305.060,87.841 305.341,88.222 305.639 C 88.588 305.925,90.115 306.201,95.800 307.009 C 96.460 307.102,103.570 307.153,111.600 307.122 C 137.163 307.022,184.655 307.056,194.800 307.183 C 200.190 307.250,205.320 307.186,206.200 307.040 C 207.080 306.895,208.398 306.702,209.129 306.613 C 211.070 306.376,212.790 305.996,214.600 305.403 C 217.568 304.431,227.119 303.992,231.962 304.605 C 233.203 304.762,236.333 306.146,236.800 306.744 C 236.910 306.885,237.540 307.273,238.200 307.607 C 238.860 307.941,239.657 308.794,239.970 309.503 C 240.284 310.211,240.849 310.889,241.227 311.009 C 241.605 311.129,242.145 311.784,242.427 312.465 C 242.709 313.147,243.446 314.257,244.063 314.934 C 244.681 315.610,245.447 316.712,245.766 317.382 C 246.085 318.052,246.988 319.320,247.773 320.200 C 248.557 321.080,249.200 322.049,249.200 322.353 C 249.200 322.658,249.834 324.151,250.609 325.671 C 251.384 327.191,252.278 329.551,252.596 330.913 C 252.914 332.276,253.422 333.573,253.724 333.796 C 254.027 334.018,254.403 334.920,254.559 335.800 C 254.941 337.948,256.018 340.907,256.599 341.400 C 257.430 342.107,257.948 343.410,258.600 346.439 C 258.951 348.067,259.504 349.885,259.829 350.478 C 260.153 351.071,260.758 352.601,261.171 353.878 C 262.039 356.558,264.538 359.472,266.937 360.602 C 267.782 361.000,268.579 361.613,268.708 361.963 C 269.095 363.017,269.666 363.188,272.800 363.188 C 275.934 363.188,276.505 363.017,276.892 361.963 C 277.021 361.613,277.750 361.030,278.513 360.668 C 279.336 360.278,280.104 359.515,280.404 358.789 C 280.683 358.118,281.211 357.350,281.580 357.084 C 282.610 356.339,282.764 355.915,283.232 352.541 C 283.736 348.901,284.529 345.654,285.238 344.328 C 285.512 343.818,285.705 343.310,285.668 343.200 C 285.631 343.090,285.709 342.426,285.841 341.725 C 285.972 341.023,286.121 334.723,286.171 327.725 C 286.261 315.266,286.636 311.096,287.738 310.340 C 287.946 310.198,288.014 309.815,287.890 309.489 C 287.765 309.164,287.814 308.741,288.000 308.549 C 288.954 307.562,291.518 298.116,292.654 291.400 C 292.765 290.740,293.193 289.570,293.603 288.800 C 295.594 285.067,295.710 284.619,295.838 280.200 C 296.003 274.469,295.552 272.049,294.125 271.000 C 293.527 270.560,292.599 269.778,292.062 269.261 C 290.726 267.976,288.444 266.738,287.000 266.514 C 286.340 266.412,285.454 266.030,285.031 265.664 C 284.438 265.151,284.341 265.137,284.608 265.600 C 284.886 266.083,284.841 266.110,284.377 265.738 C 284.060 265.483,282.810 265.153,281.600 265.004 C 276.496 264.375,274.266 263.704,273.215 262.481 L 272.200 261.300 256.802 261.350 C 240.177 261.404,233.905 261.151,232.985 260.388 C 232.663 260.121,232.400 260.035,232.400 260.197 C 232.400 260.359,231.950 260.197,231.400 259.837 C 230.850 259.476,230.400 259.279,230.400 259.398 C 230.400 259.823,226.287 257.520,225.452 256.626 C 224.983 256.125,224.060 255.437,223.399 255.098 C 222.739 254.759,221.855 254.103,221.436 253.639 C 221.016 253.176,219.937 252.609,219.036 252.380 C 215.486 251.475,213.940 249.948,215.231 248.620 C 215.845 247.988,215.650 247.703,214.700 247.842 C 214.205 247.915,212.720 248.137,211.400 248.336 C 203.008 249.599,177.573 249.084,174.791 247.595 C 174.414 247.393,173.992 247.342,173.853 247.481 C 173.714 247.620,173.600 247.559,173.600 247.347 C 173.600 247.135,172.925 246.717,172.100 246.420 C 171.275 246.123,169.880 245.422,169.000 244.863 C 168.120 244.304,166.590 243.415,165.600 242.888 C 164.610 242.362,163.440 241.609,163.000 241.216 C 162.560 240.823,160.940 240.091,159.400 239.591 C 156.223 238.559,156.007 238.353,156.185 236.522 C 156.328 235.048,155.674 234.750,154.925 235.948 M163.505 235.483 C 164.002 235.579,164.722 235.575,165.105 235.475 C 165.487 235.375,165.080 235.296,164.200 235.301 C 163.320 235.305,163.007 235.387,163.505 235.483 M114.478 244.698 C 116.831 244.769,120.791 244.769,123.278 244.699 C 125.765 244.629,123.840 244.571,119.000 244.570 C 114.160 244.570,112.125 244.628,114.478 244.698 M187.300 244.699 C 189.885 244.768,194.115 244.768,196.700 244.699 C 199.285 244.629,197.170 244.572,192.000 244.572 C 186.830 244.572,184.715 244.629,187.300 244.699 M246.900 257.076 C 247.285 257.176,247.915 257.176,248.300 257.076 C 248.685 256.975,248.370 256.893,247.600 256.893 C 246.830 256.893,246.515 256.975,246.900 257.076 M51.417 257.572 C 51.144 258.014,51.775 258.492,52.144 258.122 C 52.525 257.742,52.454 257.200,52.024 257.200 C 51.817 257.200,51.544 257.368,51.417 257.572 M364.353 268.566 C 364.269 268.641,363.030 268.789,361.600 268.894 C 357.808 269.171,352.703 271.926,348.320 276.059 C 334.776 288.833,329.600 293.896,329.600 294.371 C 329.600 294.559,328.903 295.556,328.051 296.587 C 325.787 299.327,325.001 302.558,325.384 307.543 C 325.885 314.046,325.979 320.907,325.594 322.800 C 324.939 326.017,324.862 326.342,323.386 332.106 C 322.584 335.238,321.839 338.325,321.729 338.967 C 321.474 340.466,319.867 344.104,319.037 345.061 C 318.684 345.467,317.506 346.827,316.418 348.082 C 310.717 354.660,313.814 364.800,321.524 364.800 C 325.251 364.800,331.879 361.160,331.983 359.056 C 332.012 358.468,336.042 354.232,337.174 353.600 C 337.764 353.270,338.597 352.680,339.024 352.289 C 339.451 351.898,340.880 350.668,342.200 349.557 C 343.520 348.446,344.767 347.239,344.972 346.876 C 345.371 346.165,348.805 342.796,351.776 340.200 C 352.783 339.320,354.736 337.555,356.116 336.278 C 357.496 335.000,358.820 333.830,359.059 333.678 C 359.297 333.525,359.880 332.635,360.354 331.700 C 360.828 330.765,361.400 330.000,361.625 330.000 C 362.350 330.000,372.800 319.649,372.800 318.932 C 372.800 318.669,373.134 318.348,373.542 318.218 C 374.582 317.888,380.968 311.397,381.834 309.789 C 382.227 309.058,382.971 308.268,383.486 308.034 C 384.001 307.799,384.540 307.290,384.683 306.903 C 384.826 306.517,386.018 305.120,387.332 303.800 C 392.402 298.704,393.107 292.222,389.112 287.426 C 385.882 283.548,379.782 277.200,379.287 277.200 C 379.101 277.200,378.421 276.637,377.775 275.948 C 377.129 275.260,375.700 274.265,374.600 273.737 C 372.655 272.804,370.843 271.640,368.800 270.009 C 368.250 269.570,367.485 269.208,367.100 269.205 C 366.059 269.197,365.861 269.154,365.153 268.775 C 364.797 268.584,364.437 268.490,364.353 268.566 M340.500 275.465 C 340.225 275.576,340.000 275.956,340.000 276.310 C 340.000 276.894,340.046 276.895,340.500 276.322 C 340.775 275.976,341.270 275.596,341.600 275.478 C 342.133 275.287,342.133 275.263,341.600 275.263 C 341.270 275.263,340.775 275.354,340.500 275.465 M14.093 279.600 C 14.093 280.370,14.175 280.685,14.276 280.300 C 14.376 279.915,14.376 279.285,14.276 278.900 C 14.175 278.515,14.093 278.830,14.093 279.600 M326.916 288.317 C 326.178 288.670,325.467 289.406,325.242 290.051 C 325.008 290.722,324.464 291.269,323.886 291.414 C 323.311 291.558,322.655 292.216,322.261 293.042 C 321.367 294.917,321.429 295.286,322.377 293.731 C 322.802 293.034,323.763 292.044,324.512 291.531 C 325.260 291.019,325.795 290.369,325.699 290.088 C 325.603 289.806,325.767 289.626,326.063 289.688 C 326.358 289.749,326.555 289.575,326.500 289.300 C 326.445 289.025,326.625 288.794,326.900 288.787 C 327.175 288.780,327.749 288.510,328.176 288.187 C 329.143 287.456,328.603 287.512,326.916 288.317 M16.806 320.100 C 16.809 321.035,16.970 322.049,17.163 322.354 C 17.377 322.692,17.430 322.161,17.298 320.988 C 17.112 319.344,17.173 319.104,17.720 319.314 C 18.167 319.486,18.292 319.385,18.137 318.980 C 17.640 317.684,16.800 318.391,16.806 320.100 M16.914 326.600 C 16.917 327.700,16.995 328.103,17.087 327.495 C 17.179 326.886,17.177 325.986,17.082 325.495 C 16.987 325.003,16.911 325.500,16.914 326.600 M16.909 332.000 C 16.909 332.990,16.987 333.395,17.082 332.900 C 17.178 332.405,17.178 331.595,17.082 331.100 C 16.987 330.605,16.909 331.010,16.909 332.000 M187.600 344.052 C 186.170 344.193,166.370 344.278,143.600 344.239 C 120.830 344.200,101.480 344.294,100.600 344.446 C 97.494 344.986,96.991 345.191,96.068 346.290 C 95.556 346.901,94.630 347.970,94.012 348.666 C 93.393 349.363,92.574 350.893,92.192 352.066 C 91.810 353.240,91.278 354.470,91.009 354.800 C 90.199 355.797,90.016 356.680,89.782 360.724 C 89.494 365.715,88.975 368.632,88.063 370.391 C 86.720 372.979,84.948 376.201,84.315 377.206 C 83.971 377.753,83.460 378.920,83.181 379.800 C 82.901 380.680,82.343 381.940,81.941 382.600 C 80.598 384.805,80.427 385.559,80.199 390.292 C 79.639 401.904,77.641 405.246,70.564 406.408 C 69.044 406.658,67.260 407.025,66.600 407.223 C 65.940 407.422,64.500 407.685,63.400 407.807 C 60.926 408.083,58.800 408.741,58.800 409.231 C 58.800 409.434,58.544 409.600,58.231 409.600 C 54.688 409.600,52.127 419.545,54.154 425.430 C 54.679 426.954,55.228 429.211,55.376 430.446 C 55.600 432.320,55.809 432.767,56.643 433.147 C 57.192 433.397,57.920 434.268,58.260 435.083 C 58.601 435.897,59.374 437.022,59.978 437.582 C 60.582 438.142,61.291 439.364,61.554 440.298 C 61.889 441.490,62.369 442.170,63.165 442.582 C 64.267 443.152,64.781 444.164,64.797 445.800 C 64.802 446.262,65.302 446.883,65.980 447.269 C 66.954 447.822,67.242 448.355,67.658 450.367 C 68.010 452.073,68.375 452.865,68.882 453.026 C 69.280 453.152,69.987 454.098,70.453 455.128 C 70.919 456.158,71.908 457.594,72.650 458.319 C 73.393 459.045,74.000 459.988,74.000 460.416 C 74.000 460.844,74.541 461.676,75.203 462.266 C 75.865 462.855,76.590 464.022,76.816 464.858 C 77.076 465.827,77.728 466.762,78.613 467.437 C 79.423 468.055,80.003 468.849,80.006 469.347 C 80.014 470.415,80.316 470.838,81.700 471.718 C 82.420 472.176,82.800 472.764,82.800 473.418 C 82.800 474.077,83.118 474.562,83.734 474.843 C 84.248 475.077,84.976 475.790,85.353 476.428 C 85.730 477.067,86.702 478.086,87.513 478.694 C 88.325 479.302,89.399 480.280,89.901 480.866 C 90.403 481.452,91.620 482.404,92.605 482.982 C 93.590 483.559,94.671 484.564,95.008 485.216 C 95.345 485.867,95.793 486.400,96.004 486.400 C 96.369 486.400,98.480 488.196,100.760 490.446 C 101.343 491.021,102.580 491.880,103.510 492.354 C 104.439 492.828,105.200 493.371,105.200 493.561 C 105.200 493.751,106.163 494.377,107.340 494.953 C 110.697 496.596,112.785 495.610,114.244 491.693 C 114.632 490.652,115.265 489.384,115.652 488.876 C 116.038 488.367,116.577 486.951,116.851 485.729 C 117.124 484.507,117.945 482.516,118.674 481.305 C 119.403 480.094,120.000 478.973,120.000 478.814 C 120.000 478.324,121.306 477.363,123.400 476.314 C 126.631 474.696,127.302 474.458,129.224 474.255 C 130.227 474.148,132.117 473.786,133.424 473.451 C 135.831 472.832,139.521 472.160,142.800 471.744 C 143.790 471.618,145.410 471.363,146.400 471.177 C 150.715 470.367,163.321 471.592,167.400 473.219 C 168.541 473.674,170.320 474.043,172.400 474.258 C 173.390 474.360,175.003 474.812,175.985 475.264 C 176.966 475.715,178.136 476.151,178.585 476.234 C 182.559 476.966,186.399 479.611,188.031 482.741 C 188.564 483.763,189.124 484.694,189.276 484.809 C 189.427 484.923,190.089 486.183,190.745 487.609 C 192.087 490.521,195.141 493.994,197.100 494.836 C 197.815 495.144,198.400 495.518,198.400 495.669 C 198.400 496.673,204.604 494.956,205.312 493.756 C 205.484 493.464,206.384 492.890,207.312 492.478 C 209.485 491.514,214.373 486.553,215.347 484.324 C 215.810 483.264,217.288 481.382,220.300 478.017 C 221.235 476.972,222.000 475.905,222.000 475.645 C 222.000 475.385,222.630 474.801,223.400 474.347 C 224.170 473.893,224.800 473.212,224.800 472.834 C 224.800 472.456,225.430 471.589,226.200 470.908 C 226.970 470.226,227.600 469.408,227.600 469.090 C 227.600 468.772,228.185 467.890,228.900 467.131 C 229.615 466.371,230.650 465.086,231.200 464.274 C 231.750 463.463,232.476 462.709,232.813 462.600 C 233.151 462.491,233.770 461.816,234.189 461.101 C 234.608 460.385,235.456 459.323,236.075 458.740 C 236.694 458.156,237.206 457.346,237.213 456.940 C 237.234 455.715,238.124 454.920,239.676 454.739 C 240.483 454.644,241.064 454.697,240.965 454.856 C 240.867 455.015,240.932 455.234,241.109 455.344 C 241.286 455.453,241.466 455.105,241.511 454.571 C 241.555 454.037,241.435 453.600,241.244 453.600 C 239.639 453.600,240.012 449.504,241.664 448.980 C 242.559 448.695,243.096 447.755,243.391 445.955 C 243.525 445.137,244.086 444.192,244.807 443.571 C 245.463 443.005,246.000 442.306,246.000 442.018 C 246.000 441.132,247.568 438.902,248.330 438.702 C 248.873 438.560,249.178 437.806,249.563 435.651 C 250.065 432.841,250.679 431.944,251.910 432.224 C 252.190 432.288,252.234 432.248,252.008 432.136 C 251.781 432.024,251.713 431.741,251.858 431.507 C 252.002 431.273,252.161 430.074,252.212 428.841 C 252.326 426.038,253.015 423.451,253.826 422.778 C 254.167 422.495,254.706 421.642,255.024 420.882 C 255.341 420.122,256.703 418.398,258.049 417.050 C 263.800 411.295,263.664 403.163,257.809 402.778 C 257.702 402.771,256.987 402.503,256.220 402.183 C 254.390 401.418,251.535 401.445,247.926 402.263 C 244.153 403.117,240.320 403.207,237.800 402.501 C 236.700 402.193,235.575 401.924,235.300 401.904 C 235.025 401.883,234.800 401.749,234.800 401.605 C 234.800 401.461,233.886 400.929,232.769 400.425 C 229.159 398.793,227.555 395.636,227.533 390.121 C 227.523 387.592,227.650 387.012,228.361 386.351 C 229.432 385.353,229.417 385.286,228.154 385.425 C 226.461 385.611,224.524 383.893,224.870 382.512 C 225.169 381.319,224.231 376.326,223.627 375.894 C 223.247 375.622,222.603 374.860,222.196 374.200 C 221.789 373.540,220.957 372.460,220.348 371.800 C 219.007 370.346,218.191 368.439,217.825 365.900 C 217.674 364.855,217.425 364.000,217.272 364.000 C 216.453 364.000,215.550 361.123,214.985 356.715 C 214.876 355.869,214.372 354.808,213.811 354.247 C 213.270 353.707,212.623 352.452,212.373 351.459 C 212.123 350.467,211.622 349.382,211.259 349.049 C 205.491 343.755,200.731 342.750,187.600 344.052 M257.200 359.751 C 257.200 360.054,257.515 360.549,257.900 360.851 C 258.530 361.345,258.547 361.332,258.066 360.718 C 257.772 360.342,257.647 359.847,257.789 359.618 C 257.931 359.388,257.857 359.200,257.624 359.200 C 257.391 359.200,257.200 359.448,257.200 359.751 M46.200 361.014 C 45.540 361.317,45.281 361.572,45.624 361.582 C 45.966 361.592,46.596 361.336,47.024 361.013 C 47.972 360.296,47.769 360.296,46.200 361.014 M247.891 395.489 C 248.601 395.577,249.861 395.579,250.691 395.492 C 251.521 395.405,250.940 395.333,249.400 395.331 C 247.860 395.329,247.181 395.400,247.891 395.489 M255.305 395.487 C 255.914 395.579,256.814 395.577,257.305 395.482 C 257.797 395.387,257.300 395.311,256.200 395.314 C 255.100 395.317,254.697 395.395,255.305 395.487 M56.954 402.177 C 56.832 402.494,56.803 403.079,56.889 403.477 C 56.987 403.928,57.124 403.712,57.254 402.900 C 57.471 401.538,57.330 401.196,56.954 402.177 M54.500 404.676 C 54.885 404.776,55.515 404.776,55.900 404.676 C 56.285 404.575,55.970 404.493,55.200 404.493 C 54.430 404.493,54.115 404.575,54.500 404.676 " stroke="none" fill="#fcfbfb" fill-rule="evenodd"></path><path id="path1" d="M194.627 8.044 C 194.821 8.357,194.417 8.406,193.251 8.209 C 192.131 8.019,191.600 8.074,191.600 8.379 C 191.600 8.704,191.379 8.710,190.800 8.400 C 189.988 7.965,189.860 8.095,189.969 9.239 C 190.072 10.326,189.095 10.740,186.115 10.872 C 183.866 10.972,183.255 11.130,183.286 11.600 C 183.428 13.712,183.236 14.000,181.682 14.000 C 180.212 14.000,180.160 14.048,180.064 15.500 C 180.010 16.325,179.793 17.060,179.582 17.133 C 179.372 17.207,179.200 17.535,179.200 17.862 C 179.200 18.373,179.111 18.368,178.568 17.825 C 178.220 17.477,177.770 17.295,177.568 17.420 C 177.072 17.726,177.098 17.841,177.829 18.571 C 178.400 19.143,178.396 19.200,177.786 19.200 C 177.353 19.200,177.196 19.414,177.345 19.800 C 177.471 20.130,177.446 20.400,177.287 20.400 C 176.884 20.401,176.667 30.198,177.009 32.937 C 177.290 35.186,177.300 35.200,178.646 35.200 L 180.000 35.200 180.000 46.159 L 180.000 57.118 178.667 57.055 C 177.015 56.977,177.166 55.926,177.076 68.100 C 176.992 79.422,177.214 78.404,174.800 78.561 C 174.315 78.593,174.178 79.405,174.086 82.800 C 173.950 87.786,173.871 88.079,172.701 87.985 C 172.206 87.944,171.611 87.931,171.379 87.956 C 171.112 87.984,170.920 90.142,170.853 93.893 C 170.735 100.459,170.826 100.060,169.426 100.141 C 168.489 100.195,168.223 100.481,168.353 101.300 C 168.379 101.465,168.265 101.600,168.100 101.600 C 167.935 101.600,167.779 117.190,167.754 136.243 C 167.705 172.184,167.694 172.440,166.165 171.171 C 165.843 170.903,165.558 171.135,165.227 171.934 C 164.558 173.551,164.797 185.780,165.500 185.850 C 165.775 185.878,166.458 185.923,167.018 185.950 C 167.578 185.978,168.006 186.225,167.970 186.500 C 167.692 188.643,167.987 189.200,169.400 189.200 C 170.677 189.200,170.800 189.301,170.800 190.357 C 170.800 191.506,171.302 191.948,172.976 192.269 C 173.981 192.462,173.959 192.429,174.073 193.921 L 174.170 195.200 177.312 195.200 C 180.232 195.200,180.437 195.255,180.209 195.970 C 180.049 196.476,180.211 196.884,180.682 197.158 C 181.245 197.486,181.271 197.584,180.800 197.616 C 180.398 197.643,180.464 197.763,181.000 197.981 C 182.223 198.477,192.400 198.506,192.400 198.013 C 192.400 197.786,192.591 197.600,192.824 197.600 C 193.065 197.600,193.111 197.815,192.930 198.100 C 192.132 199.357,192.569 200.809,193.851 201.163 C 195.087 201.504,207.654 201.515,208.784 201.175 C 209.834 200.860,210.363 200.233,209.856 199.906 C 209.571 199.722,209.678 199.610,210.143 199.606 C 210.638 199.602,210.809 199.400,210.655 199.000 C 210.460 198.491,211.047 198.398,214.513 198.387 C 220.122 198.370,219.930 198.599,219.950 191.880 L 219.967 186.400 218.683 186.353 C 217.977 186.327,217.265 186.327,217.100 186.353 C 216.847 186.393,216.684 184.453,216.692 181.509 C 216.693 181.129,216.553 180.905,216.381 181.012 C 216.209 181.118,215.993 180.980,215.901 180.704 C 215.810 180.429,215.389 180.203,214.967 180.202 C 213.680 180.199,213.812 173.822,215.100 173.750 C 215.595 173.722,216.180 173.678,216.400 173.650 C 216.641 173.620,216.800 171.767,216.800 169.000 L 216.800 164.400 217.900 164.394 C 219.022 164.388,220.096 163.915,220.034 163.455 C 220.015 163.315,220.000 136.580,220.000 104.045 L 220.000 44.889 221.400 44.626 C 222.170 44.482,222.822 44.147,222.848 43.882 C 223.064 41.712,223.032 17.975,222.813 17.620 C 222.657 17.368,222.005 17.123,221.365 17.075 C 220.394 17.002,220.177 16.788,220.064 15.795 C 219.903 14.381,219.429 14.014,217.755 14.006 C 216.686 14.001,216.525 13.867,216.614 13.057 C 216.719 12.098,216.320 11.104,215.855 11.166 C 215.715 11.185,215.555 11.184,215.500 11.165 C 214.379 10.772,208.207 10.859,207.695 11.275 C 207.338 11.564,207.160 11.610,207.299 11.378 C 207.458 11.112,206.955 10.943,205.938 10.920 C 204.521 10.889,202.571 10.000,203.920 10.000 C 204.184 10.000,204.400 9.749,204.400 9.443 C 204.400 8.818,203.322 8.277,202.764 8.622 C 202.564 8.746,202.400 8.646,202.400 8.399 C 202.400 8.096,201.787 8.033,200.500 8.204 C 199.111 8.389,198.761 8.343,199.200 8.035 C 199.646 7.721,199.102 7.611,197.076 7.606 C 195.182 7.602,194.436 7.735,194.627 8.044 M201.187 12.876 C 201.194 12.588,201.376 12.462,201.592 12.595 C 201.807 12.728,202.347 12.642,202.792 12.404 C 203.408 12.075,203.601 12.094,203.606 12.486 C 203.611 12.877,203.696 12.868,203.961 12.449 C 204.153 12.146,204.511 12.021,204.755 12.172 C 205.421 12.584,205.291 13.321,204.600 13.055 C 204.270 12.929,203.986 13.044,203.968 13.313 C 203.944 13.682,203.888 13.679,203.735 13.300 C 203.624 13.025,203.346 12.800,203.118 12.800 C 202.872 12.800,202.912 13.053,203.215 13.418 C 203.497 13.758,203.992 13.935,204.315 13.811 C 204.637 13.687,205.104 13.746,205.351 13.941 C 205.598 14.135,207.312 14.535,209.161 14.829 C 211.009 15.123,212.719 15.604,212.961 15.898 C 213.202 16.192,214.191 17.190,215.159 18.116 C 218.989 21.783,218.832 21.316,218.932 29.398 C 218.983 33.533,218.873 34.974,218.498 35.100 C 218.221 35.192,218.097 35.433,218.221 35.634 C 218.345 35.835,218.257 36.000,218.024 36.000 C 217.791 36.000,217.600 36.461,217.600 37.024 C 217.600 37.587,217.452 37.956,217.272 37.844 C 215.525 36.765,213.843 55.902,215.008 63.600 C 215.195 64.837,215.740 112.621,215.633 118.400 C 215.591 120.710,215.556 130.590,215.557 140.355 C 215.558 158.470,215.340 161.742,214.061 162.800 C 213.662 163.130,213.116 164.210,212.849 165.200 C 212.314 167.182,212.099 167.751,210.882 170.400 C 209.506 173.395,208.665 178.398,209.191 180.456 C 209.823 182.925,210.440 184.400,210.843 184.400 C 211.449 184.400,213.777 189.344,213.884 190.857 C 214.008 192.623,213.599 193.002,210.777 193.737 C 207.635 194.556,205.504 195.521,205.795 195.992 C 205.934 196.216,205.902 196.404,205.724 196.409 C 205.546 196.414,203.088 196.663,200.263 196.962 C 195.151 197.503,193.871 197.454,192.881 196.678 C 192.509 196.386,192.489 196.192,192.811 195.993 C 193.363 195.652,190.370 194.213,188.342 193.845 C 187.540 193.699,186.205 193.040,185.376 192.381 C 184.546 191.721,183.402 191.071,182.834 190.934 C 180.649 190.411,174.800 186.628,174.800 185.738 C 174.800 185.472,174.485 185.154,174.099 185.031 C 171.932 184.344,170.387 180.132,171.070 176.779 C 171.405 175.141,171.835 172.990,172.027 172.000 C 172.219 171.010,172.346 158.320,172.309 143.800 C 172.212 105.270,172.211 105.304,173.896 103.173 C 174.168 102.829,174.735 100.939,175.156 98.973 C 175.577 97.008,176.405 94.140,176.998 92.600 C 177.590 91.060,178.161 89.350,178.267 88.800 C 178.373 88.250,178.651 87.350,178.884 86.800 C 179.862 84.489,179.976 84.145,180.144 83.000 C 180.241 82.340,180.770 80.436,181.321 78.768 C 182.116 76.359,182.317 74.960,182.298 71.968 C 182.271 67.858,182.667 63.796,183.189 62.820 C 183.527 62.188,183.819 60.805,184.290 57.600 C 184.651 55.145,184.667 40.854,184.313 37.400 C 184.057 34.906,183.604 32.364,182.352 26.400 C 181.416 21.942,185.383 15.858,190.135 14.460 C 191.336 14.107,192.061 13.639,192.229 13.107 C 192.371 12.660,192.603 12.453,192.744 12.647 C 193.028 13.039,194.800 13.198,194.800 12.832 C 194.800 12.704,195.773 12.600,196.962 12.600 C 198.151 12.600,199.040 12.735,198.938 12.900 C 198.836 13.065,198.949 13.200,199.189 13.200 C 199.429 13.200,199.731 12.925,199.860 12.588 C 200.063 12.059,200.168 12.073,200.635 12.688 C 200.989 13.155,201.179 13.220,201.187 12.876 M100.865 38.699 C 100.132 38.829,99.977 39.053,100.148 39.736 C 100.586 41.479,100.228 41.553,91.083 41.628 C 81.951 41.702,81.821 41.729,81.789 43.568 C 81.776 44.316,81.458 44.634,80.386 44.968 C 79.046 45.386,78.822 45.691,78.604 47.400 C 78.548 47.840,78.479 48.331,78.451 48.490 C 78.423 48.650,77.956 48.612,77.414 48.405 C 76.745 48.151,76.340 48.174,76.152 48.477 C 75.975 48.764,76.077 48.820,76.438 48.632 C 76.747 48.472,76.651 48.624,76.224 48.970 C 75.796 49.317,75.646 49.600,75.888 49.600 C 76.355 49.600,76.348 50.585,75.878 51.055 C 75.543 51.390,75.514 60.638,75.844 61.870 C 76.002 62.457,76.324 62.692,76.839 62.593 C 77.257 62.512,77.603 62.661,77.606 62.923 C 77.610 63.210,77.766 63.162,78.000 62.800 C 78.489 62.044,78.445 61.435,78.611 71.400 C 78.778 81.392,78.778 81.395,80.118 81.418 C 81.598 81.444,81.542 81.213,81.632 87.709 L 81.713 93.600 82.757 93.640 L 83.800 93.680 82.800 93.958 L 81.800 94.235 81.691 101.718 L 81.582 109.200 83.191 109.200 L 84.800 109.200 84.847 153.100 C 84.873 177.245,84.861 197.243,84.821 197.540 C 84.780 197.837,84.923 197.971,85.139 197.838 C 85.355 197.704,85.623 197.821,85.734 198.098 C 85.892 198.488,85.944 198.483,85.968 198.077 C 86.020 197.221,87.725 198.629,87.882 199.658 C 88.084 200.984,88.738 201.558,89.823 201.361 C 90.682 201.206,90.800 201.330,90.800 202.392 C 90.800 203.056,90.991 203.600,91.224 203.600 C 91.457 203.600,91.544 203.767,91.418 203.970 C 91.281 204.192,93.477 204.313,96.894 204.270 C 101.123 204.218,102.612 204.071,102.650 203.700 C 102.677 203.425,102.745 203.110,102.800 203.000 C 102.855 202.890,102.945 202.440,103.000 202.000 C 103.055 201.560,103.123 201.088,103.150 200.951 C 103.178 200.814,103.455 200.914,103.766 201.172 C 104.238 201.563,116.630 201.573,117.100 201.183 C 117.155 201.137,117.365 201.078,117.567 201.050 C 118.148 200.971,118.584 200.400,118.063 200.400 C 117.560 200.400,118.205 198.931,119.000 198.265 C 119.228 198.074,119.019 198.014,118.514 198.124 C 117.977 198.241,117.661 198.137,117.714 197.859 C 117.761 197.607,117.530 197.462,117.200 197.537 C 116.870 197.612,115.970 197.634,115.200 197.585 C 107.724 197.113,102.947 197.790,103.333 199.266 C 103.501 199.908,103.435 199.961,102.959 199.566 C 102.488 199.175,102.429 199.209,102.635 199.748 C 102.811 200.207,102.720 200.344,102.335 200.197 C 102.031 200.080,99.986 199.935,97.791 199.876 C 94.044 199.774,90.382 198.151,91.463 197.071 C 91.553 196.980,91.098 196.800,90.449 196.670 C 88.976 196.375,88.846 195.733,89.025 189.600 C 89.099 187.070,89.251 173.390,89.364 159.200 C 89.532 138.184,89.728 128.853,90.070 125.632 C 90.084 125.504,90.073 125.310,90.046 125.200 C 90.019 125.090,89.926 122.926,89.839 120.392 C 89.752 117.857,89.475 115.023,89.225 114.093 C 88.260 110.508,87.984 102.390,88.583 95.180 C 88.924 91.074,88.319 87.147,86.821 83.757 C 85.566 80.915,84.714 76.727,84.760 73.631 C 84.785 71.991,84.659 70.549,84.480 70.425 C 84.149 70.195,82.800 64.958,82.800 63.901 C 82.800 63.122,80.894 61.094,80.431 61.381 C 79.888 61.716,79.651 59.952,79.519 54.600 C 79.429 50.984,79.523 49.788,79.900 49.750 C 80.175 49.723,80.698 49.678,81.061 49.650 C 81.425 49.623,82.384 48.884,83.193 48.008 C 84.001 47.132,85.098 46.336,85.631 46.238 C 86.164 46.140,86.690 46.027,86.800 45.987 C 86.910 45.947,88.800 45.956,91.000 46.007 C 97.012 46.145,97.247 46.142,99.363 45.883 C 100.443 45.751,101.468 45.413,101.641 45.133 C 101.815 44.853,102.080 44.747,102.231 44.898 C 102.382 45.048,102.887 44.962,103.353 44.705 C 104.416 44.120,104.516 44.091,107.267 43.602 C 109.622 43.184,111.491 43.238,112.318 43.749 C 112.583 43.913,112.800 43.912,112.800 43.747 C 112.800 43.582,113.025 43.738,113.300 44.093 C 113.575 44.448,114.421 45.078,115.180 45.493 C 115.940 45.908,116.851 46.776,117.205 47.423 C 117.559 48.071,118.250 48.780,118.741 49.000 C 120.393 49.740,121.504 56.998,120.609 61.200 C 120.492 61.750,120.422 67.240,120.452 73.400 C 120.506 84.200,120.469 94.670,120.286 120.200 C 120.201 132.078,120.366 135.091,121.412 140.800 C 121.593 141.790,121.698 142.995,121.645 143.478 C 121.592 143.961,121.731 144.697,121.954 145.114 C 122.677 146.465,122.433 157.741,121.572 162.773 C 121.099 165.535,121.089 170.922,121.556 171.420 C 121.751 171.629,122.095 172.790,122.321 174.000 C 122.987 177.577,123.168 178.247,123.797 179.453 C 124.126 180.084,124.396 180.748,124.398 180.929 C 124.399 181.109,124.625 181.508,124.900 181.815 C 126.165 183.225,126.352 183.610,126.609 185.320 C 126.759 186.323,126.734 187.381,126.552 187.672 C 126.370 187.962,126.216 188.414,126.211 188.676 C 126.186 189.792,122.253 194.000,121.235 194.000 C 120.830 194.000,120.274 194.270,120.000 194.600 C 119.726 194.930,119.265 195.200,118.976 195.200 C 118.203 195.200,118.459 197.295,119.309 197.929 C 120.261 198.639,127.376 198.439,127.450 197.700 C 127.478 197.425,127.522 196.750,127.550 196.200 C 127.592 195.365,127.799 195.200,128.810 195.200 C 130.597 195.200,130.794 194.208,130.764 185.362 C 130.736 176.972,130.791 177.184,128.602 177.058 L 127.601 177.000 127.600 157.549 C 127.600 136.718,127.651 137.244,125.632 137.092 L 124.800 137.030 124.774 95.615 C 124.743 47.086,124.759 48.216,124.100 48.150 C 123.825 48.123,123.465 48.057,123.300 48.004 C 123.135 47.951,122.739 47.883,122.419 47.854 C 121.757 47.793,121.105 45.237,121.374 43.757 C 121.574 42.651,120.038 41.346,119.003 41.743 C 118.558 41.914,118.398 41.691,118.394 40.887 C 118.381 38.690,118.316 38.673,109.735 38.601 C 105.371 38.564,101.379 38.608,100.865 38.699 M291.490 63.501 C 291.099 63.590,290.805 63.874,290.837 64.131 C 291.080 66.101,290.906 66.238,288.100 66.290 C 286.615 66.318,285.265 66.354,285.100 66.370 C 284.935 66.387,284.800 67.012,284.800 67.760 C 284.800 69.003,284.670 69.151,283.300 69.473 C 281.992 69.780,281.784 69.990,281.675 71.113 C 281.560 72.288,281.430 72.400,280.175 72.400 C 279.419 72.400,278.781 72.535,278.758 72.700 C 278.735 72.865,278.675 74.094,278.625 75.430 C 278.519 78.238,278.202 78.946,277.170 78.676 C 276.762 78.570,276.258 78.689,276.048 78.942 C 275.743 79.310,275.376 90.610,275.488 96.200 C 275.501 96.860,275.547 99.740,275.590 102.600 C 275.634 105.477,275.854 108.023,276.083 108.300 C 276.373 108.649,276.363 108.800,276.049 108.800 C 275.437 108.800,275.478 109.884,276.100 110.135 C 276.500 110.296,276.500 110.343,276.100 110.368 C 275.756 110.390,275.600 111.186,275.600 112.915 L 275.600 115.430 274.321 115.527 C 272.529 115.664,272.613 115.306,272.475 123.432 C 272.357 130.392,272.308 130.803,271.575 130.850 C 271.149 130.878,270.620 130.945,270.400 131.000 C 270.180 131.055,269.865 131.123,269.700 131.150 C 269.535 131.178,269.372 133.006,269.338 135.213 C 269.270 139.557,269.068 140.556,268.308 140.303 C 266.548 139.716,266.003 142.864,266.361 151.547 C 266.392 152.289,266.573 152.448,267.200 152.284 C 267.640 152.169,268.000 152.221,268.000 152.400 C 268.000 152.579,268.359 152.631,268.797 152.517 C 269.619 152.302,270.081 151.052,270.613 147.600 C 270.882 145.854,271.906 143.600,272.431 143.600 C 272.759 143.600,275.600 137.411,275.600 136.696 C 275.600 136.401,275.793 135.967,276.028 135.732 C 277.547 134.213,278.520 125.359,278.943 109.205 C 279.072 104.258,279.268 99.758,279.378 99.205 C 279.615 98.011,280.363 89.896,280.647 85.450 C 280.757 83.717,281.085 81.917,281.376 81.450 C 281.667 80.982,282.027 80.060,282.177 79.400 C 282.905 76.187,285.939 72.981,289.400 71.768 C 289.840 71.614,291.550 70.848,293.200 70.065 C 294.850 69.283,296.290 68.617,296.400 68.587 C 296.510 68.556,296.870 68.416,297.200 68.276 C 300.573 66.842,309.825 67.343,311.229 69.035 C 311.487 69.346,311.926 69.600,312.205 69.600 C 313.307 69.600,315.936 71.095,318.052 72.924 C 322.064 76.391,323.090 80.939,321.408 87.800 C 321.030 89.340,320.659 91.050,320.582 91.600 C 320.241 94.046,320.381 114.497,320.757 117.200 C 320.987 118.850,321.181 120.417,321.188 120.683 C 321.195 120.988,321.754 121.136,322.700 121.083 C 324.570 120.980,324.417 122.240,324.666 104.802 C 324.775 97.213,324.894 90.975,324.932 90.941 C 324.969 90.906,325.450 90.816,326.000 90.739 C 327.563 90.522,327.602 90.292,327.573 81.499 C 327.544 72.920,327.250 71.580,325.619 72.588 C 325.144 72.882,324.693 72.125,324.574 70.832 C 324.522 70.265,324.462 69.710,324.440 69.600 C 324.418 69.490,323.729 69.400,322.909 69.400 C 321.472 69.400,321.417 69.348,321.409 68.000 C 321.404 67.179,321.193 66.580,320.900 66.550 C 320.625 66.523,320.265 66.457,320.100 66.404 C 319.935 66.351,319.485 66.340,319.100 66.379 C 318.650 66.425,318.382 66.156,318.350 65.625 C 318.259 64.121,318.204 63.974,317.600 63.593 C 317.029 63.234,293.034 63.149,291.490 63.501 M11.713 97.093 C 11.445 97.184,11.110 97.875,10.968 98.629 C 10.735 99.870,10.582 100.000,9.355 100.000 C 8.610 100.000,7.977 100.135,7.948 100.300 C 7.919 100.465,7.868 101.135,7.834 101.788 C 7.780 102.812,7.565 103.025,6.286 103.328 C 4.940 103.646,4.800 103.805,4.800 105.008 C 4.800 106.288,4.746 106.333,3.300 106.268 L 1.800 106.200 1.701 130.071 C 1.593 156.316,1.515 155.200,3.443 155.200 L 4.800 155.200 4.800 163.133 C 4.800 171.127,4.695 171.943,3.764 171.170 C 3.074 170.597,1.312 172.272,1.941 172.901 C 2.189 173.149,2.225 173.586,2.027 173.961 C 1.613 174.752,1.702 182.813,2.133 183.500 C 2.306 183.775,2.349 184.160,2.228 184.355 C 2.018 184.694,3.166 185.923,3.470 185.685 C 4.778 184.660,4.929 187.080,4.808 207.143 C 4.801 208.358,4.709 208.464,3.846 208.247 C 2.804 207.986,1.742 208.859,2.200 209.600 C 2.348 209.839,2.251 210.297,1.985 210.618 C 1.629 211.047,1.624 211.200,1.965 211.200 C 2.271 211.200,2.311 211.438,2.083 211.900 C 1.269 213.552,1.748 218.468,2.790 219.156 C 3.609 219.696,3.711 219.703,3.428 219.200 C 3.242 218.870,3.469 218.960,3.932 219.400 C 4.395 219.840,4.818 220.785,4.872 221.500 C 4.926 222.215,5.157 222.828,5.385 222.863 C 6.847 223.084,8.698 223.026,9.268 222.741 C 9.698 222.525,10.007 222.583,10.137 222.903 C 10.288 223.275,10.443 223.250,10.753 222.803 C 11.017 222.423,11.028 222.068,10.783 221.823 C 10.573 221.613,10.400 221.056,10.400 220.587 C 10.400 219.677,7.675 217.200,6.674 217.200 C 5.928 217.200,5.469 210.510,6.154 209.623 C 6.457 209.232,6.461 209.130,6.167 209.306 C 5.928 209.448,5.733 209.335,5.733 209.054 C 5.733 208.506,6.702 208.445,7.507 208.943 C 7.778 209.110,8.000 209.156,8.000 209.044 C 8.000 208.932,8.286 206.717,8.634 204.120 C 9.290 199.241,9.183 191.473,8.384 185.947 C 8.182 184.546,8.010 181.330,8.002 178.800 C 7.994 176.270,7.820 173.935,7.615 173.611 C 7.369 173.222,7.404 172.921,7.718 172.727 C 8.296 172.370,8.384 158.241,7.852 151.200 C 7.421 145.497,7.423 145.793,7.786 134.400 C 8.040 126.466,7.991 124.730,7.478 123.266 C 4.725 115.414,5.095 112.532,9.417 108.196 C 13.009 104.592,15.046 103.540,18.712 103.394 C 21.856 103.268,23.200 103.042,24.298 102.455 C 24.736 102.220,25.204 102.137,25.338 102.271 C 25.471 102.405,25.855 102.286,26.190 102.008 C 26.686 101.597,26.801 101.605,26.806 102.051 C 26.811 102.497,26.880 102.492,27.177 102.024 C 27.670 101.244,29.401 101.061,30.501 101.672 C 30.995 101.947,31.505 102.178,31.634 102.186 C 32.404 102.232,43.151 113.819,43.656 115.147 C 44.156 116.463,44.148 119.409,43.632 123.832 C 43.195 127.571,43.342 131.690,43.987 133.800 C 44.189 134.460,44.410 135.450,44.477 136.000 C 44.545 136.550,44.755 137.113,44.945 137.251 C 45.256 137.478,45.547 138.585,46.245 142.183 C 46.652 144.281,47.760 146.400,48.452 146.400 C 48.816 146.400,49.222 146.679,49.353 147.021 C 49.514 147.442,49.432 147.546,49.095 147.344 C 48.719 147.118,48.707 147.185,49.044 147.623 C 49.353 148.025,49.510 154.399,49.562 168.682 C 49.625 186.210,49.890 193.223,50.512 193.845 C 50.665 193.998,52.727 194.144,53.503 194.056 C 54.020 193.998,54.220 150.062,53.715 147.467 C 53.556 146.650,53.305 146.384,52.816 146.512 C 51.133 146.952,50.844 146.044,50.759 140.070 C 50.715 136.952,50.571 134.385,50.439 134.367 C 49.227 134.201,47.796 133.930,47.718 133.852 C 47.666 133.799,47.597 127.631,47.566 120.144 C 47.526 110.313,47.384 106.516,47.055 106.470 C 46.805 106.436,46.156 106.346,45.614 106.272 C 44.860 106.168,44.625 105.893,44.614 105.101 C 44.597 103.822,44.268 103.476,42.892 103.292 C 41.587 103.117,41.691 103.218,41.452 101.898 C 41.161 100.290,40.874 100.000,39.576 100.000 C 38.541 100.000,38.400 99.859,38.400 98.824 C 38.400 98.177,38.175 97.504,37.900 97.329 C 37.397 97.009,12.621 96.786,11.713 97.093 M321.200 122.776 C 321.200 124.091,320.922 124.366,319.474 124.486 C 318.405 124.574,317.740 126.049,317.390 129.113 C 316.923 133.201,316.683 134.117,315.871 134.925 C 314.972 135.820,312.859 139.140,311.621 141.600 C 310.465 143.900,309.940 147.626,310.230 151.485 C 310.671 157.364,310.698 157.974,310.819 164.800 C 310.952 172.265,311.764 177.040,312.792 176.405 C 313.171 176.170,313.491 176.212,313.697 176.521 C 314.955 178.415,315.200 175.612,315.200 159.324 C 315.200 143.483,315.214 143.199,316.000 143.150 C 316.440 143.123,316.980 143.055,317.200 143.000 C 317.420 142.945,317.780 142.878,318.000 142.850 C 318.220 142.822,318.400 142.170,318.400 141.400 C 318.400 140.630,318.580 139.978,318.800 139.950 C 319.020 139.922,319.380 139.855,319.600 139.800 C 319.820 139.745,320.289 139.678,320.643 139.650 C 321.041 139.619,321.198 139.372,321.055 139.000 C 320.929 138.670,320.975 138.400,321.159 138.400 C 321.342 138.400,321.507 134.620,321.526 130.000 C 321.544 125.380,321.478 121.600,321.379 121.600 C 321.281 121.600,321.200 122.129,321.200 122.776 M266.000 155.564 C 266.000 155.790,265.730 155.871,265.400 155.745 C 265.067 155.617,264.800 155.733,264.800 156.006 C 264.800 156.384,264.669 156.390,264.236 156.030 C 263.847 155.707,263.590 155.693,263.410 155.983 C 263.267 156.216,263.436 156.516,263.786 156.650 C 264.367 156.873,264.366 156.937,263.776 157.368 C 263.420 157.628,263.166 158.102,263.212 158.421 C 263.667 161.591,263.124 186.400,262.600 186.400 C 262.270 186.400,262.000 186.602,262.000 186.849 C 262.000 187.177,261.851 187.175,261.449 186.841 C 261.014 186.480,260.833 186.575,260.591 187.292 C 260.128 188.666,260.096 188.866,260.046 190.700 C 260.003 192.304,259.934 192.400,258.824 192.400 C 258.177 192.400,257.523 192.601,257.372 192.846 C 257.005 193.439,256.921 207.627,257.283 207.851 C 257.438 207.947,257.464 208.290,257.340 208.613 C 257.216 208.936,257.324 209.200,257.581 209.200 C 257.837 209.200,257.944 209.368,257.817 209.572 C 257.482 210.114,258.387 210.555,259.996 210.634 C 260.768 210.672,261.785 210.725,262.257 210.751 C 262.833 210.784,263.202 211.152,263.383 211.875 C 263.832 213.663,264.449 213.820,271.523 213.944 C 275.192 214.008,278.254 214.121,278.327 214.194 C 278.474 214.341,278.722 215.520,278.769 216.300 C 278.793 216.687,281.203 216.800,289.400 216.800 L 300.000 216.800 300.000 215.400 L 300.000 214.000 302.100 213.939 C 303.255 213.906,304.380 213.836,304.600 213.785 C 304.820 213.734,305.198 213.672,305.439 213.646 C 305.705 213.618,305.912 212.457,305.963 210.710 C 306.062 207.323,305.867 207.705,307.600 207.507 C 308.370 207.419,309.023 207.134,309.050 206.874 C 309.078 206.613,309.123 204.445,309.150 202.055 L 309.200 197.711 310.153 197.893 C 310.677 197.993,311.245 197.851,311.415 197.576 C 311.627 197.232,311.548 197.167,311.162 197.368 C 310.827 197.541,310.857 197.445,311.235 197.130 C 312.012 196.482,311.980 196.725,312.250 189.446 C 312.426 184.729,312.360 183.413,311.936 183.115 C 311.517 182.822,311.510 182.695,311.900 182.536 C 312.615 182.246,312.519 181.200,311.776 181.200 C 311.433 181.200,311.264 181.380,311.400 181.600 C 311.604 181.930,310.581 182.188,309.554 182.066 C 309.419 182.049,309.004 183.243,308.631 184.718 C 307.018 191.096,306.689 192.173,305.948 193.493 C 305.517 194.261,305.079 195.633,304.975 196.544 C 304.521 200.507,304.350 201.242,303.499 202.882 C 302.248 205.295,299.210 209.200,298.585 209.200 C 298.300 209.200,298.007 209.339,297.933 209.509 C 296.701 212.365,288.329 213.119,282.800 210.871 C 281.181 210.213,277.314 209.593,272.544 209.229 C 269.408 208.989,267.867 208.697,267.344 208.243 C 266.935 207.889,265.822 206.936,264.871 206.126 C 261.594 203.337,260.927 200.187,263.016 197.375 C 263.517 196.701,264.220 195.447,264.579 194.589 C 264.938 193.730,265.371 192.932,265.543 192.814 C 265.715 192.696,266.270 191.733,266.776 190.674 L 267.697 188.748 267.440 173.674 C 267.163 157.330,267.140 156.800,266.713 156.800 C 266.554 156.800,266.522 156.548,266.640 156.240 C 266.758 155.933,266.662 155.562,266.427 155.417 C 266.192 155.272,266.000 155.338,266.000 155.564 M53.539 195.271 C 53.506 195.562,53.448 195.980,53.412 196.200 C 53.375 196.420,53.224 197.320,53.075 198.200 C 52.927 199.080,52.770 200.674,52.726 201.743 C 52.653 203.516,52.530 203.742,51.323 204.317 C 50.595 204.664,50.000 205.175,50.000 205.451 C 50.000 205.728,49.634 206.575,49.186 207.334 C 48.456 208.571,47.827 208.989,46.057 209.412 C 45.759 209.483,44.589 209.905,43.457 210.349 C 42.326 210.793,40.320 211.254,39.000 211.373 C 33.505 211.870,31.990 212.130,31.558 212.651 C 31.307 212.953,30.886 213.200,30.621 213.200 C 30.024 213.200,25.627 216.583,24.930 217.578 C 24.649 217.980,23.919 218.425,23.309 218.568 C 20.742 219.169,20.000 219.665,20.000 220.781 C 20.000 222.422,18.482 223.095,16.175 222.478 C 12.179 221.409,10.526 222.131,11.044 224.719 L 11.281 225.903 14.740 225.851 C 17.501 225.810,18.175 225.685,18.077 225.232 C 17.972 224.742,18.050 224.742,18.654 225.232 C 19.101 225.595,19.245 225.619,19.053 225.300 C 18.888 225.025,18.943 224.800,19.176 224.800 C 19.409 224.800,19.600 224.609,19.600 224.376 C 19.600 224.143,19.432 224.056,19.228 224.183 C 19.023 224.309,18.725 224.202,18.566 223.945 C 18.393 223.666,18.449 223.583,18.704 223.741 C 18.939 223.886,19.194 223.817,19.271 223.587 C 19.354 223.338,21.160 223.133,23.739 223.082 C 28.320 222.990,29.200 222.610,29.200 220.724 C 29.200 220.198,29.506 220.000,30.320 220.000 C 31.741 220.000,32.400 219.341,32.400 217.920 L 32.400 216.800 38.700 216.754 C 42.165 216.729,45.282 216.734,45.627 216.767 C 46.488 216.847,47.750 215.367,47.461 214.615 C 47.295 214.181,47.487 213.987,48.113 213.957 C 50.465 213.845,50.503 213.822,50.657 212.429 C 50.839 210.784,50.839 210.784,52.157 210.643 C 53.854 210.462,53.875 210.418,53.950 206.800 C 53.998 204.505,54.045 204.400,55.024 204.400 C 55.587 204.400,55.949 204.240,55.828 204.045 C 55.707 203.850,55.862 203.480,56.172 203.224 C 57.493 202.127,56.604 194.932,55.250 195.769 C 55.038 195.900,54.580 195.723,54.232 195.375 C 53.750 194.893,53.586 194.868,53.539 195.271 M148.000 232.995 C 148.562 233.685,148.544 233.701,147.700 233.251 C 146.857 232.802,146.620 232.926,146.766 233.741 C 147.036 235.247,146.434 235.479,142.241 235.486 C 138.168 235.492,136.978 235.717,137.400 236.400 C 137.517 236.590,137.418 236.865,137.179 237.013 C 136.941 237.160,136.842 237.533,136.960 237.840 C 137.096 238.194,136.885 238.422,136.387 238.460 C 135.954 238.493,135.375 238.538,135.100 238.560 C 134.371 238.618,134.013 239.252,134.006 240.500 L 134.000 241.600 131.000 241.600 C 128.622 241.600,127.990 241.724,127.950 242.200 C 127.922 242.530,127.855 242.980,127.800 243.200 C 127.745 243.420,127.678 243.875,127.650 244.212 C 127.606 244.746,126.072 244.824,115.500 244.823 C 108.845 244.822,103.041 244.825,102.603 244.828 C 101.335 244.839,100.001 245.916,100.106 246.844 C 100.197 247.654,100.032 247.678,94.100 247.718 L 88.000 247.760 87.953 248.780 C 87.927 249.341,87.934 250.025,87.970 250.300 C 88.028 250.743,84.085 251.094,82.077 250.825 C 81.790 250.786,81.586 250.990,81.625 251.277 C 81.915 253.443,81.619 254.000,80.176 254.000 C 79.393 254.000,78.856 254.168,78.983 254.372 C 79.109 254.577,79.018 254.865,78.779 255.013 C 78.541 255.160,78.440 255.527,78.555 255.828 C 78.933 256.811,78.078 256.884,65.606 256.940 C 58.823 256.970,53.356 257.129,53.457 257.293 C 53.559 257.457,53.385 257.493,53.072 257.372 C 52.759 257.252,52.397 257.431,52.267 257.770 C 52.126 258.137,51.773 258.288,51.395 258.143 C 50.879 257.945,50.809 258.096,51.023 258.949 L 51.287 260.000 45.267 260.000 C 39.056 260.000,38.685 260.094,38.556 261.700 C 38.525 262.085,38.477 262.580,38.450 262.800 C 38.423 263.020,37.809 263.200,37.087 263.200 C 35.749 263.200,35.696 263.286,35.498 265.800 C 35.478 266.051,32.736 266.200,28.138 266.200 C 20.342 266.200,20.322 266.205,20.235 268.184 C 20.210 268.738,19.813 269.046,18.880 269.237 C 17.223 269.576,17.156 269.648,17.114 271.159 C 17.085 272.169,16.904 272.409,16.139 272.450 C 15.623 272.478,14.975 272.522,14.700 272.550 C 13.888 272.631,13.798 317.837,14.610 318.148 C 14.934 318.273,15.200 318.165,15.200 317.907 C 15.200 317.558,15.321 317.561,15.680 317.920 C 15.944 318.184,16.555 318.400,17.037 318.400 C 17.520 318.400,18.014 318.661,18.137 318.980 C 18.278 319.347,18.167 319.485,17.834 319.358 C 17.060 319.061,16.506 338.757,17.203 341.800 C 17.254 342.020,17.273 342.335,17.247 342.500 C 17.198 342.811,17.571 342.892,19.100 342.903 C 19.999 342.910,20.000 342.920,20.032 350.155 C 20.061 356.514,20.130 358.152,20.459 360.282 C 20.500 360.548,20.683 360.672,20.867 360.559 C 21.050 360.445,21.200 360.563,21.200 360.820 C 21.200 361.118,21.561 361.196,22.200 361.036 C 23.139 360.800,23.200 360.880,23.200 362.350 C 23.200 364.005,23.630 364.400,25.433 364.400 C 26.144 364.400,26.400 364.619,26.400 365.226 C 26.400 367.459,26.664 367.542,33.801 367.537 C 37.633 367.534,40.312 367.381,40.182 367.171 C 40.059 366.972,40.251 366.922,40.609 367.059 C 41.030 367.220,41.234 367.113,41.187 366.754 C 40.994 365.301,41.689 364.400,43.004 364.400 C 44.344 364.400,44.800 363.881,44.800 362.357 C 44.800 361.612,46.529 360.585,47.143 360.965 C 47.295 361.059,47.472 359.848,47.537 358.274 C 47.663 355.196,47.661 355.204,48.463 355.011 C 50.646 354.487,50.593 354.597,50.716 350.315 C 50.844 345.852,50.912 345.600,52.000 345.600 C 52.414 345.600,52.881 345.392,53.038 345.138 C 53.198 344.880,53.149 344.784,52.928 344.921 C 52.711 345.055,52.533 344.920,52.533 344.621 C 52.533 344.321,52.773 344.168,53.067 344.281 C 53.360 344.393,53.600 344.286,53.600 344.043 C 53.600 343.799,53.375 343.594,53.100 343.587 C 52.757 343.579,52.792 343.422,53.210 343.087 C 53.894 342.542,53.881 342.638,53.950 337.400 L 54.000 333.600 55.400 333.600 C 56.170 333.600,56.779 333.465,56.753 333.300 C 56.727 333.135,56.727 331.076,56.753 328.724 L 56.800 324.448 58.300 324.324 C 59.678 324.210,59.816 324.086,60.000 322.804 C 60.167 321.636,60.364 321.407,61.200 321.404 C 62.513 321.399,63.095 320.843,62.970 319.711 C 62.871 318.805,64.025 317.758,64.547 318.281 C 64.686 318.420,64.800 318.313,64.800 318.043 C 64.800 317.773,64.961 317.652,65.158 317.774 C 65.654 318.080,65.848 317.364,65.967 314.800 C 66.089 312.155,65.747 312.485,68.610 312.252 C 69.925 312.146,71.090 312.024,71.200 311.982 C 71.310 311.940,71.535 311.927,71.700 311.953 C 72.009 312.001,72.146 311.128,72.021 309.900 C 71.956 309.259,72.495 309.200,78.375 309.200 L 84.800 309.200 84.800 310.336 C 84.800 312.485,82.026 312.399,151.317 312.385 C 210.053 312.373,216.944 312.276,216.834 311.455 C 216.815 311.315,216.800 310.750,216.800 310.200 L 216.800 309.200 224.600 309.200 C 232.117 309.200,232.402 309.229,232.450 310.000 C 232.532 311.315,232.585 311.518,232.933 311.867 C 233.117 312.050,233.612 312.223,234.033 312.250 C 234.455 312.278,234.980 312.322,235.200 312.350 C 235.420 312.378,235.600 313.030,235.600 313.800 C 235.600 315.155,235.649 315.200,237.122 315.200 C 238.428 315.200,238.648 315.328,238.666 316.100 C 238.718 318.340,238.758 318.400,240.200 318.400 C 241.733 318.400,241.621 318.104,241.750 322.500 C 241.780 323.536,241.995 324.220,242.300 324.250 C 242.575 324.278,243.250 324.322,243.800 324.350 C 244.577 324.389,244.800 324.616,244.800 325.367 C 244.800 327.008,245.224 327.600,246.400 327.600 C 247.762 327.600,247.819 327.774,247.808 331.900 C 247.804 333.714,247.946 335.199,248.124 335.200 C 248.302 335.200,248.344 335.368,248.217 335.572 C 247.949 336.006,248.668 336.525,249.776 336.697 C 250.839 336.863,250.796 336.731,250.844 339.934 C 250.869 341.573,251.061 342.800,251.293 342.800 C 251.555 342.800,251.548 342.981,251.272 343.313 C 251.015 343.623,250.985 344.052,251.196 344.394 C 251.389 344.706,251.440 345.150,251.309 345.381 C 251.179 345.611,251.219 345.667,251.399 345.503 C 251.579 345.340,252.003 345.430,252.340 345.703 C 252.836 346.105,252.893 346.099,252.635 345.670 C 252.371 345.232,252.461 345.231,253.158 345.667 C 253.980 346.180,254.166 347.699,254.140 353.700 C 254.138 354.085,254.386 354.400,254.692 354.400 C 254.997 354.400,255.127 354.595,254.980 354.833 C 254.820 355.091,255.012 355.233,255.456 355.186 C 256.876 355.036,257.026 355.210,257.109 357.099 C 257.154 358.143,257.363 359.054,257.573 359.124 C 257.783 359.194,257.867 359.481,257.759 359.762 C 257.556 360.293,258.462 361.274,259.058 361.167 C 260.027 360.993,260.335 361.292,260.226 362.300 C 260.030 364.105,260.284 364.275,263.310 364.364 C 266.574 364.459,266.422 364.398,266.507 365.655 C 266.623 367.372,267.150 367.523,272.805 367.460 L 278.147 367.400 278.307 366.000 C 278.505 364.267,278.123 364.462,281.510 364.363 C 283.257 364.312,284.418 364.105,284.446 363.839 C 284.472 363.598,284.534 363.220,284.585 363.000 C 284.636 362.780,284.708 362.060,284.745 361.400 C 284.797 360.479,284.900 360.339,285.190 360.798 C 285.515 361.312,285.659 361.284,286.214 360.598 C 286.569 360.159,286.730 360.070,286.571 360.400 C 286.332 360.897,286.378 360.911,286.841 360.481 C 287.278 360.074,287.400 358.444,287.400 353.000 C 287.400 346.171,287.417 346.032,288.300 345.629 C 288.873 345.366,289.200 345.359,289.200 345.609 C 289.200 345.824,289.410 346.000,289.667 346.000 C 289.923 346.000,290.022 345.889,289.886 345.752 C 289.750 345.616,289.875 345.268,290.165 344.978 C 290.578 344.565,290.708 341.323,290.770 329.934 C 290.851 315.031,290.887 314.709,292.434 315.007 C 293.428 315.198,293.682 314.323,293.890 310.000 C 294.102 305.590,293.922 306.049,295.489 305.930 L 296.736 305.835 296.783 298.436 C 296.809 294.366,296.893 290.973,296.971 290.896 C 297.087 290.780,298.314 290.567,299.668 290.428 C 299.983 290.395,300.042 270.575,299.729 269.758 C 299.604 269.432,298.949 269.200,298.157 269.200 L 296.800 269.200 296.745 266.900 C 296.715 265.635,296.688 264.324,296.686 263.986 C 296.682 263.502,296.081 263.349,293.854 263.266 C 290.578 263.144,290.759 263.237,290.714 261.655 C 290.695 260.980,290.526 260.522,290.340 260.637 C 290.153 260.753,290.000 260.657,290.000 260.424 C 290.000 260.191,289.865 260.021,289.700 260.047 C 286.455 260.560,275.325 259.893,274.867 259.158 C 274.578 258.695,274.534 258.436,274.770 258.582 C 275.361 258.947,275.312 258.448,274.700 257.871 C 273.929 257.145,273.708 257.135,255.200 256.985 C 245.630 256.908,237.215 256.835,236.500 256.823 C 235.297 256.802,235.200 256.700,235.200 255.461 L 235.200 254.121 232.310 254.037 C 228.932 253.938,229.120 254.045,229.120 252.227 C 229.120 250.856,229.063 250.799,227.660 250.778 C 226.506 250.760,225.992 250.488,225.208 249.478 C 224.429 248.475,224.386 248.325,225.008 248.781 C 225.700 249.288,225.735 249.288,225.280 248.781 C 224.683 248.114,224.286 248.048,219.424 247.812 C 215.445 247.619,214.685 248.016,215.079 250.081 C 215.290 251.182,216.034 251.614,219.036 252.380 C 219.937 252.609,221.016 253.176,221.436 253.639 C 221.855 254.103,222.739 254.759,223.399 255.098 C 224.060 255.437,224.983 256.125,225.452 256.626 C 226.287 257.520,230.400 259.823,230.400 259.398 C 230.400 259.279,230.850 259.476,231.400 259.837 C 231.950 260.197,232.400 260.359,232.400 260.197 C 232.400 260.035,232.663 260.121,232.985 260.388 C 233.905 261.151,240.177 261.404,256.802 261.350 L 272.200 261.300 273.215 262.481 C 274.266 263.704,276.496 264.375,281.600 265.004 C 282.810 265.153,284.060 265.483,284.377 265.738 C 284.841 266.110,284.886 266.083,284.608 265.600 C 284.341 265.137,284.438 265.151,285.031 265.664 C 285.454 266.030,286.340 266.412,287.000 266.514 C 288.444 266.738,290.726 267.976,292.062 269.261 C 292.599 269.778,293.527 270.560,294.125 271.000 C 296.161 272.497,296.680 282.896,294.886 286.241 C 293.334 289.136,292.877 290.196,292.664 291.400 C 291.381 298.632,288.952 307.564,288.000 308.549 C 287.814 308.741,287.765 309.164,287.890 309.489 C 288.014 309.815,287.946 310.198,287.738 310.340 C 286.636 311.096,286.261 315.266,286.171 327.725 C 286.121 334.723,285.972 341.023,285.841 341.725 C 285.709 342.426,285.631 343.090,285.668 343.200 C 285.705 343.310,285.512 343.818,285.238 344.328 C 284.529 345.654,283.736 348.901,283.232 352.541 C 282.764 355.915,282.610 356.339,281.580 357.084 C 281.211 357.350,280.683 358.118,280.404 358.789 C 280.104 359.515,279.336 360.278,278.513 360.668 C 277.750 361.030,277.021 361.613,276.892 361.963 C 276.505 363.017,275.934 363.188,272.800 363.188 C 269.666 363.188,269.095 363.017,268.708 361.963 C 268.579 361.613,267.782 361.000,266.937 360.602 C 264.538 359.472,262.039 356.558,261.171 353.878 C 260.758 352.601,260.153 351.071,259.829 350.478 C 259.504 349.885,258.951 348.067,258.600 346.439 C 257.948 343.410,257.430 342.107,256.599 341.400 C 256.018 340.907,254.941 337.948,254.559 335.800 C 254.403 334.920,254.027 334.018,253.724 333.796 C 253.422 333.573,252.914 332.276,252.596 330.913 C 252.278 329.551,251.384 327.191,250.609 325.671 C 249.834 324.151,249.200 322.658,249.200 322.353 C 249.200 322.049,248.557 321.080,247.773 320.200 C 246.988 319.320,246.085 318.052,245.766 317.382 C 245.447 316.712,244.681 315.610,244.063 314.934 C 243.446 314.257,242.709 313.147,242.427 312.465 C 242.145 311.784,241.605 311.129,241.227 311.009 C 240.849 310.889,240.284 310.211,239.970 309.503 C 239.657 308.794,238.860 307.941,238.200 307.607 C 237.540 307.273,236.910 306.885,236.800 306.744 C 236.333 306.146,233.203 304.762,231.962 304.605 C 227.119 303.992,217.568 304.431,214.600 305.403 C 212.790 305.996,211.070 306.376,209.129 306.613 C 208.398 306.702,207.080 306.895,206.200 307.040 C 205.320 307.186,200.190 307.250,194.800 307.183 C 184.655 307.056,137.163 307.022,111.600 307.122 C 103.570 307.153,96.460 307.102,95.800 307.009 C 90.115 306.201,88.588 305.925,88.222 305.639 C 87.841 305.341,86.512 305.060,83.000 304.536 C 76.174 303.516,64.800 305.691,64.800 308.016 C 64.800 308.165,64.080 309.105,63.200 310.105 C 62.320 311.105,61.600 312.166,61.600 312.463 C 61.600 312.760,61.105 313.470,60.500 314.041 C 59.895 314.612,59.130 315.600,58.800 316.236 C 58.470 316.872,57.678 317.838,57.040 318.382 C 56.402 318.927,55.459 320.324,54.945 321.486 C 54.431 322.649,53.841 323.600,53.633 323.600 C 53.213 323.600,52.532 326.705,52.256 329.877 C 52.126 331.366,51.794 332.258,51.081 333.026 C 50.282 333.888,49.985 334.843,49.563 337.917 C 49.124 341.120,48.866 341.914,47.972 342.829 C 47.060 343.762,45.600 348.211,45.600 350.057 C 45.600 350.254,45.185 351.087,44.678 351.908 C 44.171 352.729,43.523 354.210,43.239 355.200 C 42.669 357.183,41.820 358.438,39.092 361.325 L 37.273 363.250 33.537 363.169 C 30.431 363.101,29.699 362.961,29.200 362.340 C 28.870 361.930,28.060 360.890,27.400 360.031 C 26.740 359.171,25.885 358.379,25.500 358.271 C 24.939 358.114,24.795 357.610,24.776 355.737 C 24.690 347.227,24.150 343.007,23.000 341.857 C 22.134 340.991,21.659 338.315,21.388 332.777 C 21.254 330.040,20.870 326.090,20.534 324.000 C 20.197 321.910,19.941 318.870,19.963 317.244 C 19.989 315.410,19.814 314.052,19.502 313.667 C 19.084 313.150,19.101 313.103,19.600 313.382 C 20.078 313.649,20.102 313.611,19.719 313.197 C 19.389 312.841,19.360 312.449,19.625 311.953 C 19.959 311.329,20.239 299.774,20.035 294.993 C 19.980 293.685,18.830 288.233,17.760 284.200 C 15.821 276.896,22.053 271.399,32.536 271.168 C 34.452 271.125,36.116 270.935,36.234 270.745 C 36.351 270.555,36.752 270.396,37.124 270.391 C 37.496 270.385,38.880 269.379,40.200 268.154 C 43.002 265.555,45.034 264.528,48.725 263.846 C 51.179 263.393,51.397 263.272,51.359 262.376 L 51.319 261.400 62.959 261.455 C 73.696 261.505,78.758 261.174,80.800 260.288 C 81.130 260.145,82.401 259.661,83.626 259.213 C 84.850 258.765,86.200 258.080,86.626 257.692 C 89.778 254.816,95.294 251.884,98.460 251.401 C 100.168 251.141,101.110 250.256,100.484 249.500 C 100.027 248.948,103.346 248.919,119.000 249.337 C 130.102 249.634,131.714 249.235,137.333 244.800 C 138.030 244.250,139.230 243.455,140.000 243.033 C 140.770 242.611,141.899 241.854,142.509 241.351 C 143.119 240.848,144.694 240.044,146.009 239.565 C 147.338 239.080,148.400 238.450,148.400 238.146 C 148.400 237.846,148.580 237.600,148.800 237.600 C 149.020 237.600,149.200 237.354,149.200 237.054 C 149.200 236.632,149.574 236.576,150.842 236.808 C 154.003 237.386,155.509 236.370,155.057 233.965 C 154.784 232.517,151.495 231.786,149.662 232.767 C 149.231 232.998,148.688 232.971,148.190 232.695 C 147.459 232.291,147.445 232.314,148.000 232.995 M156.365 235.391 C 156.163 235.441,156.138 237.971,156.336 238.276 C 156.481 238.499,157.860 239.091,159.400 239.591 C 160.940 240.091,162.560 240.823,163.000 241.216 C 163.440 241.609,164.610 242.362,165.600 242.888 C 166.590 243.415,168.120 244.304,169.000 244.863 C 169.880 245.422,171.275 246.123,172.100 246.420 C 172.925 246.717,173.600 247.135,173.600 247.347 C 173.600 247.559,173.714 247.620,173.853 247.481 C 173.992 247.342,174.414 247.393,174.791 247.595 C 178.766 249.722,214.542 249.477,213.717 247.328 C 213.591 246.999,213.468 246.347,213.444 245.879 C 213.389 244.812,213.774 244.837,197.400 244.822 C 181.201 244.806,180.000 244.692,180.000 243.166 C 180.000 241.934,179.427 241.717,175.600 241.501 C 174.071 241.415,173.800 241.274,173.800 240.561 C 173.800 239.046,172.963 238.537,170.315 238.442 C 168.942 238.392,167.773 238.306,167.718 238.251 C 167.620 238.153,167.288 236.526,167.230 235.857 C 167.213 235.669,166.930 235.618,166.600 235.745 C 166.270 235.871,166.000 235.846,165.999 235.687 C 165.999 235.490,157.081 235.216,156.365 235.391 M352.894 263.692 C 352.664 263.972,352.414 264.650,352.338 265.200 C 352.222 266.039,351.991 266.196,350.900 266.178 C 349.923 266.161,349.588 266.335,349.550 266.878 C 349.523 267.275,349.455 267.780,349.400 268.000 C 349.345 268.220,349.278 268.580,349.250 268.800 C 349.223 269.020,348.795 269.206,348.300 269.213 C 347.039 269.231,346.200 270.024,346.200 271.200 C 346.200 272.038,345.973 272.232,344.800 272.400 C 343.524 272.582,343.389 272.728,343.279 274.050 C 343.173 275.317,343.025 275.500,342.110 275.500 C 340.980 275.500,340.000 276.511,340.000 277.676 C 340.000 278.177,339.699 278.400,339.024 278.400 C 338.487 278.400,337.934 278.583,337.796 278.807 C 337.658 279.030,337.413 279.132,337.252 279.032 C 337.090 278.932,336.968 279.424,336.979 280.125 C 336.998 281.250,336.859 281.416,335.801 281.536 C 334.411 281.694,334.015 282.172,334.006 283.700 C 334.001 284.683,333.855 284.800,332.643 284.800 C 331.256 284.800,330.800 285.303,330.800 286.833 C 330.800 287.255,330.665 287.623,330.500 287.651 C 330.335 287.679,329.798 287.744,329.307 287.796 C 328.816 287.848,328.143 288.115,327.812 288.390 C 327.481 288.665,326.940 288.786,326.610 288.659 C 326.261 288.525,326.049 288.632,326.105 288.914 C 326.157 289.181,325.967 289.352,325.683 289.294 C 325.302 289.216,325.268 289.380,325.555 289.916 C 326.026 290.797,324.846 291.721,323.716 291.356 C 323.212 291.193,323.151 291.233,323.509 291.492 C 323.903 291.775,323.819 292.035,323.142 292.629 C 322.274 293.391,322.268 293.391,322.553 292.612 C 322.712 292.179,322.698 291.969,322.521 292.145 C 321.978 292.688,321.906 294.153,321.740 308.100 L 321.579 321.600 320.290 321.647 C 319.580 321.673,318.902 321.686,318.781 321.674 C 318.531 321.651,318.515 321.988,318.449 328.875 L 318.400 333.949 317.100 334.075 L 315.800 334.200 315.681 336.920 C 315.563 339.633,315.397 339.924,313.843 340.153 C 312.787 340.308,312.558 340.677,312.450 342.400 C 312.417 342.925,312.117 343.200,311.576 343.200 C 311.056 343.200,310.858 343.370,311.038 343.662 C 311.224 343.962,311.147 344.014,310.817 343.811 C 310.173 343.412,309.545 344.365,309.836 345.300 C 309.956 345.685,309.894 346.000,309.699 346.000 C 309.315 346.000,309.091 362.850,309.461 363.816 C 309.597 364.169,310.222 364.400,311.043 364.400 C 312.263 364.400,312.400 364.513,312.400 365.520 C 312.400 366.941,313.059 367.600,314.480 367.600 C 315.455 367.600,315.600 367.754,315.600 368.786 C 315.600 370.470,316.332 370.696,321.845 370.706 C 326.326 370.715,327.722 370.509,327.634 369.855 C 327.352 367.744,327.505 367.601,330.100 367.572 C 333.002 367.539,333.801 367.269,333.858 366.300 C 333.881 365.915,333.923 365.330,333.950 365.000 C 333.984 364.590,334.444 364.400,335.400 364.400 C 336.725 364.400,336.800 364.327,336.800 363.043 C 336.800 361.749,338.008 360.842,339.330 361.144 C 339.511 361.186,339.545 361.035,339.406 360.810 C 339.267 360.584,339.354 360.400,339.600 360.400 C 339.846 360.400,339.946 360.236,339.822 360.036 C 339.401 359.354,340.083 358.400,340.994 358.400 C 342.029 358.400,342.927 357.494,343.010 356.367 C 343.085 355.351,343.231 355.241,344.642 355.133 C 345.665 355.055,345.855 354.865,345.933 353.842 C 346.046 352.368,346.165 352.242,347.520 352.165 C 348.114 352.132,348.735 352.081,348.900 352.052 C 349.065 352.023,349.200 351.370,349.200 350.600 C 349.200 349.256,349.603 348.925,350.945 349.168 C 351.423 349.254,352.344 347.926,352.160 347.417 C 351.882 346.651,352.618 346.027,353.916 345.928 C 355.081 345.839,355.200 345.708,355.200 344.515 C 355.200 343.229,355.623 342.989,357.455 343.234 C 357.915 343.296,358.388 342.222,358.394 341.100 C 358.399 340.208,358.590 339.991,359.400 339.950 C 361.226 339.859,361.400 339.804,361.450 339.300 C 361.478 339.025,361.523 338.350,361.550 337.800 C 361.593 336.933,361.787 336.800,363.000 336.800 C 363.770 336.800,364.423 336.620,364.450 336.400 C 364.478 336.180,364.545 335.820,364.600 335.600 C 364.655 335.380,364.723 334.840,364.750 334.400 C 364.785 333.846,365.083 333.600,365.720 333.600 C 366.892 333.600,367.600 332.892,367.600 331.720 C 367.600 331.214,367.780 330.778,368.000 330.750 C 368.220 330.723,368.580 330.655,368.800 330.600 C 369.020 330.545,369.568 330.478,370.018 330.450 C 370.467 330.423,370.806 330.175,370.770 329.900 C 370.540 328.124,370.815 327.600,371.976 327.600 C 373.293 327.600,373.471 327.423,373.762 325.823 C 374.015 324.425,373.994 324.444,375.442 324.333 C 376.465 324.255,376.655 324.065,376.733 323.042 C 376.845 321.570,376.894 321.541,379.700 321.233 C 379.865 321.215,380.000 320.593,380.000 319.851 C 380.000 318.594,380.106 318.485,381.548 318.255 C 382.667 318.076,383.096 317.812,383.093 317.304 C 383.085 315.335,383.181 315.200,384.600 315.200 C 385.933 315.200,386.000 315.133,386.000 313.800 C 386.000 312.757,386.178 312.384,386.700 312.339 C 387.085 312.306,387.580 312.236,387.800 312.185 C 388.020 312.134,388.387 312.072,388.615 312.046 C 388.843 312.021,389.074 311.424,389.127 310.721 C 389.247 309.148,389.238 309.157,390.759 309.114 C 391.442 309.094,392.015 308.971,392.033 308.839 C 392.439 305.890,392.337 306.048,393.897 305.929 L 395.152 305.834 395.187 295.317 L 395.223 284.800 394.311 284.794 C 392.978 284.785,392.472 284.332,392.295 282.993 C 392.156 281.943,391.961 281.785,390.669 281.676 C 389.237 281.555,388.868 280.929,389.151 279.104 C 389.176 278.942,388.487 278.695,387.620 278.557 C 386.150 278.322,386.034 278.206,385.921 276.852 C 385.822 275.667,385.653 275.418,385.000 275.498 C 383.833 275.642,383.273 275.141,383.095 273.793 C 382.956 272.743,382.761 272.585,381.469 272.476 C 380.189 272.368,380.000 272.219,380.000 271.320 C 380.000 270.138,379.011 269.231,377.700 269.213 C 377.023 269.203,376.800 268.965,376.800 268.249 C 376.800 267.256,375.918 266.215,375.463 266.670 C 375.318 266.815,375.200 266.755,375.200 266.537 C 375.200 266.316,374.230 266.169,373.000 266.205 C 370.698 266.273,370.749 266.316,370.641 264.200 C 370.590 263.198,353.697 262.715,352.894 263.692 M366.100 269.161 C 366.265 269.182,366.715 269.202,367.100 269.205 C 367.485 269.208,368.250 269.570,368.800 270.009 C 370.843 271.640,372.655 272.804,374.600 273.737 C 375.700 274.265,377.129 275.260,377.775 275.948 C 378.421 276.637,379.101 277.200,379.287 277.200 C 379.782 277.200,385.882 283.548,389.112 287.426 C 393.107 292.222,392.402 298.704,387.332 303.800 C 386.018 305.120,384.826 306.517,384.683 306.903 C 384.540 307.290,384.001 307.799,383.486 308.034 C 382.971 308.268,382.227 309.058,381.834 309.789 C 380.968 311.397,374.582 317.888,373.542 318.218 C 373.134 318.348,372.800 318.669,372.800 318.932 C 372.800 319.649,362.350 330.000,361.625 330.000 C 361.400 330.000,360.828 330.765,360.354 331.700 C 359.880 332.635,359.297 333.525,359.059 333.678 C 358.820 333.830,357.496 335.000,356.116 336.278 C 354.736 337.555,352.783 339.320,351.776 340.200 C 348.805 342.796,345.371 346.165,344.972 346.876 C 344.767 347.239,343.520 348.446,342.200 349.557 C 340.880 350.668,339.451 351.898,339.024 352.289 C 338.597 352.680,337.764 353.270,337.174 353.600 C 336.042 354.232,332.012 358.468,331.983 359.056 C 331.879 361.160,325.251 364.800,321.524 364.800 C 313.814 364.800,310.717 354.660,316.418 348.082 C 317.506 346.827,318.684 345.467,319.037 345.061 C 319.867 344.104,321.474 340.466,321.729 338.967 C 321.839 338.325,322.584 335.238,323.386 332.106 C 324.862 326.342,324.939 326.017,325.594 322.800 C 325.979 320.907,325.885 314.046,325.384 307.543 C 325.001 302.558,325.787 299.327,328.051 296.587 C 328.903 295.556,329.600 294.559,329.600 294.371 C 329.600 293.896,334.776 288.833,348.320 276.059 C 352.703 271.926,357.808 269.171,361.600 268.894 C 363.030 268.789,364.269 268.641,364.353 268.566 C 364.437 268.490,364.797 268.584,365.153 268.775 C 365.509 268.965,365.935 269.139,366.100 269.161 M91.530 340.835 C 91.137 341.248,90.949 341.884,91.076 342.370 C 91.280 343.147,90.317 343.503,88.700 343.247 C 88.419 343.203,88.251 343.962,88.292 345.096 C 88.302 345.368,88.185 345.514,88.032 345.420 C 87.879 345.325,87.764 346.857,87.777 348.824 C 87.799 352.273,87.768 352.400,86.900 352.400 C 86.405 352.400,86.000 352.580,86.000 352.800 C 86.000 353.020,85.775 353.155,85.500 353.100 C 85.118 353.024,84.974 354.719,84.891 360.300 L 84.782 367.600 83.815 367.600 C 83.283 367.600,82.724 367.799,82.574 368.043 C 82.383 368.351,82.196 368.321,81.956 367.943 C 81.733 367.590,81.610 367.996,81.606 369.100 C 81.601 370.593,81.490 370.801,80.700 370.806 C 79.039 370.817,78.691 371.378,78.573 374.226 C 78.488 376.288,78.298 377.025,77.776 377.318 C 77.291 377.589,77.172 377.569,77.369 377.251 C 77.522 377.003,77.457 376.800,77.224 376.800 C 76.991 376.800,76.800 376.999,76.800 377.243 C 76.800 377.489,76.509 377.574,76.143 377.434 C 75.612 377.230,75.577 377.291,75.960 377.752 C 76.245 378.096,76.278 378.377,76.042 378.461 C 75.809 378.544,75.606 382.004,75.541 387.039 L 75.431 395.478 74.415 395.439 C 73.113 395.389,72.400 396.073,72.400 397.371 C 72.400 398.243,72.220 398.400,71.224 398.400 C 69.909 398.400,69.495 398.850,69.415 400.368 L 69.360 401.400 63.380 401.600 L 57.400 401.800 57.262 402.800 C 57.050 404.332,56.395 404.863,54.828 404.771 C 52.514 404.636,50.797 404.778,50.847 405.100 C 50.873 405.265,50.873 406.615,50.847 408.100 L 50.800 410.800 49.239 410.800 L 47.678 410.800 47.754 419.356 C 47.835 428.526,47.983 429.219,49.818 429.018 C 50.752 428.915,50.802 429.019,50.846 431.155 C 50.872 432.390,50.934 433.580,50.985 433.800 C 51.036 434.020,51.106 434.425,51.139 434.700 C 51.175 434.993,51.779 435.200,52.600 435.200 C 53.932 435.200,54.000 435.268,54.000 436.592 C 54.000 437.786,54.157 438.019,55.100 438.226 C 55.705 438.358,56.404 438.528,56.653 438.603 C 56.924 438.684,57.083 439.568,57.048 440.805 C 57.017 441.941,57.121 442.951,57.278 443.048 C 57.436 443.146,57.464 443.490,57.340 443.813 C 57.167 444.262,57.453 444.400,58.557 444.400 C 60.033 444.400,60.197 444.685,60.107 447.100 C 60.096 447.417,60.657 447.600,61.644 447.600 L 63.200 447.600 63.200 450.357 C 63.200 453.280,63.414 453.600,65.373 453.600 C 66.229 453.600,66.280 453.757,66.286 456.412 C 66.292 459.469,66.383 459.691,67.710 459.882 C 69.280 460.107,69.544 460.327,69.312 461.216 C 69.044 462.238,69.734 462.785,71.300 462.794 C 72.336 462.800,72.884 465.334,72.447 468.100 C 72.421 468.265,72.591 468.400,72.824 468.400 C 73.057 468.400,73.129 468.592,72.983 468.827 C 72.838 469.061,72.963 469.220,73.260 469.179 C 75.225 468.910,75.600 469.170,75.600 470.800 C 75.600 472.352,75.640 472.400,76.957 472.400 C 78.391 472.400,78.800 472.896,78.800 474.633 C 78.800 475.165,78.986 475.600,79.214 475.600 C 79.495 475.600,79.490 475.858,79.200 476.400 C 78.893 476.973,78.896 477.200,79.210 477.200 C 79.450 477.200,79.517 477.411,79.358 477.668 C 79.167 477.977,79.282 478.054,79.696 477.895 C 80.570 477.560,81.564 478.409,81.692 479.600 C 81.800 480.596,83.691 481.838,84.417 481.390 C 84.600 481.276,84.807 481.862,84.875 482.692 C 84.945 483.529,85.222 484.222,85.500 484.250 C 85.775 484.277,86.471 484.323,87.047 484.350 C 87.939 484.393,88.065 484.548,87.902 485.400 C 87.797 485.950,87.866 486.400,88.055 486.400 C 88.245 486.400,88.355 486.603,88.300 486.851 C 88.245 487.099,88.737 487.381,89.393 487.477 C 90.658 487.663,91.303 488.295,91.020 489.071 C 90.801 489.669,91.496 490.217,92.900 490.552 C 93.657 490.733,94.000 491.071,94.000 491.636 C 94.000 492.764,94.935 493.600,96.195 493.600 C 96.774 493.600,97.154 493.750,97.041 493.934 C 96.489 494.827,97.466 496.542,98.613 496.695 C 100.028 496.885,100.083 496.933,100.203 498.087 C 100.353 499.530,100.363 499.547,101.100 499.615 C 105.270 499.998,117.812 499.907,118.076 499.491 C 118.247 499.221,118.391 497.785,118.394 496.300 C 118.400 493.454,118.555 493.276,120.755 493.583 C 121.130 493.635,121.239 493.393,121.092 492.830 C 120.963 492.337,121.036 492.098,121.270 492.243 C 121.487 492.378,121.630 492.153,121.586 491.744 C 121.543 491.335,121.529 489.515,121.554 487.700 L 121.600 484.400 122.957 484.400 C 124.344 484.400,124.800 483.897,124.800 482.367 C 124.800 481.709,125.098 481.599,126.900 481.595 C 129.887 481.587,130.760 481.282,130.720 480.259 C 130.646 478.357,130.504 478.400,136.795 478.400 L 142.791 478.400 143.046 476.800 L 143.302 475.200 150.827 475.200 L 158.352 475.200 158.476 476.700 L 158.600 478.200 164.592 478.325 C 171.301 478.465,170.934 478.370,170.889 479.962 C 170.847 481.421,170.918 481.444,175.800 481.568 C 180.433 481.686,179.950 481.510,180.073 483.121 C 180.164 484.317,180.268 484.400,181.685 484.400 C 183.186 484.400,183.200 484.415,183.200 486.000 C 183.200 486.903,183.393 487.600,183.643 487.600 C 183.886 487.600,183.982 487.870,183.855 488.200 C 183.571 488.942,183.945 490.000,184.492 490.000 C 184.737 490.000,184.760 489.795,184.549 489.481 C 184.357 489.196,184.510 489.300,184.889 489.712 C 185.268 490.124,185.778 490.337,186.024 490.185 C 186.318 490.004,186.443 490.300,186.392 491.055 C 186.232 493.440,186.320 493.600,187.800 493.600 C 189.336 493.600,189.217 493.272,189.313 497.777 C 189.333 498.755,189.496 499.464,189.675 499.354 C 189.854 499.243,190.000 499.335,190.000 499.557 C 190.000 499.982,209.733 500.001,210.158 499.576 C 210.350 499.383,210.674 498.076,210.770 497.100 C 210.787 496.935,211.228 496.800,211.751 496.800 C 212.691 496.800,213.745 495.911,213.833 495.046 C 213.858 494.801,213.906 494.386,213.939 494.125 C 213.973 493.864,214.585 493.594,215.300 493.525 L 216.600 493.400 216.717 490.523 L 216.834 487.646 218.317 487.523 C 219.706 487.408,219.808 487.308,219.921 485.948 C 220.034 484.594,220.150 484.478,221.620 484.243 C 222.487 484.105,223.176 483.858,223.151 483.696 C 222.909 482.139,223.254 481.163,223.966 481.389 C 224.388 481.523,224.850 481.442,224.994 481.210 C 225.138 480.977,225.423 480.891,225.628 481.017 C 225.836 481.146,226.000 480.462,226.000 479.461 C 226.000 477.920,226.102 477.701,226.740 477.869 C 227.899 478.172,228.718 476.996,229.017 474.600 C 229.251 472.728,229.419 472.393,230.146 472.354 C 230.616 472.328,231.265 472.283,231.589 472.254 C 231.957 472.220,232.219 471.687,232.289 470.833 C 232.424 469.183,232.423 469.185,233.856 469.035 C 234.856 468.930,235.016 468.732,235.124 467.458 C 235.242 466.079,235.659 465.736,236.942 465.967 C 237.807 466.122,238.286 465.021,238.355 462.719 C 238.441 459.845,238.349 460.028,239.766 459.911 C 241.186 459.794,241.691 458.804,241.522 456.474 L 241.386 454.604 239.809 454.740 C 238.170 454.881,237.235 455.673,237.213 456.940 C 237.206 457.346,236.694 458.156,236.075 458.740 C 235.456 459.323,234.608 460.385,234.189 461.101 C 233.770 461.816,233.151 462.491,232.813 462.600 C 232.476 462.709,231.750 463.463,231.200 464.274 C 230.650 465.086,229.615 466.371,228.900 467.131 C 228.185 467.890,227.600 468.772,227.600 469.090 C 227.600 469.408,226.970 470.226,226.200 470.908 C 225.430 471.589,224.800 472.456,224.800 472.834 C 224.800 473.212,224.170 473.893,223.400 474.347 C 222.630 474.801,222.000 475.385,222.000 475.645 C 222.000 475.905,221.235 476.972,220.300 478.017 C 217.288 481.382,215.810 483.264,215.347 484.324 C 214.373 486.553,209.485 491.514,207.312 492.478 C 206.384 492.890,205.484 493.464,205.312 493.756 C 204.604 494.956,198.400 496.673,198.400 495.669 C 198.400 495.518,197.815 495.144,197.100 494.836 C 195.141 493.994,192.087 490.521,190.745 487.609 C 190.089 486.183,189.427 484.923,189.276 484.809 C 189.124 484.694,188.564 483.763,188.031 482.741 C 186.399 479.611,182.559 476.966,178.585 476.234 C 178.136 476.151,176.966 475.715,175.985 475.264 C 175.003 474.812,173.390 474.360,172.400 474.258 C 170.320 474.043,168.541 473.674,167.400 473.219 C 163.321 471.592,150.715 470.367,146.400 471.177 C 145.410 471.363,143.790 471.618,142.800 471.744 C 139.521 472.160,135.831 472.832,133.424 473.451 C 132.117 473.786,130.227 474.148,129.224 474.255 C 127.302 474.458,126.631 474.696,123.400 476.314 C 121.306 477.363,120.000 478.324,120.000 478.814 C 120.000 478.973,119.403 480.094,118.674 481.305 C 117.945 482.516,117.124 484.507,116.851 485.729 C 116.577 486.951,116.038 488.367,115.652 488.876 C 115.265 489.384,114.632 490.652,114.244 491.693 C 112.785 495.610,110.697 496.596,107.340 494.953 C 106.163 494.377,105.200 493.751,105.200 493.561 C 105.200 493.371,104.439 492.828,103.510 492.354 C 102.580 491.880,101.343 491.021,100.760 490.446 C 98.480 488.196,96.369 486.400,96.004 486.400 C 95.793 486.400,95.345 485.867,95.008 485.216 C 94.671 484.564,93.590 483.559,92.605 482.982 C 91.620 482.404,90.403 481.452,89.901 480.866 C 89.399 480.280,88.325 479.302,87.513 478.694 C 86.702 478.086,85.730 477.067,85.353 476.428 C 84.976 475.790,84.248 475.077,83.734 474.843 C 83.118 474.562,82.800 474.077,82.800 473.418 C 82.800 472.764,82.420 472.176,81.700 471.718 C 80.316 470.838,80.014 470.415,80.006 469.347 C 80.003 468.849,79.423 468.055,78.613 467.437 C 77.728 466.762,77.076 465.827,76.816 464.858 C 76.590 464.022,75.865 462.855,75.203 462.266 C 74.541 461.676,74.000 460.844,74.000 460.416 C 74.000 459.988,73.393 459.045,72.650 458.319 C 71.908 457.594,70.919 456.158,70.453 455.128 C 69.987 454.098,69.280 453.152,68.882 453.026 C 68.375 452.865,68.010 452.073,67.658 450.367 C 67.242 448.355,66.954 447.822,65.980 447.269 C 65.302 446.883,64.802 446.262,64.797 445.800 C 64.781 444.164,64.267 443.152,63.165 442.582 C 62.369 442.170,61.889 441.490,61.554 440.298 C 61.291 439.364,60.582 438.142,59.978 437.582 C 59.374 437.022,58.601 435.897,58.260 435.083 C 57.920 434.268,57.192 433.397,56.643 433.147 C 55.809 432.767,55.600 432.320,55.376 430.446 C 55.228 429.211,54.679 426.954,54.154 425.430 C 52.127 419.545,54.688 409.600,58.231 409.600 C 58.544 409.600,58.800 409.434,58.800 409.231 C 58.800 408.741,60.926 408.083,63.400 407.807 C 64.500 407.685,65.940 407.422,66.600 407.223 C 67.260 407.025,69.044 406.658,70.564 406.408 C 77.641 405.246,79.639 401.904,80.199 390.292 C 80.427 385.559,80.598 384.805,81.941 382.600 C 82.343 381.940,82.901 380.680,83.181 379.800 C 83.460 378.920,83.971 377.753,84.315 377.206 C 84.948 376.201,86.720 372.979,88.063 370.391 C 88.975 368.632,89.494 365.715,89.782 360.724 C 90.016 356.680,90.199 355.797,91.009 354.800 C 91.278 354.470,91.810 353.240,92.192 352.066 C 92.574 350.893,93.393 349.363,94.012 348.666 C 94.630 347.970,95.556 346.901,96.068 346.290 C 96.581 345.680,97.406 345.105,97.902 345.013 C 98.397 344.921,99.027 344.706,99.302 344.535 C 99.576 344.364,119.690 344.207,144.000 344.187 C 168.310 344.167,190.102 344.004,192.428 343.825 C 200.352 343.214,205.649 344.210,208.800 346.905 C 211.816 349.484,211.904 349.596,212.373 351.459 C 212.623 352.452,213.270 353.707,213.811 354.247 C 214.372 354.808,214.876 355.869,214.985 356.715 C 215.550 361.123,216.453 364.000,217.272 364.000 C 217.425 364.000,217.674 364.855,217.825 365.900 C 218.191 368.439,219.007 370.346,220.348 371.800 C 220.957 372.460,221.789 373.540,222.196 374.200 C 222.603 374.860,223.247 375.622,223.627 375.894 C 224.231 376.326,225.169 381.319,224.870 382.512 C 224.541 383.826,226.361 385.532,228.003 385.450 L 229.000 385.400 229.112 380.256 C 229.235 374.620,229.041 374.000,227.151 374.000 L 226.000 374.000 226.000 371.296 C 226.000 368.581,225.139 367.096,223.981 367.812 C 223.428 368.153,222.962 365.878,222.818 362.135 C 222.808 361.880,222.363 361.718,221.829 361.777 C 220.202 361.956,220.044 361.556,219.973 357.086 L 219.904 352.794 218.352 352.546 L 216.800 352.298 216.800 349.549 C 216.800 347.881,216.633 346.800,216.376 346.800 C 216.143 346.800,216.054 346.637,216.177 346.437 C 216.300 346.238,216.086 346.150,215.701 346.243 C 214.765 346.467,214.271 346.042,213.788 344.600 C 213.467 343.644,213.123 343.375,212.093 343.275 C 210.981 343.167,210.800 342.996,210.800 342.055 C 210.800 341.453,210.584 340.744,210.320 340.480 C 209.721 339.881,94.558 339.786,93.613 340.383 C 93.291 340.587,92.841 340.613,92.613 340.441 C 92.386 340.269,91.898 340.446,91.530 340.835 M228.261 386.422 C 227.669 386.998,227.524 387.739,227.533 390.126 C 227.555 395.636,229.160 398.794,232.769 400.425 C 233.886 400.929,234.800 401.461,234.800 401.605 C 234.800 401.749,235.025 401.883,235.300 401.904 C 235.575 401.924,236.700 402.193,237.800 402.501 C 240.320 403.207,244.153 403.117,247.926 402.263 C 251.535 401.445,254.390 401.418,256.220 402.183 C 256.987 402.503,257.702 402.771,257.809 402.778 C 263.664 403.163,263.800 411.295,258.049 417.050 C 256.703 418.398,255.341 420.122,255.024 420.882 C 254.706 421.642,254.167 422.495,253.826 422.778 C 253.015 423.451,252.326 426.038,252.212 428.841 C 252.161 430.074,252.002 431.273,251.858 431.507 C 251.713 431.741,251.781 432.024,252.008 432.136 C 252.234 432.248,252.191 432.288,251.910 432.224 C 250.679 431.944,250.065 432.841,249.563 435.651 C 249.178 437.806,248.873 438.560,248.330 438.702 C 247.568 438.902,246.000 441.132,246.000 442.018 C 246.000 442.306,245.463 443.005,244.807 443.571 C 244.086 444.192,243.525 445.137,243.391 445.955 C 243.096 447.755,242.559 448.695,241.664 448.980 C 240.395 449.382,239.804 450.962,240.392 452.380 C 241.161 454.237,244.660 454.258,244.712 452.405 C 244.755 450.894,245.127 450.286,245.840 450.560 C 246.148 450.678,246.400 450.581,246.400 450.345 C 246.400 450.108,246.668 450.017,246.995 450.143 C 247.323 450.268,247.571 450.243,247.548 450.086 C 247.524 449.929,247.527 448.585,247.553 447.100 L 247.600 444.400 248.957 444.400 C 250.347 444.400,250.800 443.897,250.800 442.355 C 250.800 441.583,251.285 441.234,252.636 441.036 C 253.451 440.916,253.545 440.529,253.861 436.000 C 254.101 432.555,254.376 431.964,255.627 432.205 C 256.490 432.371,256.787 431.376,256.795 428.300 L 256.800 426.000 258.400 426.000 L 260.000 426.000 260.000 424.400 C 260.000 422.923,260.084 422.800,261.100 422.794 C 262.552 422.786,263.036 422.395,262.966 421.285 C 262.906 420.344,263.836 419.577,264.673 419.878 C 265.740 420.263,265.973 418.306,265.969 408.972 C 265.965 397.995,266.096 398.400,262.551 398.400 L 260.000 398.400 260.000 397.224 C 260.000 396.577,259.788 395.916,259.528 395.756 C 258.901 395.368,246.000 395.315,246.000 395.700 C 246.000 395.865,245.775 395.955,245.500 395.900 C 245.201 395.840,244.950 396.322,244.875 397.100 L 244.749 398.400 241.575 398.400 L 238.400 398.400 238.400 397.000 C 238.400 395.626,237.591 395.222,235.500 395.553 C 235.335 395.579,235.200 395.096,235.200 394.480 C 235.200 393.120,234.549 392.400,233.320 392.400 C 232.466 392.400,231.955 389.752,232.367 387.458 C 232.476 386.851,231.558 386.041,231.002 386.255 C 230.705 386.368,230.133 386.291,229.731 386.082 C 229.194 385.803,228.804 385.894,228.261 386.422 " stroke="none" fill="#f7fcfc" fill-rule="evenodd"></path></g></svg>