<svg id="svg" version="1.1" xmlns="http://www.w3.org/2000/svg" xmlns:xlink="http://www.w3.org/1999/xlink" width="400" height="400" viewBox="0, 0, 400,400"><g id="svgg"><path id="path0" d="M185.600 7.184 L 185.600 8.400 183.200 8.400 C 180.807 8.400,180.800 8.403,180.800 9.585 L 180.800 10.770 177.100 10.885 C 173.410 11.000,173.400 11.003,173.275 12.081 C 173.158 13.097,173.015 13.169,170.875 13.281 C 168.735 13.393,168.593 13.464,168.475 14.481 C 168.358 15.497,168.215 15.569,166.075 15.681 C 163.925 15.793,163.793 15.860,163.673 16.900 C 163.550 17.977,163.491 18.000,160.873 18.005 C 157.057 18.013,156.400 18.254,156.400 19.647 C 156.400 20.790,156.378 20.800,154.000 20.800 L 151.600 20.800 151.600 22.000 L 151.600 23.200 149.200 23.200 L 146.800 23.200 146.800 24.400 L 146.800 25.600 144.400 25.600 C 142.007 25.600,142.000 25.603,142.000 26.785 L 142.000 27.970 138.300 28.085 L 134.600 28.200 134.473 29.300 C 134.351 30.362,134.265 30.400,131.973 30.400 C 129.603 30.400,129.600 30.401,129.600 31.600 L 129.600 32.800 127.200 32.800 L 124.800 32.800 124.800 34.000 L 124.800 35.200 122.400 35.200 L 120.000 35.200 120.000 36.400 L 120.000 37.600 117.600 37.600 L 115.200 37.600 115.200 38.800 L 115.200 40.000 112.800 40.000 L 110.400 40.000 110.400 41.200 L 110.400 42.400 108.000 42.400 L 105.600 42.400 105.600 43.600 L 105.600 44.800 102.000 44.800 L 98.400 44.800 98.400 45.981 C 98.400 47.150,98.375 47.163,95.900 47.281 C 93.516 47.394,93.394 47.450,93.275 48.481 C 93.158 49.497,93.015 49.569,90.875 49.681 C 88.735 49.793,88.593 49.864,88.475 50.881 C 88.358 51.897,88.215 51.969,86.075 52.081 C 83.935 52.193,83.793 52.264,83.675 53.281 C 83.558 54.297,83.415 54.369,81.275 54.481 C 79.135 54.593,78.993 54.664,78.875 55.681 C 78.758 56.697,78.615 56.769,76.475 56.881 C 74.351 56.992,74.192 57.070,74.078 58.054 C 73.960 59.071,73.835 59.120,70.478 59.454 C 67.096 59.790,66.997 59.830,66.875 60.881 C 66.758 61.897,66.615 61.969,64.475 62.081 C 62.325 62.193,62.193 62.260,62.073 63.300 C 61.951 64.360,61.862 64.400,59.605 64.400 C 57.329 64.400,57.256 64.433,57.000 65.600 C 56.743 66.769,56.674 66.800,54.368 66.800 C 52.004 66.800,52.000 66.802,52.000 68.000 L 52.000 69.200 49.600 69.200 L 47.200 69.200 47.200 70.400 C 47.200 71.549,45.341 72.064,42.700 71.647 C 42.535 71.621,42.400 72.140,42.400 72.800 L 42.400 74.000 38.800 74.000 L 35.200 74.000 35.200 75.200 L 35.200 76.400 32.800 76.400 C 30.409 76.400,30.400 76.404,30.400 77.580 C 30.400 78.736,30.353 78.763,28.100 78.880 C 25.923 78.994,25.793 79.059,25.673 80.100 C 25.554 81.140,23.828 81.615,21.500 81.247 C 21.335 81.221,21.177 81.380,21.150 81.600 C 21.122 81.820,21.055 82.180,21.000 82.400 C 20.945 82.620,20.878 82.980,20.850 83.200 C 20.823 83.420,19.716 83.600,18.390 83.600 C 16.032 83.600,15.975 83.626,15.740 84.800 C 15.554 85.729,15.286 86.000,14.550 86.000 C 13.731 86.000,13.600 86.193,13.600 87.400 C 13.600 88.682,13.501 88.800,12.427 88.800 C 11.444 88.800,11.233 88.979,11.127 89.900 C 11.038 90.666,10.757 91.017,10.200 91.057 C 9.760 91.089,9.175 91.134,8.900 91.157 C 8.565 91.186,8.400 91.931,8.400 93.410 C 8.400 95.546,8.360 95.628,7.200 95.860 L 6.000 96.100 6.000 114.050 L 6.000 132.000 7.188 132.000 L 8.375 132.000 8.488 136.900 L 8.600 141.800 9.689 141.926 L 10.779 142.051 10.889 147.926 L 11.000 153.800 12.085 153.925 C 13.161 154.049,13.170 154.076,13.285 157.525 C 13.399 160.974,13.408 161.001,14.485 161.125 C 15.561 161.249,15.570 161.276,15.685 164.725 C 15.800 168.186,15.804 168.201,16.900 168.327 L 18.000 168.453 18.005 173.727 C 18.012 180.270,18.135 180.800,19.647 180.800 L 20.800 180.800 20.800 184.400 L 20.800 188.000 22.000 188.000 L 23.200 188.000 23.200 190.400 L 23.200 192.800 24.400 192.800 L 25.600 192.800 25.600 196.400 L 25.600 200.000 26.800 200.000 L 28.000 200.000 28.000 206.000 L 28.000 212.000 29.200 212.000 L 30.400 212.000 30.400 215.600 L 30.400 219.200 31.600 219.200 L 32.800 219.200 32.800 224.200 L 32.800 229.200 34.000 229.200 L 35.200 229.200 35.200 235.200 L 35.200 241.200 36.400 241.200 L 37.600 241.200 37.600 244.800 L 37.600 248.400 38.800 248.400 L 40.000 248.400 40.000 253.200 L 40.000 258.000 41.185 258.000 L 42.370 258.000 42.485 261.700 L 42.600 265.400 43.700 265.527 L 44.800 265.653 44.800 270.427 L 44.800 275.200 46.000 275.200 L 47.200 275.200 47.200 278.800 L 47.200 282.400 48.400 282.400 L 49.600 282.400 49.600 287.200 L 49.600 292.000 50.800 292.000 L 52.000 292.000 52.000 295.600 L 52.000 299.200 53.185 299.200 L 54.370 299.200 54.485 302.900 L 54.600 306.600 56.900 306.720 L 59.200 306.840 59.200 308.564 C 59.200 312.631,59.610 314.000,60.828 314.000 C 61.751 314.000,61.969 314.192,62.073 315.100 C 62.193 316.141,62.323 316.206,64.500 316.320 C 66.611 316.430,66.800 316.517,66.800 317.377 C 66.800 318.491,67.459 318.800,69.833 318.800 C 71.530 318.800,71.600 318.848,71.600 320.000 L 71.600 321.200 74.000 321.200 L 76.400 321.200 76.400 322.400 L 76.400 323.600 80.000 323.600 L 83.600 323.600 83.600 324.800 C 83.600 325.867,83.733 326.000,84.800 326.000 C 85.867 326.000,86.000 326.133,86.000 327.200 C 86.000 328.267,86.133 328.400,87.200 328.400 C 88.267 328.400,88.400 328.533,88.400 329.600 L 88.400 330.800 90.800 330.800 L 93.200 330.800 93.200 332.000 C 93.200 333.055,93.339 333.200,94.350 333.200 C 95.308 333.200,95.540 333.401,95.740 334.400 C 95.975 335.574,96.032 335.600,98.390 335.600 L 100.800 335.600 100.800 336.800 L 100.800 338.000 103.200 338.000 L 105.600 338.000 105.600 339.400 C 105.600 340.682,105.699 340.800,106.773 340.800 C 107.756 340.800,107.967 340.979,108.073 341.900 C 108.193 342.940,108.325 343.007,110.475 343.119 C 112.615 343.231,112.758 343.303,112.875 344.319 C 112.993 345.336,113.135 345.407,115.275 345.519 C 117.415 345.631,117.558 345.703,117.675 346.719 C 117.793 347.737,117.933 347.807,120.100 347.920 C 122.353 348.037,122.400 348.064,122.400 349.220 C 122.400 350.259,122.541 350.400,123.573 350.400 C 124.556 350.400,124.767 350.579,124.873 351.500 C 124.993 352.540,125.125 352.607,127.275 352.719 C 129.415 352.831,129.558 352.903,129.675 353.919 C 129.793 354.936,129.935 355.007,132.075 355.119 C 134.215 355.231,134.358 355.303,134.475 356.319 C 134.571 357.150,134.844 357.428,135.654 357.522 C 136.460 357.616,136.764 357.922,136.944 358.822 C 137.174 359.970,137.242 360.000,139.590 360.000 L 142.000 360.000 142.000 361.200 L 142.000 362.400 144.400 362.400 L 146.800 362.400 146.800 363.600 C 146.800 364.667,146.933 364.800,148.000 364.800 C 149.067 364.800,149.200 364.933,149.200 366.000 L 149.200 367.200 151.600 367.200 L 154.000 367.200 154.000 368.400 C 154.000 369.467,154.133 369.600,155.200 369.600 C 156.267 369.600,156.400 369.733,156.400 370.800 L 156.400 372.000 158.800 372.000 L 161.200 372.000 161.200 373.200 L 161.200 374.400 163.600 374.400 L 166.000 374.400 166.000 375.600 L 166.000 376.800 168.400 376.800 L 170.800 376.800 170.800 378.000 L 170.800 379.200 173.200 379.200 C 174.831 379.200,175.614 379.360,175.643 379.700 C 175.666 379.975,175.711 380.560,175.743 381.000 C 175.792 381.695,176.130 381.816,178.300 381.919 C 180.775 382.037,180.800 382.050,180.800 383.219 C 180.800 384.265,180.938 384.400,182.000 384.400 C 183.073 384.400,183.200 384.530,183.200 385.628 L 183.200 386.857 185.500 386.796 C 190.380 386.666,190.400 386.671,190.400 388.000 L 190.400 389.200 192.800 389.200 L 195.200 389.200 195.200 390.400 L 195.200 391.600 200.000 391.600 L 204.800 391.600 204.800 392.800 L 204.800 394.000 219.400 394.000 L 234.000 394.000 234.000 392.800 L 234.000 391.600 236.400 391.600 L 238.800 391.600 238.800 390.400 C 238.800 389.333,238.933 389.200,240.000 389.200 C 241.067 389.200,241.200 389.067,241.200 388.000 C 241.200 386.933,241.333 386.800,242.400 386.800 C 243.467 386.800,243.600 386.667,243.600 385.600 C 243.600 384.533,243.733 384.400,244.800 384.400 C 245.862 384.400,246.000 384.264,246.000 383.220 C 246.000 382.064,246.047 382.037,248.300 381.920 C 250.574 381.801,250.601 381.785,250.725 380.500 C 250.836 379.357,250.992 379.200,252.025 379.200 C 253.064 379.200,253.200 379.061,253.200 378.000 C 253.200 376.933,253.333 376.800,254.400 376.800 C 255.467 376.800,255.600 376.667,255.600 375.600 C 255.600 374.533,255.733 374.400,256.800 374.400 C 257.867 374.400,258.000 374.267,258.000 373.200 L 258.000 372.000 260.600 372.000 L 263.200 372.000 263.200 370.800 C 263.200 369.733,263.333 369.600,264.400 369.600 C 265.467 369.600,265.600 369.467,265.600 368.400 C 265.600 367.333,265.733 367.200,266.800 367.200 C 267.867 367.200,268.000 367.067,268.000 366.000 C 268.000 364.933,268.133 364.800,269.200 364.800 C 270.267 364.800,270.400 364.667,270.400 363.600 L 270.400 362.400 272.800 362.400 L 275.200 362.400 275.200 361.200 C 275.200 360.133,275.333 360.000,276.400 360.000 C 277.467 360.000,277.600 359.867,277.600 358.800 C 277.600 357.733,277.733 357.600,278.800 357.600 C 279.867 357.600,280.000 357.467,280.000 356.400 C 280.000 355.233,280.053 355.200,281.920 355.200 C 283.936 355.200,284.800 354.704,284.800 353.547 C 284.800 353.087,285.172 352.810,285.900 352.727 C 286.757 352.628,287.027 352.362,287.124 351.524 C 287.220 350.693,287.493 350.420,288.324 350.324 C 289.162 350.227,289.428 349.957,289.527 349.100 C 289.633 348.179,289.844 348.000,290.827 348.000 C 291.864 348.000,292.000 347.861,292.000 346.800 C 292.000 345.733,292.133 345.600,293.200 345.600 C 294.254 345.600,294.400 345.460,294.400 344.456 C 294.400 343.380,294.521 343.297,296.410 343.073 C 298.815 342.788,299.200 342.586,299.200 341.602 C 299.200 341.047,299.539 340.818,300.500 340.725 C 301.643 340.615,301.815 340.443,301.925 339.300 C 302.036 338.157,302.192 338.000,303.225 338.000 C 304.264 338.000,304.400 337.861,304.400 336.800 C 304.400 335.733,304.533 335.600,305.600 335.600 C 306.667 335.600,306.800 335.467,306.800 334.400 C 306.800 333.333,306.933 333.200,308.000 333.200 C 309.067 333.200,309.200 333.067,309.200 332.000 C 309.200 330.933,309.333 330.800,310.400 330.800 C 311.467 330.800,311.600 330.667,311.600 329.600 L 311.600 328.400 314.000 328.400 L 316.400 328.400 316.400 327.200 C 316.400 326.133,316.533 326.000,317.600 326.000 C 318.667 326.000,318.800 325.867,318.800 324.800 C 318.800 323.733,318.933 323.600,320.000 323.600 C 321.067 323.600,321.200 323.467,321.200 322.400 L 321.200 321.200 323.600 321.200 L 326.000 321.200 326.000 320.000 C 326.000 318.933,326.133 318.800,327.200 318.800 C 328.267 318.800,328.400 318.667,328.400 317.600 C 328.400 316.533,328.533 316.400,329.600 316.400 C 330.667 316.400,330.800 316.267,330.800 315.200 C 330.800 314.133,330.933 314.000,332.000 314.000 C 333.067 314.000,333.200 313.867,333.200 312.800 L 333.200 311.600 335.600 311.600 C 337.988 311.600,338.000 311.594,338.000 310.425 C 338.000 309.392,338.157 309.236,339.300 309.125 C 340.375 309.022,340.621 308.814,340.724 307.924 C 340.820 307.093,341.093 306.820,341.924 306.724 C 342.756 306.628,343.028 306.356,343.124 305.524 C 343.220 304.693,343.493 304.420,344.324 304.324 C 345.156 304.228,345.428 303.956,345.524 303.124 C 345.620 302.293,345.893 302.020,346.724 301.924 C 347.614 301.821,347.822 301.575,347.925 300.500 L 348.051 299.200 350.425 299.200 C 352.797 299.200,352.800 299.199,352.800 298.000 C 352.800 296.933,352.933 296.800,354.000 296.800 C 355.067 296.800,355.200 296.667,355.200 295.600 C 355.200 294.533,355.333 294.400,356.400 294.400 C 357.467 294.400,357.600 294.267,357.600 293.200 C 357.600 292.133,357.733 292.000,358.800 292.000 C 359.867 292.000,360.000 291.867,360.000 290.800 L 360.000 289.600 362.400 289.600 L 364.800 289.600 364.800 288.400 C 364.800 287.333,364.933 287.200,366.000 287.200 C 367.067 287.200,367.200 287.067,367.200 286.000 C 367.200 284.933,367.333 284.800,368.400 284.800 C 369.467 284.800,369.600 284.667,369.600 283.600 C 369.600 282.533,369.733 282.400,370.800 282.400 C 371.867 282.400,372.000 282.267,372.000 281.200 C 372.000 280.133,372.133 280.000,373.200 280.000 C 374.267 280.000,374.400 279.867,374.400 278.800 L 374.400 277.600 376.800 277.600 C 379.188 277.600,379.200 277.594,379.200 276.425 C 379.200 275.392,379.357 275.236,380.500 275.125 C 381.575 275.022,381.821 274.814,381.924 273.924 C 382.020 273.093,382.293 272.820,383.124 272.724 C 383.962 272.627,384.228 272.357,384.327 271.500 C 384.433 270.579,384.644 270.400,385.627 270.400 C 386.664 270.400,386.800 270.261,386.800 269.200 C 386.800 268.132,386.933 268.000,388.007 268.000 L 389.214 268.000 389.107 258.300 L 389.000 248.600 387.900 248.473 L 386.800 248.347 386.800 235.173 L 386.800 222.000 385.605 222.000 L 384.409 222.000 384.305 206.300 L 384.200 190.600 383.105 190.474 L 382.010 190.348 381.905 175.874 L 381.800 161.400 380.500 161.275 L 379.200 161.149 379.200 146.575 L 379.200 132.000 378.000 132.000 L 376.800 132.000 376.800 121.400 L 376.800 110.800 375.600 110.800 L 374.400 110.800 374.400 92.400 L 374.400 74.000 373.200 74.000 L 372.000 74.000 372.000 69.200 L 372.000 64.400 370.800 64.400 C 369.603 64.400,369.600 64.394,369.600 62.050 C 369.600 59.759,369.570 59.694,368.400 59.460 C 367.226 59.225,367.200 59.168,367.200 56.810 L 367.200 54.400 366.000 54.400 C 364.933 54.400,364.800 54.267,364.800 53.200 C 364.800 52.133,364.667 52.000,363.600 52.000 L 362.400 52.000 362.400 49.600 L 362.400 47.200 361.200 47.200 C 360.133 47.200,360.000 47.067,360.000 46.000 C 360.000 44.933,359.867 44.800,358.800 44.800 C 357.733 44.800,357.600 44.667,357.600 43.600 L 357.600 42.400 355.200 42.400 L 352.800 42.400 352.800 41.200 C 352.800 40.133,352.667 40.000,351.600 40.000 C 350.533 40.000,350.400 39.867,350.400 38.800 C 350.400 37.601,350.397 37.600,348.027 37.600 C 345.735 37.600,345.649 37.562,345.527 36.500 L 345.400 35.400 336.700 35.400 L 328.000 35.400 328.000 34.100 L 328.000 32.800 324.500 32.740 C 322.575 32.707,320.505 32.718,319.900 32.765 C 318.921 32.842,318.800 32.717,318.800 31.626 L 318.800 30.400 314.000 30.400 L 309.200 30.400 309.200 29.200 L 309.200 28.000 303.027 28.000 L 296.853 28.000 296.727 26.900 L 296.600 25.800 286.600 25.800 L 276.600 25.800 276.475 24.500 L 276.349 23.200 273.375 23.200 L 270.400 23.200 270.400 22.000 L 270.400 20.800 265.600 20.800 L 260.800 20.800 260.800 19.618 C 260.800 18.052,259.775 17.870,252.022 18.059 L 246.036 18.205 245.918 17.002 L 245.800 15.800 240.600 15.800 C 237.740 15.800,234.500 15.884,233.400 15.988 L 231.400 16.175 231.200 14.788 L 231.000 13.400 227.725 13.284 C 224.494 13.170,224.448 13.154,224.325 12.084 L 224.200 11.000 218.100 10.890 L 212.000 10.779 212.000 9.572 L 212.000 8.365 204.800 8.483 L 197.599 8.600 197.600 7.338 L 197.600 6.075 191.600 6.021 L 185.600 5.967 185.600 7.184 M207.778 25.278 C 208.867 25.724,211.606 26.295,213.866 26.545 C 216.770 26.867,218.225 27.215,218.829 27.732 C 219.583 28.378,221.270 28.787,225.887 29.447 C 226.595 29.549,227.464 29.921,227.818 30.275 C 228.605 31.063,231.017 31.559,234.165 31.583 C 235.950 31.596,236.952 31.848,238.253 32.610 C 239.423 33.295,241.038 33.752,243.288 34.032 C 245.109 34.260,247.006 34.710,247.502 35.033 C 248.630 35.768,254.698 36.376,261.045 36.390 C 265.761 36.400,265.928 36.430,267.323 37.539 C 268.564 38.525,269.217 38.711,272.190 38.920 C 274.856 39.109,275.909 39.365,276.896 40.069 C 277.991 40.848,278.841 41.006,282.984 41.203 C 287.230 41.404,288.032 41.560,289.760 42.516 C 291.545 43.504,292.096 43.600,295.965 43.600 C 299.310 43.600,300.677 43.778,302.406 44.438 C 305.249 45.523,307.040 45.880,311.417 46.235 C 313.869 46.434,315.316 46.753,316.000 47.248 C 317.096 48.040,322.141 48.800,326.305 48.800 C 328.055 48.800,329.321 49.050,330.424 49.612 C 331.300 50.059,333.473 50.607,335.254 50.830 C 339.977 51.423,344.093 55.236,343.454 58.429 C 342.897 61.214,338.942 65.600,336.988 65.600 C 336.478 65.600,335.522 66.140,334.862 66.800 C 334.000 67.661,333.279 68.000,332.306 68.000 C 331.321 68.000,330.635 68.329,329.800 69.200 C 329.063 69.969,328.252 70.400,327.539 70.400 C 326.880 70.400,325.884 70.878,325.092 71.573 C 324.358 72.218,323.285 72.864,322.708 73.009 C 322.131 73.153,321.348 73.616,320.967 74.036 C 320.587 74.456,320.079 74.802,319.838 74.804 C 319.597 74.806,318.610 75.436,317.644 76.204 C 316.678 76.972,315.559 77.600,315.158 77.600 C 314.756 77.600,313.812 78.140,313.060 78.801 C 312.308 79.461,311.141 80.112,310.467 80.247 C 309.793 80.381,308.928 80.838,308.545 81.260 C 308.163 81.683,307.119 82.391,306.225 82.834 C 303.098 84.384,301.895 85.155,300.705 86.373 C 299.820 87.277,299.139 87.600,298.113 87.600 C 297.082 87.600,296.430 87.911,295.600 88.800 C 294.983 89.460,294.081 90.000,293.594 90.000 C 292.654 90.000,290.746 91.364,288.699 93.500 C 287.795 94.443,287.097 94.800,286.157 94.800 C 285.251 94.800,284.501 95.161,283.662 96.000 C 282.855 96.807,282.063 97.200,281.246 97.200 C 280.515 97.200,279.710 97.545,279.224 98.067 C 278.423 98.926,276.872 99.948,273.818 101.629 C 272.949 102.108,271.901 102.927,271.489 103.450 C 271.006 104.065,270.327 104.400,269.567 104.400 C 268.808 104.400,267.949 104.824,267.137 105.600 C 266.277 106.422,265.478 106.800,264.600 106.800 C 263.722 106.800,262.923 107.178,262.063 108.000 C 261.372 108.660,260.480 109.200,260.079 109.200 C 259.679 109.200,258.981 109.545,258.529 109.966 C 258.076 110.387,256.783 111.129,255.653 111.615 C 254.524 112.101,253.600 112.632,253.600 112.795 C 253.600 112.958,252.818 113.390,251.863 113.755 C 250.907 114.120,249.897 114.844,249.619 115.365 C 249.279 116.000,248.629 116.389,247.647 116.546 C 246.602 116.713,245.532 117.400,243.915 118.941 C 242.373 120.411,241.186 121.189,240.202 121.373 C 239.407 121.522,238.391 122.064,237.946 122.576 C 237.469 123.124,236.473 123.614,235.526 123.766 C 234.533 123.924,233.478 124.461,232.775 125.164 C 232.147 125.791,230.996 126.424,230.217 126.570 C 229.438 126.717,228.800 126.992,228.800 127.182 C 228.800 127.373,228.035 127.900,227.100 128.353 C 226.165 128.807,225.189 129.517,224.932 129.932 C 224.651 130.386,223.826 130.772,222.860 130.901 C 221.978 131.020,220.642 131.585,219.890 132.158 C 219.139 132.731,218.231 133.200,217.872 133.200 C 217.513 133.200,216.646 133.830,215.945 134.600 C 214.998 135.641,214.344 136.000,213.395 136.000 C 212.523 136.000,211.721 136.380,210.863 137.200 C 210.172 137.860,209.174 138.400,208.645 138.400 C 207.659 138.400,205.996 139.599,203.790 141.900 C 202.927 142.799,202.174 143.200,201.346 143.200 C 200.549 143.200,199.780 143.586,199.042 144.357 C 198.432 144.993,197.394 145.621,196.734 145.753 C 195.425 146.015,193.801 147.111,191.854 149.047 C 191.139 149.758,189.983 150.406,189.164 150.553 C 188.374 150.696,187.310 151.257,186.800 151.800 C 186.290 152.343,185.277 152.899,184.549 153.036 C 183.821 153.172,182.770 153.707,182.212 154.224 C 181.654 154.741,180.523 155.276,179.699 155.413 C 178.874 155.550,177.678 155.828,177.040 156.031 C 174.716 156.771,170.831 155.854,168.263 153.960 C 167.637 153.498,166.148 152.988,164.954 152.826 C 163.582 152.640,162.505 152.235,162.031 151.726 C 161.583 151.244,160.269 150.721,158.769 150.426 C 157.369 150.150,155.697 149.504,154.991 148.966 C 153.976 148.192,153.246 148.000,151.317 148.000 C 149.245 148.000,148.700 147.833,147.400 146.800 C 146.569 146.140,145.551 145.600,145.137 145.600 C 144.724 145.600,143.373 145.060,142.136 144.400 C 140.683 143.625,139.304 143.200,138.240 143.200 C 137.016 143.200,136.301 142.930,135.461 142.151 C 134.559 141.315,133.807 141.060,131.752 140.895 C 129.512 140.715,129.072 140.544,128.387 139.582 C 127.778 138.727,127.151 138.413,125.632 138.204 C 124.551 138.056,123.090 137.509,122.386 136.990 C 121.596 136.407,120.245 135.940,118.853 135.768 C 117.374 135.586,116.212 135.166,115.469 134.545 C 114.610 133.827,113.856 133.600,112.330 133.600 C 110.606 133.600,110.159 133.427,109.180 132.378 C 108.180 131.309,107.692 131.128,105.254 130.923 C 102.818 130.719,102.367 130.552,101.659 129.594 C 101.177 128.942,100.307 128.397,99.512 128.247 C 98.776 128.109,96.039 126.917,93.430 125.598 C 89.198 123.459,88.425 123.200,86.280 123.200 C 84.349 123.200,83.624 123.008,82.600 122.227 C 81.706 121.546,80.555 121.171,78.762 120.978 C 76.935 120.782,75.913 120.444,75.200 119.800 C 74.650 119.303,73.543 118.780,72.741 118.638 C 71.938 118.496,70.825 118.020,70.267 117.581 C 69.709 117.142,68.484 116.512,67.546 116.181 C 66.607 115.850,65.561 115.348,65.220 115.067 C 64.165 114.195,62.426 113.600,60.934 113.600 C 59.917 113.600,59.112 113.254,58.139 112.400 C 56.982 111.384,56.441 111.200,54.617 111.200 C 52.941 111.200,52.210 110.991,51.331 110.260 C 50.709 109.742,49.476 109.225,48.592 109.110 C 47.708 108.995,46.288 108.428,45.436 107.850 C 44.585 107.273,43.508 106.799,43.044 106.798 C 42.580 106.797,41.390 106.258,40.400 105.600 C 39.410 104.942,38.287 104.403,37.905 104.402 C 37.219 104.400,35.694 102.422,34.269 99.684 C 32.490 96.269,36.082 92.801,42.465 91.768 C 44.446 91.448,46.623 90.898,47.302 90.547 C 47.981 90.196,49.941 89.788,51.658 89.641 C 54.049 89.435,54.957 89.183,55.536 88.561 C 55.951 88.115,57.126 87.432,58.146 87.042 C 59.166 86.653,60.000 86.184,60.000 86.000 C 60.000 85.816,60.807 85.358,61.794 84.981 C 62.781 84.604,63.795 84.047,64.047 83.744 C 64.299 83.440,65.516 82.899,66.752 82.542 C 67.989 82.184,69.509 81.466,70.131 80.946 C 70.775 80.407,71.784 80.000,72.478 80.000 C 73.259 80.000,74.183 79.571,75.061 78.800 C 75.813 78.140,76.752 77.600,77.148 77.600 C 77.929 77.600,81.372 75.120,82.480 73.760 C 83.002 73.118,83.801 72.860,85.847 72.669 C 87.753 72.491,88.782 72.181,89.402 71.598 C 89.915 71.116,91.228 70.623,92.592 70.401 C 93.867 70.194,95.201 69.767,95.555 69.453 C 95.910 69.139,97.055 68.483,98.100 67.997 C 99.145 67.510,100.000 66.957,100.000 66.767 C 100.000 66.577,100.961 66.143,102.135 65.802 C 103.310 65.460,104.849 64.754,105.556 64.233 C 106.262 63.711,107.617 63.168,108.566 63.026 C 109.638 62.865,110.641 62.395,111.215 61.784 C 111.724 61.243,112.513 60.799,112.970 60.798 C 113.426 60.797,114.272 60.482,114.850 60.098 C 117.471 58.355,118.270 57.741,119.260 56.707 C 119.995 55.940,120.733 55.595,121.660 55.584 C 122.397 55.575,123.990 55.035,125.200 54.384 C 126.465 53.703,128.008 53.200,128.830 53.200 C 129.820 53.200,130.536 52.906,131.156 52.247 C 131.651 51.720,132.734 51.185,133.578 51.050 C 134.584 50.889,135.324 50.471,135.749 49.822 C 136.147 49.215,136.945 48.734,137.831 48.568 C 138.622 48.419,139.730 47.871,140.293 47.349 C 140.988 46.704,141.793 46.400,142.803 46.400 C 143.688 46.400,144.836 46.031,145.644 45.485 C 147.095 44.507,148.736 43.810,150.483 43.429 C 151.079 43.299,152.050 42.745,152.641 42.197 C 153.233 41.648,153.947 41.200,154.228 41.200 C 154.509 41.200,155.247 40.779,155.869 40.264 C 156.491 39.749,157.622 39.115,158.383 38.856 C 159.143 38.596,160.133 38.045,160.583 37.631 C 161.073 37.179,162.492 36.711,164.130 36.461 C 165.631 36.231,167.491 35.671,168.262 35.216 C 169.033 34.761,170.484 34.205,171.485 33.981 C 172.487 33.756,173.777 33.209,174.353 32.764 C 176.405 31.178,178.220 29.997,179.569 29.369 C 180.323 29.018,181.261 28.321,181.656 27.820 C 182.066 27.298,183.002 26.807,183.849 26.670 C 184.661 26.538,185.792 25.984,186.362 25.438 C 187.640 24.217,189.153 24.079,198.800 24.303 C 204.669 24.439,206.120 24.597,207.778 25.278 M356.635 72.018 C 358.438 73.746,358.704 74.434,359.177 78.598 C 359.387 80.443,359.928 82.764,360.379 83.755 C 360.943 84.993,361.204 86.407,361.213 88.278 C 361.220 89.775,361.484 92.890,361.800 95.200 C 362.116 97.510,362.383 100.840,362.393 102.600 C 362.404 104.360,362.671 106.520,362.988 107.400 C 363.439 108.651,363.572 111.620,363.596 121.000 C 363.635 135.929,364.011 140.706,365.283 142.425 C 366.176 143.632,366.206 143.967,366.412 155.132 C 366.619 166.384,366.642 166.634,367.612 168.400 C 368.589 170.179,368.602 170.344,368.800 182.600 L 369.000 195.000 370.000 196.333 C 370.998 197.662,371.001 197.692,371.218 208.933 C 371.402 218.456,371.546 220.479,372.149 222.000 C 373.404 225.165,373.565 226.807,373.583 236.651 C 373.601 246.648,373.630 246.864,375.418 250.000 C 376.242 251.446,376.171 255.889,375.299 257.459 C 373.988 259.820,372.391 262.000,371.972 262.000 C 371.549 262.000,369.209 263.760,367.187 265.600 C 366.582 266.150,365.335 267.140,364.416 267.800 C 363.496 268.460,361.534 270.191,360.055 271.647 C 358.576 273.102,356.969 274.420,356.483 274.574 C 355.997 274.728,355.600 274.993,355.600 275.164 C 355.600 275.334,354.945 275.817,354.145 276.237 C 353.345 276.657,351.647 277.990,350.371 279.200 C 346.720 282.663,345.942 283.359,345.003 284.000 C 344.519 284.330,343.151 285.256,341.962 286.058 C 340.773 286.861,338.904 288.346,337.809 289.358 C 336.714 290.371,335.591 291.200,335.313 291.200 C 334.577 291.200,330.337 294.516,326.908 297.772 C 325.270 299.327,323.721 300.668,323.465 300.751 C 323.209 300.834,322.640 301.227,322.200 301.624 C 321.760 302.022,320.903 302.604,320.296 302.918 C 319.290 303.439,316.556 305.783,312.729 309.407 C 311.921 310.173,311.035 310.800,310.760 310.800 C 310.486 310.800,309.258 311.671,308.031 312.736 C 306.804 313.801,305.440 314.865,305.000 315.101 C 304.560 315.337,303.300 316.372,302.200 317.402 C 301.100 318.431,299.521 319.712,298.690 320.248 C 297.860 320.784,296.780 321.558,296.290 321.968 C 292.653 325.017,289.353 327.572,287.816 328.530 C 285.502 329.973,280.463 334.233,277.507 337.245 C 276.246 338.530,274.761 339.695,274.207 339.834 C 273.653 339.973,273.199 340.202,273.197 340.343 C 273.196 340.485,272.534 341.050,271.726 341.600 C 270.436 342.478,267.558 345.071,264.396 348.205 C 263.843 348.752,263.172 349.200,262.905 349.200 C 262.637 349.200,262.132 349.637,261.783 350.170 C 261.433 350.704,260.610 351.327,259.954 351.556 C 258.563 352.041,256.963 353.200,254.786 355.300 C 253.931 356.125,253.073 356.800,252.880 356.800 C 252.687 356.800,252.330 357.234,252.089 357.765 C 251.847 358.296,251.234 358.862,250.726 359.023 C 250.219 359.184,248.633 360.301,247.202 361.505 C 245.771 362.709,243.902 364.258,243.049 364.947 C 242.196 365.636,241.123 366.560,240.665 367.000 C 238.151 369.414,232.216 372.800,230.496 372.800 C 225.751 372.800,223.651 369.489,222.919 360.852 C 222.498 355.884,222.159 353.817,221.578 352.688 C 220.983 351.532,220.799 350.354,220.798 347.688 C 220.795 343.856,220.379 341.770,219.167 339.519 C 218.559 338.389,218.321 336.985,218.165 333.603 C 217.997 329.964,217.791 328.849,217.015 327.390 C 216.389 326.212,215.973 324.561,215.784 322.506 C 215.591 320.403,215.168 318.754,214.475 317.400 C 213.565 315.619,213.426 314.764,213.213 309.590 C 213.005 304.566,212.846 303.538,212.039 301.990 C 211.340 300.649,211.037 299.223,210.833 296.304 C 210.602 293.020,210.422 292.280,209.684 291.593 C 208.651 290.630,208.558 290.256,208.016 284.886 C 207.777 282.519,207.339 280.374,206.985 279.834 C 206.647 279.317,206.186 277.209,205.960 275.147 C 205.663 272.427,205.300 271.016,204.639 270.000 C 203.860 268.802,203.692 267.868,203.474 263.534 C 203.269 259.440,203.037 258.055,202.267 256.314 C 201.543 254.676,201.268 253.200,201.122 250.155 C 200.966 246.910,200.727 245.723,199.864 243.900 C 199.279 242.662,198.798 240.963,198.796 240.125 C 198.791 238.546,198.137 236.088,197.036 233.513 C 196.686 232.695,196.400 231.132,196.400 230.039 C 196.400 227.881,195.924 226.267,195.022 225.365 C 194.390 224.733,194.229 223.694,193.662 216.600 C 193.411 213.456,193.035 211.327,192.574 210.428 C 192.140 209.582,191.745 207.510,191.544 205.028 C 191.118 199.747,190.905 198.631,190.024 197.088 C 189.521 196.207,189.201 194.538,189.013 191.810 C 188.810 188.865,188.490 187.294,187.789 185.810 C 187.267 184.705,186.714 182.990,186.562 182.000 C 186.409 181.010,185.949 179.720,185.538 179.132 C 184.278 177.330,183.611 172.047,184.243 168.884 C 184.677 166.713,189.298 162.629,193.811 160.427 C 194.697 159.995,195.853 159.182,196.381 158.621 C 196.971 157.992,197.775 157.600,198.473 157.600 C 199.178 157.600,200.065 157.162,200.817 156.444 C 201.482 155.808,202.830 155.086,203.813 154.838 C 204.796 154.591,205.600 154.231,205.600 154.038 C 205.600 153.846,206.375 153.324,207.322 152.878 C 208.270 152.433,209.282 151.783,209.571 151.434 C 209.861 151.085,210.314 150.800,210.577 150.800 C 210.840 150.800,211.764 150.194,212.629 149.454 C 213.494 148.713,214.832 147.974,215.601 147.811 C 216.370 147.649,217.450 147.103,218.000 146.599 C 218.550 146.095,219.774 145.556,220.721 145.403 C 221.765 145.233,222.630 144.819,222.921 144.351 C 223.184 143.927,224.120 143.387,225.000 143.152 C 225.993 142.886,227.612 141.827,229.266 140.362 C 231.110 138.728,232.263 138.000,233.005 138.000 C 233.683 138.000,234.493 137.557,235.200 136.800 C 235.995 135.949,236.694 135.600,237.603 135.600 C 238.486 135.600,239.124 135.296,239.653 134.624 C 240.075 134.087,240.821 133.522,241.310 133.369 C 241.800 133.216,242.709 132.665,243.331 132.145 C 243.953 131.625,244.724 131.200,245.044 131.200 C 245.364 131.200,246.257 130.570,247.027 129.800 C 248.061 128.765,248.771 128.400,249.747 128.400 C 250.710 128.400,251.357 128.075,252.137 127.200 C 252.933 126.307,253.558 126.000,254.580 126.000 C 255.480 126.000,256.140 125.736,256.491 125.235 C 257.009 124.494,259.299 123.097,262.600 121.507 C 263.480 121.083,264.470 120.573,264.800 120.372 C 265.130 120.172,266.120 119.621,267.000 119.149 C 267.880 118.676,268.996 117.864,269.481 117.344 C 269.965 116.825,270.668 116.400,271.042 116.400 C 271.832 116.400,274.848 114.296,276.346 112.700 C 277.100 111.896,277.765 111.600,278.814 111.600 C 279.888 111.600,280.541 111.297,281.400 110.400 C 282.213 109.552,282.928 109.200,283.841 109.200 C 284.757 109.200,285.461 108.852,286.265 108.000 C 287.062 107.155,287.774 106.800,288.671 106.800 C 289.631 106.800,290.157 106.503,290.800 105.600 C 291.270 104.940,291.867 104.395,292.127 104.389 C 292.387 104.383,293.307 103.843,294.171 103.189 C 295.035 102.535,295.945 102.000,296.193 102.000 C 296.440 102.000,297.254 101.370,298.000 100.600 C 298.961 99.608,299.713 99.198,300.578 99.193 C 301.350 99.189,302.144 98.824,302.733 98.203 C 303.245 97.662,304.279 97.050,305.029 96.843 C 306.344 96.480,307.296 95.860,310.168 93.499 C 310.905 92.894,312.079 92.284,312.778 92.144 C 313.476 92.005,314.563 91.375,315.193 90.745 C 315.927 90.011,316.755 89.600,317.500 89.600 C 318.225 89.600,319.018 89.219,319.615 88.585 C 320.139 88.026,321.326 87.378,322.251 87.145 C 323.177 86.912,324.340 86.289,324.837 85.761 C 325.333 85.232,325.963 84.800,326.236 84.800 C 326.510 84.800,327.070 84.338,327.481 83.773 C 328.009 83.048,328.728 82.680,329.930 82.519 C 330.866 82.393,331.849 81.984,332.116 81.609 C 332.733 80.740,334.121 80.000,335.134 80.000 C 335.587 80.000,337.362 78.558,339.326 76.594 C 341.200 74.720,343.420 72.900,344.260 72.549 C 345.099 72.198,346.240 71.553,346.793 71.115 C 348.632 69.661,354.762 70.223,356.635 72.018 M23.200 82.843 C 23.200 83.384,22.914 83.600,22.200 83.600 C 21.065 83.600,21.014 83.487,21.671 82.434 C 22.238 81.528,23.200 81.785,23.200 82.843 M37.849 117.647 C 39.059 118.328,40.490 118.800,41.346 118.800 C 42.450 118.800,43.047 119.085,43.863 120.000 C 44.473 120.685,45.333 121.200,45.865 121.200 C 46.378 121.200,47.495 121.830,48.347 122.600 C 49.378 123.532,50.291 124.000,51.074 124.000 C 51.847 124.000,52.627 124.393,53.349 125.147 C 54.262 126.099,54.898 126.341,57.087 126.565 C 59.020 126.763,60.031 127.092,60.865 127.794 C 61.721 128.514,62.701 128.821,64.812 129.029 C 66.356 129.181,67.750 129.525,67.910 129.794 C 68.389 130.601,69.737 131.138,72.031 131.436 C 73.375 131.610,74.615 132.063,75.292 132.626 C 76.052 133.258,77.158 133.618,78.931 133.807 C 80.997 134.029,81.676 134.290,82.525 135.189 C 83.344 136.057,84.034 136.339,85.686 136.482 C 87.098 136.604,88.317 137.020,89.356 137.733 C 90.251 138.347,91.459 138.800,92.202 138.800 C 92.912 138.800,93.960 139.168,94.532 139.618 C 95.104 140.068,96.743 140.681,98.175 140.981 C 99.607 141.280,101.258 141.902,101.843 142.363 C 102.541 142.911,103.489 143.200,104.592 143.200 C 105.766 143.200,106.494 143.441,106.998 143.998 C 107.822 144.908,109.959 145.595,111.978 145.598 C 112.799 145.599,113.948 146.010,114.817 146.612 C 115.730 147.245,117.085 147.713,118.438 147.863 C 119.838 148.018,120.952 148.414,121.600 148.984 C 122.150 149.469,123.410 150.093,124.400 150.371 C 125.390 150.649,126.591 151.237,127.068 151.678 C 127.628 152.195,128.799 152.581,130.364 152.766 C 132.047 152.964,133.083 153.327,133.745 153.948 C 134.486 154.645,135.425 154.917,137.964 155.173 C 139.794 155.358,141.530 155.759,141.915 156.085 C 142.777 156.819,144.580 157.476,146.428 157.730 C 147.213 157.838,148.543 158.393,149.384 158.963 C 150.224 159.533,151.205 160.000,151.563 160.000 C 151.921 160.000,152.903 160.468,153.744 161.040 C 154.663 161.664,156.166 162.200,157.507 162.382 C 159.043 162.591,159.953 162.949,160.424 163.530 C 160.822 164.022,161.808 164.488,162.780 164.643 C 163.699 164.790,165.078 165.336,165.843 165.855 C 166.609 166.375,167.411 166.800,167.625 166.800 C 168.829 166.800,172.400 170.995,172.400 172.408 C 172.400 173.418,172.688 174.131,173.347 174.750 C 174.002 175.365,174.367 176.264,174.534 177.670 C 174.666 178.787,175.095 180.152,175.487 180.704 C 177.013 182.849,177.188 183.471,177.194 186.765 C 177.199 189.694,177.340 190.367,178.279 191.965 C 179.247 193.611,179.382 194.316,179.589 198.800 C 179.800 203.393,179.907 203.930,180.909 205.393 C 181.950 206.913,182.000 207.208,182.000 211.862 C 182.000 216.579,182.035 216.781,183.082 218.025 C 184.080 219.211,184.185 219.680,184.435 224.068 C 184.682 228.397,184.791 228.898,185.653 229.646 C 186.541 230.415,186.612 230.806,186.800 235.933 C 186.981 240.876,187.091 241.528,187.953 242.737 C 188.674 243.747,188.991 244.908,189.253 247.489 C 189.473 249.664,189.882 251.361,190.376 252.162 C 191.212 253.514,191.992 257.481,191.997 260.406 C 191.999 261.400,192.336 262.839,192.747 263.606 C 193.158 264.373,193.700 266.523,193.950 268.382 C 194.277 270.810,194.686 272.170,195.402 273.204 C 196.342 274.559,196.400 274.948,196.400 279.895 C 196.400 285.243,196.691 286.776,197.974 288.200 C 198.480 288.760,198.771 289.949,198.948 292.166 C 199.130 294.441,199.469 295.791,200.155 296.966 C 200.950 298.329,201.137 299.297,201.283 302.800 C 201.430 306.329,201.619 307.294,202.464 308.837 C 203.366 310.485,203.496 311.294,203.730 316.699 C 203.985 322.572,204.128 323.306,205.504 325.800 C 205.968 326.641,206.207 328.255,206.304 331.200 C 206.421 334.778,206.601 335.725,207.517 337.597 C 208.455 339.512,208.622 340.439,208.816 344.831 C 209.010 349.218,209.152 350.013,209.919 350.988 C 210.404 351.604,210.804 352.669,210.810 353.354 C 210.824 355.304,211.443 357.500,212.187 358.245 C 213.022 359.079,213.600 360.536,213.600 361.805 C 213.600 362.329,214.050 363.604,214.600 364.638 C 217.776 370.611,211.458 377.205,205.256 374.391 C 204.297 373.956,203.267 373.600,202.967 373.600 C 202.511 373.600,200.474 371.724,198.540 369.523 C 197.306 368.119,194.810 366.057,194.051 365.816 C 193.583 365.668,193.200 365.398,193.200 365.216 C 193.200 364.688,190.109 363.600,188.607 363.600 C 187.785 363.600,186.943 363.299,186.516 362.852 C 186.122 362.440,185.080 361.865,184.200 361.574 C 183.320 361.283,182.150 360.626,181.600 360.115 C 179.541 358.200,177.384 356.737,176.300 356.520 C 175.684 356.397,174.822 355.793,174.385 355.179 C 173.947 354.564,173.050 353.943,172.390 353.798 C 171.731 353.653,170.969 353.318,170.696 353.052 C 170.423 352.787,169.558 352.178,168.774 351.698 C 167.989 351.218,167.016 350.460,166.612 350.013 C 166.194 349.552,165.374 349.200,164.715 349.200 C 163.953 349.200,163.185 348.805,162.477 348.050 C 161.851 347.381,160.788 346.790,159.939 346.639 C 159.016 346.474,158.239 346.014,157.830 345.389 C 157.473 344.845,156.943 344.400,156.651 344.400 C 156.359 344.400,155.328 343.863,154.360 343.207 C 153.392 342.551,152.343 342.011,152.028 342.007 C 151.714 342.003,150.880 341.370,150.174 340.600 C 149.244 339.585,148.556 339.200,147.669 339.200 C 146.933 339.200,146.237 338.905,145.923 338.460 C 145.635 338.052,144.787 337.403,144.038 337.017 C 143.288 336.631,142.331 335.994,141.910 335.602 C 141.160 334.903,139.484 334.400,137.905 334.400 C 137.468 334.400,136.545 333.944,135.855 333.386 C 135.165 332.828,133.407 331.396,131.950 330.203 C 130.492 329.010,128.388 327.688,127.273 327.265 C 126.158 326.841,124.762 326.113,124.169 325.647 C 123.577 325.181,122.856 324.800,122.567 324.800 C 122.278 324.800,121.558 324.352,120.966 323.804 C 120.375 323.256,119.276 322.638,118.524 322.430 C 117.772 322.222,116.793 321.591,116.349 321.026 C 115.905 320.462,115.298 320.000,115.000 320.000 C 114.702 320.000,114.115 319.564,113.696 319.031 C 113.236 318.446,112.311 317.950,111.367 317.782 C 110.505 317.629,109.350 317.088,108.800 316.580 C 108.250 316.072,107.260 315.528,106.600 315.369 C 105.940 315.211,104.680 314.463,103.800 313.706 C 102.920 312.950,101.840 312.023,101.400 311.645 C 100.960 311.267,99.869 310.746,98.976 310.486 C 98.083 310.226,96.926 309.560,96.406 309.007 C 95.844 308.408,95.018 308.000,94.368 308.000 C 93.705 308.000,92.616 307.449,91.600 306.600 C 90.678 305.830,89.806 305.200,89.662 305.200 C 89.518 305.199,88.877 304.749,88.238 304.200 C 87.599 303.650,86.849 303.200,86.572 303.200 C 86.295 303.200,85.558 302.660,84.935 302.000 C 84.312 301.340,83.639 300.800,83.439 300.800 C 83.239 300.800,82.519 300.376,81.838 299.858 C 81.157 299.339,80.201 298.789,79.713 298.635 C 79.225 298.481,77.522 297.071,75.929 295.503 L 73.031 292.651 72.519 288.917 C 72.238 286.863,71.749 284.782,71.432 284.292 C 71.116 283.801,70.663 281.978,70.424 280.240 C 70.186 278.502,69.647 276.522,69.226 275.840 C 68.805 275.158,68.242 273.700,67.976 272.600 C 67.710 271.500,67.066 270.140,66.546 269.578 C 65.854 268.830,65.596 268.080,65.586 266.778 C 65.568 264.553,64.634 260.564,63.933 259.720 C 63.583 259.298,63.331 257.309,63.187 253.822 C 62.993 249.135,62.866 248.417,62.027 247.238 C 61.350 246.287,61.005 245.093,60.799 242.985 C 60.571 240.665,60.250 239.660,59.256 238.159 C 58.565 237.116,58.000 235.858,58.000 235.362 C 58.000 234.867,57.559 233.937,57.019 233.296 C 56.183 232.302,56.003 231.576,55.799 228.365 C 55.457 222.996,55.264 222.064,54.286 221.086 C 53.600 220.400,53.382 219.623,53.257 217.411 C 53.128 215.124,52.932 214.458,52.196 213.803 C 51.545 213.223,51.241 212.418,51.106 210.907 C 50.982 209.519,50.559 208.296,49.851 207.274 C 49.194 206.325,48.619 204.747,48.356 203.167 C 48.121 201.755,47.585 200.112,47.164 199.516 C 46.744 198.920,46.400 197.918,46.400 197.290 C 46.400 195.133,45.567 191.398,44.584 189.150 C 43.812 187.385,43.600 186.220,43.600 183.747 C 43.600 181.083,43.433 180.284,42.522 178.597 C 41.861 177.372,41.339 175.625,41.172 174.078 C 40.983 172.335,40.638 171.279,40.054 170.658 C 39.589 170.163,39.026 168.790,38.801 167.606 C 38.577 166.423,38.003 164.812,37.525 164.027 C 36.807 162.846,36.610 161.717,36.384 157.473 C 36.147 153.042,35.988 152.181,35.212 151.131 C 34.620 150.330,34.195 148.968,33.964 147.124 C 33.710 145.099,33.346 144.013,32.641 143.175 C 32.106 142.539,31.544 141.430,31.392 140.710 C 31.240 139.989,30.704 138.950,30.200 138.400 C 29.696 137.850,29.158 136.770,29.005 136.000 C 28.851 135.230,28.318 133.970,27.820 133.200 C 25.548 129.685,25.274 118.965,27.410 117.191 C 29.267 115.650,34.724 115.888,37.849 117.647 M315.200 130.777 C 314.650 130.966,313.280 131.138,312.155 131.160 C 310.521 131.192,309.807 131.441,308.600 132.400 C 307.769 133.060,306.912 133.600,306.694 133.600 C 306.476 133.600,304.926 134.602,303.249 135.826 C 298.997 138.929,295.948 140.800,295.143 140.800 C 294.766 140.800,294.130 141.214,293.729 141.719 C 293.328 142.225,292.190 143.031,291.200 143.509 C 290.210 143.988,288.471 145.195,287.335 146.190 C 286.200 147.186,285.016 148.000,284.704 148.000 C 284.392 148.000,283.341 148.524,282.369 149.164 C 281.396 149.804,279.835 150.530,278.900 150.779 C 277.965 151.027,277.200 151.410,277.200 151.630 C 277.200 151.849,276.435 152.379,275.500 152.807 C 274.565 153.235,272.810 154.301,271.600 155.176 C 266.820 158.633,264.604 160.000,263.781 160.000 C 263.308 160.000,262.128 160.537,261.160 161.193 C 260.192 161.849,259.242 162.389,259.049 162.393 C 258.855 162.397,258.045 162.952,257.249 163.628 C 255.045 165.495,251.937 167.434,250.624 167.761 C 249.978 167.922,248.934 168.419,248.306 168.867 C 247.677 169.315,246.406 169.779,245.481 169.899 C 244.436 170.035,243.303 170.550,242.486 171.259 C 241.763 171.886,240.937 172.400,240.650 172.400 C 240.082 172.400,237.836 173.961,235.903 175.701 C 235.230 176.306,233.942 176.997,233.040 177.237 C 232.138 177.476,231.040 177.996,230.600 178.394 C 230.160 178.791,228.990 179.245,228.000 179.403 C 225.895 179.739,225.799 179.786,223.667 181.536 C 220.456 184.172,219.644 193.378,222.090 199.406 C 222.857 201.296,223.124 202.869,223.332 206.733 C 223.535 210.523,223.817 212.222,224.559 214.127 C 225.088 215.487,225.607 217.796,225.711 219.257 C 225.829 220.906,226.279 222.726,226.897 224.057 C 227.445 225.236,227.998 227.136,228.126 228.280 C 228.253 229.424,228.805 231.314,229.351 232.480 C 229.897 233.646,230.543 235.717,230.786 237.081 C 231.030 238.446,231.569 240.336,231.985 241.281 C 232.601 242.682,232.808 244.594,233.105 251.613 C 233.394 258.475,233.601 260.430,234.124 261.227 C 234.484 261.778,234.988 263.662,235.242 265.414 C 235.532 267.405,236.136 269.425,236.852 270.800 C 237.561 272.162,237.996 273.610,237.994 274.600 C 237.991 275.480,238.520 277.820,239.169 279.800 C 239.817 281.780,240.541 284.712,240.776 286.316 C 241.011 287.920,241.459 289.630,241.773 290.116 C 242.194 290.769,242.454 293.633,242.770 301.081 C 243.111 309.115,243.350 311.593,243.947 313.281 C 244.359 314.447,244.906 316.164,245.163 317.098 C 246.271 321.122,252.302 320.809,256.592 316.504 C 257.083 316.011,258.180 315.317,259.030 314.962 C 260.899 314.181,261.984 313.356,265.430 310.100 C 266.886 308.725,268.218 307.600,268.392 307.600 C 269.025 307.600,273.629 304.300,275.407 302.573 C 276.410 301.598,277.376 300.800,277.553 300.800 C 277.731 300.800,278.219 300.421,278.638 299.957 C 279.057 299.494,280.041 298.788,280.825 298.387 C 281.609 297.987,283.229 296.749,284.425 295.634 C 285.621 294.520,286.886 293.514,287.236 293.398 C 287.586 293.282,288.110 292.743,288.400 292.200 C 288.690 291.657,289.259 291.108,289.664 290.980 C 290.069 290.851,290.596 290.381,290.835 289.935 C 291.073 289.489,292.063 288.773,293.034 288.344 C 294.005 287.914,294.800 287.403,294.800 287.208 C 294.800 287.013,295.139 286.746,295.554 286.615 C 295.969 286.483,297.994 284.751,300.054 282.765 C 302.114 280.779,304.520 278.834,305.400 278.442 C 306.280 278.051,307.247 277.431,307.549 277.065 C 307.851 276.699,308.288 276.400,308.521 276.400 C 308.753 276.400,309.503 275.815,310.186 275.100 C 312.402 272.783,316.820 268.800,317.174 268.800 C 317.657 268.800,321.569 266.133,322.640 265.075 C 323.126 264.594,323.767 263.980,324.062 263.711 C 324.358 263.442,324.780 263.037,325.000 262.811 C 325.220 262.584,326.930 260.895,328.800 259.056 C 330.670 257.218,332.407 255.490,332.660 255.217 C 333.740 254.050,334.669 253.095,335.700 252.092 C 336.305 251.503,336.800 250.854,336.800 250.649 C 336.800 250.443,337.234 249.707,337.763 249.012 C 338.293 248.318,339.007 247.079,339.349 246.261 C 339.691 245.442,340.241 244.502,340.570 244.172 C 341.440 243.303,341.995 240.957,341.998 238.144 C 341.999 236.555,342.279 235.071,342.791 233.944 C 343.898 231.504,343.903 226.041,342.800 222.904 C 342.056 220.786,342.000 219.599,341.998 205.814 C 341.995 190.168,341.853 188.692,340.155 186.673 C 339.630 186.049,339.200 185.121,339.200 184.610 C 339.200 183.695,338.249 182.378,335.700 179.761 C 334.921 178.961,334.400 178.017,334.400 177.405 C 334.400 176.843,333.918 175.654,333.328 174.763 C 332.375 173.322,332.228 172.628,331.995 168.472 C 331.806 165.114,331.480 163.125,330.834 161.400 C 330.070 159.362,329.883 157.776,329.592 150.894 C 329.309 144.170,329.117 142.500,328.465 141.094 C 328.033 140.162,327.482 138.660,327.241 137.756 C 326.836 136.242,325.413 134.025,323.738 132.299 C 322.479 131.002,317.257 130.071,315.200 130.777 M308.622 166.300 C 313.791 170.271,314.790 176.160,311.398 182.663 C 311.072 183.288,310.804 184.213,310.802 184.719 C 310.792 188.561,304.692 195.047,299.628 196.601 C 299.093 196.766,297.941 197.417,297.068 198.050 C 296.194 198.682,295.343 199.200,295.175 199.200 C 295.007 199.200,293.897 200.165,292.708 201.345 C 291.519 202.525,289.901 203.702,289.114 203.962 C 288.326 204.222,287.278 204.786,286.783 205.215 C 286.289 205.644,285.291 206.158,284.566 206.358 C 283.842 206.558,282.636 207.190,281.887 207.761 C 281.137 208.332,280.419 208.800,280.290 208.800 C 280.160 208.800,279.012 209.794,277.737 211.009 C 276.344 212.337,274.834 213.375,273.951 213.613 C 273.143 213.831,272.387 214.257,272.271 214.560 C 272.154 214.863,271.191 215.435,270.130 215.830 C 266.437 217.205,262.664 221.035,262.022 224.058 C 261.818 225.016,261.476 226.487,261.262 227.328 C 261.010 228.315,261.009 229.306,261.259 230.128 C 261.472 230.827,261.818 232.547,262.028 233.948 C 262.284 235.653,262.731 236.878,263.378 237.646 C 263.910 238.278,264.449 239.124,264.576 239.526 C 265.434 242.228,271.216 243.179,274.156 241.100 C 275.012 240.495,276.054 240.000,276.473 240.000 C 276.892 240.000,278.192 239.055,279.362 237.900 C 282.389 234.913,284.476 233.323,286.361 232.569 C 287.263 232.208,288.000 231.744,288.000 231.537 C 288.000 231.330,288.675 230.851,289.500 230.472 C 292.032 229.310,294.836 227.313,297.833 224.535 C 298.346 224.059,299.494 223.261,300.383 222.761 C 301.272 222.262,302.000 221.718,302.000 221.553 C 302.000 221.389,302.323 221.151,302.717 221.026 C 303.112 220.901,304.075 220.214,304.858 219.499 C 312.513 212.509,311.596 213.000,317.000 213.000 C 322.167 213.000,322.717 213.238,325.151 216.534 C 327.867 220.210,328.445 224.996,326.610 228.619 C 326.066 229.695,325.430 231.493,325.197 232.617 C 324.815 234.452,324.374 235.061,320.829 238.629 C 314.741 244.758,311.720 247.600,311.290 247.600 C 311.075 247.600,310.651 247.899,310.349 248.265 C 310.047 248.631,309.041 249.266,308.114 249.678 C 307.186 250.089,306.196 250.749,305.914 251.144 C 305.631 251.539,304.771 252.080,304.002 252.345 C 302.094 253.002,299.861 254.582,297.140 257.200 C 294.973 259.284,291.201 262.000,290.473 262.000 C 290.289 262.000,288.996 263.080,287.600 264.400 C 286.204 265.720,284.927 266.800,284.762 266.800 C 284.597 266.800,283.953 267.225,283.331 267.745 C 282.709 268.265,281.750 268.829,281.200 268.999 C 280.650 269.168,279.660 269.820,279.000 270.446 C 275.334 273.927,273.629 275.631,272.123 277.320 C 271.201 278.354,270.262 279.200,270.037 279.200 C 269.812 279.200,268.776 279.740,267.736 280.400 C 262.457 283.748,257.179 278.917,256.649 270.254 C 256.501 267.822,256.180 266.223,255.629 265.166 C 255.187 264.318,254.658 262.273,254.453 260.621 C 254.247 258.969,253.681 256.793,253.193 255.786 C 252.706 254.779,252.154 252.590,251.967 250.922 C 251.755 249.031,251.256 247.182,250.642 246.008 C 250.101 244.973,249.449 242.972,249.194 241.563 C 248.939 240.153,248.521 238.746,248.265 238.436 C 247.955 238.059,247.786 235.533,247.758 230.836 C 247.706 222.153,247.026 215.651,245.913 213.212 C 245.459 212.215,244.926 209.870,244.730 208.000 C 244.534 206.130,244.207 204.150,244.003 203.600 C 242.071 198.383,244.908 194.657,251.321 193.990 C 254.142 193.697,255.400 193.368,256.200 192.713 C 257.443 191.696,260.357 189.667,261.820 188.800 C 264.740 187.069,266.042 186.118,266.620 185.292 C 266.928 184.853,267.825 184.372,268.613 184.224 C 269.400 184.076,270.379 183.621,270.789 183.211 C 271.198 182.802,272.372 182.096,273.397 181.642 C 274.423 181.189,276.344 179.914,277.666 178.809 C 279.346 177.405,280.422 176.800,281.238 176.800 C 281.986 176.800,282.719 176.439,283.279 175.795 C 283.760 175.242,284.880 174.594,285.768 174.355 C 286.656 174.116,287.758 173.533,288.217 173.060 C 288.675 172.587,289.444 171.935,289.925 171.612 C 290.406 171.288,290.802 170.838,290.805 170.612 C 290.811 170.123,293.266 167.452,295.136 165.900 C 296.429 164.827,296.585 164.800,301.565 164.800 L 306.669 164.800 308.622 166.300 " stroke="none" fill="#040707" fill-rule="evenodd"></path><path id="path1" d="M197.600 7.585 C 197.600 8.555,197.719 8.644,198.810 8.484 C 199.655 8.360,199.907 8.170,199.644 7.853 C 199.437 7.604,199.255 7.220,199.239 7.000 C 199.165 5.974,197.600 6.533,197.600 7.585 M231.162 14.649 L 231.409 16.173 233.401 16.050 C 235.758 15.905,236.000 15.789,236.000 14.803 C 236.000 13.983,235.525 13.776,232.757 13.386 L 230.914 13.126 231.162 14.649 M246.000 17.200 C 246.000 18.079,246.188 18.398,246.700 18.394 C 247.739 18.385,248.591 17.765,248.036 17.422 C 247.789 17.270,247.708 16.949,247.855 16.711 C 248.015 16.451,247.937 16.391,247.662 16.562 C 247.408 16.719,247.200 16.657,247.200 16.424 C 247.200 16.191,246.930 16.000,246.600 16.000 C 246.200 16.000,246.000 16.400,246.000 17.200 M270.400 22.000 C 270.400 23.013,270.556 23.200,271.400 23.200 C 272.568 23.200,272.864 21.464,271.767 21.043 C 270.641 20.610,270.400 20.779,270.400 22.000 M276.400 24.376 C 276.400 26.006,276.734 26.110,280.971 25.792 C 284.524 25.526,284.692 25.471,284.486 24.656 C 284.159 23.360,283.694 23.213,279.900 23.206 L 276.400 23.200 276.400 24.376 M189.600 24.294 C 187.937 24.409,187.147 24.689,186.362 25.438 C 185.792 25.984,184.661 26.538,183.849 26.670 C 183.002 26.807,182.066 27.298,181.656 27.820 C 181.261 28.321,180.323 29.018,179.569 29.369 C 178.220 29.997,176.405 31.178,174.353 32.764 C 173.777 33.209,172.487 33.756,171.485 33.981 C 170.484 34.205,169.033 34.761,168.262 35.216 C 167.491 35.671,165.631 36.231,164.130 36.461 C 162.492 36.711,161.073 37.179,160.583 37.631 C 160.133 38.045,159.143 38.596,158.383 38.856 C 157.622 39.115,156.491 39.749,155.869 40.264 C 155.247 40.779,154.509 41.200,154.228 41.200 C 153.947 41.200,153.233 41.648,152.641 42.197 C 152.050 42.745,151.079 43.299,150.483 43.429 C 148.736 43.810,147.095 44.507,145.644 45.485 C 144.836 46.031,143.688 46.400,142.803 46.400 C 141.793 46.400,140.988 46.704,140.293 47.349 C 139.730 47.871,138.622 48.419,137.831 48.568 C 136.945 48.734,136.147 49.215,135.749 49.822 C 135.324 50.471,134.584 50.889,133.578 51.050 C 132.734 51.185,131.651 51.720,131.156 52.247 C 130.536 52.906,129.820 53.200,128.830 53.200 C 128.008 53.200,126.465 53.703,125.200 54.384 C 123.990 55.035,122.397 55.575,121.660 55.584 C 120.733 55.595,119.995 55.940,119.260 56.707 C 118.270 57.741,117.471 58.355,114.850 60.098 C 114.272 60.482,113.426 60.797,112.970 60.798 C 112.513 60.799,111.724 61.243,111.215 61.784 C 110.641 62.395,109.638 62.865,108.566 63.026 C 107.617 63.168,106.262 63.711,105.556 64.233 C 104.849 64.754,103.310 65.460,102.135 65.802 C 100.961 66.143,100.000 66.577,100.000 66.767 C 100.000 66.957,99.145 67.510,98.100 67.997 C 97.055 68.483,95.910 69.139,95.555 69.453 C 95.201 69.767,93.867 70.194,92.592 70.401 C 91.228 70.623,89.915 71.116,89.402 71.598 C 88.782 72.181,87.753 72.491,85.847 72.669 C 83.801 72.860,83.002 73.118,82.480 73.760 C 81.372 75.120,77.929 77.600,77.148 77.600 C 76.752 77.600,75.813 78.140,75.061 78.800 C 74.183 79.571,73.259 80.000,72.478 80.000 C 71.784 80.000,70.775 80.407,70.131 80.946 C 69.509 81.466,67.989 82.184,66.752 82.542 C 65.516 82.899,64.299 83.440,64.047 83.744 C 63.795 84.047,62.781 84.604,61.794 84.981 C 60.807 85.358,60.000 85.816,60.000 86.000 C 60.000 86.184,59.166 86.653,58.146 87.042 C 57.126 87.432,55.951 88.115,55.536 88.561 C 54.957 89.183,54.049 89.435,51.658 89.641 C 49.941 89.788,47.981 90.196,47.302 90.547 C 46.623 90.898,44.446 91.448,42.465 91.768 C 36.082 92.801,32.490 96.269,34.269 99.684 C 35.694 102.422,37.219 104.400,37.905 104.402 C 38.287 104.403,39.410 104.942,40.400 105.600 C 41.390 106.258,42.580 106.797,43.044 106.798 C 43.508 106.799,44.585 107.273,45.436 107.850 C 46.288 108.428,47.708 108.995,48.592 109.110 C 49.476 109.225,50.709 109.742,51.331 110.260 C 52.210 110.991,52.941 111.200,54.617 111.200 C 56.441 111.200,56.982 111.384,58.139 112.400 C 59.112 113.254,59.917 113.600,60.934 113.600 C 62.426 113.600,64.165 114.195,65.220 115.067 C 65.561 115.348,66.607 115.850,67.546 116.181 C 68.484 116.512,69.709 117.142,70.267 117.581 C 70.825 118.020,71.938 118.496,72.741 118.638 C 73.543 118.780,74.650 119.303,75.200 119.800 C 75.913 120.444,76.935 120.782,78.762 120.978 C 80.555 121.171,81.706 121.546,82.600 122.227 C 83.624 123.008,84.349 123.200,86.280 123.200 C 88.425 123.200,89.198 123.459,93.430 125.598 C 96.039 126.917,98.776 128.109,99.512 128.247 C 100.307 128.397,101.177 128.942,101.659 129.594 C 102.367 130.552,102.818 130.719,105.254 130.923 C 107.692 131.128,108.180 131.309,109.180 132.378 C 110.159 133.427,110.606 133.600,112.330 133.600 C 113.856 133.600,114.610 133.827,115.469 134.545 C 116.212 135.166,117.374 135.586,118.853 135.768 C 120.245 135.940,121.596 136.407,122.386 136.990 C 123.090 137.509,124.551 138.056,125.632 138.204 C 127.151 138.413,127.778 138.727,128.387 139.582 C 129.072 140.544,129.512 140.715,131.752 140.895 C 133.807 141.060,134.559 141.315,135.461 142.151 C 136.301 142.930,137.016 143.200,138.240 143.200 C 139.304 143.200,140.683 143.625,142.136 144.400 C 143.373 145.060,144.724 145.600,145.137 145.600 C 145.551 145.600,146.569 146.140,147.400 146.800 C 148.700 147.833,149.245 148.000,151.317 148.000 C 153.246 148.000,153.976 148.192,154.991 148.966 C 155.697 149.504,157.369 150.150,158.769 150.426 C 160.269 150.721,161.583 151.244,162.031 151.726 C 162.505 152.235,163.582 152.640,164.954 152.826 C 166.148 152.988,167.637 153.498,168.263 153.960 C 170.831 155.854,174.716 156.771,177.040 156.031 C 177.678 155.828,178.874 155.550,179.699 155.413 C 180.523 155.276,181.654 154.741,182.212 154.224 C 182.770 153.707,183.821 153.172,184.549 153.036 C 185.277 152.899,186.290 152.343,186.800 151.800 C 187.310 151.257,188.374 150.696,189.164 150.553 C 189.983 150.406,191.139 149.758,191.854 149.047 C 193.801 147.111,195.425 146.015,196.734 145.753 C 197.394 145.621,198.432 144.993,199.042 144.357 C 199.780 143.586,200.549 143.200,201.346 143.200 C 202.174 143.200,202.927 142.799,203.790 141.900 C 205.996 139.599,207.659 138.400,208.645 138.400 C 209.174 138.400,210.172 137.860,210.863 137.200 C 211.721 136.380,212.523 136.000,213.395 136.000 C 214.344 136.000,214.998 135.641,215.945 134.600 C 216.646 133.830,217.513 133.200,217.872 133.200 C 218.231 133.200,219.139 132.731,219.890 132.158 C 220.642 131.585,221.978 131.020,222.860 130.901 C 223.826 130.772,224.651 130.386,224.932 129.932 C 225.189 129.517,226.165 128.807,227.100 128.353 C 228.035 127.900,228.800 127.373,228.800 127.182 C 228.800 126.992,229.438 126.717,230.217 126.570 C 230.996 126.424,232.147 125.791,232.775 125.164 C 233.478 124.461,234.533 123.924,235.526 123.766 C 236.473 123.614,237.469 123.124,237.946 122.576 C 238.391 122.064,239.407 121.522,240.202 121.373 C 241.186 121.189,242.373 120.411,243.915 118.941 C 245.532 117.400,246.602 116.713,247.647 116.546 C 248.629 116.389,249.279 116.000,249.619 115.365 C 249.897 114.844,250.907 114.120,251.863 113.755 C 252.818 113.390,253.600 112.958,253.600 112.795 C 253.600 112.632,254.524 112.101,255.653 111.615 C 256.783 111.129,258.076 110.387,258.529 109.966 C 258.981 109.545,259.679 109.200,260.079 109.200 C 260.480 109.200,261.372 108.660,262.063 108.000 C 262.923 107.178,263.722 106.800,264.600 106.800 C 265.478 106.800,266.277 106.422,267.137 105.600 C 267.949 104.824,268.808 104.400,269.567 104.400 C 270.327 104.400,271.006 104.065,271.489 103.450 C 271.901 102.927,272.949 102.108,273.818 101.629 C 276.872 99.948,278.423 98.926,279.224 98.067 C 279.710 97.545,280.515 97.200,281.246 97.200 C 282.063 97.200,282.855 96.807,283.662 96.000 C 284.501 95.161,285.251 94.800,286.157 94.800 C 287.097 94.800,287.795 94.443,288.699 93.500 C 290.746 91.364,292.654 90.000,293.594 90.000 C 294.081 90.000,294.983 89.460,295.600 88.800 C 296.430 87.911,297.082 87.600,298.113 87.600 C 299.139 87.600,299.820 87.277,300.705 86.373 C 301.895 85.155,303.098 84.384,306.225 82.834 C 307.119 82.391,308.163 81.683,308.545 81.260 C 308.928 80.838,309.793 80.381,310.467 80.247 C 311.141 80.112,312.308 79.461,313.060 78.801 C 313.812 78.140,314.756 77.600,315.158 77.600 C 315.559 77.600,316.678 76.972,317.644 76.204 C 318.610 75.436,319.597 74.806,319.838 74.804 C 320.079 74.802,320.587 74.456,320.967 74.036 C 321.348 73.616,322.131 73.153,322.708 73.009 C 323.285 72.864,324.358 72.218,325.092 71.573 C 325.884 70.878,326.880 70.400,327.539 70.400 C 328.252 70.400,329.063 69.969,329.800 69.200 C 330.635 68.329,331.321 68.000,332.306 68.000 C 333.279 68.000,334.000 67.661,334.862 66.800 C 335.522 66.140,336.478 65.600,336.988 65.600 C 338.942 65.600,342.897 61.214,343.454 58.429 C 344.093 55.236,339.977 51.423,335.254 50.830 C 333.473 50.607,331.300 50.059,330.424 49.612 C 329.321 49.050,328.055 48.800,326.305 48.800 C 322.141 48.800,317.096 48.040,316.000 47.248 C 315.316 46.753,313.869 46.434,311.417 46.235 C 307.040 45.880,305.249 45.523,302.406 44.438 C 300.677 43.778,299.310 43.600,295.965 43.600 C 292.096 43.600,291.545 43.504,289.760 42.516 C 288.032 41.560,287.230 41.404,282.984 41.203 C 278.841 41.006,277.991 40.848,276.896 40.069 C 275.909 39.365,274.856 39.109,272.190 38.920 C 269.217 38.711,268.564 38.525,267.323 37.539 C 265.928 36.430,265.761 36.400,261.045 36.390 C 254.698 36.376,248.630 35.768,247.502 35.033 C 247.006 34.710,245.109 34.260,243.288 34.032 C 241.038 33.752,239.423 33.295,238.253 32.610 C 236.952 31.848,235.950 31.596,234.165 31.583 C 231.017 31.559,228.605 31.063,227.818 30.275 C 227.464 29.921,226.595 29.549,225.887 29.447 C 221.270 28.787,219.583 28.378,218.829 27.732 C 218.225 27.215,216.770 26.867,213.866 26.545 C 211.606 26.295,208.867 25.724,207.778 25.278 C 205.767 24.452,195.398 23.891,189.600 24.294 M318.800 31.628 C 318.800 32.672,318.934 32.837,319.700 32.728 C 320.291 32.644,320.600 32.325,320.600 31.800 C 320.600 31.360,320.375 31.045,320.100 31.100 C 319.825 31.155,319.600 31.020,319.600 30.800 C 319.600 30.580,319.420 30.400,319.200 30.400 C 318.980 30.400,318.800 30.953,318.800 31.628 M328.000 34.252 L 328.000 35.705 329.500 35.457 C 330.325 35.320,331.495 35.207,332.100 35.204 C 333.403 35.199,333.497 34.697,332.400 33.600 C 331.837 33.037,331.067 32.800,329.800 32.800 L 328.000 32.800 328.000 34.252 M346.793 71.115 C 346.240 71.553,345.099 72.198,344.260 72.549 C 343.420 72.900,341.200 74.720,339.326 76.594 C 337.362 78.558,335.587 80.000,335.134 80.000 C 334.121 80.000,332.733 80.740,332.116 81.609 C 331.849 81.984,330.866 82.393,329.930 82.519 C 328.728 82.680,328.009 83.048,327.481 83.773 C 327.070 84.338,326.510 84.800,326.236 84.800 C 325.963 84.800,325.333 85.232,324.837 85.761 C 324.340 86.289,323.177 86.912,322.251 87.145 C 321.326 87.378,320.139 88.026,319.615 88.585 C 319.018 89.219,318.225 89.600,317.500 89.600 C 316.755 89.600,315.927 90.011,315.193 90.745 C 314.563 91.375,313.476 92.005,312.778 92.144 C 312.079 92.284,310.905 92.894,310.168 93.499 C 307.296 95.860,306.344 96.480,305.029 96.843 C 304.279 97.050,303.245 97.662,302.733 98.203 C 302.144 98.824,301.350 99.189,300.578 99.193 C 299.713 99.198,298.961 99.608,298.000 100.600 C 297.254 101.370,296.440 102.000,296.193 102.000 C 295.945 102.000,295.035 102.535,294.171 103.189 C 293.307 103.843,292.387 104.383,292.127 104.389 C 291.867 104.395,291.270 104.940,290.800 105.600 C 290.157 106.503,289.631 106.800,288.671 106.800 C 287.774 106.800,287.062 107.155,286.265 108.000 C 285.461 108.852,284.757 109.200,283.841 109.200 C 282.928 109.200,282.213 109.552,281.400 110.400 C 280.541 111.297,279.888 111.600,278.814 111.600 C 277.765 111.600,277.100 111.896,276.346 112.700 C 274.848 114.296,271.832 116.400,271.042 116.400 C 270.668 116.400,269.965 116.825,269.481 117.344 C 268.996 117.864,267.880 118.676,267.000 119.149 C 266.120 119.621,265.130 120.172,264.800 120.372 C 264.470 120.573,263.480 121.083,262.600 121.507 C 259.299 123.097,257.009 124.494,256.491 125.235 C 256.140 125.736,255.480 126.000,254.580 126.000 C 253.558 126.000,252.933 126.307,252.137 127.200 C 251.357 128.075,250.710 128.400,249.747 128.400 C 248.771 128.400,248.061 128.765,247.027 129.800 C 246.257 130.570,245.364 131.200,245.044 131.200 C 244.724 131.200,243.953 131.625,243.331 132.145 C 242.709 132.665,241.800 133.216,241.310 133.369 C 240.821 133.522,240.075 134.087,239.653 134.624 C 239.124 135.296,238.486 135.600,237.603 135.600 C 236.694 135.600,235.995 135.949,235.200 136.800 C 234.493 137.557,233.683 138.000,233.005 138.000 C 232.263 138.000,231.110 138.728,229.266 140.362 C 227.612 141.827,225.993 142.886,225.000 143.152 C 224.120 143.387,223.184 143.927,222.921 144.351 C 222.630 144.819,221.765 145.233,220.721 145.403 C 219.774 145.556,218.550 146.095,218.000 146.599 C 217.450 147.103,216.370 147.649,215.601 147.811 C 214.832 147.974,213.494 148.713,212.629 149.454 C 211.764 150.194,210.840 150.800,210.577 150.800 C 210.314 150.800,209.861 151.085,209.571 151.434 C 209.282 151.783,208.270 152.433,207.322 152.878 C 206.375 153.324,205.600 153.846,205.600 154.038 C 205.600 154.231,204.796 154.591,203.813 154.838 C 202.830 155.086,201.482 155.808,200.817 156.444 C 200.065 157.162,199.178 157.600,198.473 157.600 C 197.775 157.600,196.971 157.992,196.381 158.621 C 195.853 159.182,194.697 159.995,193.811 160.427 C 189.298 162.629,184.677 166.713,184.243 168.884 C 183.611 172.047,184.278 177.330,185.538 179.132 C 185.949 179.720,186.409 181.010,186.562 182.000 C 186.714 182.990,187.267 184.705,187.789 185.810 C 188.490 187.294,188.810 188.865,189.013 191.810 C 189.201 194.538,189.521 196.207,190.024 197.088 C 190.905 198.631,191.118 199.747,191.544 205.028 C 191.745 207.510,192.140 209.582,192.574 210.428 C 193.035 211.327,193.411 213.456,193.662 216.600 C 194.229 223.694,194.390 224.733,195.022 225.365 C 195.924 226.267,196.400 227.881,196.400 230.039 C 196.400 231.132,196.686 232.695,197.036 233.513 C 198.137 236.088,198.791 238.546,198.796 240.125 C 198.798 240.963,199.279 242.662,199.864 243.900 C 200.727 245.723,200.966 246.910,201.122 250.155 C 201.268 253.200,201.543 254.676,202.267 256.314 C 203.037 258.055,203.269 259.440,203.474 263.534 C 203.692 267.868,203.860 268.802,204.639 270.000 C 205.300 271.016,205.663 272.427,205.960 275.147 C 206.186 277.209,206.647 279.317,206.985 279.834 C 207.339 280.374,207.777 282.519,208.016 284.886 C 208.558 290.256,208.651 290.630,209.684 291.593 C 210.422 292.280,210.602 293.020,210.833 296.304 C 211.037 299.223,211.340 300.649,212.039 301.990 C 212.846 303.538,213.005 304.566,213.213 309.590 C 213.426 314.764,213.565 315.619,214.475 317.400 C 215.168 318.754,215.591 320.403,215.784 322.506 C 215.973 324.561,216.389 326.212,217.015 327.390 C 217.791 328.849,217.997 329.964,218.165 333.603 C 218.321 336.985,218.559 338.389,219.167 339.519 C 220.379 341.770,220.795 343.856,220.798 347.688 C 220.799 350.354,220.983 351.532,221.578 352.688 C 222.159 353.817,222.498 355.884,222.919 360.852 C 224.044 374.125,230.808 376.468,240.665 367.000 C 241.123 366.560,242.196 365.636,243.049 364.947 C 243.902 364.258,245.771 362.709,247.202 361.505 C 248.633 360.301,250.219 359.184,250.726 359.023 C 251.234 358.862,251.847 358.296,252.089 357.765 C 252.330 357.234,252.687 356.800,252.880 356.800 C 253.073 356.800,253.931 356.125,254.786 355.300 C 256.963 353.200,258.563 352.041,259.954 351.556 C 260.610 351.327,261.433 350.704,261.783 350.170 C 262.132 349.637,262.637 349.200,262.905 349.200 C 263.172 349.200,263.843 348.752,264.396 348.205 C 267.558 345.071,270.436 342.478,271.726 341.600 C 272.534 341.050,273.196 340.485,273.197 340.343 C 273.199 340.202,273.653 339.973,274.207 339.834 C 274.761 339.695,276.246 338.530,277.507 337.245 C 280.463 334.233,285.502 329.973,287.816 328.530 C 289.353 327.572,292.653 325.017,296.290 321.968 C 296.780 321.558,297.860 320.784,298.690 320.248 C 299.521 319.712,301.100 318.431,302.200 317.402 C 303.300 316.372,304.560 315.337,305.000 315.101 C 305.440 314.865,306.804 313.801,308.031 312.736 C 309.258 311.671,310.486 310.800,310.760 310.800 C 311.035 310.800,311.921 310.173,312.729 309.407 C 316.556 305.783,319.290 303.439,320.296 302.918 C 320.903 302.604,321.760 302.022,322.200 301.624 C 322.640 301.227,323.209 300.834,323.465 300.751 C 323.721 300.668,325.270 299.327,326.908 297.772 C 330.337 294.516,334.577 291.200,335.313 291.200 C 335.591 291.200,336.714 290.371,337.809 289.358 C 338.904 288.346,340.773 286.861,341.962 286.058 C 343.151 285.256,344.519 284.330,345.003 284.000 C 345.942 283.359,346.720 282.663,350.371 279.200 C 351.647 277.990,353.345 276.657,354.145 276.237 C 354.945 275.817,355.600 275.334,355.600 275.164 C 355.600 274.993,355.997 274.728,356.483 274.574 C 356.969 274.420,358.576 273.102,360.055 271.647 C 361.534 270.191,363.496 268.460,364.416 267.800 C 365.335 267.140,366.582 266.150,367.187 265.600 C 369.209 263.760,371.549 262.000,371.972 262.000 C 372.391 262.000,373.988 259.820,375.299 257.459 C 376.171 255.889,376.242 251.446,375.418 250.000 C 373.630 246.864,373.601 246.648,373.583 236.651 C 373.565 226.807,373.404 225.165,372.149 222.000 C 371.546 220.479,371.402 218.456,371.218 208.933 C 371.001 197.692,370.998 197.662,370.000 196.333 L 369.000 195.000 368.800 182.600 C 368.602 170.344,368.589 170.179,367.612 168.400 C 366.642 166.634,366.619 166.384,366.412 155.132 C 366.206 143.967,366.176 143.632,365.283 142.425 C 364.011 140.706,363.635 135.929,363.596 121.000 C 363.572 111.620,363.439 108.651,362.988 107.400 C 362.671 106.520,362.404 104.360,362.393 102.600 C 362.383 100.840,362.116 97.510,361.800 95.200 C 361.484 92.890,361.220 89.775,361.213 88.278 C 361.204 86.407,360.943 84.993,360.379 83.755 C 359.928 82.764,359.387 80.443,359.177 78.598 C 358.454 72.228,357.023 70.715,351.497 70.478 C 348.264 70.339,347.674 70.419,346.793 71.115 M21.749 81.927 C 21.777 82.297,21.581 82.557,21.314 82.505 C 21.034 82.450,20.925 82.661,21.057 83.005 C 21.183 83.332,21.716 83.600,22.243 83.600 C 23.419 83.600,23.550 82.411,22.449 81.723 C 21.824 81.333,21.706 81.367,21.749 81.927 M11.214 86.774 C 10.986 87.199,10.800 87.829,10.800 88.174 C 10.800 88.518,10.633 88.800,10.429 88.800 C 9.883 88.800,8.800 89.976,8.800 90.569 C 8.800 91.698,10.992 91.067,11.127 89.900 C 11.233 88.979,11.444 88.800,12.427 88.800 C 13.501 88.800,13.600 88.682,13.600 87.400 C 13.600 85.766,11.981 85.341,11.214 86.774 M374.400 107.000 L 374.400 110.800 375.600 110.800 L 376.800 110.800 376.800 107.800 C 376.800 105.333,376.658 104.658,376.000 104.000 C 374.616 102.616,374.400 103.021,374.400 107.000 M29.074 116.399 C 27.260 116.956,26.908 117.474,26.207 120.627 C 25.391 124.295,26.215 130.717,27.820 133.200 C 28.318 133.970,28.851 135.230,29.005 136.000 C 29.158 136.770,29.696 137.850,30.200 138.400 C 30.704 138.950,31.240 139.989,31.392 140.710 C 31.544 141.430,32.106 142.539,32.641 143.175 C 33.346 144.013,33.710 145.099,33.964 147.124 C 34.195 148.968,34.620 150.330,35.212 151.131 C 35.988 152.181,36.147 153.042,36.384 157.473 C 36.610 161.717,36.807 162.846,37.525 164.027 C 38.003 164.812,38.577 166.423,38.801 167.606 C 39.026 168.790,39.589 170.163,40.054 170.658 C 40.638 171.279,40.983 172.335,41.172 174.078 C 41.339 175.625,41.861 177.372,42.522 178.597 C 43.433 180.284,43.600 181.083,43.600 183.747 C 43.600 186.220,43.812 187.385,44.584 189.150 C 45.567 191.398,46.400 195.133,46.400 197.290 C 46.400 197.918,46.744 198.920,47.164 199.516 C 47.585 200.112,48.121 201.755,48.356 203.167 C 48.619 204.747,49.194 206.325,49.851 207.274 C 50.559 208.296,50.982 209.519,51.106 210.907 C 51.241 212.418,51.545 213.223,52.196 213.803 C 52.932 214.458,53.128 215.124,53.257 217.411 C 53.382 219.623,53.600 220.400,54.286 221.086 C 55.264 222.064,55.457 222.996,55.799 228.365 C 56.003 231.576,56.183 232.302,57.019 233.296 C 57.559 233.937,58.000 234.867,58.000 235.362 C 58.000 235.858,58.565 237.116,59.256 238.159 C 60.250 239.660,60.571 240.665,60.799 242.985 C 61.005 245.093,61.350 246.287,62.027 247.238 C 62.866 248.417,62.993 249.135,63.187 253.822 C 63.331 257.309,63.583 259.298,63.933 259.720 C 64.634 260.564,65.568 264.553,65.586 266.778 C 65.596 268.080,65.854 268.830,66.546 269.578 C 67.066 270.140,67.710 271.500,67.976 272.600 C 68.242 273.700,68.805 275.158,69.226 275.840 C 69.647 276.522,70.186 278.502,70.424 280.240 C 70.663 281.978,71.116 283.801,71.432 284.292 C 71.749 284.782,72.238 286.863,72.519 288.917 L 73.031 292.651 75.929 295.503 C 77.522 297.071,79.225 298.481,79.713 298.635 C 80.201 298.789,81.157 299.339,81.838 299.858 C 82.519 300.376,83.239 300.800,83.439 300.800 C 83.639 300.800,84.312 301.340,84.935 302.000 C 85.558 302.660,86.295 303.200,86.572 303.200 C 86.849 303.200,87.599 303.650,88.238 304.200 C 88.877 304.749,89.518 305.199,89.662 305.200 C 89.806 305.200,90.678 305.830,91.600 306.600 C 92.616 307.449,93.705 308.000,94.368 308.000 C 95.018 308.000,95.844 308.408,96.406 309.007 C 96.926 309.560,98.083 310.226,98.976 310.486 C 99.869 310.746,100.960 311.267,101.400 311.645 C 101.840 312.023,102.920 312.950,103.800 313.706 C 104.680 314.463,105.940 315.211,106.600 315.369 C 107.260 315.528,108.250 316.072,108.800 316.580 C 109.350 317.088,110.505 317.629,111.367 317.782 C 112.311 317.950,113.236 318.446,113.696 319.031 C 114.115 319.564,114.702 320.000,115.000 320.000 C 115.298 320.000,115.905 320.462,116.349 321.026 C 116.793 321.591,117.772 322.222,118.524 322.430 C 119.276 322.638,120.375 323.256,120.966 323.804 C 121.558 324.352,122.278 324.800,122.567 324.800 C 122.856 324.800,123.577 325.181,124.169 325.647 C 124.762 326.113,126.158 326.841,127.273 327.265 C 128.388 327.688,130.492 329.010,131.950 330.203 C 133.407 331.396,135.165 332.828,135.855 333.386 C 136.545 333.944,137.468 334.400,137.905 334.400 C 139.484 334.400,141.160 334.903,141.910 335.602 C 142.331 335.994,143.288 336.631,144.038 337.017 C 144.787 337.403,145.635 338.052,145.923 338.460 C 146.237 338.905,146.933 339.200,147.669 339.200 C 148.556 339.200,149.244 339.585,150.174 340.600 C 150.880 341.370,151.714 342.003,152.028 342.007 C 152.343 342.011,153.392 342.551,154.360 343.207 C 155.328 343.863,156.359 344.400,156.651 344.400 C 156.943 344.400,157.473 344.845,157.830 345.389 C 158.239 346.014,159.016 346.474,159.939 346.639 C 160.788 346.790,161.851 347.381,162.477 348.050 C 163.185 348.805,163.953 349.200,164.715 349.200 C 165.374 349.200,166.194 349.552,166.612 350.013 C 167.016 350.460,167.989 351.218,168.774 351.698 C 169.558 352.178,170.423 352.787,170.696 353.052 C 170.969 353.318,171.731 353.653,172.390 353.798 C 173.050 353.943,173.947 354.564,174.385 355.179 C 174.822 355.793,175.684 356.397,176.300 356.520 C 177.384 356.737,179.541 358.200,181.600 360.115 C 182.150 360.626,183.320 361.283,184.200 361.574 C 185.080 361.865,186.122 362.440,186.516 362.852 C 186.943 363.299,187.785 363.600,188.607 363.600 C 190.109 363.600,193.200 364.688,193.200 365.216 C 193.200 365.398,193.583 365.668,194.051 365.816 C 194.810 366.057,197.306 368.119,198.540 369.523 C 200.474 371.724,202.511 373.600,202.967 373.600 C 203.267 373.600,204.297 373.956,205.256 374.391 C 211.458 377.205,217.776 370.611,214.600 364.638 C 214.050 363.604,213.600 362.329,213.600 361.805 C 213.600 360.536,213.022 359.079,212.187 358.245 C 211.443 357.500,210.824 355.304,210.810 353.354 C 210.804 352.669,210.404 351.604,209.919 350.988 C 209.152 350.013,209.010 349.218,208.816 344.831 C 208.622 340.439,208.455 339.512,207.517 337.597 C 206.601 335.725,206.421 334.778,206.304 331.200 C 206.207 328.255,205.968 326.641,205.504 325.800 C 204.128 323.306,203.985 322.572,203.730 316.699 C 203.496 311.294,203.366 310.485,202.464 308.837 C 201.619 307.294,201.430 306.329,201.283 302.800 C 201.137 299.297,200.950 298.329,200.155 296.966 C 199.469 295.791,199.130 294.441,198.948 292.166 C 198.771 289.949,198.480 288.760,197.974 288.200 C 196.691 286.776,196.400 285.243,196.400 279.895 C 196.400 274.948,196.342 274.559,195.402 273.204 C 194.686 272.170,194.277 270.810,193.950 268.382 C 193.700 266.523,193.158 264.373,192.747 263.606 C 192.336 262.839,191.999 261.400,191.997 260.406 C 191.992 257.481,191.212 253.514,190.376 252.162 C 189.882 251.361,189.473 249.664,189.253 247.489 C 188.991 244.908,188.674 243.747,187.953 242.737 C 187.091 241.528,186.981 240.876,186.800 235.933 C 186.612 230.806,186.541 230.415,185.653 229.646 C 184.791 228.898,184.682 228.397,184.435 224.068 C 184.185 219.680,184.080 219.211,183.082 218.025 C 182.035 216.781,182.000 216.579,182.000 211.862 C 182.000 207.208,181.950 206.913,180.909 205.393 C 179.907 203.930,179.800 203.393,179.589 198.800 C 179.382 194.316,179.247 193.611,178.279 191.965 C 177.340 190.367,177.199 189.694,177.194 186.765 C 177.188 183.471,177.013 182.849,175.487 180.704 C 175.095 180.152,174.666 178.787,174.534 177.670 C 174.367 176.264,174.002 175.365,173.347 174.750 C 172.688 174.131,172.400 173.418,172.400 172.408 C 172.400 170.995,168.829 166.800,167.625 166.800 C 167.411 166.800,166.609 166.375,165.843 165.855 C 165.078 165.336,163.699 164.790,162.780 164.643 C 161.808 164.488,160.822 164.022,160.424 163.530 C 159.953 162.949,159.043 162.591,157.507 162.382 C 156.166 162.200,154.663 161.664,153.744 161.040 C 152.903 160.468,151.921 160.000,151.563 160.000 C 151.205 160.000,150.224 159.533,149.384 158.963 C 148.543 158.393,147.213 157.838,146.428 157.730 C 144.580 157.476,142.777 156.819,141.915 156.085 C 141.530 155.759,139.794 155.358,137.964 155.173 C 135.425 154.917,134.486 154.645,133.745 153.948 C 133.083 153.327,132.047 152.964,130.364 152.766 C 128.799 152.581,127.628 152.195,127.068 151.678 C 126.591 151.237,125.390 150.649,124.400 150.371 C 123.410 150.093,122.150 149.469,121.600 148.984 C 120.952 148.414,119.838 148.018,118.438 147.863 C 117.085 147.713,115.730 147.245,114.817 146.612 C 113.948 146.010,112.799 145.599,111.978 145.598 C 109.959 145.595,107.822 144.908,106.998 143.998 C 106.494 143.441,105.766 143.200,104.592 143.200 C 103.489 143.200,102.541 142.911,101.843 142.363 C 101.258 141.902,99.607 141.280,98.175 140.981 C 96.743 140.681,95.104 140.068,94.532 139.618 C 93.960 139.168,92.912 138.800,92.202 138.800 C 91.459 138.800,90.251 138.347,89.356 137.733 C 88.317 137.020,87.098 136.604,85.686 136.482 C 84.034 136.339,83.344 136.057,82.525 135.189 C 81.676 134.290,80.997 134.029,78.931 133.807 C 77.158 133.618,76.052 133.258,75.292 132.626 C 74.615 132.063,73.375 131.610,72.031 131.436 C 69.737 131.138,68.389 130.601,67.910 129.794 C 67.750 129.525,66.356 129.181,64.812 129.029 C 62.701 128.821,61.721 128.514,60.865 127.794 C 60.031 127.092,59.020 126.763,57.087 126.565 C 54.898 126.341,54.262 126.099,53.349 125.147 C 52.627 124.393,51.847 124.000,51.074 124.000 C 50.291 124.000,49.378 123.532,48.347 122.600 C 47.495 121.830,46.378 121.200,45.865 121.200 C 45.333 121.200,44.473 120.685,43.863 120.000 C 43.047 119.085,42.450 118.800,41.346 118.800 C 40.490 118.800,39.059 118.328,37.849 117.647 C 35.610 116.387,31.173 115.756,29.074 116.399 M321.629 131.181 C 322.415 131.411,323.364 131.914,323.738 132.299 C 325.413 134.025,326.836 136.242,327.241 137.756 C 327.482 138.660,328.033 140.162,328.465 141.094 C 329.117 142.500,329.309 144.170,329.592 150.894 C 329.883 157.776,330.070 159.362,330.834 161.400 C 331.480 163.125,331.806 165.114,331.995 168.472 C 332.228 172.628,332.375 173.322,333.328 174.763 C 333.918 175.654,334.400 176.843,334.400 177.405 C 334.400 178.017,334.921 178.961,335.700 179.761 C 338.249 182.378,339.200 183.695,339.200 184.610 C 339.200 185.121,339.630 186.049,340.155 186.673 C 341.853 188.692,341.995 190.168,341.998 205.814 C 342.000 219.599,342.056 220.786,342.800 222.904 C 343.903 226.041,343.898 231.504,342.791 233.944 C 342.279 235.071,341.999 236.555,341.998 238.144 C 341.995 240.957,341.440 243.303,340.570 244.172 C 340.241 244.502,339.691 245.442,339.349 246.261 C 339.007 247.079,338.293 248.318,337.763 249.012 C 337.234 249.707,336.800 250.443,336.800 250.649 C 336.800 250.854,336.305 251.503,335.700 252.092 C 334.669 253.095,333.740 254.050,332.660 255.217 C 332.407 255.490,330.670 257.218,328.800 259.056 C 326.930 260.895,325.220 262.584,325.000 262.811 C 324.780 263.037,324.358 263.442,324.062 263.711 C 323.767 263.980,323.126 264.594,322.640 265.075 C 321.569 266.133,317.657 268.800,317.174 268.800 C 316.820 268.800,312.402 272.783,310.186 275.100 C 309.503 275.815,308.753 276.400,308.521 276.400 C 308.288 276.400,307.851 276.699,307.549 277.065 C 307.247 277.431,306.280 278.051,305.400 278.442 C 304.520 278.834,302.114 280.779,300.054 282.765 C 297.994 284.751,295.969 286.483,295.554 286.615 C 295.139 286.746,294.800 287.013,294.800 287.208 C 294.800 287.403,294.005 287.914,293.034 288.344 C 292.063 288.773,291.073 289.489,290.835 289.935 C 290.596 290.381,290.069 290.851,289.664 290.980 C 289.259 291.108,288.690 291.657,288.400 292.200 C 288.110 292.743,287.586 293.282,287.236 293.398 C 286.886 293.514,285.621 294.520,284.425 295.634 C 283.229 296.749,281.609 297.987,280.825 298.387 C 280.041 298.788,279.057 299.494,278.638 299.957 C 278.219 300.421,277.731 300.800,277.553 300.800 C 277.376 300.800,276.410 301.598,275.407 302.573 C 273.629 304.300,269.025 307.600,268.392 307.600 C 268.218 307.600,266.886 308.725,265.430 310.100 C 261.984 313.356,260.899 314.181,259.030 314.962 C 258.180 315.317,257.083 316.011,256.592 316.504 C 252.302 320.809,246.271 321.122,245.163 317.098 C 244.906 316.164,244.359 314.447,243.947 313.281 C 243.350 311.593,243.111 309.115,242.770 301.081 C 242.454 293.633,242.194 290.769,241.773 290.116 C 241.459 289.630,241.011 287.920,240.776 286.316 C 240.541 284.712,239.817 281.780,239.169 279.800 C 238.520 277.820,237.991 275.480,237.994 274.600 C 237.996 273.610,237.561 272.162,236.852 270.800 C 236.136 269.425,235.532 267.405,235.242 265.414 C 234.988 263.662,234.484 261.778,234.124 261.227 C 233.601 260.430,233.394 258.475,233.105 251.613 C 232.808 244.594,232.601 242.682,231.985 241.281 C 231.569 240.336,231.030 238.446,230.786 237.081 C 230.543 235.717,229.897 233.646,229.351 232.480 C 228.805 231.314,228.253 229.424,228.126 228.280 C 227.998 227.136,227.445 225.236,226.897 224.057 C 226.279 222.726,225.829 220.906,225.711 219.257 C 225.607 217.796,225.088 215.487,224.559 214.127 C 223.817 212.222,223.535 210.523,223.332 206.733 C 223.124 202.869,222.857 201.296,222.090 199.406 C 219.644 193.378,220.456 184.172,223.667 181.536 C 225.799 179.786,225.895 179.739,228.000 179.403 C 228.990 179.245,230.160 178.791,230.600 178.394 C 231.040 177.996,232.138 177.476,233.040 177.237 C 233.942 176.997,235.230 176.306,235.903 175.701 C 237.836 173.961,240.082 172.400,240.650 172.400 C 240.937 172.400,241.763 171.886,242.486 171.259 C 243.303 170.550,244.436 170.035,245.481 169.899 C 246.406 169.779,247.677 169.315,248.306 168.867 C 248.934 168.419,249.978 167.922,250.624 167.761 C 251.937 167.434,255.045 165.495,257.249 163.628 C 258.045 162.952,258.855 162.397,259.049 162.393 C 259.242 162.389,260.192 161.849,261.160 161.193 C 262.128 160.537,263.308 160.000,263.781 160.000 C 264.604 160.000,266.820 158.633,271.600 155.176 C 272.810 154.301,274.565 153.235,275.500 152.807 C 276.435 152.379,277.200 151.849,277.200 151.630 C 277.200 151.410,277.965 151.027,278.900 150.779 C 279.835 150.530,281.396 149.804,282.369 149.164 C 283.341 148.524,284.392 148.000,284.704 148.000 C 285.016 148.000,286.200 147.186,287.335 146.190 C 288.471 145.195,290.210 143.988,291.200 143.509 C 292.190 143.031,293.328 142.225,293.729 141.719 C 294.130 141.214,294.766 140.800,295.143 140.800 C 295.948 140.800,298.997 138.929,303.249 135.826 C 304.926 134.602,306.476 133.600,306.694 133.600 C 306.912 133.600,307.769 133.060,308.600 132.400 C 309.807 131.441,310.521 131.192,312.155 131.160 C 313.280 131.138,314.650 130.966,315.200 130.777 C 316.361 130.378,319.569 130.580,321.629 131.181 M295.136 165.900 C 293.266 167.452,290.811 170.123,290.805 170.612 C 290.802 170.838,290.406 171.288,289.925 171.612 C 289.444 171.935,288.675 172.587,288.217 173.060 C 287.758 173.533,286.656 174.116,285.768 174.355 C 284.880 174.594,283.760 175.242,283.279 175.795 C 282.719 176.439,281.986 176.800,281.238 176.800 C 280.422 176.800,279.346 177.405,277.666 178.809 C 276.344 179.914,274.423 181.189,273.397 181.642 C 272.372 182.096,271.198 182.802,270.789 183.211 C 270.379 183.621,269.400 184.076,268.613 184.224 C 267.825 184.372,266.928 184.853,266.620 185.292 C 266.042 186.118,264.740 187.069,261.820 188.800 C 260.357 189.667,257.443 191.696,256.200 192.713 C 255.400 193.368,254.142 193.697,251.321 193.990 C 244.908 194.657,242.071 198.383,244.003 203.600 C 244.207 204.150,244.534 206.130,244.730 208.000 C 244.926 209.870,245.459 212.215,245.913 213.212 C 247.026 215.651,247.706 222.153,247.758 230.836 C 247.786 235.533,247.955 238.059,248.265 238.436 C 248.521 238.746,248.939 240.153,249.194 241.563 C 249.449 242.972,250.101 244.973,250.642 246.008 C 251.256 247.182,251.755 249.031,251.967 250.922 C 252.154 252.590,252.706 254.779,253.193 255.786 C 253.681 256.793,254.247 258.969,254.453 260.621 C 254.658 262.273,255.187 264.318,255.629 265.166 C 256.180 266.223,256.501 267.822,256.649 270.254 C 257.179 278.917,262.457 283.748,267.736 280.400 C 268.776 279.740,269.812 279.200,270.037 279.200 C 270.262 279.200,271.201 278.354,272.123 277.320 C 273.629 275.631,275.334 273.927,279.000 270.446 C 279.660 269.820,280.650 269.168,281.200 268.999 C 281.750 268.829,282.709 268.265,283.331 267.745 C 283.953 267.225,284.597 266.800,284.762 266.800 C 284.927 266.800,286.204 265.720,287.600 264.400 C 288.996 263.080,290.289 262.000,290.473 262.000 C 291.201 262.000,294.973 259.284,297.140 257.200 C 299.861 254.582,302.094 253.002,304.002 252.345 C 304.771 252.080,305.631 251.539,305.914 251.144 C 306.196 250.749,307.186 250.089,308.114 249.678 C 309.041 249.266,310.047 248.631,310.349 248.265 C 310.651 247.899,311.075 247.600,311.290 247.600 C 311.720 247.600,314.741 244.758,320.829 238.629 C 324.374 235.061,324.815 234.452,325.197 232.617 C 325.430 231.493,326.066 229.695,326.610 228.619 C 328.445 224.996,327.867 220.210,325.151 216.534 C 322.717 213.238,322.167 213.000,317.000 213.000 C 311.596 213.000,312.513 212.509,304.858 219.499 C 304.075 220.214,303.112 220.901,302.717 221.026 C 302.323 221.151,302.000 221.389,302.000 221.553 C 302.000 221.718,301.272 222.262,300.383 222.761 C 299.494 223.261,298.346 224.059,297.833 224.535 C 294.836 227.313,292.032 229.310,289.500 230.472 C 288.675 230.851,288.000 231.330,288.000 231.537 C 288.000 231.744,287.263 232.208,286.361 232.569 C 284.476 233.323,282.389 234.913,279.362 237.900 C 278.192 239.055,276.892 240.000,276.473 240.000 C 276.054 240.000,275.012 240.495,274.156 241.100 C 271.216 243.179,265.434 242.228,264.576 239.526 C 264.449 239.124,263.910 238.278,263.378 237.646 C 262.731 236.878,262.284 235.653,262.028 233.948 C 261.818 232.547,261.472 230.827,261.259 230.128 C 261.009 229.306,261.010 228.315,261.262 227.328 C 261.476 226.487,261.818 225.016,262.022 224.058 C 262.664 221.035,266.437 217.205,270.130 215.830 C 271.191 215.435,272.154 214.863,272.271 214.560 C 272.387 214.257,273.143 213.831,273.951 213.613 C 274.834 213.375,276.344 212.337,277.737 211.009 C 279.012 209.794,280.160 208.800,280.290 208.800 C 280.419 208.800,281.137 208.332,281.887 207.761 C 282.636 207.190,283.842 206.558,284.566 206.358 C 285.291 206.158,286.289 205.644,286.783 205.215 C 287.278 204.786,288.326 204.222,289.114 203.962 C 289.901 203.702,291.519 202.525,292.708 201.345 C 293.897 200.165,295.007 199.200,295.175 199.200 C 295.343 199.200,296.194 198.682,297.068 198.050 C 297.941 197.417,299.093 196.766,299.628 196.601 C 304.692 195.047,310.792 188.561,310.802 184.719 C 310.804 184.213,311.072 183.288,311.398 182.663 C 314.790 176.160,313.791 170.271,308.622 166.300 L 306.669 164.800 301.565 164.800 C 296.585 164.800,296.429 164.827,295.136 165.900 M386.800 269.000 C 386.800 270.148,387.268 270.275,388.171 269.371 C 389.075 268.468,388.948 268.000,387.800 268.000 C 387.000 268.000,386.800 268.200,386.800 269.000 M280.000 356.200 C 280.000 357.348,280.468 357.475,281.371 356.571 C 282.275 355.668,282.148 355.200,281.000 355.200 C 280.200 355.200,280.000 355.400,280.000 356.200 M152.260 367.811 C 152.734 369.047,154.000 369.340,154.000 368.214 C 154.000 367.402,153.803 367.200,153.013 367.200 C 152.291 367.200,152.088 367.365,152.260 367.811 M174.800 379.800 C 175.074 380.130,175.450 380.400,175.636 380.400 C 175.823 380.400,175.871 380.130,175.745 379.800 C 175.618 379.470,175.242 379.200,174.908 379.200 C 174.415 379.200,174.395 379.312,174.800 379.800 M179.600 382.151 C 179.600 382.234,179.870 382.526,180.200 382.800 C 180.691 383.208,180.800 383.180,180.800 382.649 C 180.800 382.292,180.530 382.000,180.200 382.000 C 179.870 382.000,179.600 382.068,179.600 382.151 " stroke="none" fill="#049fec" fill-rule="evenodd"></path></g></svg>