<svg id="svg" version="1.1" xmlns="http://www.w3.org/2000/svg" xmlns:xlink="http://www.w3.org/1999/xlink" width="400" height="825" viewBox="0, 0, 400,825"><g id="svgg"><path id="path0" d="M292.667 22.667 C 292.564 22.770,292.657 23.497,292.874 24.282 C 293.091 25.068,293.118 25.821,292.934 25.955 C 292.750 26.090,292.600 26.470,292.600 26.800 C 292.600 27.317,291.028 27.415,281.280 27.506 C 274.563 27.569,270.053 27.761,270.187 27.979 C 270.311 28.180,270.202 28.475,269.945 28.634 C 269.663 28.808,269.583 28.751,269.745 28.489 C 270.228 27.707,269.139 27.488,268.462 28.231 C 267.926 28.818,267.918 28.884,268.419 28.578 C 268.786 28.354,268.746 28.470,268.319 28.864 C 267.884 29.266,267.600 30.095,267.600 30.964 L 267.600 32.400 250.000 32.400 C 233.517 32.400,232.398 32.356,232.368 31.700 C 232.259 29.373,232.105 28.734,231.507 28.135 C 230.927 27.556,230.749 27.543,230.143 28.034 C 229.695 28.398,229.554 28.422,229.747 28.100 C 229.983 27.707,228.382 27.600,222.253 27.600 C 215.274 27.600,214.445 27.670,214.329 28.271 C 214.210 28.893,214.148 28.891,213.500 28.243 C 212.833 27.576,212.800 27.585,212.800 28.427 C 212.800 28.914,213.027 29.512,213.305 29.756 C 213.582 30.000,213.743 30.166,213.662 30.124 C 213.288 29.931,212.514 31.045,212.776 31.400 C 212.939 31.620,212.740 32.115,212.336 32.500 C 211.931 32.885,211.600 33.050,211.600 32.867 C 211.600 32.683,211.338 32.533,211.018 32.533 C 210.697 32.533,210.528 32.683,210.641 32.867 C 210.755 33.050,210.646 33.200,210.400 33.200 C 210.154 33.200,210.067 33.425,210.206 33.700 C 210.345 33.975,210.201 33.885,209.886 33.500 C 209.262 32.739,207.600 32.538,207.600 33.224 C 207.600 33.457,207.761 33.548,207.958 33.426 C 208.155 33.304,208.419 33.474,208.546 33.802 C 208.672 34.131,208.590 34.400,208.364 34.400 C 208.138 34.400,208.064 34.580,208.200 34.800 C 208.336 35.020,208.257 35.200,208.024 35.200 C 207.791 35.200,207.600 35.740,207.600 36.400 C 207.600 37.530,207.508 37.600,206.029 37.600 C 204.877 37.600,204.424 37.779,204.329 38.271 C 204.210 38.893,204.148 38.891,203.500 38.243 C 202.833 37.576,202.800 37.585,202.800 38.427 C 202.800 38.914,203.027 39.512,203.305 39.756 C 203.582 40.000,203.743 40.166,203.662 40.124 C 203.184 39.878,202.524 41.053,202.889 41.500 C 203.114 41.775,203.141 42.000,202.949 41.999 C 202.757 41.999,202.660 43.259,202.733 44.799 L 202.866 47.600 201.409 47.600 C 200.608 47.600,200.056 47.768,200.183 47.972 C 200.309 48.177,200.202 48.475,199.945 48.634 C 199.663 48.808,199.583 48.751,199.745 48.489 C 200.228 47.707,199.139 47.488,198.462 48.231 C 197.926 48.818,197.918 48.884,198.419 48.578 C 198.786 48.354,198.746 48.470,198.319 48.864 C 197.668 49.466,197.600 50.381,197.600 58.564 L 197.600 67.600 196.700 67.659 C 196.205 67.692,195.440 67.737,195.000 67.759 C 194.516 67.784,194.251 68.032,194.330 68.389 C 194.430 68.847,194.286 68.821,193.680 68.273 C 192.934 67.597,192.893 67.601,192.694 68.364 C 192.571 68.834,192.757 69.372,193.149 69.680 C 193.515 69.966,193.746 70.166,193.664 70.124 C 193.184 69.880,192.523 71.053,192.889 71.500 C 193.114 71.775,193.141 72.000,192.949 71.999 C 192.757 71.999,192.655 74.251,192.723 77.005 C 192.824 81.119,192.735 82.122,192.223 82.634 C 191.880 82.977,191.600 83.094,191.600 82.895 C 191.600 82.696,191.330 82.533,191.000 82.533 C 190.670 82.533,190.400 82.672,190.400 82.842 C 190.400 83.011,189.770 83.047,189.000 82.923 C 188.164 82.787,187.600 82.860,187.600 83.105 C 187.600 83.718,188.719 84.028,188.943 83.478 C 189.091 83.113,189.144 83.115,189.168 83.486 C 189.186 83.753,188.840 84.165,188.400 84.400 C 187.652 84.800,187.600 85.238,187.600 91.164 L 187.600 97.500 186.404 97.739 C 185.747 97.871,184.906 97.862,184.535 97.720 C 184.008 97.518,183.922 97.619,184.140 98.187 C 184.381 98.815,184.332 98.841,183.779 98.382 C 182.812 97.580,182.159 98.773,183.113 99.600 C 183.493 99.930,183.740 100.166,183.660 100.124 C 183.185 99.876,182.525 101.055,182.889 101.500 C 183.114 101.775,183.141 102.000,182.949 101.999 C 182.757 101.999,182.655 104.339,182.722 107.199 C 182.830 111.770,182.766 112.400,182.199 112.400 C 181.788 112.400,181.662 112.582,181.853 112.900 C 182.092 113.297,182.028 113.299,181.547 112.910 C 181.071 112.524,180.837 112.523,180.454 112.906 C 180.106 113.254,179.886 113.268,179.683 112.953 C 179.396 112.507,178.135 112.531,177.675 112.992 C 177.536 113.130,177.683 113.404,178.001 113.601 C 178.370 113.829,178.689 113.785,178.883 113.479 C 179.118 113.109,179.189 113.111,179.194 113.486 C 179.197 113.753,178.840 114.165,178.400 114.400 C 177.652 114.800,177.600 115.238,177.600 121.164 L 177.600 127.500 176.404 127.739 C 175.747 127.871,174.906 127.862,174.535 127.720 C 174.008 127.518,173.922 127.619,174.140 128.187 C 174.381 128.815,174.332 128.841,173.779 128.382 C 172.812 127.580,172.159 128.773,173.113 129.600 C 173.493 129.930,173.740 130.166,173.660 130.124 C 173.185 129.876,172.525 131.055,172.889 131.500 C 173.114 131.775,173.141 132.000,172.949 131.999 C 172.757 131.999,172.660 133.259,172.733 134.799 C 172.862 137.520,172.839 137.600,171.913 137.600 C 171.389 137.600,170.718 137.825,170.421 138.100 C 169.990 138.500,169.939 138.500,170.165 138.100 C 170.529 137.455,170.384 137.470,168.861 138.229 L 167.600 138.859 167.600 148.179 L 167.600 157.500 166.404 157.739 C 165.747 157.871,164.935 157.873,164.600 157.745 C 164.140 157.568,164.059 157.693,164.270 158.255 C 164.521 158.924,164.477 158.941,163.844 158.426 C 162.818 157.590,162.109 158.729,163.113 159.600 C 163.493 159.930,163.740 160.166,163.660 160.124 C 163.185 159.876,162.525 161.055,162.889 161.500 C 163.114 161.775,163.141 162.000,162.949 162.000 C 162.757 161.999,162.652 165.509,162.716 169.800 L 162.833 177.600 161.865 177.600 C 160.892 177.600,159.838 178.447,160.203 178.937 C 160.312 179.082,160.265 179.095,160.100 178.967 C 159.935 178.838,159.778 178.568,159.750 178.367 C 159.723 178.165,159.678 177.870,159.650 177.711 C 159.623 177.552,159.318 177.825,158.973 178.318 C 158.628 178.810,158.189 179.117,157.998 178.999 C 157.805 178.880,157.635 182.927,157.615 188.069 C 157.575 198.502,157.730 197.664,155.828 197.718 C 154.910 197.744,154.400 197.953,154.400 198.303 C 154.400 198.602,154.217 198.734,153.993 198.596 C 153.770 198.458,153.689 198.179,153.814 197.977 C 153.939 197.775,153.776 197.711,153.452 197.836 C 152.573 198.173,152.347 199.130,153.052 199.525 C 153.607 199.836,153.608 199.935,153.061 200.482 C 152.606 200.937,152.567 201.207,152.906 201.546 C 153.156 201.796,153.189 202.000,152.980 202.000 C 152.749 201.999,152.646 205.058,152.716 209.800 L 152.833 217.600 151.816 217.667 C 151.257 217.703,150.485 217.748,150.100 217.767 C 149.715 217.785,149.163 218.118,148.873 218.507 C 148.583 218.895,148.162 219.100,147.938 218.962 C 147.699 218.814,147.564 219.101,147.610 219.655 C 147.653 220.175,147.669 224.381,147.644 229.002 L 147.600 237.404 146.216 237.837 C 145.456 238.075,144.926 238.120,145.040 237.935 C 145.154 237.751,145.057 237.600,144.824 237.600 C 144.591 237.600,144.397 238.005,144.394 238.500 C 144.389 239.203,144.307 239.273,144.020 238.819 C 143.818 238.500,143.762 238.050,143.895 237.819 C 144.028 237.589,143.757 237.734,143.291 238.142 C 142.580 238.765,142.521 239.012,142.923 239.694 C 143.299 240.334,143.291 240.544,142.883 240.691 C 142.486 240.835,142.475 241.008,142.832 241.439 C 143.088 241.748,143.141 242.000,142.949 241.999 C 142.757 241.999,142.655 244.339,142.722 247.199 C 142.818 251.256,142.730 252.410,142.322 252.445 C 142.035 252.470,141.178 252.536,140.418 252.591 C 139.658 252.647,138.967 252.898,138.884 253.149 C 138.800 253.400,138.597 253.522,138.433 253.420 C 138.035 253.174,137.985 253.499,137.670 258.390 C 137.404 262.526,137.387 262.580,136.400 262.568 C 135.850 262.561,135.265 262.746,135.100 262.978 C 134.896 263.264,134.694 263.236,134.471 262.891 C 134.215 262.496,134.004 262.541,133.531 263.091 C 132.776 263.969,132.255 265.337,132.805 264.997 C 133.022 264.863,133.200 265.033,133.200 265.376 C 133.200 265.719,132.975 266.003,132.700 266.006 C 132.367 266.010,132.400 266.142,132.800 266.400 C 133.130 266.613,133.220 266.790,133.000 266.793 C 132.747 266.797,132.648 268.781,132.731 272.199 L 132.862 277.600 131.731 277.666 C 131.109 277.702,130.200 277.728,129.712 277.723 C 129.224 277.719,128.907 277.849,129.008 278.012 C 129.109 278.176,128.941 278.517,128.634 278.771 C 128.209 279.124,128.024 279.111,127.850 278.717 C 127.725 278.433,127.645 278.740,127.672 279.400 C 128.021 287.992,127.521 317.945,127.031 317.757 C 126.718 317.637,126.088 317.739,125.631 317.983 C 125.034 318.303,124.800 318.305,124.800 317.990 C 124.800 317.750,124.617 317.666,124.393 317.804 C 124.170 317.942,124.108 318.251,124.255 318.489 C 124.407 318.735,124.339 318.810,124.098 318.661 C 123.219 318.117,122.397 318.805,122.919 319.648 C 123.233 320.155,123.261 320.524,123.000 320.712 C 122.755 320.888,122.600 324.259,122.600 329.400 C 122.600 337.779,122.598 337.800,121.735 337.681 C 121.260 337.615,120.742 337.770,120.585 338.024 C 120.375 338.363,120.215 338.348,119.979 337.965 C 119.445 337.102,117.526 338.190,117.616 339.304 C 117.656 339.797,117.669 344.172,117.644 349.027 L 117.600 357.854 116.220 357.746 C 115.070 357.655,114.878 357.751,115.073 358.318 C 115.254 358.845,115.162 358.818,114.667 358.200 C 114.314 357.760,114.020 357.613,114.013 357.873 C 114.006 358.133,113.645 358.459,113.211 358.596 C 112.533 358.812,112.491 358.963,112.911 359.676 C 113.219 360.198,113.252 360.559,113.000 360.652 C 112.746 360.745,112.646 363.670,112.726 368.668 C 112.848 376.255,112.654 379.058,112.072 378.116 C 111.335 376.924,107.513 377.974,107.621 379.338 C 107.658 379.812,107.667 385.150,107.641 391.200 L 107.594 402.200 106.596 402.663 C 106.048 402.917,105.700 402.962,105.823 402.763 C 105.946 402.563,105.857 402.400,105.624 402.400 C 105.391 402.400,105.200 402.580,105.200 402.800 C 105.200 403.020,104.930 403.200,104.600 403.200 C 104.270 403.200,104.000 402.984,104.000 402.720 C 104.000 402.356,103.880 402.360,103.503 402.737 C 103.186 403.054,103.150 403.336,103.403 403.517 C 104.342 404.187,103.939 405.012,102.747 404.863 C 102.347 404.813,102.557 406.168,103.000 406.494 C 103.267 406.690,103.267 406.790,103.000 406.794 C 102.736 406.798,102.668 412.948,102.800 424.838 C 102.917 435.403,102.850 442.969,102.638 443.100 C 102.439 443.223,102.405 443.116,102.562 442.862 C 102.943 442.246,102.298 442.272,101.621 442.900 C 101.190 443.300,101.139 443.300,101.365 442.900 C 101.549 442.573,101.373 442.400,100.857 442.400 C 100.422 442.400,99.998 442.606,99.914 442.857 C 99.802 443.194,99.517 443.183,98.833 442.817 C 98.065 442.406,97.962 442.414,98.240 442.860 C 98.796 443.751,98.764 444.400,98.165 444.400 C 97.695 444.400,97.600 445.917,97.600 453.400 C 97.600 462.133,97.576 462.400,96.800 462.400 C 96.360 462.400,96.000 462.591,96.000 462.824 C 96.000 463.057,95.820 463.136,95.600 463.000 C 95.380 462.864,95.200 462.938,95.200 463.164 C 95.200 463.390,94.915 463.465,94.566 463.332 C 94.056 463.136,94.037 463.023,94.466 462.750 C 94.760 462.564,94.820 462.412,94.600 462.412 C 93.619 462.412,92.969 463.180,93.600 463.594 C 94.133 463.944,94.133 463.989,93.600 464.000 C 93.067 464.011,93.067 464.055,93.600 464.400 C 94.090 464.717,94.043 464.789,93.344 464.794 C 92.452 464.800,92.224 465.924,93.000 466.494 C 93.267 466.690,93.267 466.790,93.000 466.794 C 92.741 466.797,92.641 470.225,92.716 476.500 C 92.840 486.806,92.737 488.104,91.827 487.755 C 91.517 487.636,90.843 487.762,90.331 488.035 C 89.457 488.501,89.436 488.487,90.000 487.800 C 90.562 487.116,90.542 487.100,89.700 487.549 C 89.205 487.812,88.800 487.910,88.800 487.765 C 88.800 487.620,88.549 487.710,88.243 487.964 C 87.458 488.616,87.313 503.765,88.083 504.715 C 88.474 505.198,88.478 505.280,88.100 505.053 C 87.472 504.676,87.431 505.948,88.044 506.800 C 88.415 507.316,88.446 507.308,88.265 506.739 C 88.119 506.278,88.258 506.118,88.728 506.209 C 89.097 506.280,89.546 506.353,89.724 506.369 C 89.902 506.386,89.927 506.595,89.780 506.833 C 89.620 507.091,89.812 507.233,90.256 507.186 C 90.665 507.143,92.485 507.129,94.300 507.154 L 97.600 507.200 97.600 508.624 C 97.600 509.407,97.755 509.952,97.944 509.835 C 98.133 509.718,98.244 510.022,98.191 510.511 C 98.023 512.049,101.228 513.230,102.050 511.933 C 102.296 511.545,102.389 511.534,102.394 511.892 C 102.404 512.678,165.564 512.558,165.866 511.772 C 165.986 511.460,166.257 511.312,166.469 511.443 C 166.681 511.573,166.949 511.315,167.066 510.868 C 167.366 509.721,168.307 509.441,168.188 510.535 C 168.022 512.052,171.237 513.216,172.050 511.933 C 172.317 511.511,172.389 511.508,172.394 511.916 C 172.399 512.307,173.316 512.410,176.178 512.343 C 178.341 512.291,179.860 512.096,179.730 511.887 C 179.605 511.685,179.860 511.711,180.295 511.944 C 180.992 512.317,181.074 512.250,180.978 511.382 C 180.919 510.840,181.037 510.499,181.242 510.626 C 181.446 510.752,181.509 511.023,181.383 511.228 C 181.256 511.432,181.343 511.600,181.576 511.600 C 181.809 511.600,182.023 511.240,182.050 510.800 C 182.078 510.360,182.145 509.820,182.200 509.600 C 182.255 509.380,182.322 508.750,182.350 508.200 L 182.400 507.200 187.577 507.200 C 192.525 507.200,192.747 507.235,192.601 507.994 C 192.517 508.430,192.724 508.941,193.060 509.130 C 193.804 509.546,193.839 510.005,193.160 510.425 C 192.768 510.667,192.759 510.869,193.122 511.306 C 193.381 511.618,193.460 512.031,193.297 512.224 C 193.133 512.416,193.315 512.333,193.700 512.038 C 194.238 511.626,194.400 511.617,194.400 512.000 C 194.400 512.397,194.521 512.397,195.000 512.000 C 195.416 511.655,195.600 511.640,195.600 511.952 C 195.600 512.710,255.570 512.543,255.862 511.784 C 255.984 511.465,256.246 511.305,256.445 511.428 C 256.644 511.551,256.963 511.235,257.154 510.726 C 257.417 510.024,257.343 509.734,256.850 509.528 C 256.278 509.289,256.284 509.253,256.908 509.228 C 257.440 509.207,257.571 508.952,257.434 508.200 C 257.266 507.272,257.366 507.200,258.826 507.200 C 259.815 507.200,260.402 507.014,260.406 506.700 C 260.411 506.326,260.498 506.335,260.751 506.734 C 262.025 508.745,262.349 506.786,262.386 496.839 C 262.425 486.090,262.171 487.150,264.730 487.067 C 265.827 487.031,266.640 486.865,266.537 486.698 C 266.434 486.531,266.586 486.304,266.875 486.192 C 267.191 486.071,267.415 485.282,267.437 484.211 C 267.457 483.232,267.322 482.525,267.137 482.639 C 266.951 482.754,266.800 480.497,266.800 477.624 C 266.800 473.738,266.928 472.387,267.300 472.350 C 267.575 472.322,268.298 472.309,268.907 472.322 C 269.569 472.336,269.911 472.180,269.758 471.933 C 269.593 471.665,269.786 471.671,270.310 471.952 C 271.979 472.845,272.190 471.790,272.329 461.843 C 272.477 451.318,272.248 452.317,274.531 452.251 C 275.875 452.212,276.245 452.065,276.080 451.634 C 275.957 451.312,276.040 451.177,276.274 451.322 C 276.499 451.461,276.880 451.142,277.121 450.613 C 277.485 449.814,277.444 449.620,276.880 449.472 C 276.247 449.305,276.247 449.290,276.875 449.246 C 277.540 449.201,277.773 447.600,277.115 447.600 C 276.942 447.600,276.800 443.010,276.800 437.400 L 276.800 427.200 278.826 427.200 C 281.094 427.200,282.400 426.675,282.400 425.762 C 282.400 425.421,282.206 425.272,281.960 425.425 C 281.640 425.622,281.640 425.472,281.960 424.875 C 282.239 424.353,282.400 421.043,282.400 415.826 C 282.400 407.650,282.405 407.600,283.269 407.600 C 283.746 407.600,284.497 407.285,284.937 406.900 C 285.377 406.515,285.613 406.414,285.460 406.676 C 285.282 406.982,285.464 407.130,285.971 407.092 C 286.615 407.044,286.671 406.924,286.280 406.440 C 285.891 405.959,285.908 405.912,286.368 406.189 C 286.803 406.451,286.871 406.362,286.659 405.809 C 286.446 405.255,286.500 405.185,286.891 405.509 C 287.289 405.839,287.408 405.550,287.437 404.181 C 287.457 403.219,287.318 402.527,287.128 402.645 C 286.937 402.762,286.831 399.395,286.891 395.129 L 287.000 387.400 288.100 387.529 C 288.705 387.599,289.200 387.481,289.200 387.266 C 289.200 387.051,289.588 386.976,290.063 387.100 C 290.729 387.275,290.848 387.198,290.586 386.763 C 290.309 386.304,290.358 386.290,290.853 386.690 C 291.317 387.066,291.569 387.071,291.930 386.710 C 292.524 386.116,292.549 385.060,291.960 385.425 C 291.640 385.622,291.640 385.472,291.960 384.875 C 292.221 384.387,292.400 381.725,292.400 378.324 L 292.400 372.596 293.800 372.158 C 294.570 371.917,295.200 371.873,295.200 372.060 C 295.200 372.247,295.380 372.400,295.600 372.400 C 295.820 372.400,295.979 372.265,295.953 372.100 C 295.826 371.297,296.056 371.061,296.441 371.600 C 296.787 372.084,296.832 372.030,296.677 371.319 C 296.571 370.835,296.687 370.371,296.934 370.289 C 297.457 370.114,297.652 367.600,297.143 367.600 C 296.954 367.600,296.800 366.430,296.800 365.000 C 296.800 362.221,296.822 362.197,299.145 362.390 C 299.665 362.434,299.988 362.304,299.863 362.103 C 299.614 361.699,300.774 361.690,301.421 362.090 C 301.916 362.396,301.962 362.102,302.247 356.800 C 302.508 351.931,302.333 352.310,304.353 352.257 C 305.225 352.234,305.931 352.122,305.922 352.008 C 305.862 351.252,306.073 351.085,306.441 351.600 C 306.787 352.084,306.832 352.030,306.677 351.319 C 306.571 350.835,306.687 350.371,306.934 350.289 C 307.457 350.114,307.652 347.600,307.143 347.600 C 306.954 347.600,306.800 344.180,306.800 340.000 C 306.800 331.690,306.649 332.182,309.145 332.390 C 309.665 332.434,309.988 332.304,309.863 332.103 C 309.614 331.699,310.774 331.690,311.421 332.090 C 311.645 332.228,311.861 332.039,311.901 331.671 C 311.941 331.302,312.054 330.550,312.153 330.000 C 312.252 329.450,312.348 325.265,312.367 320.700 C 312.398 312.986,312.451 312.400,313.120 312.400 C 313.516 312.400,314.078 312.175,314.370 311.900 C 314.794 311.500,314.937 311.500,315.083 311.900 C 315.356 312.644,315.999 312.505,316.006 311.700 C 316.011 311.095,316.071 311.082,316.441 311.600 C 316.787 312.084,316.832 312.030,316.677 311.319 C 316.571 310.835,316.687 310.371,316.934 310.289 C 317.457 310.114,317.652 307.600,317.143 307.600 C 316.954 307.600,316.800 304.180,316.800 300.000 L 316.800 292.400 317.900 292.328 C 318.505 292.289,319.564 292.294,320.254 292.340 C 321.312 292.410,321.558 292.250,321.832 291.312 C 322.316 289.656,322.302 289.873,322.385 283.000 C 322.428 279.480,322.554 276.825,322.665 277.100 C 322.885 277.645,324.400 277.801,324.400 277.278 C 324.400 277.100,324.880 276.965,325.466 276.978 C 326.052 276.990,326.615 276.750,326.718 276.444 C 326.842 276.074,326.733 275.994,326.390 276.206 C 326.043 276.421,325.974 276.365,326.179 276.035 C 326.345 275.766,326.737 275.644,327.050 275.764 C 327.503 275.938,327.533 275.822,327.195 275.191 C 326.911 274.660,326.907 274.400,327.181 274.400 C 327.407 274.400,327.555 273.963,327.511 273.429 C 327.466 272.895,327.288 272.545,327.115 272.652 C 326.942 272.760,326.800 269.417,326.800 265.224 C 326.800 257.293,326.775 257.404,328.500 257.579 C 328.885 257.618,329.200 257.448,329.200 257.202 C 329.200 256.955,329.400 256.876,329.645 257.028 C 329.889 257.179,330.247 257.054,330.439 256.751 C 330.691 256.352,330.789 256.338,330.794 256.700 C 330.797 256.975,330.991 257.200,331.224 257.200 C 331.457 257.200,331.537 257.022,331.403 256.805 C 331.262 256.577,331.425 256.511,331.787 256.650 C 332.278 256.839,332.398 256.640,332.335 255.746 C 332.290 255.116,332.287 250.710,332.327 245.955 L 332.400 237.311 333.400 237.502 C 333.950 237.607,334.400 237.530,334.400 237.331 C 334.400 237.132,334.895 236.976,335.500 236.984 C 336.324 236.996,336.585 236.817,336.540 236.273 C 336.500 235.795,336.675 235.620,337.049 235.763 C 337.503 235.938,337.533 235.822,337.195 235.191 C 336.911 234.660,336.907 234.400,337.181 234.400 C 337.407 234.400,337.555 233.963,337.511 233.429 C 337.466 232.895,337.288 232.545,337.115 232.652 C 336.942 232.760,336.800 229.417,336.800 225.224 C 336.800 217.293,336.775 217.404,338.500 217.579 C 338.885 217.618,339.200 217.484,339.200 217.281 C 339.200 217.077,339.650 216.997,340.200 217.102 C 340.770 217.211,341.200 217.107,341.200 216.859 C 341.200 216.620,341.462 216.526,341.782 216.648 C 342.287 216.842,342.353 213.935,342.282 194.536 L 342.200 172.200 343.400 172.135 C 345.979 171.996,346.600 171.791,346.545 171.097 C 346.515 170.718,346.650 170.507,346.845 170.628 C 347.230 170.866,347.244 170.824,347.388 168.900 C 347.442 168.185,347.331 167.600,347.143 167.600 C 346.954 167.600,346.800 164.180,346.800 160.000 L 346.800 152.400 348.100 152.354 C 348.815 152.329,349.699 152.337,350.065 152.373 C 350.430 152.409,350.863 152.222,351.026 151.957 C 351.208 151.663,351.155 151.581,350.889 151.745 C 350.651 151.892,350.339 151.826,350.198 151.597 C 350.056 151.368,350.171 151.230,350.452 151.290 C 350.733 151.351,350.972 151.190,350.982 150.933 C 350.992 150.677,351.129 150.337,351.287 150.179 C 351.446 150.021,351.502 150.272,351.412 150.737 C 351.190 151.889,351.859 152.222,352.134 151.097 C 352.254 150.604,352.370 146.249,352.390 141.420 C 352.432 131.340,352.173 132.318,354.802 132.339 C 356.566 132.352,356.791 132.271,356.374 131.768 C 355.968 131.279,356.013 131.229,356.643 131.466 C 357.336 131.726,357.349 131.686,356.800 130.998 C 356.451 130.561,356.409 130.372,356.700 130.547 C 357.237 130.869,357.241 130.859,357.388 128.900 C 357.442 128.185,357.326 127.600,357.131 127.600 C 356.936 127.600,356.826 125.305,356.888 122.500 L 357.000 117.400 358.100 117.529 C 358.715 117.601,359.200 117.462,359.200 117.215 C 359.200 116.918,359.431 116.895,359.900 117.143 C 360.663 117.548,361.774 116.751,361.276 116.156 C 361.124 115.975,361.315 116.067,361.700 116.362 C 362.125 116.688,362.400 116.731,362.400 116.473 C 362.400 116.239,362.220 115.936,361.999 115.799 C 361.731 115.634,361.731 115.303,361.999 114.802 C 362.220 114.390,362.400 111.431,362.400 108.226 L 362.400 102.400 363.500 102.358 C 364.105 102.334,365.077 102.346,365.660 102.384 C 366.960 102.467,367.452 101.790,366.734 100.906 C 366.353 100.436,366.343 100.333,366.700 100.547 C 367.237 100.869,367.241 100.859,367.388 98.900 C 367.442 98.185,367.326 97.600,367.131 97.600 C 366.936 97.600,366.826 95.305,366.888 92.500 L 367.000 87.400 368.100 87.529 C 368.715 87.601,369.200 87.462,369.200 87.215 C 369.200 86.894,369.435 86.898,370.048 87.226 C 370.715 87.582,370.830 87.572,370.586 87.177 C 370.360 86.812,370.512 86.736,371.137 86.899 C 372.140 87.162,372.653 86.587,372.057 85.869 C 371.796 85.555,371.783 85.159,372.020 84.787 C 372.834 83.511,372.467 39.371,371.633 38.342 C 370.968 37.520,370.818 37.486,370.169 38.013 C 369.764 38.342,369.576 38.384,369.740 38.110 C 369.966 37.734,368.571 37.595,363.717 37.510 C 357.957 37.410,357.410 37.338,357.518 36.700 C 357.582 36.315,357.456 36.000,357.237 36.000 C 356.826 36.000,356.941 33.942,357.393 33.211 C 357.533 32.985,357.412 32.786,357.124 32.769 C 356.836 32.753,356.297 32.680,355.928 32.609 C 355.469 32.520,355.329 32.670,355.486 33.080 C 355.681 33.589,355.517 33.578,354.414 33.007 C 353.485 32.527,353.199 32.487,353.415 32.867 C 353.658 33.296,353.612 33.303,353.179 32.900 C 352.777 32.527,350.062 32.400,342.520 32.400 C 333.161 32.400,332.398 32.347,332.368 31.700 C 332.259 29.373,332.105 28.734,331.507 28.135 C 330.927 27.556,330.749 27.543,330.143 28.034 C 329.695 28.398,329.554 28.422,329.747 28.100 C 329.983 27.706,328.195 27.600,321.320 27.600 C 313.026 27.600,312.568 27.560,312.093 26.800 C 311.818 26.360,311.745 26.000,311.930 26.000 C 312.115 26.000,312.267 25.730,312.267 25.400 C 312.267 25.070,312.095 24.800,311.884 24.800 C 311.655 24.800,311.666 24.599,311.911 24.300 C 312.344 23.771,311.516 22.618,311.043 23.091 C 310.909 23.224,310.800 23.117,310.800 22.853 C 310.800 22.535,310.562 22.484,310.100 22.703 C 309.715 22.885,308.590 23.019,307.600 23.001 C 306.341 22.978,305.718 23.153,305.528 23.584 C 305.308 24.083,305.251 24.058,305.228 23.451 C 305.205 22.831,305.096 22.788,304.600 23.200 C 304.121 23.597,304.000 23.597,304.000 23.200 C 304.000 22.809,303.866 22.813,303.381 23.216 C 302.937 23.584,302.893 23.810,303.224 24.015 C 303.569 24.228,303.563 24.376,303.200 24.600 C 302.828 24.830,302.841 24.980,303.257 25.244 C 303.621 25.475,303.643 25.590,303.323 25.594 C 303.061 25.597,302.910 25.930,302.987 26.334 C 303.065 26.738,302.990 27.292,302.821 27.567 C 302.566 27.979,302.109 26.452,301.839 24.285 C 301.818 24.112,301.530 23.782,301.200 23.551 C 300.722 23.216,300.783 23.171,301.500 23.328 C 301.995 23.436,302.400 23.362,302.400 23.163 C 302.400 22.690,300.768 22.706,300.011 23.185 C 299.637 23.421,299.329 23.409,299.169 23.150 C 298.838 22.615,296.066 22.402,295.900 22.899 C 295.818 23.145,295.242 23.139,294.313 22.882 C 293.510 22.661,292.770 22.564,292.667 22.667 M225.317 28.296 C 223.951 28.374,221.611 28.374,220.117 28.297 C 218.622 28.220,219.740 28.156,222.600 28.155 C 225.460 28.155,226.682 28.218,225.317 28.296 M287.500 28.299 C 284.695 28.368,280.105 28.368,277.300 28.299 C 274.495 28.230,276.790 28.174,282.400 28.174 C 288.010 28.174,290.305 28.230,287.500 28.299 M323.900 28.298 C 321.755 28.370,318.245 28.370,316.100 28.298 C 313.955 28.226,315.710 28.167,320.000 28.167 C 324.290 28.167,326.045 28.226,323.900 28.298 M365.317 38.296 C 363.951 38.374,361.611 38.374,360.117 38.297 C 358.622 38.220,359.740 38.156,362.600 38.155 C 365.460 38.155,366.682 38.218,365.317 38.296 M198.298 63.900 C 198.226 66.045,198.167 64.290,198.167 60.000 C 198.167 55.710,198.226 53.955,198.298 56.100 C 198.370 58.245,198.370 61.755,198.298 63.900 M188.297 95.083 C 188.220 96.578,188.156 95.460,188.155 92.600 C 188.155 89.740,188.218 88.518,188.296 89.883 C 188.374 91.249,188.374 93.589,188.297 95.083 M178.297 125.083 C 178.220 126.578,178.156 125.460,178.155 122.600 C 178.155 119.740,178.218 118.518,178.296 119.883 C 178.374 121.249,178.374 123.589,178.297 125.083 M168.298 153.900 C 168.226 156.045,168.167 154.290,168.167 150.000 C 168.167 145.710,168.226 143.955,168.298 146.100 C 168.370 148.245,168.370 151.755,168.298 153.900 M158.298 193.900 C 158.226 196.045,158.167 194.290,158.167 190.000 C 158.167 185.710,158.226 183.955,158.298 186.100 C 158.370 188.245,158.370 191.755,158.298 193.900 M148.298 233.900 C 148.226 236.045,148.167 234.290,148.167 230.000 C 148.167 225.710,148.226 223.955,148.298 226.100 C 148.370 228.245,148.370 231.755,148.298 233.900 M138.289 261.300 C 138.201 262.015,138.128 261.430,138.128 260.000 C 138.128 258.570,138.201 257.985,138.289 258.700 C 138.378 259.415,138.378 260.585,138.289 261.300 M128.300 308.900 C 128.236 313.795,128.184 309.790,128.184 300.000 C 128.184 290.210,128.236 286.205,128.300 291.100 C 128.363 295.995,128.363 304.005,128.300 308.900 M118.298 353.900 C 118.226 356.045,118.167 354.290,118.167 350.000 C 118.167 345.710,118.226 343.955,118.298 346.100 C 118.370 348.245,118.370 351.755,118.298 353.900 M108.299 397.500 C 108.230 400.305,108.174 398.010,108.174 392.400 C 108.174 386.790,108.230 384.495,108.299 387.300 C 108.368 390.105,108.368 394.695,108.299 397.500 M98.298 458.700 C 98.226 460.845,98.167 459.090,98.167 454.800 C 98.167 450.510,98.226 448.755,98.298 450.900 C 98.370 453.045,98.370 456.555,98.298 458.700 M88.297 499.883 C 88.220 501.378,88.156 500.260,88.155 497.400 C 88.155 494.540,88.218 493.318,88.296 494.683 C 88.374 496.049,88.374 498.389,88.297 499.883 M70.427 607.949 C 69.875 608.315,69.600 608.348,69.600 608.049 C 69.600 607.802,69.420 607.600,69.200 607.600 C 68.980 607.600,68.821 607.735,68.847 607.900 C 68.962 608.626,68.770 609.200,68.413 609.200 C 68.199 609.200,68.129 608.930,68.255 608.600 C 68.382 608.270,68.286 608.000,68.043 608.000 C 67.546 608.000,67.483 608.430,67.842 609.365 C 67.975 609.712,68.273 609.879,68.504 609.736 C 68.751 609.583,68.805 609.669,68.634 609.945 C 68.475 610.202,68.177 610.309,67.972 610.183 C 67.749 610.045,67.600 612.418,67.600 616.125 L 67.600 622.298 66.000 622.554 C 65.120 622.694,64.400 622.993,64.400 623.218 C 64.400 623.442,63.995 623.789,63.500 623.988 C 63.005 624.187,62.836 624.361,63.124 624.375 C 63.412 624.389,63.534 624.583,63.396 624.807 C 63.258 625.030,62.997 625.122,62.818 625.011 C 62.347 624.720,62.522 626.142,63.000 626.494 C 63.267 626.690,63.267 626.789,63.000 626.793 C 62.759 626.796,62.653 627.912,62.733 629.599 L 62.866 632.400 60.990 632.400 C 59.494 632.400,59.161 632.520,59.343 632.995 C 59.594 633.649,58.806 633.652,58.274 633.000 C 58.094 632.780,58.069 633.028,58.217 633.550 C 58.397 634.185,58.342 634.411,58.052 634.232 C 57.749 634.045,57.586 636.030,57.510 640.838 L 57.400 647.712 56.264 647.832 C 55.640 647.899,54.708 647.793,54.195 647.598 C 53.348 647.276,53.278 647.337,53.444 648.253 C 53.552 648.848,53.467 649.165,53.238 649.023 C 53.024 648.891,52.845 649.102,52.841 649.491 C 52.723 661.080,52.539 667.018,52.296 667.092 C 52.129 667.142,51.468 667.455,50.827 667.786 C 49.932 668.249,49.617 668.274,49.463 667.894 C 49.331 667.569,49.252 667.609,49.232 668.011 C 49.214 668.347,48.833 668.936,48.385 669.320 C 47.604 669.988,47.576 670.385,47.685 678.930 L 47.800 687.843 45.904 687.766 C 44.783 687.721,44.105 687.846,44.244 688.071 C 44.374 688.282,44.147 688.396,43.740 688.327 C 43.192 688.233,42.989 688.459,42.957 689.200 C 42.933 689.750,42.876 690.380,42.831 690.600 C 42.786 690.820,42.771 694.614,42.797 699.031 L 42.844 707.061 41.244 707.690 C 39.771 708.268,39.629 708.266,39.468 707.659 C 39.335 707.160,39.282 707.197,39.246 707.811 C 39.221 708.257,38.828 708.941,38.374 709.330 C 37.624 709.971,37.559 710.404,37.674 713.982 C 37.743 716.151,37.680 717.852,37.534 717.761 C 37.388 717.670,37.192 717.731,37.100 717.898 C 37.007 718.064,36.971 718.014,37.020 717.786 C 37.069 717.558,36.770 717.371,36.355 717.371 C 35.940 717.371,35.600 717.525,35.600 717.713 C 35.600 717.900,35.217 717.932,34.750 717.784 C 34.282 717.636,33.993 717.669,34.108 717.857 C 34.222 718.046,34.031 718.464,33.682 718.787 C 33.120 719.307,33.078 719.296,33.311 718.687 C 33.461 718.296,33.387 718.000,33.137 718.000 C 32.869 718.000,32.789 718.445,32.931 719.153 C 33.057 719.787,33.041 720.426,32.893 720.574 C 32.746 720.721,32.676 722.240,32.739 723.950 L 32.852 727.058 31.248 727.688 C 29.771 728.269,29.629 728.266,29.468 727.659 C 29.335 727.160,29.282 727.197,29.246 727.811 C 29.221 728.257,28.840 728.930,28.400 729.307 C 27.703 729.904,27.600 730.487,27.600 733.820 C 27.600 736.640,27.477 737.571,27.132 737.358 C 26.808 737.157,26.752 737.297,26.949 737.812 C 27.219 738.515,27.186 738.513,26.348 737.778 C 25.861 737.350,25.605 737.242,25.779 737.538 C 26.006 737.926,25.885 738.033,25.347 737.921 C 24.936 737.835,24.285 738.115,23.900 738.543 C 23.515 738.972,23.200 739.151,23.200 738.941 C 23.200 738.732,23.386 738.374,23.613 738.147 C 23.898 737.862,23.822 737.733,23.372 737.733 C 22.857 737.733,22.762 738.010,22.928 739.031 C 23.043 739.745,23.023 740.444,22.882 740.585 C 22.741 740.726,22.677 742.254,22.740 743.981 L 22.854 747.120 21.427 747.591 C 20.642 747.850,19.997 748.273,19.994 748.531 C 19.990 748.802,19.824 748.747,19.600 748.400 C 19.387 748.070,19.209 747.957,19.206 748.149 C 19.203 748.341,18.946 748.287,18.636 748.030 C 18.247 747.707,17.990 747.693,17.810 747.983 C 17.667 748.216,17.826 748.512,18.164 748.642 C 18.706 748.850,18.709 748.948,18.190 749.467 C 17.721 749.936,17.600 751.324,17.600 756.229 L 17.600 762.400 16.429 762.400 C 15.784 762.400,14.992 762.665,14.667 762.990 C 14.148 763.509,14.051 763.509,13.851 762.990 C 13.488 762.042,12.800 762.311,12.800 763.400 C 12.800 763.950,12.986 764.400,13.214 764.400 C 13.493 764.400,13.487 764.663,13.196 765.208 C 12.958 765.653,12.872 766.193,13.005 766.408 C 13.138 766.624,13.102 766.800,12.924 766.800 C 12.558 766.800,12.642 787.421,13.010 788.016 C 13.140 788.227,13.052 788.400,12.814 788.400 C 12.563 788.400,12.657 788.820,13.037 789.400 C 13.397 789.950,13.512 790.400,13.293 790.400 C 13.073 790.400,12.802 790.751,12.690 791.179 C 12.404 792.271,13.662 792.456,14.317 791.418 C 14.806 790.643,14.819 790.653,14.559 791.597 C 14.309 792.504,14.346 792.543,14.973 792.023 C 15.424 791.648,15.754 791.594,15.930 791.865 C 16.079 792.093,16.515 792.306,16.900 792.339 C 18.539 792.481,18.754 792.551,18.555 792.873 C 18.439 793.060,18.132 793.086,17.872 792.930 C 17.603 792.768,17.636 792.938,17.949 793.323 C 18.251 793.695,18.341 794.006,18.149 794.014 C 17.957 794.022,18.250 794.286,18.800 794.600 C 19.748 795.142,19.748 795.232,18.800 795.350 C 18.580 795.378,18.400 795.535,18.400 795.700 C 18.400 795.865,18.400 796.182,18.400 796.403 C 18.400 796.643,18.745 796.603,19.252 796.303 C 19.941 795.897,20.140 795.899,20.291 796.317 C 20.436 796.718,20.605 796.727,21.048 796.360 C 21.505 795.981,21.572 796.008,21.383 796.499 C 21.193 796.995,21.513 797.114,23.074 797.125 C 24.133 797.133,34.659 797.153,46.465 797.170 L 67.930 797.200 67.817 798.224 C 67.755 798.787,67.951 799.494,68.252 799.795 C 68.902 800.445,68.981 800.959,68.373 800.583 C 67.838 800.253,68.043 801.688,68.587 802.077 C 68.799 802.230,69.204 802.162,69.487 801.928 C 69.860 801.618,70.000 801.645,70.000 802.027 C 70.000 802.351,70.233 802.254,70.606 801.776 C 71.025 801.239,71.179 801.185,71.106 801.600 C 70.975 802.339,74.868 802.395,75.114 801.657 C 75.198 801.406,75.442 801.200,75.657 801.200 C 75.872 801.200,75.916 801.425,75.755 801.700 C 75.594 801.975,75.853 801.857,76.331 801.438 C 77.231 800.649,77.500 800.167,76.800 800.600 C 76.580 800.736,76.400 800.672,76.400 800.457 C 76.400 800.242,76.602 799.999,76.849 799.917 C 77.095 799.835,77.320 799.145,77.349 798.384 L 77.400 797.000 94.858 797.108 C 109.689 797.200,112.389 797.305,112.807 797.808 C 113.160 798.234,113.169 798.400,112.840 798.400 C 112.543 798.400,112.603 798.738,113.011 799.360 C 113.357 799.888,113.467 800.383,113.256 800.460 C 112.585 800.705,112.531 802.216,113.200 802.062 C 114.715 801.714,116.000 801.666,116.000 801.957 C 116.000 802.606,119.158 802.304,119.336 801.638 C 119.482 801.095,119.514 801.103,119.554 801.687 C 119.583 802.125,119.818 802.291,120.198 802.146 C 120.526 802.019,120.680 801.710,120.539 801.458 C 120.384 801.181,120.496 801.198,120.821 801.500 C 121.479 802.110,122.400 802.155,122.400 801.576 C 122.400 801.343,122.232 801.256,122.028 801.383 C 121.823 801.509,121.542 801.430,121.404 801.207 C 121.266 800.983,121.313 800.800,121.510 800.800 C 121.706 800.800,121.894 800.575,121.927 800.300 C 121.960 800.025,122.100 799.215,122.239 798.500 L 122.491 797.200 132.396 797.200 C 140.713 797.200,142.382 797.296,142.800 797.800 C 143.155 798.228,143.166 798.400,142.840 798.400 C 142.543 798.400,142.603 798.738,143.011 799.360 C 143.357 799.888,143.467 800.383,143.256 800.460 C 142.585 800.705,142.531 802.216,143.200 802.062 C 144.715 801.714,146.000 801.666,146.000 801.957 C 146.000 802.606,149.158 802.304,149.336 801.638 C 149.482 801.095,149.514 801.103,149.554 801.687 C 149.583 802.125,149.818 802.291,150.198 802.146 C 150.526 802.019,150.672 801.710,150.521 801.458 C 150.348 801.170,150.475 801.185,150.864 801.500 C 151.553 802.057,152.760 802.168,154.700 801.850 C 155.415 801.734,156.000 801.782,156.000 801.957 C 156.000 802.606,159.158 802.304,159.336 801.638 C 159.482 801.095,159.514 801.103,159.554 801.687 C 159.583 802.125,159.818 802.291,160.198 802.146 C 160.526 802.019,160.680 801.710,160.539 801.458 C 160.384 801.181,160.496 801.198,160.821 801.500 C 161.479 802.110,162.400 802.155,162.400 801.576 C 162.400 801.343,162.232 801.256,162.028 801.383 C 161.823 801.509,161.542 801.430,161.404 801.207 C 161.266 800.983,161.313 800.800,161.510 800.800 C 161.706 800.800,161.894 800.575,161.927 800.300 C 161.960 800.025,162.100 799.215,162.239 798.500 L 162.491 797.200 175.945 797.146 C 183.345 797.116,190.026 797.069,190.791 797.042 L 192.182 796.992 192.255 793.196 C 192.295 791.108,192.356 785.372,192.392 780.448 C 192.440 773.794,192.572 771.612,192.908 771.948 C 193.586 772.626,194.398 772.492,194.412 771.700 C 194.423 771.057,194.456 771.054,194.812 771.665 C 195.026 772.030,195.515 772.269,195.900 772.195 C 196.285 772.122,196.715 772.047,196.855 772.031 C 197.310 771.976,197.482 769.600,197.031 769.594 C 196.729 769.590,196.727 769.500,197.025 769.294 C 197.508 768.959,197.596 767.155,197.114 767.453 C 196.941 767.560,196.800 760.807,196.800 752.447 L 196.800 737.246 198.500 737.123 C 199.443 737.055,200.165 736.807,200.122 736.567 C 200.079 736.328,200.302 736.133,200.616 736.133 C 201.047 736.133,201.078 736.265,200.745 736.667 C 200.072 737.477,200.976 737.310,201.722 736.487 C 202.292 735.857,202.373 733.840,202.421 719.187 C 202.484 699.687,202.425 701.524,202.967 701.970 C 204.022 702.840,207.114 701.970,207.292 700.752 C 207.389 700.093,207.277 699.597,207.031 699.594 C 206.733 699.590,206.730 699.497,207.019 699.294 C 207.540 698.928,207.693 697.095,207.176 697.415 C 206.949 697.555,206.800 695.580,206.800 692.424 L 206.800 687.200 207.900 687.153 C 208.505 687.127,209.244 687.139,209.543 687.180 C 210.119 687.259,211.468 685.628,211.287 685.070 C 211.228 684.889,211.376 684.862,211.616 685.010 C 211.911 685.192,211.841 685.512,211.400 686.000 C 210.907 686.545,210.867 686.794,211.236 687.022 C 211.530 687.204,211.621 687.157,211.464 686.904 C 211.321 686.673,211.469 686.382,211.793 686.258 C 212.273 686.074,212.401 684.762,212.490 679.116 C 212.600 672.201,212.600 672.200,213.500 672.325 C 213.995 672.394,214.400 672.265,214.400 672.038 C 214.400 671.811,214.670 671.729,215.000 671.855 C 215.330 671.982,215.600 671.897,215.600 671.666 C 215.600 671.435,215.942 671.312,216.359 671.392 C 216.903 671.497,217.171 671.263,217.304 670.569 C 217.410 670.016,217.298 669.597,217.045 669.594 C 216.741 669.590,216.733 669.494,217.019 669.294 C 217.549 668.922,217.678 667.200,217.175 667.200 C 216.955 667.200,216.800 664.140,216.800 659.800 C 216.800 651.814,216.744 652.012,218.900 652.353 C 219.065 652.379,219.200 652.220,219.200 652.000 C 219.200 651.780,219.391 651.600,219.624 651.600 C 219.857 651.600,219.933 651.784,219.794 652.010 C 219.655 652.235,219.779 652.370,220.070 652.310 C 220.362 652.249,220.740 651.857,220.910 651.438 C 221.215 650.688,221.230 650.688,221.813 651.438 C 222.361 652.144,222.376 652.119,222.012 651.100 C 221.758 650.387,221.757 650.000,222.010 650.000 C 222.224 650.000,222.379 649.865,222.353 649.700 C 222.327 649.535,222.327 644.405,222.353 638.300 L 222.400 627.200 224.024 627.200 C 225.216 627.200,225.567 627.067,225.347 626.700 C 225.111 626.308,225.174 626.303,225.637 626.677 C 226.637 627.485,227.319 626.631,227.424 624.437 C 227.478 623.317,227.360 622.400,227.161 622.400 C 226.963 622.400,226.800 620.150,226.800 617.400 C 226.800 614.650,226.946 612.400,227.123 612.400 C 227.301 612.400,227.436 611.605,227.423 610.634 C 227.411 609.663,227.228 608.898,227.018 608.934 C 226.808 608.970,226.606 608.775,226.568 608.500 C 226.531 608.225,226.478 607.814,226.450 607.586 C 226.416 607.301,226.159 607.301,225.629 607.584 C 225.205 607.811,224.620 607.906,224.329 607.795 C 222.910 607.254,71.245 607.405,70.427 607.949 M68.297 619.883 C 68.220 621.378,68.156 620.260,68.155 617.400 C 68.155 614.540,68.218 613.318,68.296 614.683 C 68.374 616.049,68.374 618.389,68.297 619.883 M58.297 644.683 C 58.220 646.178,58.156 645.060,58.155 642.200 C 58.155 639.340,58.218 638.118,58.296 639.483 C 58.374 640.849,58.374 643.189,58.297 644.683 M48.298 683.479 C 48.226 685.636,48.167 683.980,48.167 679.800 C 48.166 675.620,48.225 673.856,48.298 675.879 C 48.370 677.903,48.371 681.323,48.298 683.479 M38.289 716.100 C 38.201 716.815,38.128 716.230,38.128 714.800 C 38.128 713.370,38.201 712.785,38.289 713.500 C 38.378 714.215,38.378 715.385,38.289 716.100 M28.289 736.100 C 28.201 736.815,28.128 736.230,28.128 734.800 C 28.128 733.370,28.201 732.785,28.289 733.500 C 28.378 734.215,28.378 735.385,28.289 736.100 M18.297 759.883 C 18.220 761.378,18.156 760.260,18.155 757.400 C 18.155 754.540,18.218 753.318,18.296 754.683 C 18.374 756.049,18.374 758.389,18.297 759.883 M153.214 800.329 C 152.986 800.405,152.800 800.706,152.800 800.998 C 152.800 801.290,152.535 801.490,152.212 801.443 C 151.426 801.328,150.924 800.800,151.600 800.800 C 151.893 800.800,152.020 800.686,151.881 800.547 C 151.742 800.408,151.826 799.926,152.067 799.475 C 152.497 798.671,152.516 798.670,153.066 799.423 C 153.416 799.901,153.472 800.243,153.214 800.329 " stroke="none" fill="#ffffff" fill-rule="evenodd"></path><path id="path1" d="M294.000 22.800 C 295.430 23.258,296.000 23.258,296.000 22.800 C 296.000 22.580,295.325 22.418,294.500 22.440 C 293.161 22.475,293.108 22.514,294.000 22.800 M298.400 22.712 C 298.730 22.826,299.090 23.034,299.200 23.174 C 299.310 23.314,300.030 23.212,300.800 22.948 L 302.200 22.468 300.000 22.486 C 298.790 22.496,298.070 22.598,298.400 22.712 M304.267 22.667 C 303.725 23.208,304.021 23.681,304.600 23.200 C 305.096 22.788,305.205 22.831,305.228 23.451 C 305.251 24.068,305.304 24.090,305.528 23.573 C 305.724 23.121,306.335 22.956,307.724 22.982 C 308.782 23.002,309.862 22.882,310.124 22.715 C 310.386 22.549,309.235 22.409,307.567 22.406 C 305.898 22.403,304.413 22.520,304.267 22.667 M292.440 24.500 C 292.418 25.325,292.580 26.000,292.800 26.000 C 293.258 26.000,293.258 25.430,292.800 24.000 C 292.514 23.108,292.475 23.161,292.440 24.500 M301.200 23.592 C 301.530 23.800,301.818 24.112,301.839 24.285 C 302.103 26.409,302.567 27.977,302.813 27.579 C 302.978 27.312,303.068 26.802,303.013 26.446 C 302.958 26.091,303.113 25.668,303.357 25.506 C 303.655 25.308,303.621 25.210,303.251 25.206 C 302.786 25.201,302.786 25.097,303.251 24.525 C 303.729 23.938,303.714 23.883,303.133 24.100 C 302.736 24.249,302.377 24.117,302.246 23.775 C 302.124 23.459,301.704 23.203,301.313 23.206 C 300.708 23.211,300.691 23.270,301.200 23.592 M213.200 27.957 C 213.200 28.154,213.470 28.418,213.800 28.545 C 214.165 28.685,214.400 28.545,214.400 28.187 C 214.400 27.864,214.130 27.600,213.800 27.600 C 213.470 27.600,213.200 27.761,213.200 27.957 M230.962 28.062 C 230.791 28.339,230.851 28.415,231.114 28.253 C 231.354 28.105,231.736 28.302,231.963 28.692 C 232.335 29.330,232.377 29.311,232.388 28.500 C 232.401 27.548,231.458 27.259,230.962 28.062 M267.600 28.400 C 267.600 28.840,267.758 29.200,267.951 29.200 C 268.476 29.200,269.233 28.166,268.930 27.863 C 268.382 27.316,267.600 27.631,267.600 28.400 M330.962 28.062 C 330.791 28.339,330.851 28.415,331.114 28.253 C 331.354 28.105,331.736 28.302,331.963 28.692 C 332.335 29.330,332.377 29.311,332.388 28.500 C 332.401 27.548,331.458 27.259,330.962 28.062 M212.518 29.300 C 212.557 30.576,213.200 31.591,213.200 30.376 C 213.200 30.143,213.425 30.067,213.700 30.206 C 213.975 30.345,213.906 30.216,213.547 29.920 C 213.187 29.623,212.799 29.025,212.683 28.590 C 212.568 28.156,212.494 28.475,212.518 29.300 M220.117 28.297 C 221.611 28.374,223.951 28.374,225.317 28.296 C 226.682 28.218,225.460 28.155,222.600 28.155 C 219.740 28.156,218.622 28.220,220.117 28.297 M277.300 28.299 C 280.105 28.368,284.695 28.368,287.500 28.299 C 290.305 28.230,288.010 28.174,282.400 28.174 C 276.790 28.174,274.495 28.230,277.300 28.299 M316.100 28.298 C 318.245 28.370,321.755 28.370,323.900 28.298 C 326.045 28.226,324.290 28.167,320.000 28.167 C 315.710 28.167,313.955 28.226,316.100 28.298 M208.590 32.682 C 209.025 32.798,209.565 33.099,209.790 33.351 C 210.016 33.603,210.158 33.735,210.106 33.644 C 210.055 33.553,210.295 33.272,210.641 33.020 C 211.151 32.646,210.944 32.552,209.534 32.515 C 208.580 32.491,208.156 32.566,208.590 32.682 M353.042 32.868 C 353.159 33.058,353.419 33.112,353.619 32.988 C 353.820 32.864,354.329 32.948,354.752 33.174 C 355.321 33.479,355.573 33.448,355.724 33.054 C 355.872 32.669,355.502 32.523,354.378 32.523 C 353.526 32.523,352.925 32.678,353.042 32.868 M207.873 33.461 C 207.442 33.892,207.555 35.200,208.024 35.200 C 208.257 35.200,208.345 35.035,208.221 34.834 C 208.097 34.633,208.170 34.408,208.385 34.334 C 208.599 34.260,208.633 33.972,208.460 33.694 C 208.287 33.416,208.023 33.311,207.873 33.461 M356.631 34.103 C 355.955 34.837,355.946 34.906,356.557 34.672 C 357.114 34.458,357.202 34.564,356.999 35.203 C 356.854 35.659,356.929 36.000,357.173 36.000 C 357.408 36.000,357.600 35.370,357.600 34.600 C 357.600 33.830,357.555 33.215,357.500 33.233 C 357.445 33.252,357.054 33.643,356.631 34.103 M203.200 37.957 C 203.200 38.154,203.470 38.418,203.800 38.545 C 204.165 38.685,204.400 38.545,204.400 38.187 C 204.400 37.864,204.130 37.600,203.800 37.600 C 203.470 37.600,203.200 37.761,203.200 37.957 M370.962 38.062 C 370.791 38.339,370.851 38.415,371.114 38.253 C 371.354 38.105,371.736 38.302,371.963 38.692 C 372.335 39.330,372.377 39.311,372.388 38.500 C 372.401 37.548,371.458 37.259,370.962 38.062 M202.518 39.300 C 202.557 40.576,203.200 41.591,203.200 40.376 C 203.200 40.143,203.425 40.067,203.700 40.206 C 203.975 40.345,203.906 40.216,203.547 39.920 C 203.187 39.623,202.799 39.025,202.683 38.590 C 202.568 38.156,202.494 38.475,202.518 39.300 M360.117 38.297 C 361.611 38.374,363.951 38.374,365.317 38.296 C 366.682 38.218,365.460 38.155,362.600 38.155 C 359.740 38.156,358.622 38.220,360.117 38.297 M202.531 45.000 C 202.533 46.540,202.605 47.121,202.692 46.291 C 202.779 45.461,202.777 44.201,202.689 43.491 C 202.600 42.781,202.529 43.460,202.531 45.000 M197.600 48.400 C 197.600 48.840,197.758 49.200,197.951 49.200 C 198.476 49.200,199.233 48.166,198.930 47.863 C 198.382 47.316,197.600 47.631,197.600 48.400 M198.167 60.000 C 198.167 64.290,198.226 66.045,198.298 63.900 C 198.370 61.755,198.370 58.245,198.298 56.100 C 198.226 53.955,198.167 55.710,198.167 60.000 M192.510 69.999 C 192.571 70.811,193.200 71.155,193.200 70.376 C 193.200 70.143,193.380 70.064,193.600 70.200 C 193.820 70.336,194.000 70.353,194.000 70.238 C 194.000 70.122,193.651 69.841,193.225 69.613 C 192.573 69.265,192.459 69.326,192.510 69.999 M192.555 77.400 C 192.556 80.260,192.620 81.378,192.697 79.883 C 192.774 78.389,192.774 76.049,192.696 74.683 C 192.618 73.318,192.555 74.540,192.555 77.400 M188.033 82.544 C 188.511 82.956,190.400 83.166,190.400 82.808 C 190.400 82.583,189.830 82.400,189.133 82.400 C 188.437 82.400,187.942 82.465,188.033 82.544 M188.800 83.521 C 188.800 83.771,188.530 83.871,188.200 83.745 C 187.463 83.462,187.373 84.622,188.100 85.041 C 188.375 85.199,188.468 85.182,188.306 85.004 C 188.145 84.825,188.324 84.451,188.706 84.172 C 189.087 83.893,189.264 83.531,189.099 83.366 C 188.935 83.201,188.800 83.271,188.800 83.521 M371.347 86.300 C 371.630 86.772,371.119 86.960,369.700 86.907 C 369.425 86.897,369.200 87.031,369.200 87.204 C 369.200 87.616,371.943 87.616,372.197 87.205 C 372.304 87.032,372.089 86.645,371.719 86.345 C 371.256 85.970,371.140 85.956,371.347 86.300 M367.067 87.467 C 366.626 87.908,366.753 97.600,367.200 97.600 C 367.446 97.600,367.600 95.600,367.600 92.400 C 367.600 89.540,367.540 87.200,367.467 87.200 C 367.393 87.200,367.213 87.320,367.067 87.467 M188.155 92.600 C 188.156 95.460,188.220 96.578,188.297 95.083 C 188.374 93.589,188.374 91.249,188.296 89.883 C 188.218 88.518,188.155 89.740,188.155 92.600 M182.667 97.867 C 182.520 98.013,182.403 98.328,182.406 98.567 C 182.409 98.805,182.576 98.742,182.776 98.426 C 183.079 97.946,183.244 97.939,183.779 98.382 C 184.326 98.836,184.382 98.818,184.166 98.257 C 183.909 97.586,183.146 97.388,182.667 97.867 M182.510 99.999 C 182.571 100.811,183.200 101.155,183.200 100.376 C 183.200 100.143,183.380 100.064,183.600 100.200 C 183.820 100.336,184.000 100.353,184.000 100.238 C 184.000 100.122,183.651 99.841,183.225 99.613 C 182.573 99.265,182.459 99.326,182.510 99.999 M367.254 100.324 C 367.224 100.621,366.984 100.725,366.700 100.565 C 366.300 100.339,366.300 100.390,366.700 100.821 C 367.451 101.631,367.301 102.177,366.500 101.549 C 365.862 101.049,365.850 101.063,366.363 101.717 C 367.070 102.617,367.734 102.044,367.488 100.746 C 367.390 100.226,367.284 100.036,367.254 100.324 M182.555 107.400 C 182.556 110.260,182.620 111.378,182.697 109.883 C 182.774 108.389,182.774 106.049,182.696 104.683 C 182.618 103.318,182.555 104.540,182.555 107.400 M178.800 113.521 C 178.800 113.771,178.530 113.871,178.200 113.745 C 177.463 113.462,177.373 114.622,178.100 115.041 C 178.375 115.199,178.468 115.182,178.306 115.004 C 178.145 114.825,178.324 114.451,178.706 114.172 C 179.087 113.893,179.264 113.531,179.099 113.366 C 178.935 113.201,178.800 113.271,178.800 113.521 M361.347 116.300 C 361.512 116.575,361.457 116.800,361.224 116.800 C 360.991 116.800,360.800 116.980,360.800 117.200 C 360.800 117.695,361.872 117.730,362.172 117.245 C 362.293 117.050,362.089 116.645,361.719 116.345 C 361.256 115.970,361.140 115.956,361.347 116.300 M357.067 117.467 C 356.626 117.908,356.753 127.600,357.200 127.600 C 357.446 127.600,357.600 125.600,357.600 122.400 C 357.600 119.540,357.540 117.200,357.467 117.200 C 357.393 117.200,357.213 117.320,357.067 117.467 M178.155 122.600 C 178.156 125.460,178.220 126.578,178.297 125.083 C 178.374 123.589,178.374 121.249,178.296 119.883 C 178.218 118.518,178.155 119.740,178.155 122.600 M172.667 127.867 C 172.520 128.013,172.403 128.328,172.406 128.567 C 172.409 128.805,172.576 128.742,172.776 128.426 C 173.079 127.946,173.244 127.939,173.779 128.382 C 174.326 128.836,174.382 128.818,174.166 128.257 C 173.909 127.586,173.146 127.388,172.667 127.867 M172.510 129.999 C 172.571 130.811,173.200 131.155,173.200 130.376 C 173.200 130.143,173.380 130.064,173.600 130.200 C 173.820 130.336,174.000 130.353,174.000 130.238 C 174.000 130.122,173.651 129.841,173.225 129.613 C 172.573 129.265,172.459 129.326,172.510 129.999 M357.254 130.324 C 357.222 130.631,356.994 130.723,356.700 130.547 C 356.409 130.372,356.451 130.561,356.800 130.998 C 357.349 131.686,357.336 131.726,356.643 131.466 C 355.993 131.221,355.960 131.269,356.406 131.808 C 357.083 132.623,357.725 131.993,357.488 130.746 C 357.390 130.226,357.284 130.036,357.254 130.324 M172.531 135.000 C 172.533 136.540,172.605 137.121,172.692 136.291 C 172.779 135.461,172.777 134.201,172.689 133.491 C 172.600 132.781,172.529 133.460,172.531 135.000 M167.600 138.226 C 167.600 138.516,167.808 138.881,168.062 139.038 C 168.348 139.215,168.415 139.148,168.238 138.862 C 168.071 138.591,168.201 138.400,168.553 138.400 C 168.883 138.400,169.250 138.243,169.369 138.050 C 169.488 137.858,169.139 137.700,168.593 137.700 C 168.039 137.700,167.600 137.933,167.600 138.226 M168.167 150.000 C 168.167 154.290,168.226 156.045,168.298 153.900 C 168.370 151.755,168.370 148.245,168.298 146.100 C 168.226 143.955,168.167 145.710,168.167 150.000 M351.150 150.200 C 351.123 150.310,351.069 150.625,351.032 150.900 C 350.994 151.175,350.716 151.345,350.414 151.277 C 349.961 151.176,349.956 151.265,350.381 151.777 C 351.181 152.741,352.405 152.571,352.372 151.500 C 352.346 150.673,352.319 150.663,352.041 151.373 C 351.697 152.251,351.245 151.763,351.416 150.700 C 351.515 150.091,351.285 149.660,351.150 150.200 M346.800 160.000 C 346.800 164.800,346.947 167.600,347.200 167.600 C 347.453 167.600,347.600 164.800,347.600 160.000 C 347.600 155.200,347.453 152.400,347.200 152.400 C 346.947 152.400,346.800 155.200,346.800 160.000 M162.680 157.853 C 162.526 158.007,162.403 158.328,162.406 158.567 C 162.409 158.805,162.576 158.742,162.776 158.426 C 163.091 157.927,163.230 157.927,163.835 158.426 C 164.442 158.927,164.505 158.924,164.332 158.400 C 164.114 157.740,163.122 157.411,162.680 157.853 M162.510 159.999 C 162.571 160.811,163.200 161.155,163.200 160.376 C 163.200 160.143,163.380 160.064,163.600 160.200 C 163.820 160.336,164.000 160.353,164.000 160.238 C 164.000 160.122,163.651 159.841,163.225 159.613 C 162.573 159.265,162.459 159.326,162.510 159.999 M162.567 170.000 C 162.567 174.290,162.626 176.045,162.698 173.900 C 162.770 171.755,162.770 168.245,162.698 166.100 C 162.626 163.955,162.567 165.710,162.567 170.000 M347.246 170.324 C 347.221 170.612,347.040 170.749,346.845 170.628 C 346.650 170.507,346.515 170.718,346.545 171.097 C 346.581 171.549,346.287 171.803,345.687 171.838 C 344.133 171.930,344.182 172.400,345.746 172.400 C 347.296 172.400,347.820 171.833,347.480 170.523 C 347.377 170.126,347.272 170.036,347.246 170.324 M157.600 178.218 C 157.600 178.970,158.097 179.218,158.663 178.748 C 159.440 178.103,159.322 177.640,158.400 177.710 C 157.960 177.743,157.600 177.972,157.600 178.218 M159.757 178.188 C 159.805 178.512,159.924 178.827,160.022 178.888 C 160.120 178.950,160.157 178.927,160.103 178.837 C 160.050 178.747,160.207 178.432,160.452 178.137 C 160.792 177.727,160.752 177.600,160.284 177.600 C 159.947 177.600,159.710 177.865,159.757 178.188 M158.167 190.000 C 158.167 194.290,158.226 196.045,158.298 193.900 C 158.370 191.755,158.370 188.245,158.298 186.100 C 158.226 183.955,158.167 185.710,158.167 190.000 M152.639 197.894 C 152.507 198.026,152.403 198.328,152.406 198.567 C 152.409 198.805,152.576 198.742,152.776 198.426 C 153.077 197.950,153.247 197.941,153.770 198.375 C 154.293 198.809,154.400 198.802,154.400 198.334 C 154.400 197.770,153.090 197.443,152.639 197.894 M152.512 200.023 C 152.580 200.932,153.020 201.045,153.332 200.233 C 153.452 199.921,153.303 199.572,153.001 199.456 C 152.644 199.319,152.473 199.516,152.512 200.023 M152.567 210.000 C 152.567 214.290,152.626 216.045,152.698 213.900 C 152.770 211.755,152.770 208.245,152.698 206.100 C 152.626 203.955,152.567 205.710,152.567 210.000 M341.200 216.859 C 341.200 217.107,340.770 217.211,340.200 217.102 C 339.650 216.997,339.200 217.066,339.200 217.255 C 339.200 217.713,341.891 217.701,342.174 217.242 C 342.296 217.045,342.126 216.781,341.798 216.654 C 341.469 216.528,341.200 216.620,341.200 216.859 M337.300 217.465 C 336.697 217.708,336.570 232.611,337.168 232.980 C 337.387 233.116,337.555 230.099,337.583 225.542 C 337.608 221.326,337.723 217.724,337.838 217.538 C 338.066 217.170,338.040 217.166,337.300 217.465 M147.600 218.218 C 147.600 218.970,148.097 219.218,148.663 218.748 C 149.440 218.103,149.322 217.640,148.400 217.710 C 147.960 217.743,147.600 217.972,147.600 218.218 M148.167 230.000 C 148.167 234.290,148.226 236.045,148.298 233.900 C 148.370 231.755,148.370 228.245,148.298 226.100 C 148.226 223.955,148.167 225.710,148.167 230.000 M337.055 235.000 C 337.182 235.330,337.106 235.600,336.887 235.600 C 336.668 235.600,336.514 235.915,336.544 236.300 C 336.585 236.814,336.307 236.996,335.500 236.984 C 334.895 236.976,334.400 237.121,334.400 237.308 C 334.400 237.495,335.075 237.592,335.900 237.524 C 337.324 237.406,338.571 234.400,337.196 234.400 C 336.992 234.400,336.929 234.670,337.055 235.000 M142.639 237.894 C 142.135 238.398,142.429 238.874,142.968 238.427 C 143.416 238.055,143.624 238.107,143.956 238.678 C 144.348 239.353,144.376 239.347,144.388 238.585 C 144.399 237.804,143.202 237.331,142.639 237.894 M142.509 239.991 C 142.543 240.436,142.712 240.800,142.885 240.800 C 143.327 240.800,143.279 239.696,142.824 239.415 C 142.618 239.287,142.476 239.547,142.509 239.991 M142.555 247.400 C 142.556 250.260,142.620 251.378,142.697 249.883 C 142.774 248.389,142.774 246.049,142.696 244.683 C 142.618 243.318,142.555 244.540,142.555 247.400 M137.853 252.681 C 137.456 253.078,137.557 254.727,137.995 254.997 C 138.223 255.138,138.289 254.976,138.151 254.616 C 137.969 254.143,138.092 254.054,138.655 254.249 C 139.332 254.484,139.327 254.446,138.600 253.824 C 138.160 253.448,138.025 253.255,138.300 253.394 C 138.575 253.533,138.800 253.457,138.800 253.224 C 138.800 252.991,138.991 252.800,139.224 252.800 C 139.457 252.800,139.512 253.025,139.347 253.300 C 139.159 253.613,139.337 253.580,139.823 253.213 C 140.250 252.890,140.646 252.605,140.702 252.578 C 140.758 252.551,140.196 252.507,139.454 252.479 C 138.712 252.451,137.991 252.542,137.853 252.681 M330.432 256.743 C 330.413 257.056,330.146 257.188,329.800 257.055 C 329.470 256.929,329.200 256.999,329.200 257.213 C 329.200 257.700,331.875 257.726,332.174 257.242 C 332.296 257.045,332.117 256.777,331.777 256.646 C 331.423 256.511,331.263 256.578,331.403 256.805 C 331.537 257.022,331.472 257.200,331.257 257.200 C 331.042 257.200,330.776 256.975,330.665 256.700 C 330.514 256.327,330.455 256.338,330.432 256.743 M327.300 257.465 C 326.697 257.708,326.570 272.611,327.168 272.980 C 327.387 273.116,327.555 270.099,327.583 265.542 C 327.608 261.326,327.723 257.724,327.838 257.538 C 328.066 257.170,328.040 257.166,327.300 257.465 M138.128 260.000 C 138.128 261.430,138.201 262.015,138.289 261.300 C 138.378 260.585,138.378 259.415,138.289 258.700 C 138.201 257.985,138.128 258.570,138.128 260.000 M132.634 262.745 C 132.277 263.322,132.503 266.000,132.908 266.000 C 133.117 266.000,133.169 265.530,133.024 264.953 C 132.844 264.237,132.976 263.668,133.443 263.153 C 134.050 262.482,134.055 262.400,133.486 262.400 C 133.134 262.400,132.751 262.555,132.634 262.745 M132.555 272.600 C 132.556 275.460,132.620 276.578,132.697 275.083 C 132.774 273.589,132.774 271.249,132.696 269.883 C 132.618 268.518,132.555 269.740,132.555 272.600 M327.016 274.827 C 327.161 275.061,326.947 275.525,326.540 275.856 C 326.133 276.188,326.048 276.331,326.352 276.174 C 326.719 275.984,326.841 276.075,326.718 276.444 C 326.615 276.750,326.052 276.990,325.466 276.978 C 324.880 276.965,324.400 277.111,324.400 277.302 C 324.400 277.492,325.075 277.592,325.900 277.524 C 327.348 277.404,328.559 274.400,327.160 274.400 C 326.936 274.400,326.871 274.592,327.016 274.827 M127.606 277.980 C 127.632 278.897,128.312 279.161,128.919 278.489 C 129.541 277.802,129.522 277.760,128.590 277.760 C 128.045 277.760,127.603 277.859,127.606 277.980 M128.184 300.000 C 128.184 309.790,128.236 313.795,128.300 308.900 C 128.363 304.005,128.363 295.995,128.300 291.100 C 128.236 286.205,128.184 290.210,128.184 300.000 M321.849 291.130 C 321.672 291.642,321.633 292.167,321.763 292.297 C 322.178 292.711,322.470 292.100,322.318 291.134 L 322.171 290.200 321.849 291.130 M316.800 300.000 C 316.800 304.800,316.947 307.600,317.200 307.600 C 317.453 307.600,317.600 304.800,317.600 300.000 C 317.600 295.200,317.453 292.400,317.200 292.400 C 316.947 292.400,316.800 295.200,316.800 300.000 M316.942 310.281 C 316.691 310.367,316.571 310.835,316.677 311.319 C 316.832 312.030,316.787 312.084,316.441 311.600 C 316.071 311.082,316.011 311.095,316.006 311.700 C 315.999 312.542,317.133 312.639,317.446 311.823 C 317.767 310.989,317.475 310.097,316.942 310.281 M122.667 317.867 C 122.231 318.303,122.360 318.699,123.021 318.953 C 123.426 319.108,123.542 319.030,123.355 318.727 C 123.170 318.428,123.281 318.346,123.668 318.494 C 124.024 318.631,124.267 318.497,124.267 318.162 C 124.267 317.589,123.150 317.383,122.667 317.867 M122.400 319.976 C 122.400 320.429,122.580 320.800,122.800 320.800 C 123.020 320.800,123.200 320.541,123.200 320.224 C 123.200 319.907,123.020 319.536,122.800 319.400 C 122.580 319.264,122.400 319.523,122.400 319.976 M122.399 330.081 C 122.290 334.415,122.339 337.822,122.509 337.652 C 122.679 337.481,122.769 333.935,122.708 329.771 L 122.598 322.200 122.399 330.081 M311.812 331.163 C 311.646 331.685,311.262 331.892,310.596 331.819 C 310.060 331.761,309.719 331.869,309.837 332.061 C 310.332 332.860,312.400 332.258,312.400 331.315 C 312.400 330.201,312.139 330.133,311.812 331.163 M306.800 340.000 C 306.800 344.800,306.947 347.600,307.200 347.600 C 307.453 347.600,307.600 344.800,307.600 340.000 C 307.600 335.200,307.453 332.400,307.200 332.400 C 306.947 332.400,306.800 335.200,306.800 340.000 M117.600 337.987 C 117.600 338.201,117.915 338.257,118.300 338.113 C 118.936 337.874,118.945 337.921,118.400 338.625 C 117.846 339.341,117.853 339.359,118.496 338.855 C 118.878 338.555,119.093 338.150,118.972 337.955 C 118.676 337.476,117.600 337.502,117.600 337.987 M118.167 350.000 C 118.167 354.290,118.226 356.045,118.298 353.900 C 118.370 351.755,118.370 348.245,118.298 346.100 C 118.226 343.955,118.167 345.710,118.167 350.000 M306.942 350.281 C 306.691 350.368,306.571 350.835,306.677 351.319 C 306.818 351.962,306.766 352.053,306.485 351.657 C 306.214 351.275,306.018 351.246,305.825 351.560 C 305.462 352.147,306.735 352.625,307.261 352.099 C 307.794 351.566,307.533 350.079,306.942 350.281 M112.600 357.933 C 112.228 358.305,112.397 358.713,113.021 358.953 C 113.377 359.089,113.537 359.022,113.397 358.795 C 113.263 358.578,113.343 358.400,113.576 358.400 C 113.809 358.400,114.000 358.250,114.000 358.067 C 114.000 357.707,112.928 357.605,112.600 357.933 M112.400 359.976 C 112.400 360.429,112.580 360.800,112.800 360.800 C 113.020 360.800,113.200 360.541,113.200 360.224 C 113.200 359.907,113.020 359.536,112.800 359.400 C 112.580 359.264,112.400 359.523,112.400 359.976 M301.812 361.163 C 301.646 361.685,301.262 361.892,300.596 361.819 C 300.060 361.761,299.719 361.869,299.837 362.061 C 300.332 362.860,302.400 362.258,302.400 361.315 C 302.400 360.201,302.139 360.133,301.812 361.163 M112.491 369.667 C 112.441 373.774,112.296 377.464,112.170 377.867 C 111.960 378.535,111.978 378.540,112.379 377.920 C 112.669 377.470,112.778 374.694,112.700 369.720 L 112.581 362.200 112.491 369.667 M296.800 365.000 C 296.800 366.467,296.974 367.600,297.200 367.600 C 297.426 367.600,297.600 366.467,297.600 365.000 C 297.600 363.533,297.426 362.400,297.200 362.400 C 296.974 362.400,296.800 363.533,296.800 365.000 M296.942 370.281 C 296.691 370.368,296.571 370.835,296.677 371.319 C 296.818 371.962,296.766 372.053,296.485 371.657 C 296.214 371.275,296.018 371.246,295.825 371.560 C 295.462 372.147,296.735 372.625,297.261 372.099 C 297.794 371.566,297.533 370.079,296.942 370.281 M107.600 377.987 C 107.600 378.201,107.915 378.257,108.300 378.113 C 108.936 377.874,108.945 377.921,108.400 378.625 C 107.846 379.341,107.853 379.359,108.496 378.855 C 108.878 378.555,109.093 378.150,108.972 377.955 C 108.676 377.476,107.600 377.502,107.600 377.987 M108.174 392.400 C 108.174 398.010,108.230 400.305,108.299 397.500 C 108.368 394.695,108.368 390.105,108.299 387.300 C 108.230 384.495,108.174 386.790,108.174 392.400 M290.604 386.763 C 290.850 387.194,290.723 387.273,290.063 387.100 C 289.588 386.976,289.200 387.049,289.200 387.262 C 289.200 387.895,292.117 387.466,292.334 386.800 C 292.494 386.312,292.419 386.292,291.936 386.690 C 291.466 387.078,291.230 387.078,290.812 386.690 C 290.388 386.298,290.347 386.312,290.604 386.763 M287.067 387.467 C 286.653 387.880,286.751 402.723,287.170 402.981 C 287.390 403.118,287.557 399.988,287.583 395.205 C 287.608 390.802,287.561 387.200,287.480 387.200 C 287.400 387.200,287.213 387.320,287.067 387.467 M102.634 402.745 C 102.036 403.713,102.516 405.884,103.185 405.238 C 103.909 404.538,104.084 403.600,103.491 403.600 C 103.284 403.600,103.218 403.330,103.345 403.000 C 103.588 402.367,102.998 402.156,102.634 402.745 M104.000 402.800 C 104.000 403.020,104.270 403.200,104.600 403.200 C 104.930 403.200,105.200 403.020,105.200 402.800 C 105.200 402.580,104.930 402.400,104.600 402.400 C 104.270 402.400,104.000 402.580,104.000 402.800 M287.200 405.024 C 287.200 405.367,287.022 405.537,286.805 405.403 C 286.570 405.258,286.516 405.437,286.673 405.845 C 286.872 406.364,286.797 406.448,286.368 406.189 C 285.908 405.912,285.891 405.959,286.280 406.440 C 286.671 406.924,286.615 407.044,285.971 407.092 C 285.460 407.131,285.283 406.984,285.468 406.676 C 285.625 406.414,285.419 406.470,285.010 406.800 C 284.210 407.445,285.722 407.946,286.994 407.458 C 287.452 407.282,287.797 404.400,287.360 404.400 C 287.272 404.400,287.200 404.681,287.200 405.024 M102.408 425.177 C 102.421 435.146,102.522 443.212,102.632 443.101 C 102.893 442.840,102.846 407.513,102.584 407.251 C 102.475 407.141,102.395 415.208,102.408 425.177 M276.800 437.400 C 276.800 443.933,276.944 447.600,277.200 447.600 C 277.456 447.600,277.600 443.933,277.600 437.400 C 277.600 430.867,277.456 427.200,277.200 427.200 C 276.944 427.200,276.800 430.867,276.800 437.400 M97.600 443.485 C 97.600 444.015,97.843 444.400,98.177 444.400 C 98.544 444.400,98.696 444.101,98.596 443.579 C 98.469 442.919,98.591 442.807,99.219 443.006 C 99.666 443.148,100.000 443.068,100.000 442.821 C 100.000 442.582,99.460 442.428,98.800 442.479 C 97.843 442.552,97.600 442.755,97.600 443.485 M98.167 454.800 C 98.167 459.090,98.226 460.845,98.298 458.700 C 98.370 456.555,98.370 453.045,98.298 450.900 C 98.226 448.755,98.167 450.510,98.167 454.800 M277.246 450.324 C 277.221 450.612,277.022 450.737,276.805 450.603 C 276.570 450.458,276.516 450.637,276.673 451.045 C 276.851 451.511,276.785 451.638,276.468 451.442 C 276.211 451.283,276.000 451.343,276.000 451.576 C 276.000 451.809,275.719 452.000,275.376 452.000 C 275.007 452.000,274.869 451.812,275.038 451.538 C 275.216 451.250,275.148 451.185,274.855 451.366 C 274.088 451.840,274.726 452.349,276.043 452.311 C 277.342 452.274,277.790 451.717,277.480 450.523 C 277.377 450.126,277.272 450.036,277.246 450.324 M92.612 462.721 C 91.973 463.361,92.450 464.800,93.300 464.794 C 94.028 464.789,94.085 464.714,93.600 464.400 C 93.067 464.055,93.067 464.011,93.600 464.000 C 94.125 463.989,94.127 463.941,93.612 463.616 C 92.727 463.056,93.404 462.667,94.366 463.182 C 94.964 463.502,95.200 463.505,95.200 463.190 C 95.200 462.950,95.380 462.864,95.600 463.000 C 95.820 463.136,96.000 463.081,96.000 462.878 C 96.000 462.492,92.981 462.352,92.612 462.721 M92.492 477.100 L 92.400 487.200 91.449 487.200 C 90.926 487.200,90.251 487.499,89.949 487.865 C 89.449 488.471,89.484 488.486,90.331 488.035 C 90.843 487.762,91.517 487.636,91.827 487.755 C 92.733 488.102,92.833 486.823,92.705 476.600 L 92.585 467.000 92.492 477.100 M270.837 470.670 C 271.000 471.608,270.745 472.065,270.179 471.847 C 269.838 471.716,269.662 471.776,269.788 471.980 C 270.302 472.812,272.197 472.218,272.296 471.193 C 272.391 470.211,272.388 470.210,272.009 471.100 C 271.591 472.081,270.972 472.370,271.340 471.413 C 271.464 471.090,271.388 470.716,271.173 470.583 C 270.957 470.450,270.806 470.489,270.837 470.670 M267.300 472.265 C 266.706 472.505,266.573 482.612,267.158 482.974 C 267.362 483.100,267.543 480.916,267.577 477.930 C 267.610 475.034,267.729 472.515,267.842 472.332 C 268.066 471.970,268.039 471.967,267.300 472.265 M266.469 486.516 C 266.145 486.907,266.231 487.047,266.820 487.092 C 267.259 487.125,267.600 486.899,267.600 486.575 C 267.600 485.860,267.038 485.831,266.469 486.516 M88.155 497.400 C 88.156 500.260,88.220 501.378,88.297 499.883 C 88.374 498.389,88.374 496.049,88.296 494.683 C 88.218 493.318,88.155 494.540,88.155 497.400 M87.762 506.462 C 87.629 506.677,87.628 506.961,87.760 507.093 C 87.892 507.225,88.003 507.078,88.006 506.767 C 88.011 506.300,88.081 506.306,88.400 506.800 C 88.745 507.333,88.789 507.333,88.800 506.800 C 88.810 506.311,88.876 506.300,89.156 506.743 C 89.396 507.121,89.583 507.151,89.774 506.843 C 89.924 506.599,89.902 506.386,89.724 506.369 C 89.546 506.353,89.086 506.279,88.702 506.205 C 88.317 506.131,87.894 506.247,87.762 506.462 M192.542 510.489 C 192.596 511.995,194.400 513.437,194.400 511.974 C 194.400 511.742,194.240 511.651,194.045 511.772 C 193.550 512.078,192.556 510.808,193.026 510.470 C 193.621 510.041,193.623 509.295,193.030 509.067 C 192.620 508.909,192.499 509.261,192.542 510.489 M97.867 509.867 C 97.445 510.288,97.556 511.926,98.027 512.216 C 98.590 512.565,99.102 512.038,98.549 511.678 C 98.314 511.525,98.154 510.995,98.194 510.500 C 98.273 509.512,98.256 509.478,97.867 509.867 M167.771 509.906 C 167.535 510.068,167.221 510.526,167.074 510.925 C 166.926 511.324,166.643 511.550,166.445 511.428 C 166.246 511.305,165.993 511.441,165.882 511.730 C 165.737 512.109,166.115 512.252,167.240 512.246 C 168.098 512.241,168.800 512.093,168.800 511.918 C 168.800 511.743,168.636 511.600,168.435 511.600 C 168.235 511.600,168.120 511.150,168.180 510.600 C 168.241 510.050,168.270 509.603,168.245 509.606 C 168.220 509.609,168.007 509.744,167.771 509.906 M182.046 510.700 C 182.021 511.195,181.809 511.600,181.576 511.600 C 181.343 511.600,181.256 511.432,181.383 511.228 C 181.509 511.023,181.426 510.739,181.197 510.598 C 180.968 510.456,180.806 510.489,180.837 510.670 C 181.000 511.608,180.745 512.065,180.179 511.847 C 179.838 511.716,179.655 511.765,179.772 511.955 C 180.539 513.196,182.659 511.986,182.280 510.523 C 182.132 509.950,182.083 509.987,182.046 510.700 M257.097 510.751 C 256.963 511.262,256.681 511.573,256.469 511.443 C 256.257 511.312,255.981 511.471,255.856 511.798 C 255.690 512.231,255.867 512.354,256.514 512.256 C 257.383 512.124,257.820 511.259,257.501 510.303 C 257.413 510.038,257.231 510.239,257.097 510.751 M68.242 607.487 C 67.660 607.636,67.608 607.758,68.016 608.010 C 68.459 608.284,68.458 608.448,68.011 608.986 C 67.638 609.437,67.601 609.761,67.892 610.052 C 68.182 610.342,68.403 610.318,68.617 609.973 C 68.815 609.653,68.759 609.578,68.462 609.762 C 67.802 610.170,67.891 609.652,68.604 608.939 C 68.936 608.607,69.105 608.170,68.980 607.968 C 68.855 607.765,68.928 607.600,69.143 607.600 C 69.358 607.600,69.595 607.786,69.671 608.014 C 69.755 608.266,70.121 608.192,70.605 607.827 C 71.457 607.182,70.160 606.996,68.242 607.487 M109.532 607.500 C 130.504 607.557,164.704 607.557,185.532 607.500 C 206.359 607.443,189.200 607.396,147.400 607.396 C 105.600 607.396,88.559 607.443,109.532 607.500 M224.100 607.632 C 224.575 607.909,225.025 607.909,225.500 607.632 C 226.071 607.299,225.942 607.224,224.800 607.224 C 223.658 607.224,223.529 607.299,224.100 607.632 M226.274 607.859 C 226.122 608.011,226.250 608.420,226.558 608.768 C 226.866 609.115,227.208 609.760,227.320 610.200 C 227.431 610.640,227.492 610.294,227.455 609.431 C 227.392 607.942,226.877 607.257,226.274 607.859 M68.155 617.400 C 68.156 620.260,68.220 621.378,68.297 619.883 C 68.374 618.389,68.374 616.049,68.296 614.683 C 68.218 613.318,68.155 614.540,68.155 617.400 M226.800 617.400 C 226.800 620.467,226.955 622.400,227.200 622.400 C 227.445 622.400,227.600 620.467,227.600 617.400 C 227.600 614.333,227.445 612.400,227.200 612.400 C 226.955 612.400,226.800 614.333,226.800 617.400 M62.634 622.745 C 62.125 623.568,62.506 626.008,63.030 625.291 C 63.408 624.774,63.417 624.532,63.066 624.309 C 62.759 624.113,62.832 624.010,63.280 624.006 C 63.654 624.003,64.104 623.756,64.280 623.459 C 64.456 623.161,64.870 622.815,65.200 622.690 C 65.530 622.565,65.136 622.449,64.324 622.432 C 63.512 622.414,62.751 622.555,62.634 622.745 M227.153 625.300 C 227.127 625.575,227.136 625.964,227.174 626.163 C 227.211 626.363,227.008 626.675,226.721 626.857 C 226.327 627.107,226.364 627.189,226.873 627.194 C 227.363 627.198,227.537 626.874,227.512 626.000 C 227.478 624.806,227.243 624.347,227.153 625.300 M62.531 629.800 C 62.533 631.340,62.605 631.921,62.692 631.091 C 62.779 630.261,62.777 629.001,62.689 628.291 C 62.600 627.581,62.529 628.260,62.531 629.800 M57.600 633.176 C 57.600 633.603,57.799 634.076,58.043 634.226 C 58.344 634.413,58.400 634.196,58.217 633.550 C 58.069 633.028,58.094 632.780,58.274 633.000 C 58.806 633.652,59.594 633.649,59.343 632.995 C 58.999 632.100,57.600 632.246,57.600 633.176 M58.155 642.200 C 58.156 645.060,58.220 646.178,58.297 644.683 C 58.374 643.189,58.374 640.849,58.296 639.483 C 58.218 638.118,58.155 639.340,58.155 642.200 M53.100 647.623 C 52.632 647.902,52.402 648.531,52.406 649.520 C 52.410 650.544,52.522 650.826,52.769 650.436 C 52.965 650.126,53.022 649.602,52.895 649.271 C 52.768 648.940,52.830 648.769,53.032 648.892 C 53.234 649.015,53.664 648.831,53.987 648.482 C 54.508 647.919,54.494 647.878,53.866 648.119 C 53.472 648.270,53.259 648.228,53.385 648.024 C 53.510 647.823,54.422 647.712,55.413 647.778 C 56.404 647.845,57.293 647.773,57.388 647.620 C 57.668 647.167,53.863 647.170,53.100 647.623 M221.842 650.900 C 221.934 651.395,221.902 651.574,221.770 651.298 C 221.475 650.675,220.800 651.041,220.800 651.824 C 220.800 652.454,221.625 652.438,222.094 651.800 C 222.509 651.234,222.471 650.000,222.037 650.000 C 221.838 650.000,221.750 650.405,221.842 650.900 M52.399 659.881 C 52.290 664.105,52.339 667.422,52.509 667.252 C 52.679 667.081,52.769 663.625,52.708 659.571 L 52.598 652.200 52.399 659.881 M216.800 659.800 C 216.800 664.467,216.948 667.200,217.200 667.200 C 217.452 667.200,217.600 664.467,217.600 659.800 C 217.600 655.133,217.452 652.400,217.200 652.400 C 216.948 652.400,216.800 655.133,216.800 659.800 M47.981 667.620 C 47.457 667.952,47.722 668.170,48.500 668.047 C 48.665 668.021,48.800 668.180,48.800 668.400 C 48.800 668.620,48.530 668.800,48.200 668.800 C 47.870 668.800,47.600 669.068,47.600 669.396 C 47.600 669.895,47.731 669.880,48.400 669.307 C 48.840 668.930,49.203 668.347,49.206 668.011 C 49.210 667.593,49.306 667.547,49.509 667.866 C 49.732 668.217,50.045 668.204,50.773 667.814 C 51.709 667.314,51.688 667.296,50.152 667.274 C 49.278 667.262,48.301 667.418,47.981 667.620 M217.246 670.677 C 217.212 671.329,216.994 671.514,216.400 671.400 C 215.960 671.315,215.600 671.435,215.600 671.666 C 215.600 671.897,215.330 671.982,215.000 671.855 C 214.670 671.729,214.400 671.799,214.400 672.013 C 214.400 672.226,215.036 672.400,215.813 672.400 C 217.294 672.400,217.815 671.814,217.480 670.523 C 217.328 669.936,217.284 669.965,217.246 670.677 M48.167 679.800 C 48.167 683.980,48.226 685.636,48.298 683.479 C 48.371 681.323,48.370 677.903,48.298 675.879 C 48.225 673.856,48.166 675.620,48.167 679.800 M211.334 685.093 C 211.475 685.322,211.323 685.732,210.996 686.004 C 210.126 686.725,210.265 687.100,211.400 687.100 C 211.970 687.100,212.400 686.869,212.400 686.563 C 212.400 686.217,212.150 686.119,211.700 686.287 C 211.101 686.512,211.075 686.458,211.519 685.911 C 211.920 685.418,211.929 685.203,211.558 684.974 C 211.271 684.797,211.181 684.845,211.334 685.093 M43.100 687.623 C 42.645 687.894,42.400 688.532,42.400 689.443 C 42.400 690.281,42.562 690.747,42.801 690.599 C 43.022 690.463,43.098 689.932,42.969 689.419 C 42.840 688.907,42.928 688.368,43.163 688.223 C 43.437 688.053,43.493 688.212,43.319 688.666 C 43.078 689.294,43.119 689.308,43.682 688.787 C 44.031 688.464,44.247 688.085,44.162 687.945 C 44.077 687.804,44.896 687.725,45.981 687.769 C 47.066 687.813,47.884 687.736,47.798 687.597 C 47.531 687.165,43.836 687.185,43.100 687.623 M206.800 692.424 C 206.800 695.804,206.941 697.560,207.200 697.400 C 207.432 697.257,207.600 695.063,207.600 692.176 C 207.600 689.125,207.445 687.200,207.200 687.200 C 206.954 687.200,206.800 689.208,206.800 692.424 M42.567 699.800 C 42.567 703.980,42.626 705.636,42.698 703.479 C 42.771 701.323,42.770 697.903,42.698 695.879 C 42.625 693.856,42.566 695.620,42.567 699.800 M207.246 700.876 C 207.206 701.814,207.008 701.972,205.700 702.109 L 204.200 702.266 205.713 702.333 C 207.307 702.404,207.829 701.869,207.480 700.523 C 207.355 700.040,207.277 700.157,207.246 700.876 M37.800 707.600 C 37.566 707.979,37.836 708.152,38.500 708.047 C 38.665 708.021,38.800 708.180,38.800 708.400 C 38.800 708.620,38.530 708.800,38.200 708.800 C 37.870 708.800,37.600 709.068,37.600 709.396 C 37.600 709.895,37.731 709.880,38.400 709.307 C 39.327 708.513,39.467 707.200,38.624 707.200 C 38.307 707.200,37.936 707.380,37.800 707.600 M39.600 707.814 C 39.600 708.269,39.781 708.335,40.300 708.068 C 40.685 707.870,41.270 707.608,41.600 707.486 C 41.930 707.363,41.615 707.249,40.900 707.232 C 39.984 707.209,39.600 707.381,39.600 707.814 M38.128 714.800 C 38.128 716.230,38.201 716.815,38.289 716.100 C 38.378 715.385,38.378 714.215,38.289 713.500 C 38.201 712.785,38.128 713.370,38.128 714.800 M32.880 717.680 C 32.309 718.251,32.223 720.957,32.787 720.608 C 33.000 720.477,33.067 719.836,32.937 719.184 C 32.790 718.449,32.866 718.000,33.137 718.000 C 33.387 718.000,33.461 718.296,33.311 718.687 C 33.078 719.296,33.120 719.307,33.682 718.787 C 34.031 718.464,34.222 718.046,34.108 717.857 C 33.993 717.669,34.282 717.636,34.750 717.784 C 35.254 717.944,35.600 717.880,35.600 717.627 C 35.600 717.044,33.475 717.085,32.880 717.680 M36.484 717.761 C 36.768 718.069,37.060 718.158,37.134 717.958 C 37.208 717.758,37.478 717.715,37.734 717.862 C 37.990 718.008,38.060 717.975,37.890 717.787 C 37.719 717.600,37.217 717.391,36.774 717.323 C 36.103 717.221,36.055 717.294,36.484 717.761 M32.528 724.800 C 32.528 726.230,32.601 726.815,32.689 726.100 C 32.778 725.385,32.778 724.215,32.689 723.500 C 32.601 722.785,32.528 723.370,32.528 724.800 M27.800 727.600 C 27.566 727.979,27.836 728.152,28.500 728.047 C 28.665 728.021,28.800 728.180,28.800 728.400 C 28.800 728.620,28.530 728.800,28.200 728.800 C 27.870 728.800,27.600 729.068,27.600 729.396 C 27.600 729.895,27.731 729.880,28.400 729.307 C 29.327 728.513,29.467 727.200,28.624 727.200 C 28.307 727.200,27.936 727.380,27.800 727.600 M29.600 727.814 C 29.600 728.269,29.781 728.335,30.300 728.068 C 30.685 727.870,31.270 727.608,31.600 727.486 C 31.930 727.363,31.615 727.249,30.900 727.232 C 29.984 727.209,29.600 727.381,29.600 727.814 M28.128 734.800 C 28.128 736.230,28.201 736.815,28.289 736.100 C 28.378 735.385,28.378 734.215,28.289 733.500 C 28.201 732.785,28.128 733.370,28.128 734.800 M201.600 736.600 C 201.192 737.091,201.220 737.200,201.751 737.200 C 202.108 737.200,202.400 736.930,202.400 736.600 C 202.400 736.270,202.332 736.000,202.249 736.000 C 202.166 736.000,201.874 736.270,201.600 736.600 M23.300 738.202 C 23.300 739.152,23.336 739.168,23.950 738.504 C 24.626 737.772,25.843 737.609,26.696 738.136 C 27.022 738.337,27.118 738.251,26.977 737.885 C 26.545 736.759,23.300 737.039,23.300 738.202 M196.806 752.300 C 196.810 761.034,196.971 767.651,197.189 767.995 C 197.428 768.373,197.574 762.867,197.591 752.895 C 197.608 742.475,197.479 737.200,197.208 737.200 C 196.938 737.200,196.802 742.297,196.806 752.300 M22.434 739.380 C 22.412 740.405,22.537 740.823,22.790 740.570 C 23.031 740.329,23.044 739.727,22.824 738.990 C 22.473 737.814,22.468 737.819,22.434 739.380 M22.528 744.800 C 22.528 746.230,22.601 746.815,22.689 746.100 C 22.778 745.385,22.778 744.215,22.689 743.500 C 22.601 742.785,22.528 743.370,22.528 744.800 M17.963 747.352 C 17.504 747.951,17.657 749.979,18.129 749.541 C 18.449 749.243,18.596 748.910,18.456 748.800 C 18.315 748.690,18.145 748.345,18.077 748.032 C 17.982 747.589,18.078 747.566,18.514 747.929 C 18.822 748.184,19.192 748.275,19.337 748.130 C 19.482 747.985,19.603 748.122,19.606 748.433 C 19.611 748.847,19.695 748.870,19.917 748.520 C 20.085 748.256,20.668 747.863,21.211 747.648 C 22.042 747.319,21.864 747.260,20.100 747.280 C 18.945 747.294,17.984 747.326,17.963 747.352 M18.155 757.400 C 18.156 760.260,18.220 761.378,18.297 759.883 C 18.374 758.389,18.374 756.049,18.296 754.683 C 18.218 753.318,18.155 754.540,18.155 757.400 M13.362 762.862 C 13.193 763.135,13.251 763.216,13.504 763.059 C 13.739 762.914,13.992 762.958,14.066 763.158 C 14.140 763.358,14.432 763.269,14.716 762.961 C 15.144 762.495,15.097 762.400,14.439 762.400 C 14.004 762.400,13.519 762.608,13.362 762.862 M12.504 764.700 C 12.489 765.855,12.650 766.800,12.862 766.800 C 13.074 766.800,13.138 766.624,13.005 766.408 C 12.872 766.193,12.958 765.653,13.196 765.208 C 13.457 764.721,13.475 764.400,13.242 764.400 C 13.029 764.400,12.783 763.995,12.693 763.500 C 12.604 763.005,12.519 763.545,12.504 764.700 M12.574 777.200 C 12.574 782.810,12.630 785.105,12.699 782.300 C 12.768 779.495,12.768 774.905,12.699 772.100 C 12.630 769.295,12.574 771.590,12.574 777.200 M197.246 770.867 C 197.221 771.453,196.975 772.024,196.700 772.135 C 196.308 772.293,196.311 772.344,196.713 772.368 C 197.347 772.408,197.730 771.487,197.480 770.523 C 197.354 770.036,197.278 770.148,197.246 770.867 M12.444 790.200 C 12.455 791.080,12.566 791.530,12.692 791.200 C 12.817 790.870,13.073 790.499,13.260 790.376 C 13.447 790.253,13.336 789.803,13.013 789.376 C 12.465 788.653,12.427 788.709,12.444 790.200 M17.752 794.522 C 17.805 796.718,18.844 797.994,19.605 796.800 C 19.860 796.401,19.990 796.368,19.994 796.700 C 20.003 797.432,21.072 797.310,21.366 796.543 C 21.570 796.012,21.509 795.977,21.048 796.360 C 20.605 796.727,20.436 796.718,20.291 796.317 C 20.140 795.899,19.941 795.897,19.252 796.303 C 18.745 796.603,18.400 796.643,18.400 796.403 C 18.400 796.182,18.400 795.865,18.400 795.700 C 18.400 795.535,18.565 795.400,18.767 795.400 C 19.550 795.400,19.620 794.860,18.868 794.622 C 18.087 794.374,17.961 793.817,18.494 792.967 C 18.643 792.728,18.526 792.533,18.234 792.533 C 17.858 792.533,17.718 793.113,17.752 794.522 M67.660 799.843 C 67.623 800.809,67.769 801.600,67.984 801.600 C 68.199 801.600,68.260 801.300,68.119 800.934 C 67.948 800.487,68.017 800.364,68.332 800.558 C 68.589 800.717,68.800 800.672,68.800 800.457 C 68.800 800.242,68.575 799.975,68.300 799.864 C 67.932 799.715,67.920 799.574,68.256 799.330 C 68.593 799.086,68.584 798.882,68.219 798.543 C 67.835 798.187,67.712 798.473,67.660 799.843 M77.260 799.300 C 77.227 799.685,77.020 800.000,76.800 800.000 C 76.580 800.000,76.400 800.191,76.400 800.424 C 76.400 800.657,76.625 800.716,76.900 800.555 C 77.175 800.394,77.057 800.653,76.638 801.131 C 75.849 802.031,75.367 802.300,75.800 801.600 C 75.936 801.380,75.857 801.200,75.624 801.200 C 75.391 801.200,75.200 801.367,75.200 801.571 C 75.200 801.775,74.885 802.024,74.500 802.124 C 74.115 802.225,74.357 802.328,75.038 802.354 C 76.641 802.414,77.719 801.263,77.490 799.735 C 77.396 799.111,77.293 798.915,77.260 799.300 M112.444 800.200 C 112.455 801.080,112.566 801.530,112.692 801.200 C 112.817 800.870,113.073 800.499,113.260 800.376 C 113.447 800.253,113.336 799.803,113.013 799.376 C 112.465 798.653,112.427 798.709,112.444 800.200 M142.444 800.200 C 142.455 801.080,142.566 801.530,142.692 801.200 C 142.817 800.870,143.073 800.499,143.260 800.376 C 143.447 800.253,143.336 799.803,143.013 799.376 C 142.465 798.653,142.427 798.709,142.444 800.200 M152.067 799.475 C 151.826 799.926,151.742 800.408,151.881 800.547 C 152.020 800.686,151.893 800.800,151.600 800.800 C 150.924 800.800,151.426 801.328,152.212 801.443 C 152.535 801.490,152.800 801.290,152.800 800.998 C 152.800 800.706,152.986 800.405,153.214 800.329 C 153.472 800.243,153.416 799.901,153.066 799.423 C 152.516 798.670,152.497 798.671,152.067 799.475 M122.046 799.500 C 122.021 799.775,122.015 800.115,122.034 800.255 C 122.053 800.396,121.854 800.643,121.591 800.805 C 121.247 801.018,121.238 801.176,121.560 801.375 C 122.103 801.711,122.537 800.715,122.280 799.723 C 122.177 799.326,122.072 799.225,122.046 799.500 M162.046 799.500 C 162.021 799.775,162.015 800.115,162.034 800.255 C 162.053 800.396,161.854 800.643,161.591 800.805 C 161.247 801.018,161.238 801.176,161.560 801.375 C 162.103 801.711,162.537 800.715,162.280 799.723 C 162.177 799.326,162.072 799.225,162.046 799.500 M113.900 801.633 C 113.222 802.376,113.243 802.400,114.600 802.400 C 115.370 802.400,116.000 802.208,116.000 801.973 C 116.000 801.729,115.659 801.654,115.203 801.799 C 114.590 801.994,114.461 801.907,114.645 801.426 C 114.952 800.627,114.773 800.677,113.900 801.633 M143.900 801.633 C 143.222 802.376,143.243 802.400,144.600 802.400 C 145.370 802.400,146.000 802.208,146.000 801.973 C 146.000 801.729,145.659 801.654,145.203 801.799 C 144.590 801.994,144.461 801.907,144.645 801.426 C 144.952 800.627,144.773 800.677,143.900 801.633 M153.900 801.633 C 153.222 802.376,153.243 802.400,154.600 802.400 C 155.370 802.400,156.000 802.208,156.000 801.973 C 156.000 801.729,155.659 801.654,155.203 801.799 C 154.590 801.994,154.461 801.907,154.645 801.426 C 154.952 800.627,154.773 800.677,153.900 801.633 M120.526 801.466 C 120.679 801.722,120.579 802.023,120.302 802.134 C 120.026 802.246,120.325 802.351,120.967 802.368 C 121.608 802.386,122.058 802.349,121.967 802.287 C 121.875 802.225,121.450 801.910,121.023 801.587 C 120.596 801.264,120.372 801.210,120.526 801.466 M150.526 801.466 C 150.679 801.722,150.579 802.023,150.302 802.134 C 150.026 802.246,150.325 802.351,150.967 802.368 C 151.608 802.386,152.058 802.349,151.967 802.287 C 151.875 802.225,151.450 801.910,151.023 801.587 C 150.596 801.264,150.372 801.210,150.526 801.466 M160.526 801.466 C 160.679 801.722,160.579 802.023,160.302 802.134 C 160.026 802.246,160.325 802.351,160.967 802.368 C 161.608 802.386,162.058 802.349,161.967 802.287 C 161.875 802.225,161.450 801.910,161.023 801.587 C 160.596 801.264,160.372 801.210,160.526 801.466 " stroke="none" fill="#f0ecf4" fill-rule="evenodd"></path></g></svg>