<svg id="svg" xmlns="http://www.w3.org/2000/svg" xmlns:xlink="http://www.w3.org/1999/xlink" width="400" height="825" viewBox="0, 0, 400,825"><g id="svgg"><path id="path0" d="M277.500 31.259 C 266.500 33.698,248.153 34.485,236.728 33.008 C 207.464 29.224,200.554 43.592,157.615 197.500 C 130.837 293.483,123.285 326.667,97.946 459.677 C 88.011 511.831,82.654 508.640,179.095 508.011 L 257.491 507.500 273.522 442.561 C 282.339 406.845,292.937 369.720,297.073 360.061 C 308.583 333.178,335.681 226.500,340.327 189.779 C 342.604 171.783,350.183 139.158,357.170 117.279 C 364.156 95.401,369.901 69.222,369.936 59.104 L 370.000 40.709 341.250 35.170 C 325.438 32.124,309.125 29.000,305.000 28.228 C 300.875 27.456,288.500 28.820,277.500 31.259 M61.265 641.250 C 55.687 658.438,49.494 680.141,47.504 689.480 C 45.513 698.819,37.387 720.194,29.446 736.980 C 2.959 792.968,4.401 794.251,95.000 795.313 C 194.424 796.480,187.811 799.490,194.911 749.837 C 197.848 729.302,204.547 696.750,209.799 677.500 C 215.051 658.250,220.799 635.188,222.571 626.250 L 225.795 610.000 148.601 610.000 L 71.407 610.000 61.265 641.250 " stroke="none" fill="#000000" fill-rule="evenodd"></path></g></svg>