<svg id="svg" xmlns="http://www.w3.org/2000/svg" xmlns:xlink="http://www.w3.org/1999/xlink" width="400" height="400" viewBox="0, 0, 400,400"><g id="svgg"><path id="path0" d="M193.131 1.616 C 192.242 2.505,191.515 8.035,191.515 13.904 C 191.515 19.774,188.900 35.137,185.704 48.046 C 182.508 60.954,179.137 75.879,178.214 81.212 C 177.291 86.545,175.662 92.000,174.594 93.333 C 172.323 96.169,164.848 131.371,164.848 139.231 C 164.848 151.435,145.863 159.433,133.104 152.604 C 130.486 151.204,118.794 147.973,107.120 145.425 C 95.317 142.849,78.592 136.985,69.439 132.215 C 60.387 127.497,50.878 123.636,48.309 123.636 C 41.979 123.636,42.386 130.070,48.938 133.576 C 51.854 135.137,56.491 138.582,59.241 141.233 C 61.992 143.883,72.043 151.880,81.577 159.003 C 91.111 166.127,100.971 174.573,103.487 177.772 C 106.004 180.972,110.539 184.375,113.564 185.335 C 118.996 187.059,123.636 195.271,123.636 203.157 C 123.636 207.617,73.823 257.041,62.713 263.603 C 38.304 278.022,87.146 274.069,114.245 259.433 C 132.983 249.313,164.848 258.350,164.848 273.785 C 164.848 277.405,167.576 288.173,170.909 297.714 C 174.242 307.254,176.970 318.263,176.970 322.177 C 176.970 326.091,177.978 329.657,179.211 330.101 C 180.443 330.545,181.972 339.091,182.608 349.091 C 183.244 359.091,184.333 368.909,185.027 370.909 C 185.721 372.909,187.574 380.273,189.144 387.273 C 193.959 408.738,203.966 396.385,202.215 371.137 C 201.900 366.596,202.557 361.142,203.675 359.016 C 206.933 352.818,209.277 345.822,209.842 340.606 C 210.131 337.939,213.317 327.030,216.923 316.364 C 226.866 286.952,227.879 282.879,227.879 272.325 C 227.879 257.793,232.840 254.545,255.044 254.545 C 272.005 254.545,320.258 267.944,316.661 271.655 C 316.089 272.245,320.970 272.991,327.507 273.312 C 345.777 274.212,343.516 268.332,315.925 243.198 C 267.537 199.118,268.845 202.975,295.245 182.221 C 314.373 167.184,345.455 134.852,345.455 129.991 C 345.455 125.103,337.428 125.724,321.988 131.806 C 313.561 135.126,301.758 139.116,295.758 140.673 C 289.758 142.231,280.485 145.477,275.152 147.888 C 247.877 160.215,234.485 156.770,230.579 136.423 C 227.036 117.961,225.259 109.987,214.767 65.455 C 209.898 44.788,204.739 21.606,203.304 13.939 C 200.916 1.186,197.590 -2.843,193.131 1.616 " stroke="none" fill="#000000" fill-rule="evenodd"></path></g></svg>