<svg id="svg" version="1.1" xmlns="http://www.w3.org/2000/svg" xmlns:xlink="http://www.w3.org/1999/xlink" width="400" height="446.94835680751174" viewBox="0, 0, 400,446.94835680751174"><g id="svgg"><path id="path0" d="M0.805 28.846 C 0.821 58.666,0.851 59.200,2.481 59.200 C 2.950 59.200,3.213 59.320,3.066 59.468 C 2.465 60.068,4.086 61.163,5.236 60.933 C 6.206 60.739,6.444 60.865,6.782 61.752 C 7.115 62.628,7.429 62.800,8.695 62.800 C 9.883 62.800,10.296 62.995,10.605 63.700 C 10.895 64.362,11.397 64.633,12.500 64.724 C 13.325 64.792,14.023 65.017,14.050 65.224 C 14.078 65.431,14.123 65.825,14.150 66.100 C 14.178 66.375,14.560 66.597,15.000 66.594 C 15.467 66.590,15.890 66.923,16.016 67.394 C 16.180 68.005,16.662 68.248,18.016 68.400 C 19.467 68.563,19.800 68.749,19.800 69.400 C 19.800 70.202,19.968 70.268,22.205 70.354 C 23.045 70.386,23.530 70.673,23.805 71.300 C 24.092 71.954,24.637 72.255,25.800 72.400 C 26.867 72.533,27.400 72.800,27.400 73.200 C 27.400 73.530,27.805 73.858,28.300 73.928 C 28.858 74.007,29.200 74.333,29.200 74.785 C 29.200 75.621,29.959 76.000,31.633 76.000 C 32.391 76.000,32.800 76.205,32.800 76.586 C 32.800 77.361,34.053 78.000,35.574 78.000 C 36.533 78.000,36.800 78.174,36.800 78.800 C 36.800 79.481,37.067 79.600,38.600 79.600 C 39.590 79.600,40.423 79.780,40.450 80.000 C 40.477 80.220,40.523 80.625,40.550 80.900 C 40.578 81.175,40.994 81.456,41.475 81.525 C 42.021 81.602,42.398 81.979,42.475 82.525 C 42.578 83.244,42.902 83.422,44.300 83.523 C 45.845 83.635,46.064 83.787,45.970 84.684 C 45.920 85.169,47.346 85.522,48.492 85.307 C 49.392 85.139,49.653 85.286,49.982 86.152 C 50.329 87.065,50.608 87.200,52.153 87.200 C 53.714 87.200,53.901 87.293,53.721 87.982 C 53.566 88.573,53.771 88.828,54.558 89.025 C 55.191 89.184,55.600 89.565,55.600 89.997 C 55.600 90.718,56.651 91.185,58.300 91.195 C 58.932 91.198,59.200 91.439,59.200 92.000 C 59.200 92.681,59.467 92.800,61.000 92.800 C 62.613 92.800,62.885 92.963,62.766 93.855 C 62.699 94.356,63.822 94.788,65.205 94.794 C 66.274 94.799,66.706 95.015,67.009 95.700 C 67.229 96.195,67.707 96.577,68.073 96.550 C 68.515 96.516,68.658 96.705,68.500 97.115 C 68.327 97.567,68.416 97.640,68.832 97.389 C 69.317 97.097,69.320 97.146,68.851 97.723 C 68.349 98.342,68.475 98.400,70.323 98.400 C 72.115 98.400,72.359 98.502,72.472 99.300 C 72.581 100.069,72.878 100.218,74.510 100.322 C 75.578 100.391,76.317 100.611,76.186 100.822 C 76.058 101.030,76.143 101.200,76.376 101.200 C 76.609 101.200,76.755 101.409,76.700 101.665 C 76.645 101.920,76.960 102.235,77.400 102.365 C 77.840 102.494,78.200 102.870,78.200 103.200 C 78.200 103.618,78.705 103.837,79.862 103.921 C 81.243 104.022,81.565 104.208,81.770 105.021 C 81.984 105.877,82.240 106.000,83.808 106.000 C 85.453 106.000,85.600 106.082,85.600 107.000 C 85.600 107.913,85.751 108.000,87.336 108.000 C 88.817 108.000,89.141 108.153,89.545 109.039 C 89.848 109.704,90.232 109.997,90.609 109.852 C 91.023 109.693,91.200 109.897,91.200 110.534 C 91.200 111.321,91.428 111.457,92.890 111.543 C 94.496 111.638,95.371 112.199,94.957 112.869 C 94.690 113.301,96.617 113.728,97.807 113.501 C 98.681 113.334,98.800 113.451,98.800 114.479 C 98.800 115.122,98.935 115.566,99.100 115.467 C 99.873 115.002,102.597 115.846,102.482 116.516 C 102.397 117.013,102.643 117.200,103.382 117.200 C 104.315 117.200,104.635 117.711,104.447 118.900 C 104.421 119.065,105.210 119.200,106.200 119.200 C 107.866 119.200,108.207 119.436,108.053 120.483 C 107.995 120.877,110.664 121.338,111.390 121.059 C 111.820 120.894,111.959 121.077,111.893 121.715 C 111.810 122.503,112.009 122.613,113.700 122.722 C 115.282 122.823,115.600 122.976,115.600 123.632 C 115.600 124.104,116.000 124.572,116.600 124.800 C 117.222 125.036,117.600 125.493,117.600 126.008 C 117.600 126.463,117.825 126.806,118.100 126.770 C 120.016 126.521,121.200 126.838,121.200 127.600 C 121.200 128.040,121.335 128.379,121.500 128.353 C 123.312 128.067,124.755 128.472,124.872 129.300 C 124.981 130.068,125.279 130.218,126.900 130.322 C 128.411 130.419,128.800 130.590,128.800 131.158 C 128.800 131.550,129.260 132.081,129.823 132.337 C 130.385 132.594,130.740 132.974,130.611 133.182 C 130.238 133.785,131.683 134.322,133.100 134.107 C 134.200 133.940,134.400 134.032,134.400 134.712 C 134.400 135.617,135.123 136.000,136.833 136.000 C 137.475 136.000,138.023 136.180,138.050 136.400 C 138.078 136.620,138.124 137.025,138.154 137.300 C 138.188 137.618,138.863 137.800,140.004 137.800 C 141.562 137.800,141.817 137.919,141.928 138.700 C 142.039 139.485,142.652 139.813,143.700 139.647 C 143.865 139.621,143.979 139.735,143.953 139.900 C 143.730 141.309,144.046 141.600,145.800 141.600 C 147.559 141.600,147.880 141.900,147.641 143.319 C 147.612 143.494,147.815 143.608,148.094 143.572 C 150.002 143.321,151.200 143.638,151.200 144.392 C 151.200 145.287,152.610 145.806,154.207 145.501 C 155.038 145.342,155.200 145.466,155.200 146.255 C 155.200 146.933,155.426 147.200,156.000 147.200 C 156.440 147.200,156.822 147.380,156.850 147.600 C 156.878 147.820,156.923 148.225,156.950 148.500 C 156.979 148.789,157.696 149.051,158.645 149.120 C 159.940 149.215,160.385 149.449,160.736 150.220 C 161.102 151.023,161.473 151.200,162.791 151.200 C 164.121 151.200,164.400 151.336,164.400 151.982 C 164.400 152.574,164.763 152.824,165.900 153.013 C 168.179 153.392,168.503 153.555,168.254 154.203 C 168.092 154.626,168.294 154.800,168.948 154.800 C 169.545 154.800,170.033 155.154,170.327 155.800 C 170.688 156.591,171.077 156.800,172.191 156.800 C 172.966 156.800,173.600 156.967,173.600 157.171 C 173.600 158.098,174.842 158.743,176.203 158.522 C 177.598 158.296,177.812 158.504,177.628 159.906 C 177.592 160.185,177.706 160.388,177.881 160.359 C 179.721 160.049,181.131 160.471,181.364 161.400 C 181.523 162.031,181.898 162.400,182.381 162.400 C 182.802 162.400,183.258 162.751,183.394 163.181 C 183.560 163.704,184.195 164.073,185.321 164.302 C 186.580 164.557,186.971 164.812,186.882 165.321 C 186.785 165.884,187.103 166.000,188.739 166.000 C 190.511 166.000,190.739 166.102,190.964 167.000 C 191.178 167.851,191.446 168.000,192.765 168.000 C 194.288 168.000,195.120 168.758,194.572 169.646 C 194.444 169.852,194.489 169.994,194.670 169.963 C 195.758 169.774,196.400 170.084,196.400 170.800 C 196.400 171.475,196.667 171.600,198.104 171.600 C 199.860 171.600,201.450 172.868,200.286 173.340 C 200.019 173.448,200.659 173.551,201.710 173.568 C 203.365 173.596,203.671 173.733,204.000 174.600 C 204.319 175.438,204.641 175.600,205.990 175.600 C 207.137 175.600,207.600 175.768,207.600 176.186 C 207.600 176.838,208.952 177.715,209.347 177.319 C 209.486 177.180,209.600 177.437,209.600 177.891 C 209.600 178.801,210.312 179.200,211.938 179.200 C 212.666 179.200,213.137 179.489,213.405 180.100 C 213.695 180.762,214.197 181.033,215.300 181.124 C 216.262 181.204,216.800 181.450,216.800 181.810 C 216.800 182.637,218.018 183.132,219.500 182.907 C 220.692 182.726,220.800 182.798,220.800 183.778 C 220.800 184.366,220.944 184.758,221.119 184.650 C 221.538 184.391,222.094 184.810,222.646 185.800 C 223.001 186.436,223.431 186.575,224.746 186.479 C 226.418 186.357,226.421 186.359,226.560 188.100 C 226.583 188.387,227.367 188.685,228.400 188.800 C 229.801 188.956,230.188 189.155,230.144 189.700 C 230.103 190.216,230.389 190.400,231.232 190.400 C 232.116 190.400,232.319 190.545,232.129 191.040 C 231.820 191.847,232.647 192.386,234.205 192.394 C 235.068 192.398,235.523 192.656,235.805 193.300 C 236.110 193.995,236.587 194.228,237.900 194.323 C 239.256 194.421,239.600 194.599,239.600 195.201 C 239.600 195.818,239.947 195.978,241.500 196.078 C 243.212 196.188,243.388 196.289,243.275 197.100 C 243.173 197.832,243.341 198.000,244.175 198.000 C 244.819 198.000,245.200 198.223,245.200 198.600 C 245.200 198.930,245.391 199.200,245.624 199.200 C 245.857 199.200,245.936 199.380,245.800 199.600 C 245.649 199.844,246.258 200.000,247.364 200.000 C 248.766 200.000,249.126 200.129,248.956 200.569 C 248.661 201.339,250.211 202.119,251.625 201.911 C 252.248 201.820,252.676 201.878,252.575 202.040 C 252.209 202.632,253.691 203.600,254.964 203.600 C 255.971 203.600,256.377 203.830,256.727 204.600 C 256.978 205.150,257.457 205.600,257.791 205.600 C 258.133 205.600,258.400 205.951,258.400 206.400 C 258.400 206.840,258.580 207.222,258.800 207.250 C 259.020 207.278,259.380 207.345,259.600 207.400 C 259.820 207.455,260.467 207.523,261.037 207.550 C 261.703 207.582,262.148 207.879,262.279 208.379 C 262.432 208.965,262.893 209.188,264.141 209.279 C 265.519 209.379,265.822 209.554,265.929 210.311 C 266.000 210.812,266.270 211.195,266.529 211.163 C 267.912 210.992,270.017 211.249,269.822 211.564 C 269.431 212.198,270.056 213.200,270.843 213.200 C 271.333 213.200,271.600 213.482,271.600 214.000 C 271.600 214.681,271.867 214.800,273.400 214.800 C 275.053 214.800,275.200 214.881,275.200 215.800 C 275.200 216.350,275.335 216.779,275.500 216.753 C 277.290 216.470,278.800 216.869,278.800 217.624 C 278.800 218.077,278.968 218.344,279.172 218.217 C 279.377 218.091,279.658 218.170,279.796 218.393 C 279.934 218.617,280.667 218.800,281.424 218.800 C 282.533 218.800,282.800 218.955,282.800 219.600 C 282.800 220.133,283.067 220.400,283.600 220.400 C 284.323 220.400,284.463 220.597,284.370 221.484 C 284.326 221.913,285.639 222.340,287.100 222.372 C 287.815 222.387,288.400 222.593,288.400 222.829 C 288.400 223.678,289.571 224.400,290.948 224.400 C 292.145 224.400,292.331 224.521,292.198 225.211 C 292.112 225.657,292.200 225.924,292.393 225.804 C 292.587 225.685,292.850 225.758,292.980 225.967 C 293.109 226.176,293.806 226.251,294.528 226.134 C 295.753 225.935,295.871 226.018,296.284 227.361 C 296.527 228.153,296.583 228.713,296.408 228.605 C 296.234 228.497,295.997 228.767,295.883 229.204 C 295.697 229.914,294.279 230.291,292.707 230.050 C 292.546 230.025,292.301 230.454,292.164 231.002 C 292.026 231.551,291.664 232.000,291.360 232.000 C 291.056 232.000,290.582 232.360,290.307 232.800 C 290.009 233.278,289.374 233.600,288.732 233.600 C 287.715 233.600,286.635 234.312,286.336 235.180 C 286.261 235.396,285.480 235.628,284.600 235.694 C 283.294 235.792,282.977 235.978,282.872 236.707 C 282.751 237.552,281.860 237.853,280.121 237.635 C 279.857 237.602,279.446 237.940,279.207 238.387 C 278.968 238.834,278.373 239.202,277.886 239.205 C 276.207 239.216,275.200 239.681,275.200 240.447 C 275.200 241.006,274.891 241.213,274.000 241.250 C 271.917 241.337,271.808 241.381,271.405 242.300 C 271.123 242.944,270.668 243.202,269.805 243.206 C 268.594 243.212,267.502 243.670,267.566 244.145 C 267.685 245.032,267.430 245.200,265.963 245.200 C 264.662 245.200,264.282 245.364,264.116 246.000 C 264.001 246.440,263.748 246.822,263.553 246.850 C 263.359 246.878,262.975 246.923,262.700 246.950 C 262.425 246.978,262.178 247.225,262.150 247.500 C 262.123 247.775,262.078 248.180,262.050 248.400 C 262.022 248.620,261.190 248.800,260.200 248.800 C 258.547 248.800,258.400 248.881,258.400 249.800 C 258.400 250.734,258.268 250.800,256.382 250.800 C 254.683 250.800,254.383 250.910,254.482 251.500 C 254.574 252.044,254.244 252.244,253.000 252.400 C 251.837 252.545,251.292 252.846,251.005 253.500 C 250.723 254.144,250.268 254.402,249.405 254.406 C 248.008 254.413,247.000 254.949,247.000 255.685 C 247.000 255.968,246.550 256.250,246.000 256.312 C 243.855 256.552,243.130 256.840,243.333 257.369 C 243.480 257.754,242.982 257.979,241.569 258.166 C 239.967 258.379,239.600 258.574,239.600 259.214 C 239.600 259.964,238.674 260.201,236.104 260.108 C 235.832 260.098,235.705 260.246,235.823 260.437 C 236.196 261.040,235.226 262.385,234.594 262.142 C 234.158 261.975,234.000 262.205,234.000 263.008 C 234.000 264.048,233.926 264.090,232.500 263.864 C 230.852 263.602,229.891 263.978,230.079 264.812 C 230.200 265.350,227.345 266.121,226.690 265.727 C 226.520 265.625,226.406 265.689,226.437 265.870 C 226.684 267.287,226.359 267.600,224.643 267.600 C 223.084 267.600,222.857 267.717,222.625 268.642 C 222.395 269.558,222.197 269.664,220.980 269.522 C 219.773 269.381,219.533 269.505,219.098 270.496 C 218.645 271.530,218.447 271.618,216.900 271.481 C 215.342 271.344,215.200 271.409,215.200 272.266 C 215.200 273.090,215.010 273.200,213.591 273.200 C 212.264 273.200,211.903 273.375,211.527 274.200 C 211.101 275.136,210.341 275.353,208.100 275.176 C 207.935 275.163,207.710 275.534,207.600 276.000 C 207.490 276.466,207.249 276.825,207.064 276.797 C 206.607 276.729,205.624 278.115,205.859 278.496 C 206.029 278.771,204.129 278.988,202.911 278.832 C 202.643 278.798,202.308 279.227,202.168 279.785 C 201.950 280.654,201.689 280.800,200.360 280.800 C 199.240 280.800,198.667 281.023,198.307 281.600 C 198.010 282.076,197.374 282.400,196.736 282.400 C 195.143 282.400,194.400 282.795,194.400 283.643 C 194.400 284.187,194.091 284.417,193.300 284.461 C 192.695 284.494,191.930 284.539,191.600 284.561 C 191.270 284.582,190.942 285.005,190.872 285.500 C 190.766 286.246,190.492 286.401,189.272 286.406 C 187.831 286.412,186.698 286.837,186.766 287.345 C 186.885 288.232,186.630 288.400,185.163 288.400 C 183.862 288.400,183.482 288.564,183.316 289.200 C 183.172 289.749,182.745 290.016,181.953 290.050 C 181.319 290.078,180.613 290.123,180.385 290.150 C 179.843 290.215,179.197 291.272,179.450 291.681 C 179.558 291.856,179.225 292.000,178.709 292.000 C 178.040 292.000,177.752 292.243,177.707 292.845 C 177.621 293.975,177.617 293.978,175.489 294.058 C 174.468 294.097,173.703 294.243,173.790 294.383 C 174.157 294.978,173.271 295.570,171.875 295.664 C 170.686 295.744,170.326 295.956,170.144 296.683 C 169.953 297.442,169.646 297.600,168.364 297.600 C 167.046 297.600,166.778 297.749,166.564 298.600 C 166.343 299.481,166.099 299.600,164.519 299.600 C 163.062 299.600,162.686 299.750,162.516 300.400 C 162.353 301.022,161.970 301.200,160.797 301.200 C 159.520 301.200,159.248 301.354,159.036 302.200 C 158.829 303.022,158.542 303.200,157.421 303.200 C 156.158 303.200,154.800 304.020,154.800 304.782 C 154.800 304.961,154.440 305.201,154.000 305.316 C 153.560 305.431,153.200 305.812,153.200 306.163 C 153.200 306.751,152.056 307.033,150.494 306.829 C 150.024 306.767,149.151 308.353,149.409 308.800 C 149.473 308.910,148.747 308.973,147.796 308.941 C 146.281 308.889,146.036 309.000,145.826 309.841 C 145.597 310.750,144.522 311.077,142.545 310.840 C 142.295 310.810,141.978 311.233,141.841 311.780 C 141.631 312.617,141.369 312.767,140.194 312.723 C 138.739 312.668,138.200 312.942,138.200 313.733 C 138.200 313.990,137.390 314.290,136.400 314.400 C 134.998 314.556,134.569 314.777,134.462 315.400 C 134.285 316.427,134.463 316.339,132.330 316.450 C 131.222 316.507,130.543 316.717,130.636 316.973 C 130.942 317.813,130.153 318.359,128.490 318.457 C 127.210 318.532,126.800 318.720,126.800 319.232 C 126.800 319.603,126.427 320.004,125.970 320.124 C 125.514 320.243,125.043 320.714,124.924 321.170 C 124.727 321.921,123.146 322.321,121.481 322.041 C 121.306 322.012,121.192 322.215,121.228 322.494 C 121.390 323.728,121.138 324.000,119.833 324.000 C 118.000 324.000,117.205 324.347,117.468 325.033 C 117.658 325.528,115.947 325.871,114.340 325.661 C 114.197 325.642,113.969 326.071,113.832 326.613 C 113.621 327.455,113.351 327.600,112.000 327.600 C 110.643 327.600,110.379 327.744,110.164 328.600 C 109.998 329.262,109.623 329.610,109.057 329.631 C 107.477 329.687,106.625 329.951,106.211 330.513 C 105.847 331.007,104.350 331.536,102.900 331.683 C 102.625 331.711,102.400 332.063,102.400 332.467 C 102.400 332.985,102.078 333.218,101.300 333.261 C 99.660 333.352,99.444 333.394,98.917 333.723 C 98.652 333.890,98.527 334.266,98.640 334.560 C 98.760 334.874,98.493 335.187,97.993 335.318 C 97.524 335.440,97.039 335.931,96.914 336.407 C 96.733 337.099,96.455 337.240,95.544 337.106 C 94.915 337.014,94.400 337.095,94.400 337.287 C 94.400 337.478,94.085 337.582,93.700 337.518 C 93.223 337.437,93.037 337.623,93.118 338.100 C 93.202 338.604,92.951 338.814,92.218 338.850 C 91.658 338.878,91.020 338.945,90.800 339.000 C 90.580 339.055,90.130 339.123,89.800 339.150 C 89.470 339.178,89.200 339.560,89.200 340.000 C 89.200 340.681,88.933 340.800,87.400 340.800 C 85.747 340.800,85.600 340.881,85.600 341.800 C 85.600 342.715,85.450 342.800,83.847 342.800 C 82.430 342.800,82.053 342.953,81.884 343.600 C 81.741 344.147,81.338 344.400,80.611 344.400 C 79.236 344.400,78.000 345.070,78.000 345.814 C 78.000 346.243,77.511 346.400,76.176 346.400 C 75.063 346.400,74.449 346.556,74.600 346.800 C 74.736 347.020,74.662 347.200,74.436 347.200 C 74.210 347.200,74.129 347.470,74.255 347.800 C 74.441 348.284,74.097 348.400,72.471 348.400 C 70.686 348.400,70.441 348.503,70.328 349.300 C 70.258 349.795,69.930 350.200,69.600 350.200 C 68.841 350.200,68.436 350.749,68.593 351.566 C 68.691 352.071,68.338 352.200,66.858 352.200 C 65.665 352.200,64.982 352.379,64.950 352.700 C 64.922 352.975,64.877 353.380,64.850 353.600 C 64.823 353.820,63.979 354.000,62.976 354.000 C 61.973 354.000,61.242 354.144,61.350 354.319 C 61.738 354.947,60.975 355.515,59.474 355.715 C 57.841 355.933,57.400 356.192,57.400 356.933 C 57.400 357.190,56.950 357.454,56.400 357.520 C 55.850 357.585,55.130 357.749,54.800 357.883 C 54.470 358.017,54.065 358.098,53.900 358.064 C 53.735 358.029,53.600 358.360,53.600 358.800 C 53.600 359.480,53.333 359.600,51.828 359.600 C 50.295 359.600,50.038 359.721,49.928 360.500 C 49.846 361.078,49.478 361.446,48.900 361.528 L 48.000 361.656 48.000 339.028 C 48.000 319.310,48.076 316.400,48.592 316.400 C 48.918 316.400,49.295 315.960,49.430 315.423 C 49.579 314.828,50.013 314.398,50.538 314.323 C 51.079 314.246,51.448 313.865,51.528 313.300 C 51.638 312.521,51.895 312.400,53.428 312.400 C 54.933 312.400,55.200 312.280,55.200 311.600 C 55.200 310.840,56.375 310.523,58.289 310.768 C 58.557 310.802,58.892 310.373,59.032 309.815 C 59.256 308.921,59.496 308.800,61.043 308.800 C 62.650 308.800,62.800 308.715,62.800 307.800 C 62.800 306.865,62.932 306.800,64.827 306.800 C 66.651 306.800,66.829 306.722,66.608 306.024 C 66.393 305.349,66.585 305.232,68.081 305.124 C 69.413 305.028,69.889 304.797,70.195 304.100 C 70.412 303.605,70.888 303.200,71.251 303.200 C 71.624 303.200,72.023 302.763,72.164 302.200 C 72.385 301.319,72.629 301.200,74.208 301.200 C 75.193 301.200,75.979 301.065,75.953 300.900 C 75.721 299.434,76.027 299.100,77.397 299.322 C 78.758 299.543,80.000 298.898,80.000 297.971 C 80.000 297.767,80.525 297.600,81.167 297.600 C 82.855 297.600,83.600 297.219,83.600 296.357 C 83.600 295.726,83.901 295.600,85.400 295.600 C 86.390 295.600,87.179 295.465,87.153 295.300 C 86.960 294.079,87.282 293.600,88.300 293.595 C 89.992 293.586,91.200 293.162,91.200 292.576 C 91.200 292.238,91.817 292.001,92.900 291.923 C 94.313 291.821,94.622 291.648,94.728 290.900 C 94.807 290.343,95.133 290.000,95.584 290.000 C 96.028 290.000,96.411 289.609,96.564 289.000 C 96.795 288.080,97.927 287.696,99.676 287.945 C 99.827 287.966,100.064 287.627,100.203 287.192 C 100.427 286.486,102.061 286.094,103.700 286.353 C 103.865 286.379,103.971 286.265,103.936 286.100 C 103.778 285.352,104.564 284.399,105.343 284.395 C 106.994 284.384,108.000 283.914,108.000 283.153 C 108.000 282.527,108.304 282.400,109.800 282.400 C 111.333 282.400,111.600 282.281,111.600 281.600 C 111.600 280.868,112.667 280.513,114.121 280.760 C 114.541 280.831,115.600 279.767,115.600 279.275 C 115.600 279.065,115.960 278.799,116.400 278.684 C 116.879 278.559,117.200 278.138,117.200 277.637 C 117.200 276.899,117.437 276.800,119.200 276.800 C 120.300 276.800,121.179 276.665,121.153 276.500 C 120.949 275.211,121.267 274.744,122.300 274.812 C 124.385 274.950,124.800 274.815,124.800 274.000 C 124.800 273.240,125.975 272.923,127.889 273.168 C 128.157 273.202,128.490 272.783,128.627 272.236 C 128.835 271.406,129.149 271.222,130.538 271.121 C 131.501 271.051,132.221 270.790,132.250 270.500 C 132.278 270.225,132.322 269.820,132.350 269.600 C 132.378 269.380,133.210 269.200,134.200 269.200 C 135.733 269.200,136.000 269.081,136.000 268.400 C 136.000 267.756,136.267 267.600,137.367 267.600 C 139.252 267.600,140.000 267.247,140.000 266.357 C 140.000 265.679,140.426 265.415,141.300 265.553 C 141.465 265.579,141.600 265.150,141.600 264.600 C 141.600 263.659,143.167 263.216,145.300 263.553 C 145.465 263.579,145.600 263.240,145.600 262.800 C 145.600 262.183,145.867 262.000,146.767 262.000 C 148.455 262.000,149.200 261.619,149.200 260.757 C 149.200 260.127,149.500 260.000,150.992 260.000 C 152.571 260.000,152.815 259.881,153.036 259.000 C 153.256 258.123,153.503 258.000,155.043 258.000 C 156.533 258.000,156.800 257.879,156.800 257.200 C 156.800 256.639,157.068 256.398,157.700 256.395 C 159.365 256.384,160.400 255.919,160.400 255.181 C 160.400 254.733,160.744 254.407,161.300 254.328 C 161.878 254.246,162.246 253.878,162.328 253.300 C 162.445 252.472,163.888 252.067,165.700 252.353 C 165.865 252.379,166.000 251.935,166.000 251.366 C 166.000 250.421,166.130 250.339,167.500 250.422 C 169.737 250.556,170.000 250.472,170.000 249.623 C 170.000 248.995,170.326 248.822,171.700 248.723 C 173.113 248.621,173.422 248.448,173.528 247.700 C 173.638 246.925,173.896 246.800,175.384 246.800 C 176.895 246.800,177.145 246.674,177.364 245.800 C 177.581 244.938,177.840 244.800,179.245 244.800 C 180.523 244.800,180.919 244.632,181.078 244.022 C 181.225 243.463,181.693 243.209,182.741 243.122 C 183.793 243.034,184.308 242.753,184.588 242.116 C 184.801 241.630,185.341 241.180,185.788 241.116 C 186.279 241.046,186.651 240.644,186.728 240.100 C 186.838 239.326,187.096 239.200,188.581 239.200 C 189.970 239.200,190.347 239.044,190.516 238.400 C 190.667 237.823,191.062 237.600,191.930 237.600 C 193.654 237.600,194.400 237.225,194.400 236.357 C 194.400 235.726,194.701 235.600,196.200 235.600 C 197.853 235.600,198.000 235.519,198.000 234.600 C 198.000 233.684,198.148 233.600,199.773 233.600 C 201.195 233.600,201.596 233.441,201.800 232.800 C 201.955 232.312,202.433 231.981,203.027 231.950 C 203.562 231.923,204.180 231.855,204.400 231.800 C 204.620 231.745,204.980 231.678,205.200 231.650 C 205.420 231.623,205.600 231.260,205.600 230.843 C 205.600 230.370,205.974 229.993,206.600 229.836 C 207.188 229.688,207.598 229.300,207.595 228.892 C 207.583 227.440,207.083 226.400,206.397 226.400 C 205.973 226.400,205.586 225.997,205.436 225.400 C 205.274 224.754,204.904 224.400,204.392 224.400 C 203.814 224.400,203.600 224.130,203.600 223.400 C 203.600 222.850,203.409 222.400,203.176 222.400 C 202.943 222.400,202.881 222.608,203.038 222.862 C 203.233 223.177,203.146 223.214,202.762 222.977 C 202.453 222.786,201.705 222.681,201.100 222.745 C 200.038 222.856,199.806 222.558,199.972 221.294 C 200.008 221.015,199.894 220.812,199.719 220.841 C 198.114 221.111,196.428 220.717,196.206 220.020 C 196.070 219.592,195.620 219.133,195.205 219.002 C 194.790 218.870,194.394 218.377,194.325 217.906 C 194.230 217.251,193.870 217.016,192.800 216.909 C 190.720 216.700,190.401 216.515,190.394 215.513 C 190.389 214.848,190.294 214.748,190.044 215.143 C 189.804 215.521,189.617 215.551,189.426 215.243 C 189.276 214.999,188.623 214.800,187.976 214.800 C 187.067 214.800,186.800 214.619,186.800 214.000 C 186.800 213.413,186.533 213.200,185.800 213.200 C 184.901 213.200,184.611 212.761,184.727 211.577 C 184.739 211.454,184.001 211.309,183.086 211.255 C 181.221 211.145,181.012 211.027,181.005 210.072 C 181.000 209.393,180.811 209.329,178.544 209.246 C 177.610 209.212,177.303 209.021,177.344 208.500 C 177.380 208.057,177.070 207.753,176.500 207.672 C 176.005 207.602,175.600 207.287,175.600 206.972 C 175.600 206.657,175.409 206.400,175.176 206.400 C 174.943 206.400,174.864 206.220,175.000 206.000 C 175.149 205.759,174.613 205.600,173.651 205.600 C 172.390 205.600,171.999 205.427,171.793 204.777 C 171.649 204.324,171.096 203.788,170.563 203.586 C 170.030 203.383,169.640 202.989,169.697 202.709 C 169.766 202.367,169.177 202.160,167.900 202.078 C 166.171 201.967,166.000 201.866,166.000 200.954 C 166.000 199.992,165.926 199.962,164.200 200.221 L 162.400 200.491 162.400 199.228 C 162.400 198.450,162.208 197.990,161.900 198.030 C 160.785 198.175,160.400 197.961,160.400 197.200 C 160.400 196.519,160.133 196.400,158.608 196.400 C 157.029 196.400,156.785 196.281,156.564 195.400 C 156.350 194.548,156.083 194.400,154.757 194.400 C 153.640 194.400,153.200 194.231,153.200 193.800 C 153.200 193.470,153.009 193.200,152.776 193.200 C 152.543 193.200,152.482 192.975,152.641 192.700 C 152.799 192.425,152.786 192.329,152.612 192.486 C 152.056 192.988,150.809 192.043,151.083 191.328 C 151.253 190.886,151.182 190.764,150.868 190.958 C 150.611 191.117,150.400 191.095,150.400 190.909 C 150.400 190.723,149.823 190.526,149.118 190.472 C 148.413 190.419,147.506 190.020,147.102 189.587 C 146.651 189.103,145.846 188.800,145.012 188.800 C 143.910 188.800,143.632 188.631,143.528 187.900 C 143.444 187.312,143.125 187.000,142.605 186.999 C 142.129 186.999,141.750 186.679,141.659 186.199 C 141.461 185.153,140.886 184.814,139.300 184.806 C 138.269 184.801,138.000 184.635,138.000 184.000 C 138.000 183.560,137.865 183.221,137.700 183.247 C 136.015 183.513,134.472 183.118,134.276 182.370 C 134.157 181.914,133.686 181.443,133.230 181.324 C 132.773 181.204,132.400 180.864,132.400 180.567 C 132.400 179.864,131.131 179.200,129.789 179.200 C 129.062 179.200,128.659 178.947,128.516 178.400 C 128.347 177.753,127.970 177.600,126.553 177.600 C 124.950 177.600,124.800 177.515,124.800 176.600 C 124.800 175.896,124.582 175.600,124.064 175.600 C 123.660 175.600,123.123 175.150,122.873 174.600 C 122.497 173.775,122.136 173.600,120.809 173.600 C 119.275 173.600,119.014 173.372,119.158 172.155 C 119.189 171.888,118.807 171.786,118.205 171.901 C 117.339 172.067,117.200 171.949,117.200 171.047 C 117.200 170.062,117.085 170.000,115.268 170.000 C 113.544 170.000,113.340 169.907,113.368 169.133 C 113.394 168.429,113.136 168.238,112.000 168.117 C 110.122 167.918,109.505 167.677,109.770 167.248 C 109.892 167.052,109.723 166.668,109.396 166.396 C 109.068 166.124,108.800 166.036,108.800 166.200 C 108.800 166.364,108.532 166.276,108.204 166.004 C 107.877 165.732,107.707 165.350,107.828 165.155 C 107.949 164.960,107.812 164.773,107.524 164.739 C 107.236 164.706,106.820 164.636,106.600 164.585 C 106.380 164.534,105.694 164.472,105.076 164.446 C 104.458 164.421,104.054 164.236,104.178 164.036 C 104.689 163.210,103.905 162.551,102.297 162.456 C 100.702 162.362,99.830 161.799,100.243 161.131 C 100.347 160.962,99.975 160.709,99.416 160.568 C 98.776 160.408,98.400 160.033,98.400 159.557 C 98.400 158.928,98.099 158.800,96.628 158.800 C 95.095 158.800,94.838 158.679,94.728 157.900 C 94.622 157.158,94.312 156.979,92.955 156.880 C 91.660 156.785,91.215 156.551,90.864 155.780 C 90.618 155.241,90.143 154.800,89.809 154.800 C 89.467 154.800,89.200 154.449,89.200 154.000 C 89.200 153.560,89.065 153.221,88.900 153.247 C 87.010 153.546,85.597 153.127,85.364 152.200 C 85.145 151.326,84.895 151.200,83.384 151.200 C 81.896 151.200,81.638 151.075,81.528 150.300 C 81.458 149.805,81.150 149.400,80.844 149.400 C 80.538 149.400,80.088 149.040,79.844 148.600 C 79.600 148.160,79.350 147.720,79.289 147.622 C 79.228 147.525,78.463 147.487,77.589 147.539 C 76.129 147.625,76.000 147.550,76.000 146.616 C 76.000 145.807,75.802 145.600,75.028 145.600 C 74.324 145.600,74.020 145.351,73.928 144.700 C 73.802 143.817,73.630 143.740,71.595 143.646 C 70.964 143.617,70.443 143.265,70.195 142.700 C 69.874 141.968,69.480 141.800,68.081 141.800 C 66.497 141.800,66.380 141.729,66.590 140.897 C 66.714 140.401,66.678 140.017,66.508 140.045 C 65.462 140.215,64.856 139.876,64.636 139.000 C 64.423 138.152,64.153 138.000,62.857 138.000 C 61.653 138.000,61.240 137.806,60.911 137.085 C 60.598 136.397,60.113 136.144,58.959 136.066 C 57.467 135.966,56.643 135.378,57.056 134.709 C 57.168 134.528,57.111 134.406,56.930 134.437 C 55.737 134.645,55.200 134.322,55.200 133.400 C 55.200 132.481,55.053 132.400,53.400 132.400 C 52.410 132.400,51.578 132.220,51.550 132.000 C 51.523 131.780,51.477 131.384,51.450 131.119 C 51.423 130.855,50.680 130.569,49.800 130.484 C 47.898 130.299,46.876 129.652,47.681 129.141 C 48.026 128.922,47.834 128.810,47.108 128.806 C 46.282 128.801,45.955 128.559,45.768 127.813 C 45.631 127.271,45.403 126.842,45.260 126.861 C 43.907 127.038,42.400 126.712,42.400 126.243 C 42.400 125.936,42.085 125.547,41.700 125.377 C 40.727 124.949,40.540 124.907,39.363 124.850 C 38.687 124.817,38.252 124.521,38.116 124.000 C 38.001 123.560,37.687 123.200,37.418 123.200 C 37.149 123.200,36.723 122.750,36.473 122.200 C 36.097 121.375,35.736 121.200,34.409 121.200 C 32.969 121.200,32.800 121.097,32.800 120.222 C 32.800 119.339,32.615 119.232,30.900 119.122 C 29.236 119.015,29.014 118.896,29.114 118.167 C 29.202 117.525,29.018 117.341,28.314 117.367 C 27.658 117.391,27.364 117.146,27.272 116.500 C 27.162 115.722,26.905 115.600,25.380 115.600 C 23.838 115.600,23.584 115.476,23.368 114.613 C 23.231 114.071,23.003 113.642,22.860 113.661 C 22.006 113.772,21.600 113.510,21.600 112.847 C 21.600 112.049,20.584 111.615,18.700 111.605 C 18.095 111.602,17.621 111.465,17.647 111.300 C 17.815 110.240,17.473 110.000,15.800 110.000 C 14.240 110.000,14.000 109.888,14.000 109.163 C 14.000 108.680,13.682 108.242,13.249 108.129 C 12.836 108.021,12.298 107.495,12.055 106.960 C 11.659 106.092,11.440 106.016,10.006 106.245 C 8.576 106.474,8.400 106.413,8.400 105.694 C 8.400 104.783,7.680 104.400,5.967 104.400 C 4.912 104.400,4.734 104.230,4.830 103.316 C 4.878 102.847,3.507 102.458,1.700 102.428 L 0.000 102.400 0.000 274.600 L 0.000 446.800 2.400 446.800 C 3.720 446.800,4.800 446.655,4.800 446.477 C 4.800 446.299,5.565 445.984,6.500 445.777 C 7.848 445.478,8.228 445.204,8.334 444.454 C 8.455 443.600,8.613 443.532,9.969 443.749 C 11.283 443.959,11.538 443.864,12.003 442.994 C 12.447 442.165,12.829 442.000,14.310 442.000 C 15.604 442.000,16.031 441.859,15.886 441.479 C 15.776 441.193,16.150 440.518,16.718 439.979 C 17.286 439.441,17.599 439.253,17.414 439.562 C 17.178 439.954,17.224 440.032,17.565 439.821 C 17.834 439.655,17.958 439.267,17.840 438.960 C 17.676 438.532,18.044 438.400,19.405 438.400 C 20.970 438.400,21.215 438.279,21.436 437.400 C 21.656 436.523,21.903 436.400,23.443 436.400 C 25.050 436.400,25.200 436.315,25.200 435.400 C 25.200 434.524,25.373 434.400,26.600 434.400 C 27.451 434.400,28.304 434.096,28.774 433.626 C 29.200 433.200,30.235 432.795,31.074 432.726 C 32.291 432.625,32.625 432.423,32.725 431.725 C 32.802 431.179,33.179 430.802,33.725 430.725 C 34.206 430.656,34.623 430.375,34.650 430.100 C 34.678 429.825,34.723 429.420,34.750 429.200 C 34.777 428.980,35.610 428.800,36.600 428.800 C 38.133 428.800,38.400 428.681,38.400 428.000 C 38.400 427.359,38.667 427.200,39.738 427.200 C 41.052 427.200,42.686 426.019,42.134 425.468 C 41.987 425.320,42.514 425.200,43.305 425.200 C 44.632 425.200,45.733 424.573,46.064 423.627 C 46.139 423.414,46.954 423.197,47.876 423.143 C 48.798 423.090,49.485 422.937,49.403 422.804 C 49.085 422.290,49.858 421.659,51.003 421.497 C 52.681 421.259,53.600 420.801,53.600 420.204 C 53.600 419.923,53.960 419.599,54.400 419.484 C 54.870 419.361,55.200 418.938,55.200 418.459 C 55.200 417.770,55.494 417.625,57.100 417.522 C 58.728 417.417,59.018 417.270,59.129 416.489 C 59.236 415.735,59.479 415.594,60.544 415.665 C 62.032 415.766,62.800 415.395,62.800 414.576 C 62.800 414.214,63.245 413.981,64.000 413.950 C 64.660 413.923,65.380 413.855,65.600 413.800 C 65.820 413.745,66.192 413.678,66.427 413.650 C 66.663 413.622,66.744 413.252,66.607 412.823 C 66.389 412.137,66.586 412.031,68.280 411.923 C 69.448 411.848,70.220 411.604,70.250 411.300 C 70.278 411.025,70.323 410.620,70.350 410.400 C 70.377 410.180,71.210 410.000,72.200 410.000 C 73.733 410.000,74.000 409.881,74.000 409.200 C 74.000 408.760,74.180 408.378,74.400 408.350 C 74.620 408.322,75.025 408.278,75.300 408.250 C 75.575 408.223,75.858 407.795,75.928 407.300 C 76.045 406.472,77.488 406.067,79.300 406.353 C 79.571 406.395,79.768 405.461,79.647 404.700 C 79.621 404.535,80.275 404.397,81.100 404.394 C 82.667 404.387,83.703 403.960,83.618 403.355 C 83.591 403.160,83.980 402.950,84.484 402.888 C 86.644 402.624,87.200 402.363,87.200 401.614 C 87.200 400.979,87.533 400.822,89.100 400.722 C 90.721 400.618,91.019 400.468,91.128 399.700 C 91.210 399.122,91.532 398.800,92.028 398.800 C 92.533 398.800,92.800 398.524,92.800 398.000 C 92.800 397.427,93.083 397.186,93.800 397.150 C 94.350 397.123,94.980 397.055,95.200 397.000 C 95.420 396.945,95.870 396.878,96.200 396.850 C 96.530 396.822,96.800 396.440,96.800 396.000 C 96.800 395.439,97.068 395.198,97.700 395.195 C 99.392 395.184,100.400 394.721,100.400 393.953 C 100.400 393.330,100.703 393.200,102.157 393.200 C 103.719 393.200,103.942 393.084,104.177 392.151 C 104.407 391.233,104.600 391.126,105.720 391.297 C 107.394 391.553,108.000 391.306,108.000 390.367 C 108.000 389.786,108.284 389.600,109.167 389.600 C 110.841 389.600,111.600 389.221,111.600 388.385 C 111.600 387.933,111.942 387.607,112.500 387.528 C 112.995 387.458,113.422 387.175,113.450 386.900 C 113.478 386.625,113.522 386.220,113.550 386.000 C 113.578 385.780,114.410 385.600,115.400 385.600 C 116.933 385.600,117.200 385.481,117.200 384.800 C 117.200 384.195,117.468 383.999,118.300 383.995 C 120.096 383.986,121.264 383.544,121.040 382.960 C 120.762 382.236,121.232 382.009,123.164 381.933 C 124.593 381.877,124.800 381.751,124.800 380.934 C 124.800 380.094,124.980 380.000,126.600 380.000 C 128.133 380.000,128.400 379.881,128.400 379.200 C 128.400 378.605,128.682 378.388,129.500 378.354 C 130.105 378.328,130.780 378.266,131.000 378.215 C 131.220 378.164,131.625 378.094,131.900 378.061 C 132.175 378.027,132.400 377.640,132.400 377.200 C 132.400 376.676,132.667 376.400,133.172 376.400 C 133.668 376.400,133.990 376.078,134.072 375.500 C 134.178 374.756,134.512 374.565,136.000 374.400 C 137.172 374.270,137.764 374.022,137.696 373.689 C 137.568 373.055,138.459 372.744,141.300 372.433 C 141.465 372.415,141.600 372.050,141.600 371.622 C 141.600 370.977,141.926 370.823,143.500 370.722 C 145.106 370.619,145.419 370.464,145.525 369.722 C 145.627 369.001,145.951 368.822,147.325 368.722 C 148.739 368.619,149.021 368.453,149.134 367.653 C 149.252 366.815,149.425 366.732,150.634 366.928 C 151.385 367.050,152.000 366.987,152.000 366.787 C 152.000 366.588,152.277 366.532,152.616 366.662 C 152.955 366.792,153.204 366.741,153.169 366.549 C 153.012 365.692,153.257 365.236,154.000 365.000 C 154.440 364.860,154.800 364.398,154.800 363.973 C 154.800 363.312,155.090 363.200,156.800 363.200 C 157.900 363.200,158.779 363.065,158.753 362.900 C 158.530 361.491,158.846 361.200,160.600 361.200 C 161.590 361.200,162.379 361.065,162.353 360.900 C 162.190 359.873,162.527 359.600,163.957 359.600 C 165.283 359.600,165.550 359.452,165.764 358.600 C 166.008 357.628,166.875 357.375,169.539 357.499 C 169.894 357.516,170.017 357.202,169.899 356.583 C 169.751 355.810,169.905 355.620,170.759 355.521 C 171.347 355.453,171.800 355.147,171.800 354.819 C 171.800 354.462,172.494 354.069,173.598 353.800 C 174.744 353.522,175.444 353.115,175.527 352.681 C 175.648 352.056,177.011 351.751,178.700 351.970 C 178.986 352.007,179.200 351.600,179.200 351.018 C 179.200 350.078,179.338 350.000,181.000 350.000 C 182.533 350.000,182.800 349.881,182.800 349.200 C 182.800 348.595,183.068 348.399,183.900 348.395 C 185.784 348.385,186.800 347.951,186.800 347.153 C 186.800 346.477,188.283 346.107,190.060 346.339 C 190.203 346.358,190.431 345.929,190.568 345.387 C 190.727 344.753,191.099 344.400,191.608 344.400 C 192.133 344.400,192.400 344.131,192.400 343.600 C 192.400 342.952,192.667 342.800,193.800 342.800 C 194.570 342.800,195.200 342.620,195.200 342.400 C 195.200 342.180,195.425 342.045,195.700 342.100 C 195.975 342.155,196.175 341.885,196.144 341.500 C 196.090 340.820,196.980 340.585,198.887 340.777 C 199.320 340.820,199.668 340.468,199.830 339.823 C 200.069 338.872,201.419 338.456,203.300 338.753 C 203.465 338.779,203.600 338.350,203.600 337.800 C 203.600 336.901,203.761 336.800,205.186 336.800 C 206.362 336.800,206.882 336.593,207.200 336.000 C 207.435 335.560,208.027 335.198,208.514 335.195 C 210.185 335.184,211.200 334.718,211.200 333.961 C 211.200 333.493,211.584 333.119,212.233 332.956 C 212.994 332.765,213.215 332.499,213.071 331.948 C 212.892 331.264,214.289 330.890,216.076 331.145 C 216.227 331.166,216.464 330.827,216.603 330.392 C 216.779 329.835,217.209 329.600,218.053 329.600 C 219.702 329.600,220.800 328.934,220.800 327.934 C 220.800 327.207,220.977 327.124,222.134 327.312 C 223.406 327.518,224.508 327.204,224.434 326.655 C 224.315 325.768,224.570 325.600,226.037 325.600 C 227.341 325.600,227.718 325.436,227.885 324.796 C 228.001 324.353,228.524 323.884,229.048 323.752 C 229.631 323.606,230.000 323.220,230.000 322.757 C 230.000 322.127,230.301 322.000,231.800 322.000 C 232.790 322.000,233.571 321.865,233.536 321.700 C 233.322 320.686,234.187 320.000,235.680 320.000 C 236.938 320.000,237.319 319.831,237.484 319.200 C 237.624 318.666,238.044 318.391,238.747 318.372 C 239.997 318.339,241.271 317.883,241.230 317.484 C 241.136 316.587,241.355 316.435,242.900 316.323 C 244.201 316.229,244.691 315.993,244.987 315.319 C 245.278 314.656,245.774 314.408,246.987 314.319 C 247.912 314.251,248.621 313.987,248.650 313.700 C 248.678 313.425,248.722 313.040,248.750 312.843 C 248.778 312.647,249.240 312.376,249.777 312.242 C 250.428 312.078,250.709 311.764,250.619 311.298 C 250.507 310.715,250.790 310.600,252.342 310.600 C 253.964 310.600,254.216 310.486,254.328 309.700 C 254.438 308.921,254.695 308.800,256.228 308.800 C 257.960 308.800,258.037 308.734,257.990 307.300 C 257.985 307.135,258.840 306.910,259.890 306.800 C 261.206 306.662,261.800 306.418,261.800 306.016 C 261.800 305.414,264.181 304.682,265.100 305.001 C 265.430 305.116,265.600 304.753,265.600 303.936 C 265.600 302.722,265.630 302.703,267.153 302.946 C 268.759 303.203,269.955 302.499,269.411 301.618 C 269.257 301.369,269.567 301.200,270.176 301.200 C 271.015 301.200,271.200 301.010,271.200 300.148 C 271.200 299.169,271.298 299.111,272.593 299.321 C 273.359 299.446,274.091 299.376,274.220 299.167 C 274.350 298.958,274.623 298.891,274.828 299.017 C 275.032 299.144,275.200 298.887,275.200 298.447 C 275.200 297.791,275.507 297.624,276.900 297.523 C 278.313 297.421,278.622 297.248,278.728 296.500 C 278.838 295.721,279.095 295.600,280.628 295.600 C 282.353 295.600,282.669 295.304,282.447 293.900 C 282.421 293.735,283.227 293.600,284.237 293.600 C 285.722 293.600,286.114 293.450,286.279 292.821 C 286.432 292.235,286.893 292.012,288.141 291.921 C 289.497 291.822,289.823 291.640,289.925 290.925 C 290.002 290.379,290.379 290.002,290.925 289.925 C 291.406 289.856,291.822 289.575,291.850 289.300 C 291.877 289.025,291.923 288.620,291.950 288.400 C 291.978 288.180,292.810 288.000,293.800 288.000 C 295.333 288.000,295.600 287.881,295.600 287.200 C 295.600 286.589,295.883 286.388,296.800 286.350 C 297.460 286.322,298.180 286.255,298.400 286.200 C 298.620 286.145,298.980 286.078,299.200 286.050 C 299.420 286.022,299.579 285.865,299.553 285.700 C 299.399 284.728,299.773 284.433,301.300 284.323 C 302.713 284.221,303.022 284.048,303.128 283.300 C 303.238 282.522,303.495 282.400,305.020 282.400 C 306.562 282.400,306.816 282.276,307.032 281.413 C 307.169 280.871,307.397 280.442,307.540 280.461 C 308.448 280.580,308.800 280.276,308.800 279.373 C 308.800 278.412,308.908 278.354,310.500 278.473 C 311.993 278.585,312.215 278.493,312.325 277.721 C 312.431 276.979,312.744 276.823,314.325 276.721 C 315.950 276.616,316.218 276.474,316.334 275.653 C 316.450 274.835,316.640 274.733,317.734 274.900 C 319.394 275.153,320.000 274.904,320.000 273.967 C 320.000 273.313,320.296 273.200,322.000 273.200 C 323.867 273.200,324.000 273.133,324.000 272.200 C 324.000 271.281,324.147 271.200,325.800 271.200 C 327.453 271.200,327.600 271.119,327.600 270.200 C 327.600 269.452,327.811 269.200,328.437 269.200 C 328.938 269.200,329.359 268.879,329.484 268.400 C 329.610 267.918,330.033 267.598,330.547 267.595 C 332.194 267.584,333.200 267.113,333.200 266.353 C 333.200 265.716,333.508 265.600,335.200 265.600 C 336.300 265.600,337.179 265.465,337.153 265.300 C 336.937 263.937,337.259 263.600,338.773 263.600 C 339.995 263.600,340.403 263.421,340.600 262.800 C 340.828 262.080,342.510 261.681,344.130 261.963 C 344.311 261.994,344.345 261.834,344.204 261.607 C 343.821 260.986,345.008 260.000,346.139 260.000 C 347.658 260.000,348.400 259.592,348.400 258.757 C 348.400 258.267,348.682 258.000,349.200 258.000 C 349.725 258.000,350.000 257.733,350.000 257.223 C 350.000 256.595,350.326 256.422,351.700 256.323 C 353.013 256.228,353.490 255.995,353.795 255.300 C 354.057 254.703,354.562 254.383,355.295 254.350 C 357.290 254.260,357.399 254.209,357.528 253.300 C 357.638 252.525,357.896 252.400,359.384 252.400 C 360.908 252.400,361.144 252.278,361.371 251.371 C 361.576 250.556,361.855 250.358,362.715 250.414 C 364.488 250.530,365.260 250.420,365.050 250.081 C 364.649 249.432,365.466 248.834,366.887 248.738 C 367.944 248.667,368.487 248.384,368.843 247.720 C 369.114 247.214,369.665 246.800,370.068 246.800 C 370.582 246.800,370.800 246.503,370.800 245.800 C 370.800 244.884,370.948 244.800,372.573 244.800 C 373.995 244.800,374.396 244.641,374.600 244.000 C 374.804 243.359,375.205 243.200,376.627 243.200 C 377.602 243.200,378.379 243.065,378.353 242.900 C 378.144 241.580,378.479 241.240,380.100 241.123 C 381.513 241.021,381.822 240.848,381.928 240.100 C 382.035 239.343,382.302 239.200,383.614 239.200 C 385.081 239.200,386.402 238.135,385.746 237.480 C 385.622 237.356,385.875 237.347,386.309 237.460 C 386.902 237.615,387.159 237.417,387.350 236.656 C 387.564 235.802,387.867 235.627,389.302 235.523 C 390.613 235.428,391.090 235.195,391.395 234.500 C 391.686 233.836,392.126 233.600,393.072 233.600 C 393.876 233.600,394.552 233.318,394.883 232.845 C 395.174 232.430,396.065 232.003,396.864 231.895 C 398.628 231.657,399.200 231.334,399.200 230.576 C 399.200 230.259,399.380 230.000,399.600 230.000 C 399.826 230.000,400.000 228.867,400.000 227.400 L 400.000 224.800 398.627 224.800 C 397.426 224.800,397.237 224.662,397.127 223.700 C 397.009 222.676,396.887 222.608,395.348 222.717 C 393.868 222.821,393.668 222.727,393.440 221.817 C 393.214 220.917,392.979 220.800,391.392 220.800 C 389.747 220.800,389.600 220.718,389.600 219.800 C 389.600 219.000,389.400 218.800,388.600 218.800 C 387.813 218.800,387.600 218.597,387.600 217.847 C 387.600 217.000,387.416 216.892,385.939 216.871 C 384.409 216.850,383.410 216.231,383.824 215.561 C 384.082 215.144,383.174 214.904,381.538 214.955 C 380.734 214.980,380.164 214.857,380.272 214.682 C 380.693 214.003,379.436 213.200,377.951 213.200 C 376.586 213.200,376.400 213.086,376.400 212.252 C 376.400 211.522,376.194 211.315,375.502 211.352 C 375.008 211.378,374.581 211.175,374.552 210.900 C 374.523 210.625,374.477 210.175,374.449 209.900 C 374.420 209.608,373.697 209.352,372.713 209.284 C 371.075 209.171,370.231 208.597,370.667 207.892 C 370.784 207.702,370.637 207.580,370.340 207.621 C 368.953 207.811,366.776 207.562,366.978 207.236 C 367.552 206.307,366.678 205.600,364.957 205.600 C 363.545 205.600,363.200 205.461,363.200 204.895 C 363.200 204.507,362.795 204.012,362.300 203.795 C 361.805 203.578,361.400 203.130,361.400 202.800 C 361.400 202.368,360.868 202.166,359.500 202.078 C 357.771 201.967,357.600 201.866,357.600 200.954 C 357.600 199.992,357.526 199.962,355.800 200.221 C 354.157 200.467,354.000 200.418,354.000 199.659 C 354.000 198.997,352.518 197.650,352.100 197.932 C 351.542 198.310,350.285 197.846,350.116 197.200 C 350.001 196.760,349.678 196.400,349.399 196.400 C 349.120 196.400,348.593 195.944,348.228 195.387 C 347.863 194.829,347.347 194.401,347.082 194.434 C 345.694 194.609,344.886 194.306,344.503 193.466 C 344.175 192.747,343.731 192.519,342.568 192.476 C 341.152 192.423,340.232 191.796,340.628 191.155 C 340.856 190.786,337.752 190.259,337.236 190.578 C 337.011 190.717,336.909 190.473,336.998 190.012 C 337.110 189.428,336.891 189.138,336.211 188.967 C 335.660 188.829,335.169 188.332,335.028 187.768 C 334.895 187.238,334.654 186.825,334.493 186.850 C 333.096 187.064,331.249 186.705,331.047 186.179 C 330.891 185.771,330.978 185.644,331.305 185.809 C 331.577 185.947,331.451 185.776,331.024 185.430 C 330.596 185.083,329.651 184.800,328.924 184.800 C 327.728 184.800,327.397 184.486,327.553 183.500 C 327.579 183.335,326.790 183.200,325.800 183.200 C 324.153 183.200,324.000 183.116,324.000 182.213 C 324.000 181.592,323.814 181.293,323.500 181.408 C 322.796 181.666,322.119 181.141,321.943 180.200 C 321.825 179.571,321.422 179.373,320.053 179.275 C 318.729 179.180,318.263 178.964,318.109 178.375 C 317.948 177.757,317.551 177.600,316.153 177.600 C 314.449 177.600,314.131 177.301,314.353 175.900 C 314.379 175.735,313.590 175.600,312.600 175.600 C 311.067 175.600,310.800 175.481,310.800 174.800 C 310.800 174.099,310.205 173.794,309.130 173.943 C 308.981 173.963,308.751 173.485,308.618 172.881 C 308.396 171.871,308.246 171.794,306.788 171.933 C 305.235 172.081,304.984 171.845,305.127 170.377 C 305.139 170.254,304.414 170.110,303.517 170.057 C 302.382 169.990,301.670 169.689,301.182 169.069 C 300.755 168.526,299.962 168.137,299.156 168.075 C 297.787 167.971,297.076 167.350,297.491 166.619 C 297.621 166.389,297.586 166.329,297.412 166.486 C 296.890 166.957,295.600 166.031,295.600 165.186 C 295.600 164.521,295.323 164.400,293.800 164.400 C 292.787 164.400,292.000 164.213,292.000 163.971 C 292.000 163.120,290.944 162.517,289.525 162.558 C 288.728 162.581,288.128 162.510,288.191 162.400 C 288.705 161.508,287.499 160.400,286.013 160.400 C 284.527 160.400,284.189 160.135,284.353 159.100 C 284.379 158.935,283.950 158.800,283.400 158.800 C 282.850 158.800,282.421 158.665,282.447 158.500 C 282.670 157.091,282.354 156.800,280.600 156.800 C 278.972 156.800,278.732 156.653,278.830 155.716 C 278.871 155.317,277.597 154.861,276.347 154.828 C 275.644 154.809,275.224 154.534,275.084 154.000 C 274.913 153.346,274.538 153.200,273.037 153.200 C 271.439 153.200,271.200 153.091,271.200 152.363 C 271.200 151.862,270.879 151.441,270.400 151.316 C 269.960 151.201,269.600 150.864,269.600 150.567 C 269.600 150.116,268.015 148.919,267.700 149.132 C 267.045 149.575,265.649 149.049,265.458 148.288 C 265.258 147.492,265.024 147.396,263.614 147.530 C 262.133 147.671,262.000 147.605,262.000 146.720 C 262.000 145.871,261.801 145.745,260.329 145.658 C 258.761 145.565,257.414 144.625,257.846 143.925 C 257.943 143.769,257.657 143.712,257.211 143.798 C 256.765 143.884,256.379 143.739,256.354 143.477 C 256.328 143.215,256.283 142.734,256.254 142.409 C 256.224 142.083,255.840 141.799,255.400 141.777 C 252.518 141.632,252.400 141.594,252.400 140.800 C 252.400 140.119,252.133 140.000,250.600 140.000 C 248.847 140.000,248.533 139.712,248.751 138.305 C 248.776 138.143,248.482 138.036,248.098 138.068 C 245.864 138.255,245.200 138.005,245.200 136.976 C 245.200 136.413,245.065 136.031,244.900 136.126 C 244.465 136.378,243.129 135.829,243.205 135.429 C 243.310 134.870,242.283 134.413,240.908 134.406 C 239.865 134.401,239.567 134.207,239.364 133.400 C 239.144 132.523,238.897 132.400,237.357 132.400 C 235.802 132.400,235.600 132.297,235.599 131.500 C 235.599 130.728,235.360 130.584,233.913 130.484 C 232.299 130.373,231.430 129.798,231.850 129.119 C 231.958 128.944,231.599 128.800,231.051 128.800 C 230.323 128.800,230.021 128.558,229.928 127.900 C 229.822 127.152,229.513 126.979,228.100 126.877 C 227.165 126.809,226.378 126.584,226.350 126.377 C 226.322 126.170,226.255 125.820,226.200 125.600 C 226.145 125.380,226.075 125.065,226.044 124.900 C 226.013 124.735,225.813 124.870,225.600 125.200 C 225.342 125.600,225.210 125.633,225.206 125.300 C 225.203 125.025,225.065 124.821,224.900 124.847 C 223.560 125.059,222.423 124.702,222.200 124.000 C 222.003 123.379,221.595 123.200,220.373 123.200 C 219.072 123.200,218.800 123.063,218.800 122.408 C 218.800 121.901,218.448 121.527,217.823 121.370 C 217.241 121.224,216.796 120.785,216.723 120.287 C 216.630 119.653,216.259 119.415,215.200 119.309 C 213.285 119.117,212.705 118.878,212.998 118.403 C 213.135 118.181,213.046 118.000,212.800 118.000 C 212.554 118.000,212.464 117.820,212.600 117.601 C 212.735 117.381,212.521 117.229,212.123 117.264 C 210.372 117.416,209.200 117.167,209.200 116.643 C 209.200 115.983,208.343 115.600,206.864 115.600 C 205.672 115.600,204.445 114.217,205.314 113.854 C 205.581 113.742,205.350 113.684,204.800 113.725 C 203.984 113.786,203.777 113.598,203.673 112.700 C 203.557 111.684,203.411 111.600,201.773 111.600 C 200.524 111.600,200.000 111.435,200.000 111.043 C 200.000 110.378,199.141 110.000,197.631 110.000 C 196.843 110.000,196.398 109.715,196.073 109.000 C 195.697 108.175,195.336 108.000,194.009 108.000 C 192.450 108.000,192.202 107.769,192.375 106.477 C 192.415 106.178,192.138 106.007,191.726 106.077 C 191.290 106.152,190.851 105.847,190.609 105.300 C 190.287 104.573,189.888 104.400,188.533 104.400 C 187.098 104.400,186.837 104.270,186.728 103.500 C 186.622 102.756,186.288 102.565,184.800 102.400 C 183.652 102.272,183.036 102.019,183.100 101.700 C 183.155 101.425,183.009 101.200,182.776 101.200 C 182.543 101.200,182.449 101.044,182.567 100.853 C 182.685 100.662,182.471 100.507,182.091 100.508 C 179.784 100.514,179.282 100.358,179.076 99.570 C 178.957 99.114,178.472 98.639,177.997 98.515 C 177.427 98.366,177.196 98.057,177.315 97.602 C 177.443 97.113,177.250 96.912,176.648 96.906 C 173.918 96.877,173.655 96.793,173.528 95.909 C 173.427 95.207,173.102 94.995,172.000 94.909 C 170.153 94.766,169.494 94.495,169.799 94.002 C 170.091 93.529,168.377 92.800,166.974 92.800 C 166.427 92.800,166.000 92.565,166.000 92.264 C 166.000 91.970,165.549 91.523,164.998 91.272 C 164.446 91.020,164.017 90.677,164.045 90.507 C 164.155 89.829,163.983 89.203,163.700 89.247 C 161.718 89.560,160.400 89.142,160.400 88.200 C 160.400 87.281,160.253 87.200,158.600 87.200 C 157.067 87.200,156.800 87.081,156.800 86.400 C 156.800 85.960,156.665 85.621,156.500 85.647 C 154.725 85.928,153.289 85.513,152.873 84.600 C 152.622 84.050,152.156 83.600,151.836 83.600 C 151.517 83.600,151.198 83.195,151.128 82.700 C 151.015 81.906,150.801 81.814,149.313 81.920 C 147.793 82.028,147.600 81.938,147.369 81.020 C 147.143 80.120,146.906 80.000,145.357 80.000 C 143.750 80.000,143.600 79.915,143.600 79.000 C 143.600 78.084,143.452 78.000,141.827 78.000 C 140.421 78.000,140.003 77.839,139.806 77.220 C 139.670 76.792,139.208 76.330,138.780 76.194 C 138.351 76.057,138.000 75.753,138.000 75.517 C 138.000 74.868,136.714 74.027,135.700 74.013 C 135.205 74.006,134.440 73.640,134.000 73.200 C 133.505 72.705,132.667 72.400,131.800 72.400 C 130.558 72.400,130.400 72.282,130.400 71.357 C 130.400 70.650,130.227 70.381,129.865 70.520 C 128.838 70.914,126.593 70.192,126.711 69.505 C 126.775 69.127,126.445 68.742,125.911 68.573 C 125.410 68.415,124.765 67.951,124.477 67.543 C 124.144 67.069,123.466 66.800,122.605 66.800 C 121.510 66.800,121.232 66.630,121.128 65.900 C 121.019 65.132,120.721 64.982,119.100 64.878 C 117.533 64.778,117.200 64.621,117.200 63.986 C 117.200 63.227,116.613 62.960,114.400 62.712 C 113.696 62.633,113.435 62.391,113.519 61.894 C 113.584 61.505,113.494 61.212,113.319 61.241 C 112.264 61.419,111.640 61.091,111.528 60.300 C 111.415 59.508,111.203 59.415,109.756 59.529 C 108.216 59.650,108.097 59.583,107.876 58.479 C 107.654 57.368,107.548 57.311,106.037 57.486 C 104.578 57.654,104.410 57.577,104.173 56.635 C 103.913 55.597,103.544 55.453,101.500 55.588 C 100.566 55.649,100.400 55.505,100.400 54.630 C 100.400 53.806,100.206 53.600,99.428 53.600 C 98.727 53.600,98.420 53.351,98.328 52.707 C 98.224 51.980,97.905 51.791,96.615 51.694 C 95.126 51.581,94.238 50.986,94.624 50.361 C 94.882 49.944,93.974 49.704,92.338 49.755 C 91.534 49.780,90.964 49.657,91.072 49.482 C 91.493 48.803,90.236 48.000,88.751 48.000 C 87.386 48.000,87.200 47.886,87.200 47.052 C 87.200 46.322,86.994 46.115,86.300 46.152 C 85.597 46.190,85.398 45.982,85.392 45.204 C 85.385 44.312,85.199 44.196,83.603 44.084 C 81.880 43.963,81.025 43.407,81.467 42.692 C 81.584 42.502,81.437 42.380,81.140 42.421 C 79.340 42.668,78.165 42.344,77.795 41.500 C 77.490 40.805,77.013 40.572,75.700 40.477 C 74.318 40.377,74.000 40.207,74.000 39.567 C 74.000 39.095,73.599 38.628,72.997 38.399 C 72.445 38.189,72.040 37.789,72.097 37.509 C 72.166 37.167,71.577 36.960,70.300 36.878 C 68.571 36.767,68.400 36.666,68.400 35.753 C 68.400 35.037,68.200 34.770,67.700 34.821 C 65.658 35.029,64.800 34.786,64.800 34.000 C 64.800 33.560,64.530 33.178,64.200 33.150 C 63.870 33.123,63.420 33.055,63.200 33.000 C 62.980 32.945,62.452 32.877,62.027 32.850 C 61.602 32.822,61.140 32.440,61.000 32.000 C 60.860 31.560,60.509 31.200,60.219 31.200 C 59.929 31.200,59.393 30.744,59.028 30.187 C 58.663 29.629,58.147 29.201,57.882 29.234 C 56.142 29.453,55.249 29.153,55.128 28.307 C 55.024 27.580,54.705 27.391,53.420 27.294 C 51.628 27.158,51.578 27.129,51.438 26.179 C 51.369 25.710,50.892 25.438,49.968 25.340 C 48.122 25.146,47.502 24.882,47.791 24.415 C 47.924 24.199,47.614 23.918,47.102 23.790 C 46.590 23.661,45.997 23.161,45.785 22.678 C 45.391 21.779,45.282 21.736,43.176 21.650 C 42.472 21.621,42.058 21.430,42.200 21.200 C 42.336 20.980,42.246 20.800,42.000 20.800 C 41.754 20.800,41.652 20.639,41.774 20.442 C 42.058 19.982,41.057 19.600,39.567 19.600 C 38.554 19.600,38.238 19.288,38.327 18.377 C 38.339 18.254,37.600 18.109,36.685 18.055 C 35.129 17.963,34.230 17.399,34.624 16.762 C 34.718 16.610,34.358 16.376,33.825 16.242 C 33.221 16.090,32.807 15.660,32.728 15.099 C 32.597 14.179,32.500 14.136,30.363 14.050 C 29.486 14.015,29.064 13.766,28.916 13.200 C 28.747 12.553,28.370 12.400,26.953 12.400 C 25.249 12.400,24.931 12.101,25.153 10.700 C 25.179 10.535,24.403 10.400,23.428 10.400 C 21.953 10.400,21.634 10.263,21.528 9.584 C 21.458 9.135,21.220 8.758,21.000 8.745 C 20.366 8.707,19.204 8.005,19.251 7.688 C 19.387 6.786,19.054 6.593,17.600 6.731 C 16.104 6.874,16.000 6.816,16.000 5.842 C 16.000 4.889,15.860 4.800,14.358 4.800 C 13.085 4.800,12.539 4.576,11.935 3.808 C 11.505 3.262,11.029 2.833,10.877 2.855 C 9.522 3.049,8.421 2.698,8.200 2.000 C 8.060 1.560,7.683 1.200,7.360 1.200 C 7.038 1.200,6.671 0.930,6.545 0.600 C 6.371 0.147,5.638 0.000,3.552 0.000 L 0.790 0.000 0.805 28.846 M50.518 196.000 C 51.322 196.000,51.647 196.246,51.836 197.000 C 52.056 197.877,52.303 198.000,53.843 198.000 C 55.360 198.000,55.600 198.115,55.600 198.837 C 55.600 199.338,55.921 199.759,56.400 199.884 C 57.133 200.076,57.255 200.267,57.170 201.084 C 57.126 201.513,58.439 201.940,59.900 201.972 C 61.037 201.996,61.364 202.294,61.273 203.223 C 61.261 203.346,62.000 203.491,62.915 203.545 C 64.586 203.643,65.277 204.133,64.950 204.985 C 64.839 205.276,65.399 205.479,66.487 205.542 C 67.871 205.623,69.811 206.400,68.631 206.400 C 68.450 206.400,68.517 206.659,68.780 206.976 C 69.043 207.293,69.515 207.454,69.829 207.333 C 70.143 207.213,70.422 207.314,70.450 207.557 C 70.478 207.801,70.523 208.225,70.550 208.500 C 70.580 208.804,71.350 209.048,72.512 209.122 C 73.704 209.199,74.402 209.425,74.365 209.722 C 74.206 210.990,74.461 211.200,76.157 211.200 C 77.697 211.200,77.944 211.323,78.164 212.200 C 78.378 213.051,78.646 213.200,79.961 213.200 C 81.170 213.200,81.552 213.374,81.716 214.000 C 81.841 214.479,82.262 214.800,82.763 214.800 C 83.512 214.800,83.678 215.018,83.566 215.855 C 83.501 216.339,84.603 216.788,85.872 216.794 C 86.885 216.799,87.170 216.984,87.272 217.700 C 87.401 218.609,87.555 218.671,89.900 218.754 C 90.918 218.790,91.200 218.974,91.200 219.600 C 91.200 220.329,91.467 220.400,94.200 220.400 C 97.233 220.400,97.493 220.545,97.247 222.100 C 97.221 222.265,97.540 222.400,97.957 222.400 C 98.435 222.400,98.808 222.777,98.970 223.423 C 99.198 224.332,99.379 224.421,100.601 224.227 C 101.955 224.012,102.830 224.680,102.661 225.800 C 102.627 226.020,103.005 226.258,103.500 226.328 C 105.677 226.637,104.540 228.000,102.100 228.006 C 99.936 228.012,98.688 228.363,98.766 228.945 C 98.886 229.842,98.594 230.000,96.813 230.000 C 95.392 230.000,94.877 230.143,95.008 230.500 C 95.380 231.513,94.526 231.960,91.990 232.079 C 89.526 232.194,89.406 232.246,89.533 233.144 C 89.619 233.761,89.510 233.992,89.218 233.811 C 88.312 233.251,85.600 234.018,85.600 234.835 C 85.600 235.573,83.517 235.907,80.700 235.621 C 80.197 235.570,80.000 235.838,80.000 236.575 C 80.000 237.583,79.950 237.600,77.037 237.600 C 74.346 237.600,74.093 237.668,74.270 238.344 C 74.434 238.975,74.154 239.130,72.432 239.358 C 70.770 239.578,70.400 239.771,70.400 240.414 C 70.400 241.163,68.720 241.454,65.273 241.303 C 64.982 241.290,64.831 241.503,64.935 241.776 C 65.305 242.739,64.562 243.144,62.194 243.272 C 60.175 243.380,59.739 243.538,59.412 244.284 C 59.199 244.770,58.659 245.220,58.212 245.284 C 57.646 245.365,57.415 245.679,57.450 246.324 C 57.485 246.979,57.330 247.182,56.917 247.024 C 56.597 246.901,56.124 246.795,55.867 246.788 C 55.610 246.781,55.737 246.580,56.148 246.341 C 56.900 245.904,56.442 245.212,55.400 245.212 C 55.180 245.212,55.270 245.387,55.600 245.600 C 56.018 245.870,56.048 246.005,55.700 246.044 C 55.425 246.075,55.065 246.142,54.900 246.194 C 54.735 246.246,54.018 246.425,53.306 246.593 C 52.595 246.760,52.117 247.066,52.244 247.271 C 52.872 248.287,52.009 249.584,50.969 249.188 C 50.408 248.975,49.060 248.800,47.974 248.800 L 46.000 248.800 46.000 223.400 C 46.000 198.267,46.008 198.000,46.800 198.000 C 47.486 198.000,47.600 197.733,47.600 196.130 L 47.600 194.261 48.526 195.130 C 49.035 195.609,49.932 196.000,50.518 196.000 " stroke="none" fill="#ececf4" fill-rule="evenodd"></path><path id="path1" d="M7.200 1.092 C 7.530 1.217,7.932 1.518,8.094 1.760 C 8.275 2.031,8.390 1.932,8.394 1.500 C 8.398 1.030,8.105 0.810,7.500 0.832 C 6.899 0.853,6.799 0.939,7.200 1.092 M16.705 6.683 C 17.202 6.779,17.922 6.775,18.305 6.675 C 18.687 6.575,18.280 6.496,17.400 6.501 C 16.520 6.505,16.207 6.587,16.705 6.683 M103.275 55.448 C 103.647 55.558,104.042 55.953,104.152 56.325 C 104.299 56.814,104.332 56.781,104.272 56.205 C 104.225 55.738,103.862 55.375,103.395 55.328 C 102.819 55.268,102.786 55.301,103.275 55.448 M108.500 59.476 C 108.885 59.576,109.515 59.576,109.900 59.476 C 110.285 59.375,109.970 59.293,109.200 59.293 C 108.430 59.293,108.115 59.375,108.500 59.476 M5.500 61.062 C 6.056 61.182,6.400 61.551,6.400 62.028 C 6.400 62.453,6.574 62.800,6.787 62.800 C 7.667 62.800,6.478 60.998,5.556 60.934 C 4.654 60.873,4.651 60.880,5.500 61.062 M144.300 79.882 C 144.795 79.978,145.605 79.978,146.100 79.882 C 146.595 79.787,146.190 79.709,145.200 79.709 C 144.210 79.709,143.805 79.787,144.300 79.882 M48.700 85.462 C 49.256 85.582,49.600 85.951,49.600 86.428 C 49.600 86.853,49.774 87.200,49.987 87.200 C 50.867 87.200,49.678 85.398,48.756 85.334 C 47.854 85.273,47.851 85.280,48.700 85.462 M4.833 104.145 C 4.925 104.225,5.801 104.392,6.779 104.518 C 7.930 104.665,8.354 104.616,7.979 104.379 C 7.445 104.040,4.458 103.819,4.833 104.145 M187.505 104.283 C 188.002 104.379,188.722 104.375,189.105 104.275 C 189.487 104.175,189.080 104.096,188.200 104.101 C 187.320 104.105,187.007 104.187,187.505 104.283 M37.275 123.071 C 37.647 123.169,38.031 123.553,38.129 123.925 C 38.255 124.403,38.321 124.338,38.354 123.700 C 38.389 123.007,38.193 122.811,37.500 122.846 C 36.862 122.879,36.797 122.945,37.275 123.071 M220.195 123.097 C 221.072 123.186,221.924 123.471,222.089 123.730 C 222.286 124.041,222.390 123.963,222.394 123.500 C 222.399 122.921,222.071 122.812,220.500 122.867 C 218.618 122.934,218.615 122.936,220.195 123.097 M140.675 137.859 C 141.157 137.964,141.642 138.353,141.752 138.725 C 141.898 139.211,141.931 139.176,141.873 138.600 C 141.818 138.057,141.472 137.779,140.796 137.734 C 139.961 137.680,139.942 137.700,140.675 137.859 M76.500 147.476 C 76.885 147.576,77.515 147.576,77.900 147.476 C 78.285 147.375,77.970 147.293,77.200 147.293 C 76.430 147.293,76.115 147.375,76.500 147.476 M262.705 147.483 C 263.202 147.579,263.922 147.575,264.305 147.475 C 264.687 147.375,264.280 147.296,263.400 147.301 C 262.520 147.305,262.207 147.387,262.705 147.483 M183.206 163.700 C 183.202 164.170,183.495 164.390,184.100 164.368 C 184.701 164.347,184.801 164.261,184.400 164.108 C 184.070 163.983,183.668 163.682,183.506 163.440 C 183.325 163.169,183.210 163.268,183.206 163.700 M296.033 166.113 C 296.125 166.175,296.485 166.443,296.833 166.707 C 297.342 167.093,297.467 167.071,297.467 166.594 C 297.467 166.267,297.107 166.000,296.667 166.000 C 296.227 166.000,295.942 166.051,296.033 166.113 M305.905 171.883 C 306.402 171.979,307.122 171.975,307.505 171.875 C 307.887 171.775,307.480 171.696,306.600 171.701 C 305.720 171.705,305.407 171.787,305.905 171.883 M330.792 185.064 C 331.019 185.176,331.126 185.397,331.029 185.553 C 330.932 185.710,331.021 186.100,331.228 186.419 C 331.506 186.851,331.567 186.748,331.464 186.021 C 331.389 185.483,331.114 185.001,330.853 184.951 C 330.593 184.901,330.566 184.952,330.792 185.064 M47.600 196.130 C 47.600 198.225,48.506 198.641,50.311 197.377 C 51.442 196.585,51.448 196.000,50.326 196.000 C 49.845 196.000,49.035 195.609,48.526 195.130 L 47.600 194.261 47.600 196.130 M157.705 196.287 C 158.314 196.379,159.214 196.377,159.705 196.282 C 160.197 196.187,159.700 196.111,158.600 196.114 C 157.500 196.117,157.097 196.195,157.705 196.287 M349.275 196.248 C 349.647 196.358,350.042 196.753,350.152 197.125 C 350.299 197.614,350.332 197.581,350.272 197.005 C 350.225 196.538,349.862 196.175,349.395 196.128 C 348.819 196.068,348.786 196.101,349.275 196.248 M94.800 221.365 C 94.800 222.201,94.974 222.322,96.100 222.265 C 96.815 222.229,97.355 222.065,97.300 221.900 C 97.245 221.735,97.200 221.330,97.200 221.000 C 97.200 220.600,96.800 220.400,96.000 220.400 C 94.998 220.400,94.800 220.559,94.800 221.365 M196.400 220.558 C 196.400 220.645,197.120 220.785,198.000 220.869 C 198.880 220.952,199.600 220.881,199.600 220.711 C 199.600 220.540,198.880 220.400,198.000 220.400 C 197.120 220.400,196.400 220.471,196.400 220.558 M390.300 220.682 C 390.795 220.778,391.605 220.778,392.100 220.682 C 392.595 220.587,392.190 220.509,391.200 220.509 C 390.210 220.509,389.805 220.587,390.300 220.682 M99.043 223.433 C 98.667 224.413,98.779 224.678,99.237 223.892 C 99.464 223.502,99.846 223.305,100.086 223.453 C 100.349 223.615,100.409 223.539,100.238 223.262 C 99.838 222.614,99.329 222.687,99.043 223.433 M100.777 224.948 C 101.194 226.076,102.798 226.629,102.595 225.575 C 102.366 224.384,102.053 224.046,101.235 224.107 C 100.666 224.150,100.556 224.352,100.777 224.948 M397.905 224.683 C 398.402 224.779,399.122 224.775,399.505 224.675 C 399.887 224.575,399.480 224.496,398.600 224.501 C 397.720 224.505,397.407 224.587,397.905 224.683 M294.700 226.282 C 295.592 226.454,295.753 226.864,295.694 228.800 C 295.674 229.436,295.735 229.543,295.862 229.095 C 295.971 228.707,296.210 228.483,296.393 228.596 C 296.576 228.709,296.532 228.171,296.296 227.401 C 295.942 226.247,295.684 226.010,294.833 226.054 C 293.891 226.104,293.880 226.124,294.700 226.282 M265.505 245.083 C 266.002 245.179,266.722 245.175,267.105 245.075 C 267.487 244.975,267.080 244.896,266.200 244.901 C 265.320 244.905,265.007 244.987,265.505 245.083 M53.768 245.567 C 52.968 246.360,54.187 246.478,56.200 245.803 C 56.989 245.538,56.989 245.544,56.224 246.167 C 55.796 246.515,55.647 246.800,55.891 246.800 C 56.135 246.800,56.583 246.895,56.887 247.012 C 57.266 247.157,57.440 246.913,57.440 246.236 C 57.440 245.323,54.546 244.795,53.768 245.567 M50.354 247.700 C 50.317 248.412,50.268 248.449,50.120 247.877 C 49.900 247.027,48.663 247.129,48.493 248.011 C 48.275 249.145,51.965 249.677,52.248 248.552 C 52.536 247.403,52.167 246.800,51.176 246.800 C 50.652 246.800,50.385 247.092,50.354 247.700 M166.500 250.676 C 166.885 250.776,167.515 250.776,167.900 250.676 C 168.285 250.575,167.970 250.493,167.200 250.493 C 166.430 250.493,166.115 250.575,166.500 250.676 M220.500 269.476 C 220.885 269.576,221.515 269.576,221.900 269.476 C 222.285 269.375,221.970 269.293,221.200 269.293 C 220.430 269.293,220.115 269.375,220.500 269.476 M312.302 277.800 C 312.197 278.350,312.266 278.800,312.455 278.800 C 312.645 278.800,312.800 278.350,312.800 277.800 C 312.800 277.250,312.731 276.800,312.647 276.800 C 312.562 276.800,312.407 277.250,312.302 277.800 M183.200 288.320 C 183.200 288.496,183.875 288.572,184.700 288.491 C 187.022 288.261,187.191 288.066,185.100 288.032 C 184.055 288.014,183.200 288.144,183.200 288.320 M93.170 336.900 C 92.701 338.478,92.820 338.780,93.603 337.997 C 94.041 337.559,94.400 337.110,94.400 337.000 C 94.400 336.802,93.228 336.707,93.170 336.900 M174.400 353.600 L 173.400 353.920 174.500 353.960 C 175.105 353.982,175.600 353.820,175.600 353.600 C 175.600 353.380,175.555 353.218,175.500 353.240 C 175.445 353.262,174.950 353.424,174.400 353.600 M49.632 360.272 C 49.611 360.845,49.291 361.204,48.700 361.318 L 47.800 361.491 48.713 361.546 C 49.660 361.602,50.227 360.803,49.869 359.913 C 49.756 359.631,49.649 359.792,49.632 360.272 M16.988 439.620 C 16.607 440.235,17.128 440.632,17.642 440.118 C 17.929 439.831,17.936 439.607,17.662 439.439 C 17.439 439.300,17.135 439.382,16.988 439.620 " stroke="none" fill="#f0ecf4" fill-rule="evenodd"></path></g></svg>