<svg id="svg" version="1.1" xmlns="http://www.w3.org/2000/svg" xmlns:xlink="http://www.w3.org/1999/xlink" width="400" height="492.5373134328358" viewBox="0, 0, 400,492.5373134328358"><g id="svgg"><path id="path0" d="M355.145 17.207 C 354.784 17.418,354.376 18.042,354.237 18.595 C 354.098 19.148,353.718 19.600,353.392 19.600 C 353.067 19.600,352.800 19.791,352.800 20.024 C 352.800 20.257,352.950 20.355,353.133 20.241 C 353.317 20.128,353.467 20.287,353.467 20.595 C 353.467 20.903,353.362 21.137,353.233 21.114 C 353.105 21.092,352.677 21.214,352.283 21.386 C 351.888 21.558,351.453 21.587,351.316 21.449 C 351.179 21.312,351.367 21.200,351.733 21.200 C 352.133 21.200,352.400 20.880,352.400 20.400 C 352.400 19.232,351.987 19.395,349.865 21.400 C 348.817 22.390,347.704 23.200,347.392 23.200 C 347.079 23.200,346.425 23.740,345.937 24.400 C 345.269 25.303,344.729 25.600,343.757 25.600 C 342.216 25.600,340.088 26.722,339.772 27.700 C 339.598 28.240,339.072 28.409,337.473 28.440 C 334.316 28.501,333.420 28.858,333.273 30.116 C 333.168 31.016,332.950 31.200,331.990 31.200 C 328.664 31.200,324.674 32.135,323.450 33.202 C 322.381 34.133,321.749 34.319,319.080 34.487 C 316.281 34.662,315.828 34.808,314.680 35.902 C 313.532 36.995,313.050 37.150,310.000 37.407 C 306.363 37.713,304.680 38.329,303.998 39.604 C 303.681 40.196,303.160 40.400,301.962 40.400 C 301.077 40.400,300.436 40.535,300.537 40.700 C 300.638 40.865,300.126 41.013,299.399 41.028 C 298.673 41.044,297.585 41.404,296.983 41.828 C 294.803 43.364,293.826 43.760,292.528 43.635 C 290.795 43.467,288.360 45.365,288.994 46.391 C 289.102 46.566,288.833 46.803,288.395 46.917 C 287.957 47.032,287.700 46.962,287.823 46.763 C 287.946 46.563,287.857 46.400,287.624 46.400 C 287.391 46.400,287.200 46.670,287.200 47.000 C 287.200 47.400,286.800 47.600,286.000 47.600 C 285.340 47.600,284.800 47.751,284.800 47.936 C 284.800 48.120,285.348 48.239,286.017 48.199 C 287.450 48.114,287.032 48.738,285.465 49.022 C 284.051 49.279,283.918 47.555,285.300 46.888 C 286.134 46.486,286.097 46.453,284.800 46.437 C 282.571 46.409,279.922 47.164,278.535 48.223 C 277.510 49.004,276.780 49.200,274.893 49.200 C 273.595 49.200,272.432 49.302,272.308 49.426 C 272.183 49.550,270.865 49.695,269.377 49.749 C 266.904 49.839,266.585 49.952,265.637 51.079 C 264.616 52.291,264.532 52.313,260.301 52.465 C 256.048 52.618,255.989 52.634,254.823 53.910 C 253.903 54.917,253.322 55.200,252.169 55.200 C 249.581 55.200,247.516 56.040,247.046 57.283 C 246.661 58.303,246.449 58.400,244.601 58.400 C 242.379 58.400,240.800 59.216,240.800 60.365 C 240.800 60.968,240.337 61.123,237.935 61.324 C 235.404 61.536,234.940 61.706,233.957 62.782 C 233.346 63.452,232.649 64.000,232.410 64.000 C 232.170 64.000,231.811 64.405,231.612 64.900 C 231.335 65.590,231.245 65.636,231.225 65.100 C 231.164 63.392,226.592 64.531,225.934 66.418 C 225.699 67.091,225.410 67.543,225.291 67.424 C 225.171 67.305,224.797 67.430,224.460 67.703 C 223.971 68.100,223.907 68.099,224.147 67.700 C 224.318 67.415,224.249 67.200,223.986 67.200 C 223.733 67.200,223.431 67.558,223.317 67.996 C 223.203 68.433,222.950 68.692,222.755 68.572 C 222.560 68.451,222.400 68.644,222.400 69.000 C 222.400 69.411,222.582 69.538,222.900 69.347 C 223.205 69.163,223.174 69.325,222.819 69.762 C 222.147 70.589,221.489 69.588,221.931 68.413 C 222.126 67.897,222.075 67.897,221.516 68.413 C 221.165 68.736,221.041 69.060,221.239 69.133 C 221.438 69.207,221.600 69.522,221.600 69.833 C 221.600 70.349,221.201 70.457,218.900 70.567 C 218.515 70.585,218.067 70.927,217.903 71.326 C 217.740 71.725,217.427 71.940,217.208 71.805 C 216.978 71.663,216.909 71.819,217.045 72.174 C 217.788 74.109,201.629 75.856,193.200 74.752 C 189.688 74.292,188.163 74.083,185.800 73.739 C 184.700 73.579,183.675 73.437,183.523 73.424 C 183.087 73.386,181.626 71.707,181.841 71.492 C 181.948 71.386,181.747 71.189,181.396 71.054 C 180.959 70.886,180.852 70.965,181.056 71.305 C 181.289 71.693,181.225 71.696,180.760 71.320 C 180.226 70.889,178.191 70.344,176.906 70.288 C 176.541 70.272,176.527 70.129,176.855 69.733 C 177.177 69.345,177.178 69.200,176.857 69.200 C 176.614 69.200,176.301 68.745,176.162 68.189 C 175.995 67.526,175.752 67.294,175.454 67.515 C 175.198 67.705,174.388 67.632,173.600 67.348 C 172.411 66.921,172.347 66.842,173.176 66.823 C 174.118 66.801,174.125 66.780,173.378 66.233 C 172.779 65.796,172.470 65.773,172.024 66.133 C 171.706 66.390,171.555 66.418,171.688 66.196 C 171.820 65.973,171.675 65.444,171.365 65.019 C 170.961 64.468,170.798 64.412,170.794 64.824 C 170.789 65.292,170.725 65.300,170.449 64.866 C 170.263 64.572,169.951 64.345,169.755 64.361 C 168.897 64.432,168.070 63.912,167.879 63.181 C 167.601 62.119,165.108 61.129,163.192 61.321 C 162.339 61.406,161.653 61.369,161.668 61.238 C 161.861 59.518,159.756 58.403,156.310 58.401 C 153.754 58.400,153.591 58.343,153.027 57.252 C 152.321 55.887,150.123 55.200,146.466 55.200 C 144.723 55.200,144.024 55.040,143.856 54.602 C 143.346 53.274,141.099 52.403,138.175 52.401 C 135.533 52.400,135.296 52.326,134.506 51.257 C 133.607 50.041,133.422 50.003,125.365 49.337 C 123.015 49.143,122.307 48.909,121.233 47.971 C 119.696 46.629,117.850 46.283,113.327 46.488 C 111.527 46.569,110.127 46.519,110.215 46.376 C 110.486 45.937,108.170 43.600,107.464 43.600 C 107.099 43.600,106.800 43.780,106.800 44.000 C 106.800 44.220,107.059 44.400,107.376 44.400 C 107.693 44.400,108.083 44.611,108.242 44.868 C 108.442 45.191,108.295 45.253,107.766 45.067 C 107.023 44.806,107.024 44.816,107.776 45.399 C 108.232 45.751,108.341 46.000,108.040 46.000 C 107.324 46.000,105.350 44.403,106.046 44.387 C 107.505 44.354,104.859 43.200,103.324 43.200 C 102.133 43.200,101.352 42.952,100.800 42.400 C 100.272 41.872,99.467 41.600,98.433 41.600 C 97.555 41.600,96.795 41.385,96.704 41.111 C 96.601 40.803,95.421 40.566,93.503 40.469 C 90.730 40.329,90.446 40.236,90.235 39.398 C 89.944 38.238,88.466 37.712,84.492 37.352 C 81.968 37.123,81.287 36.910,80.704 36.169 C 79.807 35.028,76.992 34.400,72.780 34.400 C 69.936 34.400,69.600 34.321,69.600 33.649 C 69.600 32.404,66.684 31.229,63.527 31.202 C 63.377 31.201,63.145 30.857,63.012 30.437 C 62.636 29.254,59.955 28.400,56.612 28.400 C 54.550 28.400,53.542 28.235,53.320 27.863 C 52.494 26.477,47.808 25.233,43.300 25.203 C 43.025 25.201,42.800 24.958,42.800 24.662 C 42.800 23.161,41.238 22.600,37.058 22.600 C 33.332 22.600,32.940 22.526,32.271 21.700 C 31.698 20.993,31.142 20.804,29.671 20.818 L 27.800 20.835 29.330 21.381 C 31.258 22.068,31.426 22.245,30.833 22.961 C 30.568 23.280,30.407 23.786,30.476 24.086 C 30.544 24.386,30.204 25.434,29.721 26.415 C 29.238 27.397,28.747 28.518,28.631 28.906 C 28.515 29.294,27.978 29.780,27.438 29.986 C 26.010 30.529,25.903 31.881,25.885 49.727 C 25.871 63.516,25.955 65.713,26.578 68.000 C 27.400 71.012,27.567 75.484,26.998 79.200 C 26.779 80.630,26.654 84.320,26.720 87.400 C 26.847 93.322,26.906 144.937,26.798 155.800 C 26.763 159.320,26.879 165.080,27.055 168.600 C 27.513 177.744,27.421 192.985,26.874 198.600 C 26.583 201.582,26.394 212.035,26.376 226.200 C 26.359 238.740,26.329 252.870,26.309 257.600 C 26.288 262.330,26.401 268.180,26.559 270.600 C 27.076 278.532,27.116 281.765,26.727 284.200 C 26.203 287.484,25.978 298.990,26.394 301.200 C 27.218 305.573,27.712 322.916,27.156 328.000 C 25.568 342.539,25.498 342.992,24.675 343.900 C 24.227 344.395,24.004 344.800,24.179 344.800 C 24.355 344.800,24.266 345.080,23.982 345.422 C 23.698 345.764,23.426 346.650,23.376 347.390 C 23.327 348.131,23.176 348.916,23.041 349.134 C 22.905 349.353,23.002 349.601,23.255 349.685 C 23.599 349.800,23.595 350.062,23.240 350.725 C 22.850 351.453,22.876 351.654,23.380 351.848 C 23.720 351.978,23.867 352.289,23.709 352.542 C 22.837 353.939,23.195 354.675,25.400 356.013 C 27.511 357.295,28.400 358.075,28.400 358.646 C 28.400 359.169,29.295 359.600,30.381 359.600 C 30.937 359.600,31.203 360.143,31.577 362.046 C 31.999 364.190,32.203 364.546,33.229 364.933 C 34.035 365.237,34.400 365.650,34.400 366.255 C 34.400 367.480,34.801 368.398,35.343 368.413 C 36.113 368.434,37.228 370.316,37.528 372.104 C 37.774 373.572,37.986 373.851,39.106 374.183 C 40.147 374.491,40.400 374.775,40.400 375.635 C 40.400 376.379,40.809 377.017,41.741 377.728 C 42.666 378.434,43.245 379.330,43.605 380.619 C 44.017 382.088,44.370 382.571,45.264 382.882 C 46.134 383.186,46.400 383.531,46.400 384.359 C 46.400 385.666,47.059 386.400,48.230 386.400 C 48.878 386.400,49.162 386.708,49.342 387.609 C 49.585 388.826,49.744 388.947,51.631 389.357 C 52.199 389.480,52.854 390.001,53.088 390.514 C 53.625 391.693,55.892 392.400,59.139 392.400 C 61.476 392.400,61.597 392.449,61.851 393.500 C 62.405 395.792,63.498 396.800,65.427 396.800 C 66.749 396.800,67.200 396.955,67.200 397.410 C 67.200 397.745,67.657 398.194,68.217 398.406 C 68.776 398.619,69.535 399.319,69.905 399.963 C 70.547 401.083,73.600 402.019,73.600 401.096 C 73.600 400.918,73.953 400.961,74.384 401.191 C 74.815 401.422,75.390 401.563,75.661 401.505 C 75.969 401.440,76.264 402.123,76.447 403.323 C 76.772 405.457,77.318 406.312,78.684 406.832 C 79.316 407.072,79.600 407.504,79.600 408.225 C 79.600 409.018,79.889 409.378,80.800 409.722 C 81.747 410.080,82.011 410.431,82.054 411.388 C 82.104 412.481,82.127 412.502,82.295 411.600 C 82.469 410.662,83.030 410.020,83.687 410.006 C 83.846 410.003,83.856 410.315,83.710 410.700 C 83.478 411.313,83.542 411.304,84.222 410.629 C 84.896 409.960,85.016 409.942,85.123 410.495 C 85.252 411.165,85.944 411.547,87.600 411.861 C 88.150 411.965,88.962 412.390,89.405 412.806 C 89.848 413.221,91.108 413.955,92.205 414.437 C 93.302 414.920,94.920 415.795,95.800 416.383 C 96.680 416.971,98.257 417.771,99.305 418.161 C 100.352 418.551,101.385 419.199,101.601 419.601 C 101.816 420.004,102.907 420.637,104.025 421.008 C 105.143 421.380,106.594 422.208,107.250 422.849 C 107.906 423.490,109.260 424.233,110.259 424.500 C 111.540 424.843,112.238 425.299,112.624 426.046 C 112.935 426.647,113.654 427.219,114.286 427.367 C 116.316 427.842,117.600 428.490,117.600 429.039 C 117.600 429.607,119.255 430.877,119.853 430.768 C 120.742 430.607,121.179 430.898,121.912 432.140 C 122.443 433.041,123.106 433.561,123.934 433.727 C 124.738 433.888,125.370 434.368,125.754 435.110 C 126.260 436.089,126.606 436.261,128.238 436.346 C 129.281 436.400,130.452 436.614,130.841 436.822 C 131.229 437.030,131.930 437.200,132.397 437.200 C 132.865 437.200,133.149 437.359,133.029 437.554 C 132.761 437.986,134.447 438.680,136.600 439.022 C 139.033 439.408,140.922 440.097,141.716 440.887 C 142.109 441.279,142.694 441.600,143.016 441.600 C 143.337 441.600,143.600 441.780,143.600 442.000 C 143.600 442.220,143.735 442.374,143.900 442.341 C 145.544 442.019,149.104 443.584,148.596 444.406 C 148.480 444.594,149.443 445.062,150.736 445.446 C 152.359 445.928,153.074 446.338,153.044 446.772 C 153.020 447.117,153.225 447.355,153.500 447.300 C 153.775 447.245,154.000 447.373,154.000 447.584 C 154.000 447.795,154.711 448.181,155.579 448.441 C 156.832 448.816,157.183 449.129,157.279 449.957 C 157.362 450.672,157.798 451.189,158.666 451.600 C 159.524 452.007,160.008 452.574,160.168 453.362 C 160.499 454.985,160.963 455.434,163.541 456.619 C 164.783 457.191,166.520 457.990,167.400 458.396 C 171.113 460.109,178.549 462.276,183.600 463.117 C 187.540 463.774,187.862 463.874,189.219 464.873 C 190.872 466.090,202.075 466.190,205.200 465.016 C 208.680 463.709,212.154 463.126,216.000 463.205 C 222.497 463.338,222.436 463.330,222.182 463.996 C 222.007 464.456,222.064 464.489,222.421 464.135 C 223.000 463.560,222.517 462.669,221.780 462.952 C 221.434 463.085,221.320 462.953,221.462 462.582 C 221.584 462.264,221.845 462.104,222.042 462.226 C 222.239 462.348,222.400 462.167,222.400 461.824 C 222.400 461.151,222.540 461.125,226.300 461.104 C 227.675 461.097,228.800 460.935,228.800 460.745 C 228.800 460.555,229.115 460.403,229.500 460.406 C 230.098 460.411,230.113 460.469,229.600 460.800 C 228.848 461.286,230.158 461.317,231.371 460.842 C 232.038 460.580,232.055 460.507,231.497 460.292 C 231.142 460.156,230.764 460.260,230.657 460.522 C 230.551 460.785,230.449 460.505,230.432 459.900 C 230.414 459.295,230.355 458.665,230.300 458.500 C 230.245 458.335,230.689 458.182,231.287 458.160 C 232.705 458.107,233.600 457.334,233.600 456.161 C 233.600 455.527,233.979 455.024,234.767 454.617 C 235.532 454.221,236.028 453.581,236.210 452.756 C 236.405 451.865,236.823 451.371,237.643 451.061 C 238.279 450.821,238.800 450.425,238.800 450.182 C 238.800 449.450,240.592 448.000,241.495 448.000 C 241.959 448.000,242.854 447.567,243.483 447.037 C 244.211 446.424,245.206 446.046,246.214 445.998 C 248.645 445.882,248.906 445.947,248.655 446.600 C 248.529 446.930,248.620 447.200,248.859 447.200 C 249.098 447.200,249.199 446.840,249.084 446.400 C 248.969 445.961,249.041 445.498,249.244 445.373 C 249.447 445.247,249.486 444.932,249.330 444.672 C 249.174 444.413,249.380 444.470,249.788 444.800 C 250.330 445.238,250.574 445.271,250.692 444.921 C 250.815 444.552,251.090 444.549,251.873 444.906 C 252.780 445.319,252.999 445.250,253.828 444.286 C 254.536 443.463,255.129 443.199,256.281 443.194 C 257.116 443.191,257.600 443.056,257.357 442.894 C 256.889 442.584,256.937 441.309,257.434 440.863 C 257.595 440.719,257.598 440.960,257.440 441.400 C 257.215 442.027,257.258 442.096,257.639 441.717 C 258.022 441.338,258.012 441.097,257.596 440.595 C 257.122 440.024,257.263 439.966,258.933 440.053 C 259.960 440.106,260.800 440.268,260.800 440.413 C 260.800 440.824,259.387 442.000,258.892 442.000 C 258.647 442.000,258.360 442.141,258.253 442.314 C 258.146 442.487,258.406 442.629,258.829 442.629 C 259.253 442.629,259.600 442.477,259.600 442.291 C 259.600 442.105,259.796 442.074,260.035 442.221 C 260.274 442.369,261.039 441.950,261.735 441.289 C 262.911 440.173,264.599 439.336,265.300 439.521 C 265.465 439.564,265.600 439.409,265.600 439.176 C 265.600 438.943,265.743 438.841,265.917 438.949 C 266.091 439.056,266.253 438.752,266.276 438.272 C 266.299 437.793,266.231 437.629,266.123 437.908 C 265.706 438.993,263.725 439.656,263.835 438.675 C 263.889 438.194,263.948 437.665,263.967 437.500 C 263.985 437.335,264.517 437.200,265.150 437.200 C 267.568 437.200,268.898 436.695,269.553 435.528 C 269.909 434.895,270.650 434.276,271.200 434.151 C 273.110 433.719,274.898 432.712,275.095 431.958 C 275.245 431.383,275.657 431.200,276.799 431.200 C 278.185 431.200,280.832 428.966,280.198 428.331 C 280.106 428.240,280.653 428.237,281.414 428.326 C 282.174 428.414,283.112 428.348,283.498 428.178 C 283.884 428.008,284.290 427.845,284.400 427.815 C 285.824 427.429,286.503 426.961,286.981 426.037 C 287.463 425.105,287.750 424.961,288.810 425.116 C 289.872 425.272,290.248 425.081,291.234 423.885 C 292.081 422.858,292.841 422.396,294.008 422.199 C 295.821 421.892,296.800 421.111,296.800 419.971 C 296.800 419.355,297.084 419.200,298.213 419.200 C 299.164 419.200,299.709 418.982,299.882 418.531 C 300.255 417.558,301.212 416.708,302.956 415.800 C 303.801 415.360,304.679 414.598,304.907 414.107 C 305.171 413.540,305.826 413.119,306.700 412.955 C 307.746 412.759,308.174 412.420,308.478 411.548 C 308.773 410.701,309.138 410.400,309.868 410.400 C 310.518 410.400,311.353 409.849,312.295 408.800 C 313.412 407.555,314.020 407.200,315.033 407.200 C 317.036 407.200,317.600 406.839,317.600 405.557 C 317.600 404.549,317.748 404.400,318.751 404.400 C 320.185 404.400,322.791 403.340,322.963 402.687 C 323.523 400.556,323.901 399.799,324.410 399.791 C 324.734 399.786,324.954 399.501,324.898 399.158 C 324.842 398.814,325.059 398.533,325.380 398.533 C 325.702 398.533,325.872 398.683,325.759 398.867 C 325.645 399.050,325.830 399.200,326.169 399.200 C 326.508 399.200,326.907 398.712,327.057 398.115 C 327.304 397.133,327.359 397.104,327.637 397.815 C 327.842 398.339,327.955 398.401,327.978 398.000 C 328.006 397.503,328.072 397.494,328.361 397.951 C 328.803 398.649,329.731 398.118,329.432 397.339 C 329.309 397.020,329.363 396.854,329.551 396.970 C 329.739 397.086,330.203 396.838,330.582 396.420 C 330.961 396.001,331.979 395.539,332.844 395.393 C 334.623 395.092,335.600 394.305,335.600 393.171 C 335.600 392.586,335.881 392.400,336.768 392.400 C 337.916 392.400,340.393 391.260,340.397 390.729 C 340.404 390.065,341.756 389.200,342.787 389.200 C 343.574 389.200,344.284 388.782,345.125 387.824 C 345.913 386.927,346.847 386.352,347.811 386.172 C 348.915 385.965,349.491 385.553,350.084 384.547 C 350.669 383.556,351.159 383.200,351.940 383.200 C 352.667 383.200,353.342 382.771,354.087 381.837 C 354.871 380.856,355.619 380.400,356.764 380.206 C 358.570 379.901,359.385 379.150,359.098 378.053 C 358.946 377.474,359.074 377.346,359.653 377.498 C 360.066 377.606,360.645 377.495,360.939 377.251 C 361.233 377.007,361.583 376.916,361.716 377.050 C 362.030 377.363,363.971 375.164,363.987 374.476 C 363.994 374.188,364.180 374.064,364.400 374.200 C 364.965 374.549,364.898 373.871,364.300 373.191 C 364.025 372.877,364.205 372.959,364.700 373.373 L 365.600 374.124 365.600 372.184 C 365.600 370.637,365.812 370.023,366.646 369.152 C 368.100 367.634,368.291 366.142,368.622 353.700 C 368.782 347.705,369.053 342.800,369.224 342.800 C 369.395 342.800,369.954 342.125,370.467 341.300 L 371.400 339.800 371.526 319.139 C 371.646 299.300,371.682 298.450,372.426 297.777 C 372.949 297.303,373.202 296.545,373.205 295.438 C 373.207 294.537,373.473 292.812,373.794 291.604 C 374.311 289.660,374.309 289.338,373.777 288.805 C 373.241 288.269,373.187 288.311,373.287 289.191 C 373.361 289.841,373.195 290.191,372.800 290.215 C 371.785 290.277,371.538 289.958,372.081 289.288 C 372.508 288.760,372.507 288.703,372.072 288.964 C 371.668 289.207,371.574 288.972,371.672 287.972 C 371.742 287.251,372.050 286.579,372.356 286.479 C 372.661 286.378,372.815 286.455,372.697 286.648 C 372.579 286.842,372.898 287.312,373.406 287.692 L 374.331 288.385 374.350 285.792 C 374.368 283.441,374.294 283.200,373.552 283.200 C 372.473 283.200,372.796 282.239,373.931 282.072 C 374.656 281.966,374.790 281.700,374.740 280.472 C 374.684 279.089,374.669 279.072,374.487 280.200 C 374.309 281.313,374.259 281.256,373.801 279.400 C 373.530 278.300,373.174 277.085,373.011 276.700 C 372.783 276.161,372.908 276.000,373.557 276.000 C 375.221 276.000,374.339 269.323,372.586 268.650 C 372.154 268.484,372.114 268.647,372.402 269.405 C 372.618 269.974,372.622 270.463,372.410 270.594 C 371.697 271.034,371.460 267.283,372.157 266.586 C 372.511 266.232,372.792 265.551,372.782 265.071 C 372.767 264.326,372.685 264.373,372.214 265.400 C 371.421 267.133,371.387 265.244,372.171 263.000 L 372.730 261.400 373.000 262.600 C 373.429 264.506,373.535 264.674,373.568 263.500 C 373.586 262.895,373.780 262.400,374.000 262.400 C 374.248 262.400,374.400 260.275,374.400 256.824 C 374.400 253.537,374.236 251.146,374.000 251.000 C 373.780 250.864,373.579 250.358,373.554 249.876 C 373.511 249.072,373.493 249.066,373.330 249.800 C 372.909 251.703,372.725 251.767,372.174 250.200 C 371.537 248.386,371.400 243.600,371.986 243.600 C 372.198 243.600,372.828 242.928,373.386 242.107 C 374.854 239.947,374.939 233.608,373.500 233.587 C 372.667 233.575,372.652 233.535,373.300 233.043 C 373.685 232.751,374.013 232.262,374.028 231.956 C 374.044 231.642,374.206 231.749,374.400 232.200 C 374.625 232.723,374.753 231.651,374.772 229.100 C 374.789 226.748,374.641 225.200,374.400 225.200 C 374.180 225.200,374.000 224.930,374.000 224.600 C 374.000 224.270,374.180 224.000,374.400 224.000 C 374.626 224.000,374.800 222.867,374.800 221.400 C 374.800 219.193,374.694 218.799,374.100 218.794 C 373.537 218.789,373.510 218.718,373.961 218.433 C 374.295 218.221,374.537 217.348,374.561 216.272 C 374.582 215.279,374.752 214.497,374.937 214.533 C 375.664 214.677,376.173 213.290,375.631 212.638 C 375.344 212.292,374.984 212.086,374.832 212.180 C 374.679 212.275,374.554 211.474,374.554 210.402 C 374.554 209.329,374.716 208.485,374.914 208.526 C 375.772 208.703,376.176 207.258,375.483 206.492 C 375.107 206.077,374.797 205.481,374.794 205.169 C 374.789 204.698,374.721 204.704,374.400 205.200 C 374.167 205.561,374.010 205.610,374.006 205.324 C 374.003 205.062,374.180 204.736,374.400 204.600 C 374.620 204.464,374.800 204.025,374.800 203.625 C 374.800 203.225,375.070 202.674,375.400 202.400 C 376.320 201.636,376.174 198.603,375.150 197.217 C 374.101 195.799,374.207 191.718,375.324 190.483 C 376.192 189.524,376.242 186.299,375.400 185.600 C 375.070 185.326,374.800 184.515,374.800 183.797 C 374.800 182.091,373.883 180.277,373.310 180.850 C 373.017 181.143,372.809 181.139,372.622 180.835 C 372.369 180.427,373.125 180.218,374.300 180.370 C 374.680 180.419,374.800 179.040,374.800 174.618 C 374.800 170.023,374.687 168.800,374.264 168.800 C 373.704 168.800,372.800 167.183,372.800 166.181 C 372.800 165.856,373.173 165.600,373.648 165.600 C 375.372 165.600,374.132 149.841,372.362 149.256 C 371.937 149.115,371.904 149.207,372.226 149.635 C 372.724 150.296,372.728 153.815,372.231 154.281 C 372.043 154.456,371.988 153.835,372.107 152.900 C 372.226 151.965,372.161 151.099,371.962 150.976 C 371.763 150.853,371.630 149.278,371.667 147.476 C 371.704 145.674,371.806 144.920,371.894 145.800 C 372.153 148.402,372.800 148.443,372.800 145.856 C 372.800 144.589,372.644 143.649,372.453 143.767 C 371.706 144.229,371.151 130.582,371.887 129.846 C 372.045 129.688,372.118 127.363,372.050 124.680 C 371.982 121.996,372.057 119.929,372.216 120.087 C 372.376 120.245,372.504 122.135,372.499 124.287 L 372.492 128.200 372.819 123.260 C 372.999 120.544,373.248 118.219,373.373 118.094 C 373.788 117.679,373.608 126.328,373.178 127.458 C 372.946 128.069,372.690 129.206,372.610 129.984 C 372.529 130.763,372.333 131.760,372.173 132.200 C 371.931 132.865,371.975 132.914,372.432 132.490 C 374.933 130.165,375.197 94.800,372.714 94.800 C 372.212 94.800,372.347 95.274,373.100 96.162 C 373.626 96.781,373.642 96.864,373.163 96.497 C 372.813 96.227,372.379 96.140,372.199 96.303 C 372.019 96.467,372.001 96.375,372.159 96.100 C 372.318 95.825,372.260 95.600,372.032 95.600 C 371.756 95.600,371.611 92.456,371.601 86.300 C 371.592 81.185,371.511 76.280,371.421 75.400 C 370.030 61.866,370.949 50.288,373.200 53.000 C 373.474 53.330,373.867 53.600,374.074 53.600 C 374.281 53.600,373.811 52.925,373.029 52.100 L 371.607 50.600 371.553 41.000 C 371.508 33.079,371.429 31.855,371.106 34.000 C 370.641 37.083,370.697 36.993,369.639 36.331 C 368.997 35.931,368.800 35.401,368.800 34.080 C 368.800 33.030,368.957 32.450,369.200 32.600 C 369.423 32.738,369.597 32.439,369.594 31.924 C 369.589 31.181,369.512 31.117,369.200 31.600 C 368.987 31.930,368.795 32.020,368.773 31.800 C 368.622 30.247,368.286 28.945,367.925 28.510 C 367.693 28.229,367.666 28.000,367.865 28.000 C 368.065 28.000,368.229 27.640,368.229 27.200 C 368.229 26.760,368.087 26.400,367.914 26.400 C 367.741 26.400,367.600 26.580,367.600 26.800 C 367.600 27.020,367.409 27.200,367.176 27.200 C 366.943 27.200,366.854 27.037,366.977 26.837 C 367.100 26.638,366.877 26.559,366.482 26.663 C 365.671 26.875,364.523 25.172,364.979 24.434 C 365.135 24.182,364.727 23.694,364.028 23.296 C 363.356 22.913,362.804 22.311,362.803 21.958 C 362.799 20.960,359.299 17.100,358.606 17.331 C 357.988 17.537,358.122 18.507,358.800 18.732 C 359.333 18.908,359.333 18.845,358.800 18.165 C 358.250 17.464,358.256 17.444,358.876 17.929 C 359.599 18.495,359.482 19.444,358.683 19.501 C 358.417 19.520,357.773 19.634,357.250 19.755 C 356.728 19.875,355.861 19.743,355.325 19.462 L 354.349 18.951 355.161 17.976 C 355.901 17.087,356.400 17.322,355.700 18.228 C 355.535 18.442,355.728 18.263,356.128 17.830 C 356.686 17.226,356.929 17.162,357.172 17.555 C 357.417 17.952,357.543 17.924,357.732 17.434 C 358.013 16.701,356.272 16.549,355.145 17.207 M363.854 20.198 C 363.981 20.526,364.225 20.708,364.396 20.602 C 364.912 20.284,365.144 21.896,364.654 22.390 C 364.314 22.732,364.376 22.780,364.900 22.581 C 365.693 22.279,365.793 21.508,365.186 20.374 C 364.697 19.460,363.511 19.304,363.854 20.198 M369.800 27.200 C 370.198 27.640,370.592 28.000,370.676 28.000 C 370.760 28.000,370.635 27.640,370.400 27.200 C 370.165 26.760,369.770 26.400,369.524 26.400 C 369.278 26.400,369.402 26.760,369.800 27.200 M22.400 29.800 C 22.400 30.570,22.470 31.200,22.556 31.200 C 22.642 31.200,22.786 30.570,22.876 29.800 C 22.966 29.030,22.896 28.400,22.720 28.400 C 22.544 28.400,22.400 29.030,22.400 29.800 M370.530 30.263 C 370.675 30.408,370.589 30.772,370.340 31.073 C 370.090 31.373,370.011 31.745,370.165 31.898 C 370.481 32.214,371.185 31.258,371.194 30.500 C 371.197 30.225,370.990 30.000,370.733 30.000 C 370.477 30.000,370.385 30.118,370.530 30.263 M294.125 45.352 C 294.386 45.206,294.313 45.393,293.962 45.767 C 293.498 46.262,293.015 46.369,292.185 46.161 C 291.094 45.887,291.083 45.861,291.923 45.550 C 292.405 45.372,292.805 44.995,292.812 44.713 C 292.819 44.414,292.997 44.496,293.237 44.908 C 293.464 45.298,293.863 45.498,294.125 45.352 M283.839 48.587 C 283.695 49.162,283.393 49.519,283.169 49.381 C 282.899 49.214,282.920 48.938,283.230 48.564 C 283.594 48.126,283.576 47.993,283.149 47.968 C 282.740 47.945,282.728 47.885,283.102 47.734 C 283.379 47.623,283.487 47.322,283.344 47.066 C 283.150 46.720,283.213 46.721,283.592 47.071 C 283.906 47.361,284.001 47.942,283.839 48.587 M22.454 56.100 C 22.425 58.685,22.543 60.800,22.718 60.800 C 22.894 60.800,22.975 59.045,22.900 56.900 C 22.696 51.115,22.516 50.792,22.454 56.100 M175.000 65.448 C 175.440 65.783,175.765 66.194,175.722 66.362 C 175.679 66.529,175.895 66.667,176.201 66.667 C 177.085 66.667,176.181 65.339,175.113 65.070 C 174.218 64.844,174.216 64.852,175.000 65.448 M215.700 67.476 C 216.085 67.576,216.400 67.822,216.400 68.021 C 216.400 68.220,216.839 68.183,217.374 67.939 C 218.496 67.428,219.792 67.766,219.364 68.459 C 219.185 68.748,219.251 68.816,219.538 68.638 C 220.863 67.820,219.956 67.201,217.500 67.246 C 216.125 67.272,215.315 67.375,215.700 67.476 M220.749 67.900 C 220.252 68.533,220.266 68.548,220.895 68.055 C 221.277 67.756,221.862 67.615,222.195 67.743 C 222.528 67.870,222.800 67.801,222.800 67.587 C 222.800 66.934,221.331 67.158,220.749 67.900 M374.493 68.400 C 374.493 69.170,374.575 69.485,374.676 69.100 C 374.776 68.715,374.776 68.085,374.676 67.700 C 374.575 67.315,374.493 67.630,374.493 68.400 M186.690 68.243 C 187.620 68.582,188.363 68.982,188.343 69.130 C 188.174 70.345,188.472 70.381,198.391 70.334 C 207.588 70.292,208.400 70.232,208.607 69.578 C 209.029 68.249,212.432 67.563,214.126 68.465 C 214.916 68.886,214.947 68.867,214.451 68.265 C 213.770 67.440,212.060 67.420,209.065 68.200 C 206.484 68.872,190.789 69.074,189.126 68.456 C 188.617 68.267,187.480 68.003,186.600 67.869 L 185.000 67.626 186.690 68.243 M21.675 69.216 C 21.045 69.803,20.800 70.498,20.800 71.700 L 20.800 73.369 21.551 71.896 C 22.175 70.671,22.870 68.400,22.620 68.400 C 22.582 68.400,22.157 68.767,21.675 69.216 M374.534 74.800 C 374.534 76.450,374.605 77.125,374.691 76.300 C 374.778 75.475,374.778 74.125,374.691 73.300 C 374.605 72.475,374.534 73.150,374.534 74.800 M20.688 79.400 C 20.885 81.915,21.740 83.994,22.334 83.400 C 23.131 82.602,22.038 76.882,21.189 77.407 C 21.013 77.516,20.779 77.379,20.669 77.102 C 20.559 76.826,20.568 77.860,20.688 79.400 M373.765 80.500 C 373.746 80.995,373.599 81.760,373.438 82.200 C 373.253 82.705,373.371 82.631,373.758 82.000 C 374.410 80.938,374.600 79.600,374.100 79.600 C 373.935 79.600,373.784 80.005,373.765 80.500 M373.780 83.700 C 373.555 84.195,373.152 84.555,372.885 84.500 C 372.618 84.445,372.400 84.664,372.400 84.987 C 372.400 85.344,372.635 85.485,372.997 85.346 C 373.380 85.199,373.731 85.455,373.972 86.058 C 374.283 86.834,374.354 86.629,374.375 84.900 C 374.403 82.533,374.355 82.436,373.780 83.700 M22.501 86.600 C 22.505 87.480,22.587 87.793,22.683 87.295 C 22.779 86.798,22.775 86.078,22.675 85.695 C 22.575 85.313,22.496 85.720,22.501 86.600 M373.346 87.333 C 373.486 87.736,373.600 88.321,373.600 88.633 C 373.600 88.945,373.780 89.200,374.000 89.200 C 374.594 89.200,374.462 88.309,373.733 87.400 C 373.170 86.697,373.123 86.689,373.346 87.333 M373.771 92.956 C 373.447 93.992,373.471 94.483,373.873 95.033 C 374.334 95.662,374.400 95.492,374.400 93.676 C 374.400 91.231,374.335 91.156,373.771 92.956 M373.200 98.400 C 373.200 98.858,372.933 99.200,372.576 99.200 C 372.233 99.200,372.056 99.368,372.183 99.572 C 372.309 99.777,372.230 100.058,372.007 100.196 C 371.478 100.523,371.483 99.366,372.014 98.374 C 372.553 97.368,373.200 97.382,373.200 98.400 M373.870 102.904 L 373.800 107.809 372.981 105.290 C 372.531 103.905,372.036 102.898,371.881 103.052 C 371.726 103.207,371.600 102.776,371.600 102.096 C 371.600 101.252,371.918 100.608,372.600 100.071 C 373.150 99.639,373.600 98.996,373.600 98.642 C 373.600 98.289,373.676 98.000,373.770 98.000 C 373.863 98.000,373.908 100.207,373.870 102.904 M372.697 116.283 C 372.620 117.778,372.556 116.660,372.555 113.800 C 372.555 110.940,372.618 109.718,372.696 111.083 C 372.774 112.449,372.774 114.789,372.697 116.283 M20.137 118.200 C 20.139 119.960,20.209 120.630,20.293 119.689 C 20.378 118.749,20.377 117.309,20.291 116.489 C 20.205 115.670,20.136 116.440,20.137 118.200 M20.818 129.985 L 20.800 132.969 21.583 131.433 C 22.356 129.917,22.356 129.878,21.601 128.449 L 20.835 127.000 20.818 129.985 M374.000 130.626 C 374.000 132.673,373.307 134.420,372.813 133.620 C 372.607 133.287,372.439 133.407,372.285 133.998 C 372.122 134.619,372.211 134.805,372.600 134.655 C 373.784 134.201,374.080 135.467,373.820 139.885 C 373.448 146.212,373.465 148.390,373.906 150.400 C 374.200 151.744,374.313 149.237,374.350 140.500 C 374.377 134.065,374.310 128.800,374.200 128.800 C 374.090 128.800,374.000 129.622,374.000 130.626 M373.594 154.567 C 373.602 155.590,373.373 155.271,373.044 153.800 C 372.848 152.924,372.885 152.762,373.182 153.200 C 373.405 153.530,373.591 154.145,373.594 154.567 M373.593 158.414 C 372.919 159.672,372.792 159.211,373.330 157.463 C 373.670 156.356,373.835 156.158,373.925 156.746 C 373.994 157.193,373.844 157.943,373.593 158.414 M373.487 173.900 C 373.395 174.505,373.320 174.010,373.320 172.800 C 373.320 171.590,373.395 171.095,373.487 171.700 C 373.578 172.305,373.578 173.295,373.487 173.900 M374.262 177.107 C 374.335 178.046,374.251 178.398,374.038 178.056 C 373.851 177.756,373.782 177.126,373.884 176.656 C 374.035 175.960,373.989 175.912,373.641 176.400 C 373.264 176.928,373.212 176.924,373.206 176.367 C 373.188 174.488,374.110 175.134,374.262 177.107 M20.817 200.038 C 20.806 200.984,21.074 201.724,21.600 202.200 C 22.699 203.195,22.699 202.008,21.600 200.000 L 20.834 198.600 20.817 200.038 M374.794 200.900 C 374.784 202.321,374.145 203.072,373.925 201.922 C 373.825 201.398,373.816 200.752,373.905 200.485 C 374.180 199.661,374.800 199.950,374.794 200.900 M21.511 209.477 C 21.035 210.003,20.964 210.392,21.248 210.900 C 22.022 212.284,23.057 211.164,22.470 209.578 C 22.177 208.786,22.140 208.782,21.511 209.477 M21.464 215.529 C 20.345 216.765,20.469 239.976,21.600 241.000 C 22.373 241.700,22.401 241.699,22.416 240.962 C 22.499 237.101,22.372 215.039,22.266 214.933 C 22.190 214.857,21.830 215.125,21.464 215.529 M374.400 222.225 C 374.400 222.515,374.222 222.863,374.005 222.997 C 373.777 223.138,373.711 222.976,373.849 222.616 C 373.981 222.271,373.844 221.677,373.545 221.295 C 373.052 220.666,373.067 220.652,373.700 221.149 C 374.085 221.451,374.400 221.935,374.400 222.225 M374.400 227.776 C 374.400 228.313,374.265 228.836,374.100 228.938 C 373.935 229.040,373.800 228.601,373.800 227.962 C 373.800 227.323,373.935 226.800,374.100 226.800 C 374.265 226.800,374.400 227.239,374.400 227.776 M373.691 230.306 C 373.793 230.695,373.726 231.370,373.541 231.806 C 373.210 232.593,373.208 232.593,373.322 231.800 C 373.388 231.339,373.090 230.776,372.618 230.472 C 372.013 230.082,371.983 230.001,372.500 230.160 C 372.885 230.278,373.200 230.201,373.200 229.987 C 373.200 229.356,373.492 229.546,373.691 230.306 M373.765 237.800 L 374.004 239.400 373.432 238.000 C 372.778 236.396,372.585 234.591,373.176 235.600 C 373.369 235.930,373.634 236.920,373.765 237.800 M372.606 240.900 C 372.366 241.775,372.376 241.778,372.979 241.024 C 373.321 240.596,373.594 240.416,373.586 240.624 C 373.564 241.197,371.604 243.469,371.602 242.924 C 371.601 242.662,371.783 242.334,372.007 242.196 C 372.230 242.058,372.320 241.793,372.205 241.608 C 371.988 241.257,372.351 240.000,372.670 240.000 C 372.771 240.000,372.742 240.405,372.606 240.900 M373.597 243.811 C 373.318 244.807,372.822 245.772,372.494 245.956 C 372.079 246.188,372.035 246.374,372.349 246.568 C 372.597 246.722,372.800 246.646,372.800 246.400 C 372.800 245.546,373.589 246.446,373.958 247.720 C 374.258 248.759,374.335 248.340,374.364 245.500 C 374.405 241.506,374.304 241.284,373.597 243.811 M22.542 261.000 C 22.541 262.980,22.608 263.840,22.692 262.912 C 22.776 261.984,22.777 260.364,22.695 259.312 C 22.612 258.260,22.543 259.020,22.542 261.000 M373.903 266.202 C 374.008 266.754,373.871 267.474,373.598 267.802 C 373.292 268.171,373.263 268.400,373.522 268.400 C 373.752 268.400,374.024 268.715,374.124 269.100 C 374.225 269.485,374.328 268.765,374.354 267.500 C 374.379 266.235,374.245 265.200,374.055 265.200 C 373.866 265.200,373.797 265.651,373.903 266.202 M21.297 272.567 C 20.024 274.185,20.123 275.089,21.439 273.869 C 22.029 273.322,22.417 272.585,22.337 272.166 C 22.213 271.525,22.076 271.578,21.297 272.567 M373.440 274.249 C 373.090 274.553,372.982 274.586,373.201 274.321 C 373.421 274.057,373.621 273.471,373.646 273.020 C 373.688 272.281,373.712 272.274,373.885 272.947 C 373.990 273.358,373.790 273.944,373.440 274.249 M20.400 284.281 C 20.400 284.843,22.217 286.449,22.516 286.151 C 22.657 286.010,22.584 285.543,22.354 285.113 C 22.123 284.683,21.831 284.435,21.704 284.562 C 21.577 284.689,21.232 284.593,20.937 284.348 C 20.642 284.103,20.400 284.073,20.400 284.281 M22.400 293.533 C 22.400 295.770,22.537 297.600,22.704 297.600 C 23.078 297.600,23.043 290.110,22.668 289.735 C 22.521 289.587,22.400 291.297,22.400 293.533 M21.104 302.500 C 20.780 302.995,20.398 303.850,20.256 304.400 C 20.003 305.372,20.008 305.375,20.455 304.509 C 20.708 304.019,21.249 303.512,21.657 303.382 C 22.066 303.252,22.400 302.798,22.400 302.373 C 22.400 301.339,21.826 301.396,21.104 302.500 M18.700 337.753 C 17.842 338.616,17.825 338.957,18.610 339.608 C 19.427 340.286,19.682 339.941,19.528 338.363 C 19.406 337.109,19.368 337.081,18.700 337.753 M20.639 351.756 C 20.761 352.076,21.144 352.446,21.488 352.578 C 22.463 352.952,22.414 352.669,21.368 351.887 C 20.651 351.350,20.470 351.318,20.639 351.756 M361.994 375.500 C 361.989 376.301,361.891 376.447,361.631 376.036 C 361.435 375.726,361.367 375.231,361.480 374.936 C 361.804 374.090,362.001 374.306,361.994 375.500 M324.932 400.234 C 324.760 400.680,324.604 400.729,324.400 400.400 C 324.190 400.060,324.054 400.082,323.900 400.485 C 323.535 401.434,325.887 401.359,326.397 400.405 C 326.764 399.719,326.706 399.600,326.002 399.600 C 325.547 399.600,325.065 399.885,324.932 400.234 M73.734 402.227 C 73.433 403.012,74.112 403.719,75.295 403.849 C 75.793 403.904,75.974 403.855,75.698 403.741 C 75.421 403.626,75.321 403.322,75.474 403.066 C 75.645 402.781,75.505 402.801,75.112 403.119 C 74.681 403.469,74.386 403.501,74.212 403.219 C 74.069 402.989,74.113 402.800,74.310 402.800 C 74.506 402.800,74.667 402.530,74.667 402.200 C 74.667 401.411,74.040 401.429,73.734 402.227 M107.813 428.379 C 107.709 428.547,108.033 429.067,108.532 429.536 L 109.440 430.389 109.440 429.420 C 109.440 428.483,108.228 427.707,107.813 428.379 M113.600 431.586 C 113.600 432.065,115.012 432.854,115.320 432.547 C 115.444 432.423,115.448 432.069,115.330 431.761 C 115.089 431.133,113.600 430.983,113.600 431.586 M128.400 440.171 C 128.400 440.479,129.648 441.600,129.991 441.600 C 130.175 441.600,130.231 441.240,130.116 440.800 C 129.945 440.147,128.400 439.581,128.400 440.171 M145.200 446.613 C 145.200 447.346,146.618 448.800,147.333 448.800 C 147.627 448.800,147.867 448.533,147.867 448.206 C 147.867 447.844,147.698 447.741,147.433 447.942 C 147.180 448.135,146.719 447.976,146.325 447.561 C 145.883 447.095,145.807 446.798,146.105 446.698 C 146.362 446.613,146.265 446.434,145.880 446.286 C 145.430 446.113,145.200 446.224,145.200 446.613 M151.416 451.174 C 151.168 451.576,151.425 451.754,152.100 451.647 C 152.265 451.621,152.400 451.799,152.400 452.042 C 152.400 452.285,152.880 453.050,153.467 453.742 C 154.480 454.936,154.521 454.949,154.273 454.000 C 154.129 453.450,154.008 452.775,154.005 452.500 C 154.002 452.225,153.789 452.000,153.531 452.000 C 153.274 452.000,152.752 451.718,152.371 451.374 C 151.912 450.959,151.591 450.891,151.416 451.174 M154.800 454.775 C 154.800 455.226,156.195 456.400,156.731 456.400 C 157.263 456.400,157.325 456.004,156.894 455.365 C 156.540 454.840,154.800 454.351,154.800 454.775 M157.249 456.761 C 156.636 457.149,156.978 458.018,157.724 457.968 C 158.051 457.947,158.038 457.872,157.683 457.730 C 157.287 457.570,157.275 457.392,157.632 456.961 C 158.164 456.321,158.044 456.258,157.249 456.761 M158.640 457.840 C 158.497 458.212,158.632 458.805,158.938 459.158 C 159.245 459.511,159.596 460.070,159.718 460.400 C 159.840 460.730,159.920 460.460,159.894 459.800 C 159.831 458.157,159.010 456.875,158.640 457.840 M226.497 461.776 C 226.660 461.969,226.589 462.372,226.340 462.673 C 225.689 463.456,226.300 463.872,227.030 463.142 C 227.577 462.594,227.566 462.474,226.920 461.979 C 226.524 461.675,226.333 461.584,226.497 461.776 M215.795 468.263 L 215.099 469.327 216.349 468.436 C 217.731 467.452,217.873 467.200,217.046 467.200 C 216.741 467.200,216.178 467.679,215.795 468.263 M194.600 470.800 C 195.522 471.819,204.349 472.025,205.161 471.047 C 205.885 470.174,204.876 470.000,199.105 470.000 C 193.901 470.000,193.880 470.004,194.600 470.800 " stroke="none" fill="#fcfcfc" fill-rule="evenodd"></path><path id="path1" d="M355.235 17.000 C 355.386 17.658,354.744 18.812,354.358 18.574 C 354.161 18.452,354.000 18.449,354.000 18.566 C 354.000 19.079,356.392 19.952,357.253 19.754 C 357.774 19.634,358.417 19.520,358.683 19.501 C 359.508 19.442,359.541 18.615,358.757 17.646 C 358.095 16.828,357.976 16.798,357.747 17.393 C 357.549 17.909,357.414 17.947,357.172 17.555 C 356.930 17.162,356.685 17.229,356.128 17.840 C 355.728 18.279,355.563 18.397,355.763 18.102 C 355.994 17.761,355.947 17.390,355.634 17.083 C 355.364 16.817,355.184 16.780,355.235 17.000 M352.432 20.300 C 352.412 20.861,352.149 21.200,351.733 21.200 C 351.367 21.200,351.179 21.312,351.316 21.449 C 351.453 21.587,351.888 21.558,352.283 21.386 C 352.677 21.214,353.105 21.092,353.233 21.114 C 353.362 21.137,353.467 20.903,353.467 20.595 C 353.467 20.287,353.332 20.118,353.167 20.220 C 353.003 20.322,352.777 20.179,352.666 19.902 C 352.554 19.626,352.449 19.805,352.432 20.300 M361.925 20.416 C 362.406 20.864,362.801 21.539,362.803 21.916 C 362.804 22.292,363.356 22.913,364.028 23.296 C 364.727 23.694,365.135 24.182,364.979 24.434 C 364.523 25.172,365.671 26.875,366.482 26.663 C 366.877 26.559,367.100 26.638,366.977 26.837 C 366.854 27.037,366.943 27.200,367.176 27.200 C 367.409 27.200,367.600 27.020,367.600 26.800 C 367.600 26.580,367.741 26.400,367.914 26.400 C 368.087 26.400,368.229 26.760,368.229 27.200 C 368.229 27.640,368.065 28.000,367.865 28.000 C 367.666 28.000,367.693 28.229,367.925 28.510 C 368.286 28.945,368.622 30.247,368.773 31.800 C 368.795 32.020,368.987 31.930,369.200 31.600 C 369.512 31.117,369.589 31.181,369.594 31.924 C 369.597 32.439,369.423 32.738,369.200 32.600 C 368.449 32.136,368.740 35.666,369.500 36.243 C 370.590 37.070,370.690 36.952,370.978 34.500 C 371.126 33.235,371.336 31.840,371.444 31.400 C 371.638 30.614,371.631 30.613,371.025 31.371 C 370.686 31.795,370.291 32.024,370.147 31.880 C 370.004 31.737,370.114 31.345,370.392 31.010 C 370.670 30.674,370.741 30.397,370.549 30.394 C 370.357 30.391,370.470 30.211,370.800 29.994 C 371.299 29.666,371.308 29.541,370.855 29.248 C 370.394 28.952,370.394 28.866,370.855 28.700 C 371.686 28.401,370.401 26.233,369.298 26.074 C 368.588 25.971,368.447 25.727,368.557 24.787 C 368.735 23.253,367.788 22.448,365.914 22.540 C 365.096 22.580,364.580 22.460,364.767 22.273 C 365.179 21.861,364.839 20.329,364.396 20.602 C 364.225 20.708,363.976 20.515,363.845 20.172 C 363.713 19.830,363.421 19.663,363.196 19.802 C 362.971 19.941,362.911 20.268,363.062 20.528 C 363.214 20.787,362.977 20.685,362.537 20.300 C 361.414 19.317,360.858 19.422,361.925 20.416 M26.955 21.009 C 26.377 21.587,26.077 22.216,26.243 22.503 C 26.400 22.777,26.381 22.867,26.201 22.703 C 26.021 22.540,25.634 22.606,25.342 22.848 C 25.049 23.091,24.544 23.187,24.218 23.062 C 23.555 22.808,23.053 23.399,22.910 24.600 C 22.858 25.040,22.702 26.075,22.564 26.900 C 22.416 27.784,22.473 28.400,22.705 28.400 C 22.956 28.400,22.968 29.082,22.739 30.300 C 22.339 32.419,22.575 57.973,23.010 59.700 C 23.178 60.369,23.125 60.800,22.873 60.800 C 22.612 60.800,22.461 62.530,22.462 65.500 C 22.464 69.489,22.339 70.440,21.632 71.785 L 20.800 73.369 20.800 72.018 C 20.800 69.317,20.300 71.251,20.163 74.482 C 20.069 76.698,20.149 77.601,20.405 77.200 C 20.683 76.765,20.789 76.744,20.794 77.124 C 20.797 77.412,20.960 77.549,21.155 77.428 C 21.938 76.944,22.324 78.406,22.508 82.542 C 22.788 88.840,22.484 91.885,21.553 92.128 C 20.477 92.410,19.893 94.291,20.185 96.535 C 20.344 97.758,20.293 98.381,20.045 98.228 C 19.794 98.073,19.650 101.157,19.643 106.807 C 19.635 113.067,19.758 115.550,20.067 115.359 C 20.377 115.167,20.429 116.739,20.247 120.845 C 20.107 124.010,20.156 127.230,20.355 128.000 L 20.718 129.400 20.777 128.200 L 20.835 127.000 21.601 128.449 C 22.356 129.878,22.356 129.917,21.583 131.433 L 20.800 132.969 20.760 131.585 L 20.720 130.200 20.326 131.800 C 20.109 132.680,20.026 134.979,20.141 136.908 C 20.272 139.121,20.206 140.327,19.962 140.176 C 19.584 139.943,19.776 158.433,20.214 164.527 C 20.341 166.283,20.269 167.166,20.012 167.008 C 19.750 166.846,19.621 171.909,19.635 181.787 C 19.648 191.391,19.796 196.726,20.044 196.573 C 20.272 196.432,20.346 196.717,20.222 197.266 C 20.107 197.780,20.171 198.830,20.365 199.600 L 20.718 201.000 20.777 199.800 L 20.835 198.600 21.615 200.076 C 22.369 201.504,22.397 202.709,22.467 237.201 L 22.539 272.849 21.499 273.813 C 20.775 274.485,20.389 274.629,20.228 274.289 C 20.100 274.020,20.062 274.295,20.143 274.900 C 20.223 275.505,20.154 276.000,19.989 276.000 C 19.824 276.000,19.688 277.620,19.687 279.600 C 19.686 281.580,19.840 283.200,20.030 283.200 C 20.220 283.200,20.260 283.500,20.119 283.866 C 19.955 284.294,20.021 284.434,20.304 284.259 C 20.547 284.109,20.860 284.173,21.000 284.400 C 21.140 284.627,21.410 284.717,21.600 284.600 C 21.790 284.483,22.050 284.557,22.178 284.764 C 22.738 285.671,23.220 297.598,22.697 297.599 C 22.530 297.600,22.418 298.275,22.448 299.100 C 22.566 302.370,22.418 303.140,21.620 303.394 C 21.192 303.530,20.729 303.994,20.592 304.426 C 20.455 304.858,20.189 305.117,20.002 305.001 C 19.815 304.885,19.642 310.045,19.618 316.466 C 19.577 327.602,19.539 328.167,18.788 328.694 C 17.790 329.393,17.784 330.203,18.771 330.895 C 19.491 331.399,19.549 332.069,19.642 340.917 C 19.698 346.133,19.901 350.400,20.095 350.400 C 20.289 350.400,20.338 350.576,20.205 350.792 C 19.608 351.758,22.728 354.206,23.532 353.402 C 23.643 353.291,23.591 353.200,23.418 353.200 C 23.244 353.200,23.309 352.951,23.561 352.647 C 23.916 352.219,23.878 352.039,23.393 351.853 C 22.876 351.654,22.849 351.456,23.240 350.725 C 23.595 350.062,23.599 349.800,23.255 349.685 C 23.002 349.601,22.905 349.353,23.041 349.134 C 23.176 348.916,23.327 348.131,23.376 347.390 C 23.426 346.650,23.698 345.764,23.982 345.422 C 24.266 345.080,24.355 344.800,24.179 344.800 C 24.004 344.800,24.227 344.395,24.675 343.900 C 25.498 342.992,25.568 342.539,27.156 328.000 C 27.712 322.916,27.218 305.573,26.394 301.200 C 25.978 298.990,26.203 287.484,26.727 284.200 C 27.116 281.765,27.076 278.532,26.559 270.600 C 26.401 268.180,26.288 262.330,26.309 257.600 C 26.329 252.870,26.359 238.740,26.376 226.200 C 26.394 212.035,26.583 201.582,26.874 198.600 C 27.421 192.985,27.513 177.744,27.055 168.600 C 26.879 165.080,26.763 159.320,26.798 155.800 C 26.906 144.937,26.847 93.322,26.720 87.400 C 26.654 84.320,26.779 80.630,26.998 79.200 C 27.567 75.484,27.400 71.012,26.578 68.000 C 25.955 65.713,25.871 63.516,25.885 49.727 C 25.903 31.881,26.010 30.529,27.438 29.986 C 27.978 29.780,28.515 29.294,28.631 28.906 C 28.747 28.518,29.238 27.397,29.721 26.415 C 30.204 25.434,30.544 24.386,30.476 24.086 C 30.407 23.786,30.568 23.280,30.833 22.961 C 31.426 22.245,31.258 22.068,29.330 21.381 L 27.800 20.835 29.367 20.818 C 31.179 20.797,31.150 20.620,29.277 20.263 C 28.200 20.058,27.767 20.197,26.955 21.009 M370.400 27.200 C 370.635 27.640,370.760 28.000,370.676 28.000 C 370.592 28.000,370.198 27.640,369.800 27.200 C 369.402 26.760,369.278 26.400,369.524 26.400 C 369.770 26.400,370.165 26.760,370.400 27.200 M106.200 44.000 C 106.336 44.220,106.232 44.400,105.970 44.400 C 105.707 44.400,105.950 44.760,106.509 45.200 C 107.069 45.640,107.757 46.000,108.040 46.000 C 108.341 46.000,108.232 45.751,107.776 45.399 C 107.024 44.816,107.023 44.806,107.766 45.067 C 108.295 45.253,108.442 45.191,108.242 44.868 C 108.083 44.611,107.693 44.400,107.376 44.400 C 107.059 44.400,106.800 44.220,106.800 44.000 C 106.800 43.780,106.609 43.600,106.376 43.600 C 106.143 43.600,106.064 43.780,106.200 44.000 M292.812 44.713 C 292.805 44.995,292.405 45.372,291.923 45.550 C 291.083 45.861,291.094 45.887,292.185 46.161 C 293.015 46.369,293.498 46.262,293.962 45.767 C 294.313 45.393,294.386 45.206,294.125 45.352 C 293.863 45.498,293.464 45.298,293.237 44.908 C 292.997 44.496,292.819 44.414,292.812 44.713 M285.300 46.914 C 283.913 47.543,284.049 49.279,285.465 49.022 C 287.032 48.738,287.450 48.114,286.017 48.199 C 285.348 48.239,284.800 48.120,284.800 47.936 C 284.800 47.751,285.340 47.600,286.000 47.600 C 286.879 47.600,287.198 47.412,287.194 46.900 C 287.189 46.352,287.113 46.319,286.842 46.745 C 286.652 47.045,286.430 47.114,286.348 46.898 C 286.252 46.645,285.882 46.650,285.300 46.914 M283.344 47.066 C 283.487 47.322,283.379 47.623,283.102 47.734 C 282.728 47.885,282.740 47.945,283.149 47.968 C 283.576 47.993,283.594 48.126,283.230 48.564 C 282.920 48.938,282.899 49.214,283.169 49.381 C 283.797 49.769,284.190 47.623,283.592 47.071 C 283.213 46.721,283.150 46.720,283.344 47.066 M371.256 54.900 C 370.629 58.584,370.708 68.466,371.421 75.400 C 371.511 76.280,371.592 81.185,371.601 86.300 C 371.611 92.456,371.756 95.600,372.032 95.600 C 372.260 95.600,372.318 95.825,372.159 96.100 C 372.001 96.375,372.019 96.467,372.199 96.303 C 372.379 96.140,372.813 96.227,373.163 96.497 C 373.642 96.864,373.626 96.781,373.100 96.162 C 372.350 95.278,372.212 94.800,372.707 94.800 C 372.876 94.800,373.322 95.295,373.697 95.900 C 374.119 96.582,374.383 96.763,374.389 96.376 C 374.395 96.034,374.160 95.424,373.866 95.022 C 373.425 94.420,373.422 94.038,373.848 92.846 C 374.446 91.174,374.552 89.327,374.062 89.133 C 373.876 89.060,373.594 88.460,373.436 87.800 C 373.161 86.659,373.177 86.639,373.761 87.400 C 374.469 88.324,374.583 87.733,373.994 86.185 C 373.727 85.483,373.386 85.197,372.994 85.347 C 372.635 85.485,372.400 85.343,372.400 84.987 C 372.400 84.664,372.613 84.445,372.873 84.500 C 373.768 84.689,374.541 82.422,374.087 80.942 C 373.784 79.956,373.797 79.600,374.137 79.600 C 374.477 79.600,374.613 76.289,374.650 67.200 C 374.679 59.759,374.550 54.800,374.326 54.800 C 374.121 54.800,374.067 54.615,374.207 54.389 C 374.480 53.947,372.899 52.435,372.141 52.413 C 371.887 52.406,371.492 53.516,371.256 54.900 M171.200 64.843 C 171.200 65.013,171.383 65.266,171.607 65.404 C 171.830 65.542,171.886 65.868,171.730 66.128 C 171.513 66.489,171.582 66.490,172.024 66.133 C 172.470 65.773,172.779 65.796,173.378 66.233 C 174.125 66.780,174.118 66.801,173.176 66.823 C 172.347 66.842,172.411 66.921,173.600 67.348 C 174.388 67.632,175.198 67.705,175.454 67.515 C 175.752 67.294,175.995 67.526,176.162 68.189 C 176.301 68.745,176.614 69.200,176.857 69.200 C 177.178 69.200,177.177 69.345,176.855 69.733 C 176.527 70.129,176.541 70.272,176.906 70.288 C 178.191 70.344,180.226 70.889,180.760 71.320 C 181.225 71.696,181.289 71.693,181.056 71.305 C 180.852 70.965,180.959 70.886,181.396 71.054 C 181.747 71.189,181.948 71.386,181.841 71.492 C 181.626 71.707,183.087 73.386,183.523 73.424 C 183.675 73.437,184.700 73.579,185.800 73.739 C 188.163 74.083,189.688 74.292,193.200 74.752 C 201.629 75.856,217.788 74.109,217.045 72.174 C 216.909 71.819,216.978 71.663,217.208 71.805 C 217.427 71.940,217.740 71.725,217.903 71.326 C 218.067 70.927,218.515 70.585,218.900 70.567 C 221.201 70.457,221.600 70.349,221.600 69.833 C 221.600 69.522,221.438 69.207,221.239 69.133 C 221.041 69.060,221.165 68.736,221.516 68.413 C 222.075 67.897,222.126 67.897,221.931 68.413 C 221.489 69.588,222.147 70.589,222.819 69.762 C 223.174 69.325,223.205 69.163,222.900 69.347 C 222.582 69.538,222.400 69.411,222.400 69.000 C 222.400 68.644,222.560 68.451,222.755 68.572 C 222.950 68.692,223.203 68.433,223.317 67.996 C 223.431 67.558,223.362 67.200,223.163 67.200 C 222.963 67.200,222.800 67.376,222.800 67.590 C 222.800 67.844,222.441 67.844,221.774 67.590 C 220.377 67.059,220.000 67.099,220.000 67.776 C 220.000 68.093,219.792 68.481,219.538 68.638 C 219.251 68.816,219.185 68.748,219.364 68.459 C 219.792 67.766,218.496 67.428,217.374 67.939 C 216.839 68.183,216.400 68.226,216.400 68.035 C 216.400 67.632,214.409 67.058,214.096 67.371 C 213.980 67.486,214.137 67.884,214.443 68.256 C 214.944 68.863,214.919 68.889,214.200 68.519 C 213.760 68.293,212.410 68.005,211.200 67.880 C 209.990 67.755,209.450 67.787,210.000 67.951 L 211.000 68.250 209.927 68.526 C 209.336 68.678,208.747 69.136,208.617 69.545 C 208.396 70.241,207.753 70.291,198.391 70.334 C 188.441 70.381,188.160 70.346,188.350 69.107 C 188.375 68.946,187.908 68.692,187.312 68.542 C 186.319 68.293,186.294 68.242,187.015 67.929 C 187.608 67.671,187.526 67.641,186.682 67.806 C 186.066 67.926,185.346 67.889,185.082 67.723 C 184.337 67.257,180.400 67.231,180.400 67.692 C 180.400 67.922,180.136 67.879,179.790 67.592 C 179.455 67.314,179.080 67.187,178.956 67.310 C 178.590 67.676,176.380 66.756,176.635 66.344 C 176.963 65.813,176.034 64.795,175.251 64.825 C 174.810 64.843,174.891 64.968,175.500 65.212 C 176.457 65.597,176.665 66.189,175.990 66.606 C 175.765 66.745,175.630 66.711,175.690 66.530 C 175.910 65.870,174.107 64.453,173.640 64.920 C 173.320 65.240,173.200 65.216,173.200 64.831 C 173.200 64.400,173.074 64.404,172.523 64.851 C 172.151 65.153,171.963 65.205,172.106 64.967 C 172.248 64.728,172.103 64.533,171.782 64.533 C 171.462 64.533,171.200 64.673,171.200 64.843 M372.014 98.374 C 371.483 99.366,371.478 100.523,372.007 100.196 C 372.230 100.058,372.309 99.777,372.183 99.572 C 372.056 99.368,372.233 99.200,372.576 99.200 C 372.933 99.200,373.200 98.858,373.200 98.400 C 373.200 97.382,372.553 97.368,372.014 98.374 M373.600 98.642 C 373.600 98.996,373.150 99.639,372.600 100.071 C 371.918 100.608,371.600 101.252,371.600 102.096 C 371.600 102.776,371.726 103.207,371.881 103.052 C 372.036 102.898,372.531 103.905,372.981 105.290 L 373.800 107.809 373.870 102.904 C 373.908 100.207,373.863 98.000,373.770 98.000 C 373.676 98.000,373.600 98.289,373.600 98.642 M372.555 113.800 C 372.556 116.660,372.620 117.778,372.697 116.283 C 372.774 114.789,372.774 112.449,372.696 111.083 C 372.618 109.718,372.555 110.940,372.555 113.800 M373.093 120.800 C 372.925 122.450,372.727 124.790,372.655 126.000 C 372.582 127.210,372.519 126.439,372.515 124.287 C 372.510 122.135,372.376 120.245,372.216 120.087 C 372.057 119.929,371.982 121.996,372.050 124.680 C 372.118 127.363,372.045 129.688,371.887 129.846 C 371.151 130.582,371.706 144.229,372.453 143.767 C 372.644 143.649,372.800 144.589,372.800 145.856 C 372.800 148.443,372.153 148.402,371.894 145.800 C 371.806 144.920,371.704 145.674,371.667 147.476 C 371.630 149.278,371.763 150.853,371.962 150.976 C 372.161 151.099,372.226 151.965,372.107 152.900 C 371.988 153.835,372.043 154.456,372.231 154.281 C 372.728 153.815,372.724 150.296,372.226 149.635 C 371.902 149.205,371.938 149.116,372.378 149.261 C 372.951 149.450,373.286 150.305,374.000 153.400 C 374.296 154.681,374.325 154.442,374.144 152.200 C 374.019 150.660,373.740 149.067,373.523 148.659 C 373.306 148.252,373.239 146.992,373.375 145.859 C 374.313 138.039,374.040 134.103,372.600 134.655 C 372.211 134.805,372.122 134.619,372.285 133.998 C 372.439 133.407,372.607 133.287,372.813 133.620 C 373.585 134.870,374.069 132.067,374.186 125.666 C 374.303 119.285,374.295 119.205,374.002 123.800 C 373.618 129.829,373.262 131.854,372.473 132.494 C 371.937 132.929,371.895 132.888,372.173 132.200 C 372.350 131.760,372.491 131.130,372.486 130.800 C 372.481 130.470,372.738 129.210,373.058 128.000 C 373.435 126.575,373.598 124.391,373.520 121.800 L 373.400 117.800 373.093 120.800 M373.044 153.800 C 373.373 155.271,373.602 155.590,373.594 154.567 C 373.591 154.145,373.405 153.530,373.182 153.200 C 372.885 152.762,372.848 152.924,373.044 153.800 M373.330 157.463 C 373.071 158.304,372.921 159.055,372.997 159.130 C 373.296 159.430,374.043 157.511,373.925 156.746 C 373.835 156.158,373.670 156.356,373.330 157.463 M372.800 166.181 C 372.800 167.183,373.704 168.800,374.264 168.800 C 374.623 168.800,374.800 168.270,374.800 167.200 C 374.800 165.760,374.700 165.600,373.800 165.600 C 373.192 165.600,372.800 165.828,372.800 166.181 M373.320 172.800 C 373.320 174.010,373.395 174.505,373.487 173.900 C 373.578 173.295,373.578 172.305,373.487 171.700 C 373.395 171.095,373.320 171.590,373.320 172.800 M373.467 175.467 C 373.320 175.613,373.203 176.018,373.206 176.367 C 373.212 176.924,373.264 176.928,373.641 176.400 C 373.989 175.912,374.035 175.960,373.884 176.656 C 373.782 177.126,373.851 177.756,374.038 178.056 C 374.251 178.398,374.335 178.046,374.262 177.107 C 374.140 175.522,373.902 175.031,373.467 175.467 M373.095 180.304 C 372.707 180.390,372.498 180.636,372.631 180.850 C 372.781 181.092,373.084 181.063,373.436 180.770 C 373.881 180.401,374.000 180.434,374.000 180.927 C 374.000 181.271,374.180 181.664,374.400 181.800 C 374.620 181.936,374.800 181.696,374.800 181.266 C 374.800 180.410,374.185 180.062,373.095 180.304 M374.524 194.200 C 374.526 195.520,374.601 196.012,374.690 195.293 C 374.779 194.574,374.777 193.494,374.686 192.893 C 374.595 192.292,374.522 192.880,374.524 194.200 M373.905 200.485 C 373.816 200.752,373.825 201.398,373.925 201.922 C 374.145 203.072,374.784 202.321,374.794 200.900 C 374.800 199.950,374.180 199.661,373.905 200.485 M373.613 216.720 C 373.093 217.280,373.104 217.322,373.713 217.089 C 374.213 216.897,374.400 217.031,374.400 217.579 C 374.400 217.994,374.175 218.424,373.900 218.535 C 373.601 218.656,373.682 218.750,374.100 218.768 C 374.570 218.790,374.798 218.505,374.794 217.900 C 374.784 216.473,374.296 215.985,373.613 216.720 M373.545 221.295 C 373.844 221.677,373.981 222.271,373.849 222.616 C 373.711 222.976,373.777 223.138,374.005 222.997 C 374.616 222.619,374.473 221.756,373.700 221.149 C 373.067 220.652,373.052 220.666,373.545 221.295 M374.000 224.600 C 374.000 224.930,374.180 225.200,374.400 225.200 C 374.620 225.200,374.800 224.930,374.800 224.600 C 374.800 224.270,374.620 224.000,374.400 224.000 C 374.180 224.000,374.000 224.270,374.000 224.600 M373.800 227.962 C 373.800 228.601,373.935 229.040,374.100 228.938 C 374.265 228.836,374.400 228.313,374.400 227.776 C 374.400 227.239,374.265 226.800,374.100 226.800 C 373.935 226.800,373.800 227.323,373.800 227.962 M373.200 229.987 C 373.200 230.201,372.885 230.278,372.500 230.160 C 371.983 230.001,372.013 230.082,372.618 230.472 C 373.090 230.776,373.388 231.339,373.322 231.800 C 373.208 232.593,373.210 232.593,373.541 231.806 C 373.726 231.370,373.793 230.695,373.691 230.306 C 373.492 229.546,373.200 229.356,373.200 229.987 M374.028 231.956 C 374.013 232.262,373.685 232.751,373.300 233.043 C 372.664 233.526,372.700 233.576,373.700 233.587 C 374.870 233.601,374.941 233.460,374.400 232.200 C 374.206 231.749,374.044 231.642,374.028 231.956 M372.843 235.800 C 372.853 236.240,373.118 237.230,373.432 238.000 L 374.004 239.400 373.765 237.800 C 373.489 235.945,372.812 234.479,372.843 235.800 M372.241 240.636 C 372.107 240.986,372.091 241.424,372.205 241.608 C 372.320 241.793,372.230 242.058,372.007 242.196 C 371.783 242.334,371.601 242.662,371.602 242.924 C 371.604 243.469,373.564 241.197,373.586 240.624 C 373.594 240.416,373.321 240.596,372.979 241.024 C 372.376 241.778,372.366 241.775,372.606 240.900 C 372.888 239.875,372.611 239.674,372.241 240.636 M373.292 242.229 C 372.797 242.983,372.214 243.600,371.996 243.600 C 371.401 243.600,371.530 248.367,372.174 250.200 C 372.725 251.767,372.909 251.703,373.330 249.800 C 373.493 249.066,373.511 249.072,373.554 249.876 C 373.579 250.358,373.808 250.882,374.063 251.039 C 374.401 251.248,374.457 250.820,374.268 249.446 C 373.983 247.365,373.168 245.495,372.899 246.304 C 372.807 246.579,372.556 246.697,372.342 246.564 C 372.112 246.422,372.190 246.133,372.531 245.862 C 373.095 245.412,374.626 241.292,374.336 241.003 C 374.256 240.923,373.786 241.474,373.292 242.229 M372.090 263.217 C 371.380 265.493,371.468 267.031,372.214 265.400 C 372.685 264.373,372.767 264.326,372.782 265.071 C 372.792 265.551,372.511 266.232,372.157 266.586 C 371.460 267.283,371.697 271.034,372.410 270.594 C 372.622 270.463,372.618 269.974,372.402 269.405 C 372.107 268.629,372.150 268.483,372.617 268.662 C 373.200 268.885,373.274 269.097,373.305 270.600 L 373.321 271.400 373.510 270.600 L 373.700 269.800 374.057 270.600 C 374.319 271.184,374.357 271.022,374.199 270.000 C 374.079 269.230,373.798 268.537,373.574 268.461 C 373.311 268.371,373.331 268.124,373.630 267.763 C 373.885 267.456,374.008 266.754,373.903 266.202 C 373.797 265.651,373.866 265.200,374.055 265.200 C 374.245 265.200,374.400 264.570,374.400 263.800 C 374.400 262.159,373.619 261.880,373.559 263.500 C 373.520 264.544,373.502 264.532,373.205 263.280 C 372.769 261.438,372.647 261.431,372.090 263.217 M373.646 273.020 C 373.621 273.471,373.421 274.057,373.201 274.321 C 372.982 274.586,373.090 274.553,373.440 274.249 C 373.790 273.944,373.990 273.358,373.885 272.947 C 373.712 272.274,373.688 272.281,373.646 273.020 M373.011 276.700 C 373.174 277.085,373.523 278.300,373.785 279.400 L 374.262 281.400 374.526 279.800 C 375.045 276.668,374.910 276.000,373.757 276.000 C 372.918 276.000,372.772 276.136,373.011 276.700 M373.067 282.267 C 372.523 282.811,372.829 283.200,373.800 283.200 C 374.422 283.200,374.800 282.973,374.800 282.600 C 374.800 282.000,373.570 281.763,373.067 282.267 M371.867 286.667 C 371.352 287.182,371.565 289.268,372.100 288.947 C 372.475 288.722,372.470 288.807,372.081 289.288 C 371.538 289.958,371.785 290.277,372.800 290.215 C 373.186 290.192,373.363 289.842,373.295 289.236 C 373.207 288.437,373.282 288.370,373.795 288.796 C 374.166 289.103,374.400 289.135,374.400 288.878 C 374.400 288.647,373.956 288.109,373.414 287.682 C 372.871 287.255,372.541 286.792,372.680 286.653 C 372.819 286.514,372.753 286.400,372.533 286.400 C 372.313 286.400,372.013 286.520,371.867 286.667 M22.218 352.709 C 21.972 352.969,20.843 352.288,20.639 351.756 C 20.470 351.318,20.651 351.350,21.368 351.887 C 21.893 352.279,22.275 352.649,22.218 352.709 M361.480 374.936 C 361.367 375.231,361.435 375.726,361.631 376.036 C 361.891 376.447,361.989 376.301,361.994 375.500 C 362.001 374.306,361.804 374.090,361.480 374.936 M324.898 399.167 C 324.954 399.515,324.780 399.757,324.512 399.704 C 324.244 399.651,323.841 399.950,323.617 400.368 C 323.084 401.364,324.306 401.268,324.865 400.270 C 325.071 399.901,325.636 399.579,326.120 399.554 C 326.804 399.518,326.843 399.466,326.295 399.323 C 325.907 399.222,325.674 399.003,325.778 398.836 C 325.881 398.670,325.702 398.533,325.380 398.533 C 325.059 398.533,324.842 398.818,324.898 399.167 M73.443 401.433 C 73.260 401.908,73.393 401.993,74.013 401.796 C 74.956 401.497,74.949 402.288,74.000 403.128 C 73.670 403.420,73.613 403.553,73.872 403.423 C 74.132 403.293,74.460 403.373,74.600 403.600 C 74.740 403.827,75.043 403.897,75.272 403.755 C 75.502 403.614,75.854 403.746,76.056 404.049 C 76.302 404.419,76.386 404.074,76.311 403.000 C 76.238 401.948,76.023 401.436,75.684 401.505 C 75.400 401.563,74.833 401.432,74.424 401.213 C 73.862 400.912,73.622 400.966,73.443 401.433 M82.865 410.352 C 82.391 410.652,82.283 411.888,82.441 415.200 C 82.457 415.530,83.072 416.250,83.808 416.800 C 84.545 417.350,85.229 418.103,85.329 418.473 C 85.451 418.925,86.020 419.188,87.056 419.273 C 88.294 419.375,88.575 419.544,88.476 420.130 C 88.264 421.374,89.152 421.931,91.803 422.215 C 93.992 422.449,94.373 422.609,94.478 423.334 C 94.641 424.467,96.190 425.187,98.478 425.194 C 100.117 425.199,100.423 425.337,100.878 426.274 C 101.555 427.668,103.006 428.039,109.077 428.374 C 109.339 428.388,109.490 428.730,109.413 429.134 C 109.213 430.170,109.803 430.961,110.560 430.671 C 110.912 430.536,111.200 430.577,111.200 430.762 C 111.200 430.947,112.041 431.115,113.068 431.136 C 114.907 431.173,115.919 431.841,115.209 432.551 C 114.738 433.022,115.681 433.953,116.650 433.974 C 118.303 434.009,118.800 434.154,118.800 434.605 C 118.800 435.354,120.297 436.511,120.837 436.177 C 121.147 435.985,121.220 436.044,121.038 436.338 C 120.735 436.829,120.824 436.870,122.423 436.965 C 122.986 436.998,123.976 437.523,124.623 438.130 C 125.537 438.988,125.621 439.179,125.000 438.985 C 124.211 438.738,124.211 438.743,124.976 439.367 C 125.467 439.767,126.534 440.000,127.876 440.000 C 130.086 440.000,130.114 440.026,130.108 442.091 C 130.107 442.471,130.262 442.685,130.453 442.567 C 130.644 442.449,130.800 442.551,130.800 442.794 C 130.800 443.037,131.025 443.206,131.300 443.170 C 132.582 443.004,133.627 443.233,133.384 443.627 C 133.239 443.861,133.453 444.325,133.860 444.656 C 134.267 444.988,134.347 445.128,134.038 444.968 C 133.656 444.770,133.573 444.833,133.779 445.165 C 133.945 445.434,134.333 445.558,134.640 445.440 C 134.948 445.322,135.200 445.382,135.200 445.574 C 135.200 445.765,137.451 445.946,140.201 445.974 C 145.876 446.033,146.811 446.210,145.712 447.018 C 145.041 447.510,145.047 447.537,145.800 447.470 C 146.350 447.422,146.581 447.627,146.540 448.126 C 146.482 448.826,146.509 448.826,147.309 448.126 C 147.765 447.727,148.019 447.605,147.873 447.855 C 147.544 448.422,148.614 449.362,149.186 449.009 C 150.002 448.504,151.245 449.224,151.120 450.129 C 151.044 450.675,151.220 451.000,151.600 451.014 C 151.930 451.026,152.155 451.253,152.100 451.518 C 152.045 451.783,152.135 451.979,152.300 451.953 C 153.451 451.771,153.934 452.125,154.157 453.313 C 154.357 454.378,154.607 454.643,155.479 454.715 C 156.663 454.813,157.302 455.501,156.991 456.345 C 156.854 456.718,156.999 456.809,157.452 456.635 C 157.984 456.431,158.022 456.492,157.646 456.944 C 157.279 457.387,157.329 457.564,157.882 457.776 C 158.277 457.928,158.651 457.848,158.735 457.595 C 159.011 456.767,159.859 458.562,159.966 460.200 C 160.156 463.126,160.260 463.390,161.892 465.072 C 163.409 466.635,163.698 466.761,166.357 467.023 C 168.690 467.253,169.200 467.429,169.200 468.003 C 169.200 469.746,169.657 469.794,187.161 469.906 C 204.980 470.020,205.963 470.081,205.186 471.016 C 204.377 471.992,207.393 471.789,208.308 470.806 C 208.895 470.176,209.618 470.001,211.824 469.955 C 214.833 469.893,216.400 469.484,216.400 468.761 C 216.400 468.452,216.182 468.481,215.730 468.851 C 215.147 469.329,215.153 469.257,215.776 468.300 C 216.170 467.695,216.786 467.186,217.146 467.169 C 217.506 467.153,218.160 467.044,218.600 466.928 C 219.040 466.812,219.889 466.728,220.487 466.742 C 221.782 466.770,222.254 466.188,221.585 465.382 C 221.201 464.919,221.218 464.800,221.666 464.800 C 221.976 464.800,222.256 464.450,222.288 464.023 C 222.331 463.457,222.164 463.310,221.673 463.482 C 221.110 463.679,221.086 463.626,221.527 463.159 C 221.978 462.681,222.123 462.687,222.528 463.200 C 223.152 463.989,223.956 464.135,224.625 463.580 C 224.922 463.333,225.353 463.247,225.582 463.389 C 225.812 463.531,226.000 463.446,226.000 463.200 C 226.000 462.954,226.171 462.858,226.379 462.987 C 226.590 463.118,226.683 462.831,226.588 462.340 C 226.458 461.664,226.529 461.569,226.889 461.929 C 227.148 462.188,227.549 462.397,227.780 462.394 C 228.011 462.391,227.930 462.211,227.600 461.994 C 227.161 461.706,227.126 461.518,227.469 461.295 C 227.851 461.048,225.773 460.990,222.900 461.169 C 222.625 461.186,222.400 461.500,222.400 461.867 C 222.400 462.233,222.295 462.428,222.167 462.300 C 222.038 462.172,221.633 462.367,221.266 462.734 C 220.708 463.292,220.038 463.366,217.199 463.182 C 213.583 462.948,208.647 463.700,205.200 465.008 C 202.089 466.190,190.880 466.095,189.219 464.873 C 187.862 463.874,187.540 463.774,183.600 463.117 C 178.549 462.276,171.113 460.109,167.400 458.396 C 166.520 457.990,164.783 457.191,163.541 456.619 C 160.963 455.434,160.499 454.985,160.168 453.362 C 160.008 452.574,159.524 452.007,158.666 451.600 C 157.798 451.189,157.362 450.672,157.279 449.957 C 157.183 449.129,156.832 448.816,155.579 448.441 C 154.711 448.181,154.000 447.795,154.000 447.584 C 154.000 447.373,153.775 447.245,153.500 447.300 C 153.225 447.355,153.020 447.117,153.044 446.772 C 153.074 446.338,152.359 445.928,150.736 445.446 C 149.443 445.062,148.480 444.594,148.596 444.406 C 149.104 443.584,145.544 442.019,143.900 442.341 C 143.735 442.374,143.600 442.220,143.600 442.000 C 143.600 441.780,143.337 441.600,143.016 441.600 C 142.694 441.600,142.109 441.279,141.716 440.887 C 140.922 440.097,139.033 439.408,136.600 439.022 C 134.447 438.680,132.761 437.986,133.029 437.554 C 133.149 437.359,132.865 437.200,132.397 437.200 C 131.930 437.200,131.229 437.030,130.841 436.822 C 130.452 436.614,129.281 436.400,128.238 436.346 C 126.606 436.261,126.260 436.089,125.754 435.110 C 125.370 434.368,124.738 433.888,123.934 433.727 C 123.106 433.561,122.443 433.041,121.912 432.140 C 121.179 430.898,120.742 430.607,119.853 430.768 C 119.255 430.877,117.600 429.607,117.600 429.039 C 117.600 428.490,116.316 427.842,114.286 427.367 C 113.654 427.219,112.935 426.647,112.624 426.046 C 112.238 425.299,111.540 424.843,110.259 424.500 C 109.260 424.233,107.906 423.490,107.250 422.849 C 106.594 422.208,105.143 421.380,104.025 421.008 C 102.907 420.637,101.816 420.004,101.601 419.601 C 101.385 419.199,100.352 418.551,99.305 418.161 C 98.257 417.771,96.680 416.971,95.800 416.383 C 94.920 415.795,93.302 414.920,92.205 414.437 C 91.108 413.955,89.848 413.221,89.405 412.806 C 88.962 412.390,88.150 411.965,87.600 411.861 C 85.944 411.547,85.252 411.165,85.123 410.495 C 85.016 409.942,84.896 409.960,84.222 410.629 C 83.542 411.304,83.478 411.313,83.710 410.700 C 83.998 409.940,83.705 409.819,82.865 410.352 M263.967 437.500 C 263.948 437.665,263.888 438.213,263.832 438.717 C 263.712 439.808,264.284 440.277,264.935 439.621 C 265.290 439.264,265.210 439.213,264.600 439.407 C 263.816 439.655,263.815 439.651,264.579 439.166 C 265.186 438.781,265.393 438.779,265.519 439.157 C 265.707 439.722,266.767 438.505,266.787 437.700 C 266.801 437.164,264.026 436.968,263.967 437.500 M257.596 440.595 C 258.012 441.097,258.022 441.338,257.639 441.717 C 257.258 442.096,257.215 442.027,257.440 441.400 C 257.598 440.960,257.603 440.711,257.451 440.846 C 256.238 441.926,257.050 443.148,258.418 442.300 C 259.082 441.888,259.300 441.906,259.650 442.400 C 260.013 442.912,260.044 442.902,259.862 442.329 C 259.744 441.960,259.907 441.443,260.224 441.180 C 261.171 440.394,260.897 440.155,258.933 440.053 C 257.263 439.966,257.122 440.024,257.596 440.595 M249.319 444.655 C 249.754 445.381,248.752 445.868,246.632 445.959 C 245.212 446.020,244.339 446.317,243.501 447.022 C 242.862 447.560,241.934 448.000,241.439 448.000 C 240.552 448.000,238.800 449.486,238.800 450.238 C 238.800 450.451,238.279 450.821,237.643 451.061 C 236.823 451.371,236.405 451.865,236.210 452.756 C 236.028 453.581,235.532 454.221,234.767 454.617 C 233.979 455.024,233.600 455.527,233.600 456.161 C 233.600 457.334,232.705 458.107,231.287 458.160 C 230.689 458.182,230.245 458.335,230.300 458.500 C 230.355 458.665,230.403 459.295,230.406 459.900 C 230.410 460.558,230.535 460.807,230.717 460.521 C 230.917 460.205,231.222 460.169,231.611 460.415 C 232.371 460.896,233.314 460.909,233.021 460.434 C 232.897 460.233,232.986 460.005,233.219 459.927 C 233.453 459.849,233.695 459.429,233.758 458.993 C 233.844 458.396,234.233 458.169,235.336 458.076 C 236.141 458.008,236.800 457.808,236.800 457.631 C 236.800 457.455,237.222 457.392,237.737 457.490 C 238.828 457.699,240.000 456.705,240.000 455.571 C 240.000 454.959,240.284 454.800,241.373 454.800 C 242.672 454.800,243.370 454.077,243.166 452.941 C 243.006 452.046,243.288 451.757,244.300 451.778 C 244.975 451.791,245.361 451.607,245.300 451.300 C 245.245 451.025,245.380 450.800,245.600 450.800 C 245.820 450.800,245.979 450.665,245.953 450.500 C 245.824 449.688,246.087 449.289,247.030 448.859 C 247.596 448.601,248.208 448.481,248.388 448.593 C 248.569 448.704,248.831 448.496,248.972 448.130 C 249.112 447.764,249.028 447.341,248.784 447.190 C 247.999 446.705,249.465 445.686,250.788 445.799 C 252.261 445.924,252.721 445.400,251.643 444.823 C 251.072 444.517,250.820 444.538,250.697 444.903 C 250.571 445.280,250.350 445.255,249.788 444.800 C 249.380 444.470,249.169 444.405,249.319 444.655 " stroke="none" fill="#f2efef" fill-rule="evenodd"></path></g></svg>