<svg id="svg" version="1.1" xmlns="http://www.w3.org/2000/svg" xmlns:xlink="http://www.w3.org/1999/xlink" width="400" height="390.3030303030303" viewBox="0, 0, 400,390.3030303030303"><g id="svgg"><path id="path0" d="M171.094 9.760 L 171.094 10.938 168.555 10.938 L 166.016 10.938 166.016 12.109 L 166.016 13.281 163.672 13.281 C 161.337 13.281,161.328 13.285,161.328 14.434 C 161.328 15.576,161.304 15.589,158.887 15.704 C 156.445 15.820,156.445 15.820,156.323 17.090 L 156.201 18.359 153.882 18.359 C 151.565 18.359,151.563 18.361,151.563 19.531 C 151.563 20.701,151.559 20.703,149.250 20.703 C 146.998 20.703,146.930 20.734,146.680 21.875 C 146.429 23.016,146.362 23.047,144.110 23.047 C 141.800 23.047,141.797 23.049,141.797 24.219 L 141.797 25.391 139.453 25.391 C 137.118 25.391,137.109 25.395,137.109 26.544 C 137.109 27.686,137.085 27.698,134.668 27.813 C 132.227 27.930,132.227 27.930,132.104 29.199 L 131.982 30.469 129.663 30.469 C 127.355 30.469,127.344 30.474,127.344 31.622 C 127.344 32.764,127.320 32.776,124.902 32.892 C 122.563 33.003,122.456 33.053,122.337 34.082 C 122.218 35.119,122.134 35.156,119.896 35.156 C 117.581 35.156,117.578 35.158,117.578 36.328 L 117.578 37.500 115.234 37.500 L 112.891 37.500 112.891 38.672 C 112.891 39.789,112.813 39.844,111.230 39.849 C 108.490 39.858,107.813 40.176,107.813 41.452 C 107.813 42.568,107.791 42.578,105.469 42.578 L 103.125 42.578 103.125 43.750 L 103.125 44.922 100.586 44.922 L 98.047 44.922 98.047 46.094 L 98.047 47.266 95.703 47.266 L 93.359 47.266 93.359 48.438 L 93.359 49.609 91.016 49.609 L 88.672 49.609 88.672 50.977 L 88.672 52.344 86.133 52.344 L 83.594 52.344 83.594 53.516 L 83.594 54.688 81.250 54.688 L 78.906 54.688 78.906 55.859 L 78.906 57.031 76.367 57.031 L 73.828 57.031 73.828 58.203 L 73.828 59.375 71.484 59.375 L 69.141 59.375 69.141 60.547 C 69.141 61.589,69.010 61.719,67.969 61.719 C 66.890 61.719,66.797 61.827,66.797 63.086 L 66.797 64.453 64.258 64.453 L 61.719 64.453 61.719 65.625 L 61.719 66.797 59.375 66.797 C 57.040 66.797,57.031 66.801,57.031 67.950 C 57.031 69.092,57.007 69.104,54.590 69.220 C 52.250 69.331,52.143 69.381,52.025 70.410 C 51.905 71.447,51.822 71.484,49.583 71.484 C 47.277 71.484,47.266 71.490,47.266 72.637 C 47.266 73.766,47.220 73.792,45.020 73.906 C 42.799 74.022,42.772 74.038,42.651 75.293 L 42.529 76.563 40.014 76.563 L 37.500 76.563 37.500 77.734 L 37.500 78.906 35.156 78.906 C 32.821 78.906,32.813 78.910,32.813 80.059 C 32.813 81.201,32.788 81.214,30.371 81.329 C 28.031 81.440,27.925 81.490,27.806 82.520 C 27.687 83.557,27.603 83.594,25.365 83.594 L 23.047 83.594 23.047 84.961 L 23.047 86.328 20.703 86.328 L 18.359 86.328 18.359 87.500 C 18.359 88.579,18.251 88.672,16.992 88.672 C 15.734 88.672,15.625 88.765,15.625 89.844 C 15.625 90.885,15.495 91.016,14.453 91.016 C 13.411 91.016,13.281 91.146,13.281 92.188 C 13.281 93.229,13.151 93.359,12.109 93.359 L 10.938 93.359 10.938 98.242 L 10.938 103.125 9.766 103.125 L 8.594 103.125 8.594 114.063 L 8.594 125.000 9.766 125.000 L 10.938 125.000 10.938 129.883 L 10.938 134.766 12.109 134.766 L 13.281 134.766 13.281 138.281 L 13.281 141.797 14.453 141.797 L 15.625 141.797 15.625 146.680 L 15.625 151.563 16.992 151.563 L 18.359 151.563 18.359 156.445 L 18.359 161.328 19.531 161.328 L 20.703 161.328 20.703 166.211 L 20.703 171.094 21.875 171.094 L 23.047 171.094 23.047 175.977 L 23.047 180.859 24.207 180.859 L 25.367 180.859 25.476 185.645 L 25.586 190.430 26.660 190.553 L 27.734 190.677 27.734 195.338 L 27.734 200.000 29.102 200.000 L 30.469 200.000 30.469 204.883 L 30.469 209.766 31.641 209.766 L 32.813 209.766 32.813 214.648 L 32.813 219.531 33.984 219.531 L 35.156 219.531 35.156 223.242 L 35.156 226.953 36.316 226.953 L 37.476 226.953 37.586 231.738 L 37.695 236.523 38.770 236.647 L 39.844 236.771 39.844 241.432 L 39.844 246.094 41.211 246.094 L 42.578 246.094 42.578 250.977 L 42.578 255.859 43.750 255.859 L 44.922 255.859 44.922 260.742 L 44.922 265.625 46.094 265.625 L 47.266 265.625 47.266 270.508 L 47.266 275.391 48.423 275.391 L 49.580 275.391 49.692 279.004 C 49.805 282.613,49.806 282.617,50.867 282.740 L 51.929 282.862 52.039 287.427 L 52.148 291.992 53.418 292.115 L 54.688 292.237 54.688 297.095 L 54.688 301.953 57.007 301.953 L 59.326 301.953 59.448 303.223 C 59.549 304.273,59.752 304.513,60.621 304.614 C 61.433 304.707,61.699 304.973,61.793 305.785 C 61.908 306.786,62.030 306.841,64.355 306.952 C 66.773 307.067,66.797 307.080,66.797 308.222 C 66.797 309.243,66.931 309.375,67.969 309.375 C 69.010 309.375,69.141 309.505,69.141 310.547 L 69.141 311.719 71.484 311.719 L 73.828 311.719 73.828 312.891 L 73.828 314.063 76.367 314.063 L 78.906 314.063 78.906 315.430 C 78.906 316.688,78.999 316.797,80.078 316.797 C 81.120 316.797,81.250 316.927,81.250 317.969 L 81.250 319.141 83.594 319.141 L 85.938 319.141 85.938 320.313 L 85.938 321.484 88.477 321.484 L 91.016 321.484 91.016 322.656 L 91.016 323.828 93.359 323.828 L 95.703 323.828 95.703 325.000 C 95.703 326.036,95.836 326.172,96.850 326.172 C 97.859 326.172,98.012 326.325,98.120 327.441 C 98.242 328.711,98.242 328.711,100.684 328.827 C 103.101 328.942,103.125 328.955,103.125 330.097 C 103.125 331.118,103.259 331.250,104.297 331.250 C 105.339 331.250,105.469 331.380,105.469 332.422 L 105.469 333.594 107.813 333.594 L 110.156 333.594 110.156 334.766 L 110.156 335.938 112.695 335.938 L 115.234 335.938 115.234 337.109 C 115.234 338.151,115.365 338.281,116.406 338.281 C 117.485 338.281,117.578 338.390,117.578 339.648 L 117.578 341.016 119.896 341.016 C 122.134 341.016,122.218 341.053,122.337 342.090 C 122.456 343.119,122.563 343.169,124.902 343.280 C 127.320 343.396,127.344 343.408,127.344 344.550 C 127.344 345.571,127.478 345.703,128.516 345.703 C 129.557 345.703,129.688 345.833,129.688 346.875 L 129.688 348.047 132.031 348.047 C 134.081 348.047,134.375 348.141,134.375 348.796 C 134.375 350.507,134.758 350.781,137.151 350.781 C 139.448 350.781,139.453 350.784,139.453 351.953 C 139.453 352.995,139.583 353.125,140.625 353.125 C 141.667 353.125,141.797 353.255,141.797 354.297 C 141.797 355.467,141.800 355.469,144.110 355.469 C 146.362 355.469,146.429 355.499,146.680 356.641 C 146.930 357.782,146.998 357.813,149.250 357.813 C 151.559 357.813,151.563 357.814,151.563 358.984 C 151.563 360.020,151.695 360.156,152.710 360.156 C 153.718 360.156,153.872 360.309,153.979 361.426 C 154.102 362.695,154.102 362.695,156.543 362.812 C 158.960 362.927,158.984 362.939,158.984 364.081 C 158.984 365.230,158.993 365.234,161.328 365.234 L 163.672 365.234 163.672 366.406 C 163.672 367.448,163.802 367.578,164.844 367.578 C 165.885 367.578,166.016 367.708,166.016 368.750 L 166.016 369.922 168.555 369.922 L 171.094 369.922 171.094 371.094 C 171.094 372.264,171.096 372.266,173.413 372.266 L 175.732 372.266 175.854 373.535 C 175.956 374.593,176.156 374.825,177.051 374.928 C 177.950 375.032,178.125 375.238,178.125 376.198 L 178.125 377.344 180.664 377.344 L 183.203 377.344 183.203 378.516 C 183.203 379.557,183.333 379.688,184.375 379.688 C 185.417 379.688,185.547 379.818,185.547 380.859 L 185.547 382.031 187.891 382.031 L 190.234 382.031 190.234 383.203 L 190.234 384.375 192.773 384.375 L 195.313 384.375 195.313 385.746 L 195.313 387.117 213.379 387.016 L 231.445 386.914 231.568 385.645 C 231.675 384.528,231.829 384.375,232.837 384.375 C 233.851 384.375,233.984 384.239,233.984 383.203 L 233.984 382.031 236.328 382.031 L 238.672 382.031 238.672 380.859 C 238.672 379.781,238.780 379.688,240.039 379.688 C 241.291 379.688,241.406 379.591,241.406 378.542 C 241.406 377.582,241.581 377.376,242.480 377.272 C 243.324 377.175,243.581 376.918,243.678 376.074 C 243.782 375.175,243.988 375.000,244.948 375.000 C 245.997 375.000,246.094 374.885,246.094 373.633 L 246.094 372.266 248.438 372.266 L 250.781 372.266 250.781 371.094 C 250.781 370.015,250.890 369.922,252.148 369.922 C 253.407 369.922,253.516 369.829,253.516 368.750 C 253.516 367.708,253.646 367.578,254.688 367.578 C 255.729 367.578,255.859 367.448,255.859 366.406 L 255.859 365.234 258.203 365.234 L 260.547 365.234 260.547 364.063 C 260.547 363.021,260.677 362.891,261.719 362.891 C 262.798 362.891,262.891 362.782,262.891 361.523 C 262.891 360.221,262.956 360.156,264.258 360.156 C 265.516 360.156,265.625 360.063,265.625 358.984 C 265.625 357.943,265.755 357.813,266.797 357.813 C 267.839 357.813,267.969 357.682,267.969 356.641 L 267.969 355.469 270.313 355.469 L 272.656 355.469 272.656 354.297 C 272.656 353.255,272.786 353.125,273.828 353.125 C 274.864 353.125,275.000 352.992,275.000 351.978 C 275.000 350.969,275.153 350.816,276.270 350.708 C 277.386 350.601,277.554 350.433,277.661 349.316 L 277.784 348.047 280.103 348.047 C 282.419 348.047,282.422 348.045,282.422 346.875 C 282.422 345.833,282.552 345.703,283.594 345.703 C 284.635 345.703,284.766 345.573,284.766 344.531 C 284.766 343.490,284.896 343.359,285.938 343.359 C 286.974 343.359,287.109 343.226,287.109 342.212 C 287.109 341.204,287.263 341.050,288.379 340.943 C 289.495 340.835,289.663 340.667,289.771 339.551 L 289.893 338.281 292.212 338.281 C 294.529 338.281,294.531 338.280,294.531 337.109 C 294.531 336.068,294.661 335.938,295.703 335.938 C 296.745 335.938,296.875 335.807,296.875 334.766 C 296.875 333.724,297.005 333.594,298.047 333.594 C 299.089 333.594,299.219 333.464,299.219 332.422 L 299.219 331.250 301.758 331.250 L 304.297 331.250 304.297 330.078 C 304.297 329.036,304.427 328.906,305.469 328.906 C 306.548 328.906,306.641 328.798,306.641 327.539 C 306.641 326.280,306.734 326.172,307.813 326.172 C 308.854 326.172,308.984 326.042,308.984 325.000 L 308.984 323.828 311.523 323.828 L 314.063 323.828 314.063 322.656 C 314.063 321.615,314.193 321.484,315.234 321.484 C 316.276 321.484,316.406 321.354,316.406 320.313 C 316.406 319.271,316.536 319.141,317.578 319.141 C 318.620 319.141,318.750 319.010,318.750 317.969 C 318.750 316.927,318.880 316.797,319.922 316.797 C 321.001 316.797,321.094 316.688,321.094 315.430 L 321.094 314.063 323.633 314.063 L 326.172 314.063 326.172 312.891 C 326.172 311.849,326.302 311.719,327.344 311.719 C 328.385 311.719,328.516 311.589,328.516 310.547 C 328.516 309.505,328.646 309.375,329.688 309.375 C 330.725 309.375,330.859 309.243,330.859 308.222 C 330.859 307.080,330.884 307.067,333.301 306.952 C 335.626 306.841,335.748 306.786,335.864 305.785 C 335.957 304.973,336.223 304.707,337.035 304.614 C 337.904 304.513,338.107 304.273,338.208 303.223 C 338.316 302.106,338.469 301.953,339.478 301.953 C 340.492 301.953,340.625 301.817,340.625 300.781 C 340.625 299.740,340.755 299.609,341.797 299.609 C 342.834 299.609,342.969 299.477,342.969 298.456 C 342.969 297.314,342.993 297.302,345.410 297.187 C 347.736 297.076,347.857 297.020,347.973 296.020 C 348.067 295.208,348.333 294.942,349.145 294.848 C 350.014 294.748,350.216 294.507,350.318 293.457 C 350.425 292.341,350.579 292.188,351.587 292.188 C 352.601 292.188,352.734 292.052,352.734 291.016 L 352.734 289.844 355.078 289.844 L 357.422 289.844 357.422 288.672 C 357.422 287.593,357.530 287.500,358.789 287.500 C 360.048 287.500,360.156 287.407,360.156 286.328 C 360.156 285.286,360.286 285.156,361.328 285.156 C 362.370 285.156,362.500 285.026,362.500 283.984 C 362.500 282.943,362.630 282.813,363.672 282.813 C 364.751 282.813,364.844 282.704,364.844 281.445 L 364.844 280.078 367.188 280.078 L 369.531 280.078 369.531 278.906 C 369.531 277.827,369.640 277.734,370.898 277.734 C 372.157 277.734,372.266 277.641,372.266 276.563 C 372.266 275.521,372.396 275.391,373.438 275.391 C 374.479 275.391,374.609 275.260,374.609 274.219 L 374.609 273.047 376.953 273.047 L 379.297 273.047 379.297 271.875 C 379.297 270.833,379.427 270.703,380.469 270.703 C 381.548 270.703,381.641 270.595,381.641 269.336 C 381.641 268.034,381.706 267.969,383.008 267.969 C 384.266 267.969,384.375 267.876,384.375 266.797 C 384.375 265.755,384.505 265.625,385.547 265.625 L 386.719 265.625 386.719 250.000 L 386.719 234.375 385.374 234.375 C 384.071 234.375,384.026 234.323,383.909 232.715 C 383.805 231.280,383.657 231.037,382.813 230.921 C 380.176 230.562,380.152 230.313,381.213 214.258 C 381.514 209.696,381.337 208.984,379.898 208.984 C 378.311 208.984,378.144 207.762,378.558 199.158 C 379.003 189.894,378.930 190.234,380.456 190.234 L 381.641 190.234 381.641 183.008 L 381.641 175.781 380.469 175.781 L 379.297 175.781 379.297 162.500 L 379.297 149.219 378.125 149.219 L 376.953 149.219 376.953 137.109 L 376.953 125.000 375.781 125.000 L 374.609 125.000 374.609 111.719 L 374.609 98.438 373.438 98.438 L 372.266 98.438 372.266 86.422 L 372.266 74.406 371.273 73.336 C 370.727 72.747,370.112 72.266,369.906 72.266 C 369.678 72.266,369.531 68.828,369.531 63.477 L 369.531 54.688 368.359 54.688 C 367.318 54.688,367.188 54.557,367.188 53.516 C 367.188 52.480,367.055 52.344,366.040 52.344 C 365.032 52.344,364.878 52.191,364.771 51.074 C 364.669 50.016,364.469 49.784,363.574 49.681 C 362.675 49.578,362.500 49.371,362.500 48.412 C 362.500 47.404,362.361 47.266,361.354 47.266 C 360.394 47.266,360.188 47.091,360.085 46.191 C 359.982 45.296,359.749 45.097,358.691 44.995 C 357.575 44.887,357.422 44.734,357.422 43.725 C 357.422 42.584,357.411 42.578,355.078 42.578 C 352.749 42.578,352.734 42.571,352.734 41.437 C 352.734 40.492,352.537 40.253,351.586 40.044 C 350.710 39.852,350.409 39.543,350.316 38.744 C 350.223 37.934,349.956 37.668,349.145 37.574 C 348.333 37.480,348.067 37.214,347.973 36.402 L 347.852 35.352 340.527 35.245 L 333.203 35.139 333.203 33.976 L 333.203 32.813 325.977 32.813 L 318.750 32.813 318.750 31.641 L 318.750 30.469 312.720 30.469 L 306.690 30.469 306.568 29.199 L 306.445 27.930 299.316 27.823 L 292.188 27.717 292.188 26.554 L 292.188 25.391 284.987 25.391 L 277.786 25.391 277.663 24.316 L 277.539 23.242 271.607 23.134 L 265.675 23.027 265.552 21.963 L 265.430 20.898 258.105 20.792 L 250.781 20.686 250.781 19.523 L 250.781 18.359 243.579 18.359 L 236.378 18.359 236.255 17.090 L 236.133 15.820 230.176 15.712 L 224.219 15.605 224.219 14.443 L 224.219 13.281 216.992 13.281 L 209.766 13.281 209.766 12.109 L 209.766 10.938 202.565 10.938 L 195.364 10.938 195.241 9.863 L 195.117 8.789 183.105 8.686 L 171.094 8.582 171.094 9.760 M194.404 27.488 C 195.417 28.338,196.028 28.443,201.839 28.772 C 207.617 29.099,208.253 29.208,209.114 30.016 C 209.958 30.809,210.577 30.927,214.997 31.136 C 219.521 31.350,220.023 31.450,220.963 32.321 C 221.854 33.146,222.482 33.302,225.699 33.494 C 229.058 33.694,229.527 33.820,230.674 34.826 C 231.857 35.865,232.160 35.938,235.331 35.938 C 238.646 35.937,240.027 36.300,240.825 37.382 C 241.072 37.717,242.679 38.068,245.122 38.322 C 248.030 38.624,249.322 38.941,250.195 39.566 C 251.461 40.472,255.959 40.924,264.325 40.986 C 268.070 41.014,268.373 41.078,269.575 42.090 C 270.788 43.111,271.099 43.174,275.888 43.359 C 280.835 43.551,280.938 43.574,281.706 44.629 C 282.458 45.663,282.618 45.703,285.996 45.703 C 289.579 45.703,290.818 46.055,291.721 47.328 C 292.126 47.898,292.749 48.047,294.735 48.047 C 296.968 48.047,297.385 48.175,298.594 49.237 L 299.950 50.427 306.074 50.667 C 311.741 50.888,312.279 50.974,313.284 51.820 C 314.358 52.724,314.482 52.734,323.829 52.734 L 333.288 52.734 335.394 54.840 C 337.997 57.443,338.245 59.081,336.328 60.998 C 335.524 61.802,335.154 62.558,335.150 63.409 C 335.138 65.609,332.153 68.055,328.781 68.625 C 327.283 68.878,325.951 69.240,325.821 69.429 C 325.268 70.236,323.570 71.094,322.528 71.094 C 321.795 71.094,321.136 71.431,320.641 72.061 C 320.222 72.593,319.142 73.222,318.241 73.460 C 317.339 73.697,316.207 74.308,315.724 74.817 C 315.242 75.327,314.219 75.917,313.451 76.129 C 312.243 76.463,309.021 78.934,305.905 81.919 C 305.393 82.409,304.254 83.004,303.374 83.241 C 302.495 83.478,301.395 84.082,300.930 84.584 C 300.465 85.085,299.436 85.617,298.644 85.766 C 297.851 85.915,296.800 86.439,296.307 86.931 C 295.815 87.424,294.793 87.997,294.037 88.206 C 293.280 88.415,291.466 89.572,290.005 90.777 C 288.544 91.983,286.959 92.969,286.484 92.969 C 286.009 92.969,284.884 93.584,283.984 94.336 C 283.084 95.088,281.983 95.703,281.537 95.703 C 281.091 95.703,280.430 95.971,280.068 96.299 C 279.706 96.626,278.286 97.475,276.912 98.184 C 269.970 101.770,268.828 102.428,267.396 103.671 C 266.544 104.410,265.378 105.108,264.806 105.222 C 264.234 105.337,263.525 105.661,263.231 105.943 C 262.392 106.746,260.620 107.813,260.125 107.813 C 259.725 107.813,255.966 110.348,255.469 110.954 C 255.361 111.085,254.746 111.456,254.102 111.778 C 253.457 112.100,252.314 112.689,251.563 113.087 C 250.811 113.484,249.492 114.144,248.633 114.554 C 247.773 114.963,246.631 115.556,246.094 115.871 C 245.557 116.186,244.376 116.778,243.470 117.186 C 242.565 117.595,240.632 118.913,239.175 120.114 C 237.718 121.316,236.086 122.405,235.548 122.535 C 235.010 122.664,234.082 123.112,233.485 123.529 C 232.888 123.946,231.795 124.455,231.056 124.659 C 230.316 124.863,229.198 125.463,228.569 125.992 C 227.941 126.520,227.252 126.953,227.039 126.953 C 226.826 126.953,226.375 127.376,226.036 127.893 C 225.678 128.440,224.597 129.107,223.452 129.487 C 222.370 129.847,221.484 130.290,221.484 130.472 C 221.484 130.654,220.386 131.337,219.043 131.990 C 217.700 132.643,216.162 133.438,215.625 133.758 C 215.088 134.077,213.857 134.702,212.891 135.147 C 210.080 136.440,206.991 138.246,204.838 139.857 C 203.739 140.679,202.164 141.634,201.337 141.980 C 200.510 142.325,199.563 142.843,199.233 143.130 C 198.903 143.416,197.930 143.876,197.070 144.150 C 196.211 144.425,194.980 145.039,194.336 145.516 C 193.691 145.992,192.692 146.493,192.114 146.630 C 191.537 146.766,189.867 147.842,188.403 149.020 C 186.940 150.198,185.473 151.164,185.143 151.167 C 184.814 151.170,183.589 151.787,182.422 152.539 C 181.255 153.291,179.810 153.906,179.212 153.906 C 178.614 153.906,178.125 154.078,178.125 154.287 C 178.125 156.182,166.456 156.655,164.636 154.834 C 164.072 154.271,162.894 153.649,162.019 153.452 C 161.144 153.255,159.945 152.688,159.355 152.192 C 158.645 151.594,157.527 151.200,156.053 151.027 C 153.858 150.769,152.376 150.230,151.912 149.522 C 151.782 149.324,150.957 149.000,150.078 148.802 C 149.200 148.605,147.831 148.003,147.037 147.464 C 146.244 146.925,145.277 146.484,144.890 146.484 C 144.502 146.484,143.583 146.129,142.848 145.695 C 141.298 144.781,137.606 143.750,135.881 143.750 C 134.739 143.750,132.422 142.683,132.422 142.157 C 132.422 142.018,131.063 141.685,129.401 141.417 C 127.718 141.145,125.977 140.612,125.468 140.211 C 124.965 139.816,123.732 139.386,122.726 139.256 C 119.746 138.871,119.197 138.699,118.468 137.927 C 118.086 137.522,117.119 137.012,116.320 136.794 C 115.520 136.576,114.318 136.007,113.647 135.529 C 112.977 135.052,111.185 134.424,109.665 134.135 C 108.005 133.818,106.563 133.290,106.055 132.812 C 105.482 132.275,104.364 131.915,102.606 131.703 C 100.821 131.489,99.728 131.133,99.123 130.570 C 98.639 130.120,97.570 129.627,96.749 129.475 C 95.928 129.323,94.770 128.790,94.176 128.290 C 93.490 127.713,92.200 127.237,90.642 126.986 C 88.265 126.603,86.328 125.727,86.328 125.035 C 86.328 124.850,85.563 124.583,84.627 124.443 C 83.692 124.303,82.580 123.865,82.155 123.469 C 81.731 123.074,80.387 122.461,79.169 122.107 C 77.950 121.752,76.953 121.320,76.953 121.146 C 76.953 120.634,75.182 119.973,73.051 119.690 C 71.743 119.517,70.593 119.048,69.661 118.308 C 68.794 117.619,67.784 117.187,67.036 117.185 C 65.172 117.182,62.969 116.455,62.413 115.660 C 62.137 115.267,61.170 114.820,60.264 114.667 C 59.358 114.514,58.167 114.034,57.616 113.601 C 56.955 113.081,55.593 112.689,53.601 112.445 C 49.326 111.921,48.945 111.811,48.047 110.847 C 47.322 110.070,46.751 109.965,42.242 109.778 L 37.240 109.570 35.417 107.746 C 33.049 105.376,32.770 102.776,34.763 101.642 C 35.406 101.276,35.934 100.810,35.935 100.606 C 35.936 100.402,36.860 99.386,37.988 98.348 C 42.952 93.778,41.882 94.277,47.209 94.057 C 51.439 93.883,52.084 93.763,52.898 92.998 C 53.546 92.390,54.643 92.021,56.622 91.747 C 59.331 91.372,59.511 91.278,61.807 89.038 C 63.682 87.209,64.443 86.719,65.404 86.719 C 66.229 86.719,66.949 86.372,67.631 85.645 C 70.530 82.555,71.378 82.032,73.525 82.009 C 77.952 81.960,78.700 81.607,83.126 77.474 C 85.729 75.045,86.694 74.609,89.480 74.609 C 90.517 74.609,91.134 74.377,91.506 73.846 C 92.178 72.886,93.357 72.442,96.144 72.100 C 97.744 71.904,98.587 71.570,99.240 70.876 C 99.766 70.316,100.577 69.922,101.203 69.922 C 102.224 69.922,104.521 68.323,106.513 66.226 C 106.980 65.735,108.035 65.209,108.857 65.057 C 109.725 64.897,110.679 64.381,111.133 63.826 C 111.775 63.040,112.394 62.826,114.613 62.623 C 116.413 62.458,117.542 62.146,118.001 61.686 C 119.006 60.681,120.125 60.156,121.260 60.156 C 121.869 60.156,122.651 59.717,123.261 59.032 C 123.859 58.361,124.814 57.818,125.627 57.686 C 126.376 57.565,127.496 56.972,128.114 56.369 C 131.478 53.091,131.704 52.968,135.016 52.606 C 135.906 52.509,137.144 52.053,137.767 51.592 C 138.428 51.103,139.998 50.584,141.539 50.344 C 143.125 50.097,144.523 49.628,145.039 49.170 C 145.512 48.750,146.573 47.798,147.397 47.055 C 148.375 46.173,149.286 45.703,150.020 45.703 C 150.713 45.703,151.657 45.253,152.479 44.531 C 153.316 43.797,154.243 43.359,154.964 43.359 C 155.686 43.359,156.456 42.995,157.032 42.382 C 158.033 41.316,159.997 40.631,162.058 40.627 C 162.961 40.626,163.792 40.257,164.708 39.453 C 165.506 38.753,166.479 38.281,167.128 38.281 C 167.824 38.281,168.616 37.861,169.336 37.109 C 170.134 36.276,170.827 35.938,171.733 35.938 C 172.648 35.938,173.319 35.604,174.112 34.755 C 174.828 33.989,175.762 33.484,176.765 33.322 C 177.690 33.171,178.593 32.714,179.011 32.183 C 179.468 31.602,180.324 31.202,181.487 31.028 C 182.465 30.881,183.360 30.513,183.477 30.210 C 183.769 29.449,185.681 28.516,186.948 28.516 C 187.565 28.516,188.369 28.114,188.901 27.539 C 190.148 26.194,192.831 26.170,194.404 27.488 M349.712 73.793 C 350.269 74.418,350.957 75.080,351.241 75.263 C 351.525 75.447,352.371 76.262,353.121 77.074 L 354.485 78.552 354.684 84.849 C 354.828 89.425,355.018 91.191,355.376 91.310 C 356.625 91.726,356.777 93.240,357.015 107.617 L 357.254 122.070 358.217 123.372 L 359.180 124.675 359.240 138.051 L 359.301 151.428 360.510 152.637 C 361.613 153.741,361.719 154.067,361.719 156.387 C 361.719 158.693,361.818 159.006,362.793 159.772 L 363.867 160.617 364.063 185.214 L 364.258 209.811 365.231 210.544 C 366.461 211.472,366.714 214.251,366.763 227.371 C 366.797 236.564,366.798 236.579,367.728 237.387 C 368.586 238.134,368.680 238.591,368.942 243.306 C 369.200 247.943,369.313 248.509,370.160 249.424 C 371.301 250.654,371.356 251.985,370.307 252.935 C 369.874 253.327,369.406 254.357,369.267 255.225 C 369.128 256.092,368.603 257.214,368.099 257.718 C 367.595 258.222,367.030 259.312,366.844 260.141 C 366.577 261.330,365.680 262.458,362.590 265.492 C 356.350 271.619,355.160 272.656,354.373 272.656 C 353.965 272.656,353.100 273.140,352.451 273.730 C 351.802 274.321,349.562 276.387,347.472 278.320 C 345.294 280.336,343.063 282.045,342.244 282.325 C 341.459 282.594,339.828 283.737,338.621 284.864 C 334.378 288.827,333.559 289.453,332.617 289.453 C 332.064 289.453,331.049 290.036,330.189 290.847 C 329.376 291.614,328.271 292.646,327.734 293.142 C 327.197 293.637,326.143 294.247,325.392 294.496 C 324.641 294.745,323.674 295.295,323.243 295.719 C 317.974 300.908,314.506 303.884,313.306 304.243 C 312.456 304.498,310.653 305.850,308.695 307.702 C 301.945 314.087,300.017 315.743,298.567 316.399 C 297.744 316.772,296.735 317.454,296.326 317.914 C 295.917 318.374,295.467 318.750,295.327 318.750 C 295.186 318.750,293.506 320.243,291.593 322.067 C 289.508 324.056,287.562 325.561,286.733 325.824 C 285.973 326.065,284.972 326.638,284.508 327.096 C 284.044 327.555,282.927 328.545,282.025 329.297 C 281.124 330.049,279.941 331.142,279.398 331.726 C 278.854 332.309,277.774 332.997,276.999 333.253 C 276.223 333.509,275.148 334.174,274.609 334.730 C 274.071 335.287,272.429 336.797,270.959 338.086 C 269.489 339.375,266.705 341.986,264.772 343.889 C 262.338 346.284,260.817 347.468,259.828 347.738 C 259.042 347.953,257.959 348.549,257.422 349.062 C 256.885 349.576,255.328 351.071,253.962 352.385 C 252.517 353.775,250.919 354.928,250.139 355.143 C 249.403 355.347,247.911 356.361,246.824 357.398 C 245.737 358.434,244.381 359.503,243.811 359.772 C 243.240 360.041,242.395 360.434,241.931 360.645 C 241.468 360.857,240.225 361.844,239.168 362.839 C 231.919 369.665,232.170 369.499,229.004 369.517 L 226.562 369.531 223.437 366.334 C 220.833 363.669,220.313 362.927,220.313 361.872 C 220.313 361.002,219.965 360.259,219.197 359.492 L 218.082 358.377 217.796 346.474 C 217.526 335.220,217.464 334.496,216.665 333.203 C 216.010 332.143,215.718 330.725,215.362 326.881 C 214.983 322.781,214.750 321.717,214.013 320.719 C 213.267 319.711,213.094 318.897,212.957 315.750 C 212.805 312.293,212.710 311.917,211.787 311.122 C 210.829 310.298,210.768 310.006,210.512 304.994 C 210.257 300.015,210.187 299.676,209.223 298.711 C 208.285 297.773,208.203 297.428,208.203 294.395 C 208.203 289.102,207.488 283.362,206.651 281.931 C 206.073 280.943,205.814 279.288,205.478 274.414 C 205.241 270.977,204.875 268.104,204.664 268.031 C 204.026 267.810,203.125 265.739,203.125 264.495 C 203.125 263.804,202.830 263.117,202.406 262.815 C 201.241 261.989,200.781 260.740,200.781 258.405 C 200.781 256.504,200.640 256.091,199.720 255.300 C 198.692 254.416,198.652 254.227,198.416 249.149 C 198.184 244.152,198.125 243.863,197.133 242.872 C 196.112 241.851,196.094 241.740,196.091 236.639 C 196.086 229.596,195.498 224.662,194.541 223.643 C 193.960 223.023,193.739 221.989,193.525 218.871 C 193.287 215.418,193.134 214.789,192.369 214.124 C 191.835 213.659,191.383 212.688,191.222 211.659 C 191.044 210.528,190.617 209.678,189.943 209.113 C 188.953 208.282,188.926 208.132,188.704 202.057 C 188.485 196.084,188.438 195.804,187.451 194.632 C 186.472 193.471,186.412 193.132,186.136 187.237 C 185.868 181.519,185.777 180.977,184.915 179.953 C 183.555 178.336,183.549 173.630,184.905 172.003 C 185.411 171.395,185.941 170.263,186.084 169.487 C 186.381 167.869,187.202 167.019,188.846 166.627 C 189.931 166.369,191.525 165.226,193.750 163.111 C 194.287 162.600,195.283 162.068,195.963 161.927 C 196.643 161.786,197.698 161.240,198.307 160.712 C 198.916 160.184,200.094 159.568,200.925 159.341 C 201.755 159.115,202.803 158.587,203.252 158.169 C 203.701 157.751,204.774 157.218,205.637 156.986 C 206.499 156.754,207.707 156.142,208.320 155.626 C 208.934 155.109,209.942 154.688,210.563 154.688 C 211.653 154.688,212.471 154.106,215.430 151.225 C 216.091 150.581,217.234 149.974,218.055 149.831 C 218.855 149.692,219.734 149.262,220.008 148.875 C 220.677 147.932,221.997 147.266,223.194 147.266 C 223.742 147.266,224.424 146.910,224.739 146.459 C 225.050 146.016,226.128 145.405,227.135 145.102 C 228.142 144.799,229.493 144.107,230.138 143.564 C 230.782 143.022,231.718 142.578,232.216 142.578 C 233.119 142.578,234.269 141.747,237.215 138.965 C 238.097 138.132,239.160 137.500,239.679 137.500 C 240.224 137.500,241.721 136.555,243.391 135.156 C 245.297 133.560,246.526 132.813,247.245 132.813 C 247.869 132.813,248.680 132.410,249.225 131.829 C 249.733 131.289,250.862 130.640,251.734 130.388 C 252.607 130.136,253.817 129.524,254.425 129.027 C 255.032 128.531,255.823 128.122,256.182 128.119 C 256.854 128.113,257.479 127.793,259.797 126.271 C 260.532 125.788,261.507 125.393,261.964 125.392 C 262.443 125.391,263.827 124.413,265.222 123.089 C 266.621 121.762,268.140 120.688,268.808 120.555 C 269.446 120.427,271.110 119.354,272.506 118.169 C 274.351 116.604,275.364 116.016,276.213 116.016 C 276.981 116.016,277.676 115.674,278.241 115.018 C 278.749 114.430,279.811 113.862,280.831 113.634 C 281.782 113.421,282.936 112.840,283.396 112.344 C 283.856 111.848,284.906 111.315,285.730 111.161 C 286.586 111.000,287.716 110.391,288.370 109.737 C 289.085 109.022,289.920 108.594,290.597 108.594 C 291.260 108.594,292.141 108.154,292.864 107.463 C 293.515 106.841,294.639 106.205,295.363 106.049 C 296.107 105.889,297.699 104.874,299.024 103.716 C 300.412 102.503,301.925 101.550,302.735 101.379 C 303.486 101.221,304.629 100.605,305.273 100.010 C 305.918 99.416,307.001 98.826,307.680 98.700 C 308.862 98.481,309.703 97.868,312.305 95.332 C 312.949 94.704,314.092 94.078,314.844 93.942 C 315.731 93.781,317.010 92.966,318.489 91.618 C 320.094 90.156,321.200 89.474,322.232 89.309 C 323.037 89.180,324.011 88.727,324.395 88.302 C 325.184 87.430,326.686 86.897,329.375 86.534 C 330.698 86.355,331.276 86.080,331.446 85.546 C 331.575 85.139,331.992 84.707,332.373 84.586 C 332.754 84.465,335.118 82.352,337.628 79.891 C 342.641 74.974,343.144 74.609,344.896 74.609 C 345.555 74.609,346.094 74.446,346.094 74.247 C 346.094 72.573,348.370 72.287,349.712 73.793 M31.915 119.753 C 32.429 120.458,33.133 120.820,34.289 120.976 C 35.262 121.106,36.304 121.567,36.841 122.103 C 37.340 122.603,38.500 123.180,39.419 123.386 C 40.338 123.593,41.475 124.124,41.946 124.566 C 42.516 125.102,43.710 125.498,45.522 125.753 C 47.671 126.055,48.423 126.345,49.102 127.130 C 49.830 127.971,50.295 128.125,52.111 128.125 C 54.172 128.125,56.250 128.721,56.250 129.313 C 56.250 130.319,59.933 132.505,62.157 132.819 C 63.642 133.029,65.080 133.532,65.979 134.154 C 67.118 134.944,68.070 135.201,70.526 135.382 C 73.910 135.631,75.616 136.115,75.921 136.911 C 76.029 137.192,76.839 137.544,77.721 137.693 C 78.603 137.842,79.801 138.364,80.385 138.853 C 80.968 139.342,82.061 139.870,82.813 140.025 C 83.564 140.181,84.795 140.718,85.547 141.219 C 86.299 141.721,87.969 142.321,89.258 142.552 C 90.547 142.784,92.059 143.310,92.618 143.721 C 93.177 144.133,94.759 144.680,96.134 144.938 C 97.508 145.196,99.248 145.812,100.000 146.306 C 100.816 146.843,102.312 147.318,103.711 147.484 C 105.483 147.694,106.368 148.035,107.338 148.881 C 108.078 149.527,109.073 150.000,109.689 150.000 C 110.276 150.000,111.368 150.404,112.116 150.897 C 112.864 151.391,114.619 152.021,116.016 152.297 C 117.412 152.573,119.082 153.121,119.727 153.514 C 120.371 153.907,121.953 154.421,123.242 154.656 C 124.531 154.891,126.052 155.426,126.622 155.845 C 127.191 156.264,128.826 156.822,130.255 157.086 C 131.938 157.396,133.196 157.883,133.829 158.470 C 134.366 158.968,135.245 159.375,135.782 159.375 C 136.912 159.375,139.063 160.396,139.063 160.932 C 139.062 161.133,139.971 161.568,141.081 161.897 C 142.191 162.227,143.413 162.781,143.798 163.129 C 144.569 163.827,148.621 164.809,150.822 164.830 C 151.769 164.839,152.575 165.164,153.283 165.820 C 153.899 166.391,154.804 166.797,155.459 166.797 C 156.094 166.797,157.099 167.233,157.777 167.803 C 158.435 168.357,159.635 168.992,160.443 169.215 C 162.885 169.887,168.359 175.421,168.359 177.215 C 168.359 177.685,168.595 178.305,168.884 178.593 C 169.788 179.497,170.213 180.594,170.508 182.780 C 170.666 183.944,171.191 185.642,171.676 186.554 C 172.246 187.627,172.658 189.295,172.841 191.274 C 173.024 193.259,173.443 194.954,174.032 196.094 C 174.709 197.405,175.055 199.043,175.394 202.539 C 175.709 205.795,176.070 207.589,176.576 208.413 C 176.977 209.066,177.425 210.771,177.572 212.203 C 177.778 214.220,178.046 215.001,178.763 215.674 C 179.532 216.397,179.691 216.941,179.708 218.916 C 179.752 223.850,180.692 231.416,181.395 232.487 C 181.873 233.215,182.181 234.858,182.420 237.956 C 182.775 242.544,183.403 246.139,184.077 247.423 C 184.291 247.831,184.691 249.890,184.967 251.998 C 185.318 254.689,185.703 256.131,186.259 256.837 C 186.775 257.493,187.147 258.755,187.328 260.464 C 187.524 262.318,187.862 263.393,188.481 264.133 C 189.106 264.880,189.435 265.941,189.631 267.843 C 189.842 269.888,190.099 270.658,190.735 271.155 C 191.465 271.724,191.645 272.581,192.222 278.217 C 192.644 282.332,193.116 285.088,193.538 285.906 C 194.007 286.813,194.301 288.885,194.557 293.102 C 195.012 300.579,195.438 303.548,196.442 306.250 C 196.881 307.432,197.246 309.138,197.253 310.041 C 197.262 311.232,197.518 311.935,198.183 312.601 C 198.971 313.389,199.140 314.063,199.384 317.382 C 199.625 320.660,199.811 321.416,200.615 322.371 C 201.169 323.030,201.569 324.012,201.577 324.737 C 201.645 330.519,202.320 335.980,203.089 336.957 C 203.758 337.807,203.912 338.571,203.937 341.166 C 204.004 347.924,204.404 350.488,205.572 351.642 C 206.328 352.390,206.641 353.095,206.641 354.054 C 206.641 355.038,206.961 355.729,207.813 356.581 C 208.654 357.422,208.984 358.126,208.984 359.076 C 208.984 360.094,209.255 360.600,210.156 361.266 L 211.328 362.133 211.328 367.461 C 211.328 373.628,211.080 374.219,208.495 374.219 C 207.301 374.219,206.718 373.966,205.904 373.095 C 205.007 372.134,204.445 371.930,202.034 371.688 C 199.715 371.455,199.081 371.238,198.476 370.468 C 198.071 369.953,197.570 369.531,197.364 369.531 C 197.158 369.531,196.555 369.129,196.024 368.637 C 195.494 368.145,194.357 367.532,193.497 367.275 C 192.638 367.018,191.491 366.321,190.949 365.728 C 188.665 363.228,185.038 360.362,183.499 359.842 C 182.589 359.534,181.618 358.959,181.341 358.563 C 181.064 358.167,180.183 357.724,179.383 357.577 C 178.584 357.430,177.379 356.832,176.706 356.246 C 176.033 355.661,174.868 355.067,174.117 354.926 C 173.366 354.785,172.306 354.257,171.761 353.752 C 171.216 353.247,170.120 352.712,169.326 352.563 C 168.531 352.414,167.439 351.849,166.898 351.309 C 166.357 350.768,165.329 350.230,164.614 350.114 C 163.745 349.973,162.013 348.826,159.403 346.666 C 157.253 344.885,154.894 343.230,154.161 342.989 C 153.429 342.747,152.516 342.203,152.134 341.781 C 151.751 341.358,150.771 340.833,149.956 340.613 C 149.140 340.393,147.982 339.806,147.381 339.307 C 146.780 338.808,145.762 338.272,145.117 338.115 C 144.473 337.958,143.363 337.387,142.652 336.846 C 141.941 336.304,140.797 335.706,140.111 335.517 C 139.425 335.328,138.315 334.685,137.645 334.090 C 135.320 332.025,134.675 331.574,133.061 330.882 C 132.169 330.500,130.894 329.728,130.228 329.167 C 128.609 327.805,125.545 326.302,123.685 325.957 C 122.854 325.803,121.600 325.173,120.899 324.557 C 120.197 323.941,119.448 323.438,119.235 323.438 C 119.021 323.438,118.639 323.189,118.387 322.885 C 118.135 322.581,117.103 321.945,116.093 321.470 C 115.084 320.996,113.761 320.190,113.154 319.679 C 112.546 319.168,111.651 318.750,111.164 318.750 C 110.677 318.750,109.680 318.236,108.948 317.607 C 105.514 314.658,104.786 314.143,103.424 313.699 C 102.622 313.438,101.650 312.842,101.265 312.374 C 100.354 311.267,98.480 309.956,97.258 309.569 C 96.725 309.401,95.176 308.673,93.815 307.952 C 92.455 307.231,91.125 306.641,90.862 306.641 C 90.598 306.641,89.998 306.283,89.529 305.847 C 89.061 305.410,87.929 304.719,87.014 304.311 C 86.100 303.902,84.406 302.673,83.249 301.579 C 82.093 300.486,80.886 299.444,80.566 299.266 C 79.674 298.766,74.219 293.254,74.219 292.851 C 74.219 292.655,73.786 292.155,73.257 291.739 C 72.683 291.287,72.195 290.398,72.048 289.534 C 71.913 288.738,71.450 287.587,71.020 286.977 C 70.580 286.353,70.057 284.650,69.825 283.081 C 69.597 281.547,69.173 280.055,68.882 279.764 C 67.916 278.798,67.683 277.957,67.408 274.435 C 67.165 271.328,67.007 270.796,65.989 269.637 C 65.239 268.783,64.844 267.906,64.844 267.098 C 64.844 266.339,64.486 265.478,63.917 264.865 C 63.064 263.946,62.957 263.357,62.568 257.428 C 62.316 253.576,61.978 250.933,61.729 250.850 C 60.946 250.589,60.156 248.479,60.139 246.601 C 60.118 244.230,59.577 241.386,59.087 241.066 C 58.348 240.584,57.865 239.182,57.586 236.714 C 57.388 234.971,57.077 234.025,56.561 233.608 C 56.154 233.278,55.642 232.217,55.425 231.250 C 55.208 230.283,54.668 229.106,54.224 228.634 C 53.288 227.637,52.775 225.368,52.751 222.115 C 52.737 220.177,52.581 219.674,51.758 218.911 C 50.921 218.135,50.781 217.664,50.781 215.613 C 50.781 210.946,49.958 205.754,49.017 204.492 C 48.537 203.848,48.021 202.635,47.871 201.797 C 47.722 200.960,47.251 199.993,46.827 199.649 C 46.402 199.305,45.881 198.250,45.668 197.304 C 45.456 196.358,44.877 195.102,44.381 194.514 C 43.631 193.622,43.436 192.805,43.211 189.609 C 42.995 186.534,42.791 185.634,42.179 185.064 C 41.166 184.121,41.059 183.552,40.677 177.114 C 40.396 172.372,40.233 171.451,39.496 170.454 C 38.913 169.665,38.546 168.412,38.343 166.513 C 38.102 164.253,37.869 163.584,37.109 162.969 C 36.336 162.343,36.127 161.717,35.913 159.385 C 35.697 157.020,35.493 156.424,34.665 155.722 C 33.832 155.015,33.638 154.438,33.438 152.067 C 33.249 149.828,33.013 149.064,32.283 148.334 C 31.454 147.505,31.346 146.978,31.165 142.873 C 30.976 138.596,30.893 138.220,29.740 136.480 C 29.067 135.464,28.516 134.144,28.516 133.549 C 28.516 132.943,28.199 132.242,27.796 131.956 C 26.517 131.048,26.172 129.808,26.172 126.125 L 26.172 122.511 28.027 120.635 C 30.140 118.499,30.880 118.331,31.915 119.753 M316.602 129.379 C 315.957 129.605,314.199 130.647,312.695 131.695 C 308.446 134.657,305.901 136.328,305.640 136.328 C 305.508 136.328,304.669 136.827,303.775 137.437 C 299.813 140.138,293.348 143.750,292.476 143.750 C 292.276 143.750,291.646 144.071,291.076 144.463 C 290.506 144.855,289.424 145.422,288.672 145.722 C 287.257 146.286,283.203 149.144,283.203 149.577 C 283.203 149.712,282.588 150.154,281.836 150.559 C 281.084 150.964,280.469 151.430,280.469 151.596 C 280.469 151.762,279.515 152.254,278.350 152.690 C 277.184 153.126,275.558 153.845,274.736 154.288 C 273.915 154.731,272.561 155.278,271.729 155.504 C 270.330 155.885,266.524 158.123,265.291 159.290 C 265.000 159.566,264.034 160.161,263.143 160.612 C 262.252 161.064,261.436 161.550,261.328 161.694 C 261.221 161.837,260.430 162.278,259.570 162.673 C 258.711 163.068,257.568 163.686,257.031 164.047 C 256.494 164.407,255.264 164.925,254.297 165.198 C 252.510 165.703,250.751 166.694,245.958 169.894 C 244.487 170.876,242.997 171.855,242.647 172.070 C 238.931 174.354,237.696 175.072,235.253 176.370 C 231.813 178.200,226.936 182.877,225.508 185.716 C 224.960 186.805,223.843 188.838,223.025 190.234 C 222.206 191.631,221.416 193.477,221.268 194.336 C 221.119 195.195,220.647 196.537,220.219 197.317 C 219.219 199.136,219.348 206.049,220.419 208.065 C 220.780 208.745,221.244 211.015,221.456 213.143 C 221.806 216.641,222.324 219.083,224.055 225.391 C 225.243 229.723,225.374 230.331,225.776 233.398 C 226.001 235.117,226.524 237.842,226.938 239.453 C 227.352 241.064,228.034 244.053,228.454 246.094 C 228.874 248.135,229.598 251.123,230.063 252.734 C 232.314 260.533,233.834 268.155,234.970 277.344 C 235.942 285.203,236.353 288.050,236.721 289.453 C 236.918 290.205,237.274 292.139,237.512 293.750 C 239.411 306.601,242.909 313.851,248.153 315.809 C 252.121 317.290,256.508 316.586,258.984 314.072 C 259.995 313.045,263.045 310.389,264.262 309.475 C 264.904 308.993,266.133 308.053,266.992 307.386 C 267.852 306.719,269.082 305.901,269.727 305.568 C 270.371 305.235,271.250 304.650,271.680 304.268 C 274.818 301.475,278.172 298.824,279.312 298.237 C 280.671 297.537,282.715 296.100,284.175 294.818 C 284.607 294.439,286.455 292.896,288.281 291.389 C 294.947 285.887,296.454 284.574,299.414 281.689 C 302.864 278.326,312.458 270.075,313.571 269.514 C 315.847 268.366,321.457 264.532,323.291 262.870 C 325.231 261.114,328.521 257.282,329.815 255.273 C 330.369 254.414,331.620 252.832,332.596 251.758 C 335.374 248.700,336.672 245.709,337.302 240.912 C 337.951 235.960,337.791 206.562,337.078 200.000 C 336.833 197.744,336.514 192.119,336.370 187.500 C 336.117 179.408,336.071 179.037,335.094 177.344 C 332.574 172.972,327.648 173.104,324.180 177.636 C 321.118 181.638,318.356 184.081,314.844 185.893 C 313.018 186.835,311.260 187.824,310.938 188.092 C 310.615 188.359,309.824 188.848,309.180 189.178 C 308.535 189.508,307.656 190.101,307.227 190.497 C 305.503 192.085,302.216 194.531,301.804 194.532 C 301.564 194.532,300.856 194.971,300.232 195.508 C 299.608 196.045,298.900 196.484,298.660 196.484 C 298.083 196.484,292.710 199.825,291.193 201.127 C 289.010 203.000,283.902 206.250,283.142 206.250 C 282.434 206.250,276.723 209.425,275.219 210.656 C 268.242 216.363,265.995 220.882,268.058 225.055 C 268.415 225.777,269.099 227.290,269.579 228.418 C 270.059 229.546,270.584 230.469,270.746 230.469 C 270.909 230.469,271.149 230.808,271.280 231.223 C 272.036 233.603,276.239 235.957,279.659 235.916 C 283.166 235.873,284.713 234.828,293.079 226.850 C 293.701 226.257,294.591 225.569,295.055 225.322 C 296.764 224.413,301.864 219.415,303.005 217.530 C 305.545 213.336,314.300 212.373,317.826 215.899 C 320.547 218.620,321.514 227.123,319.793 233.203 C 317.853 240.057,315.295 244.161,312.345 245.153 C 311.937 245.290,310.619 246.177,309.415 247.125 C 301.042 253.718,300.445 254.153,298.242 255.263 C 295.160 256.816,293.041 258.075,292.356 258.761 C 292.008 259.109,291.168 259.679,290.490 260.028 C 288.830 260.883,286.885 262.344,284.766 264.329 C 282.717 266.248,278.543 269.531,278.153 269.531 C 277.847 269.531,275.540 271.360,274.631 272.324 C 274.297 272.678,273.380 273.663,272.593 274.511 C 264.035 283.745,253.473 280.058,251.950 267.304 C 251.750 265.629,251.298 262.500,250.945 260.352 C 250.592 258.203,250.163 255.039,249.992 253.320 C 249.407 247.463,248.882 244.274,248.056 241.569 C 247.602 240.083,247.044 238.164,246.817 237.305 C 246.590 236.445,246.176 235.039,245.897 234.180 C 245.220 232.091,244.652 228.778,244.134 223.905 C 243.899 221.692,243.453 218.440,243.143 216.679 C 241.803 209.064,243.116 200.546,246.038 197.902 C 246.818 197.196,250.265 195.235,252.639 194.147 C 253.553 193.728,255.665 192.457,257.332 191.322 C 259.000 190.187,260.889 188.959,261.530 188.594 C 264.146 187.103,269.041 184.667,270.477 184.142 C 271.907 183.618,274.019 182.284,277.396 179.768 C 282.288 176.124,284.306 174.813,287.560 173.165 C 289.568 172.148,291.299 171.202,291.406 171.063 C 291.618 170.789,301.488 164.844,301.731 164.844 C 302.251 164.844,308.998 160.380,310.290 159.181 C 312.018 157.577,314.629 155.746,315.983 155.189 C 316.753 154.872,317.734 154.298,318.164 153.913 C 318.594 153.528,319.947 152.928,321.172 152.578 C 322.396 152.229,323.514 151.755,323.656 151.525 C 323.798 151.295,324.642 150.790,325.531 150.402 C 337.243 145.292,328.684 125.142,316.602 129.379 M381.641 201.758 C 381.641 202.348,381.864 202.734,382.204 202.734 C 382.513 202.734,382.892 202.937,383.045 203.185 C 383.230 203.484,383.151 203.529,382.813 203.320 C 382.481 203.116,382.396 203.157,382.569 203.438 C 382.813 203.832,383.984 203.679,383.984 203.253 C 383.984 202.861,383.061 201.350,382.656 201.080 C 381.905 200.578,381.641 200.755,381.641 201.758 " stroke="none" fill="#070807" fill-rule="evenodd"></path><path id="path1" d="M188.901 27.539 C 188.369 28.114,187.565 28.516,186.948 28.516 C 185.681 28.516,183.769 29.449,183.477 30.210 C 183.360 30.513,182.465 30.881,181.487 31.028 C 180.324 31.202,179.468 31.602,179.011 32.183 C 178.593 32.714,177.690 33.171,176.765 33.322 C 175.762 33.484,174.828 33.989,174.112 34.755 C 173.319 35.604,172.648 35.938,171.733 35.938 C 170.827 35.938,170.134 36.276,169.336 37.109 C 168.616 37.861,167.824 38.281,167.128 38.281 C 166.479 38.281,165.506 38.753,164.708 39.453 C 163.792 40.257,162.961 40.626,162.058 40.627 C 159.997 40.631,158.033 41.316,157.032 42.382 C 156.456 42.995,155.686 43.359,154.964 43.359 C 154.243 43.359,153.316 43.797,152.479 44.531 C 151.657 45.253,150.713 45.703,150.020 45.703 C 149.286 45.703,148.375 46.173,147.397 47.055 C 146.573 47.798,145.512 48.750,145.039 49.170 C 144.523 49.628,143.125 50.097,141.539 50.344 C 139.998 50.584,138.428 51.103,137.767 51.592 C 137.144 52.053,135.906 52.509,135.016 52.606 C 131.704 52.968,131.478 53.091,128.114 56.369 C 127.496 56.972,126.376 57.565,125.627 57.686 C 124.814 57.818,123.859 58.361,123.261 59.032 C 122.651 59.717,121.869 60.156,121.260 60.156 C 120.125 60.156,119.006 60.681,118.001 61.686 C 117.542 62.146,116.413 62.458,114.613 62.623 C 112.394 62.826,111.775 63.040,111.133 63.826 C 110.679 64.381,109.725 64.897,108.857 65.057 C 108.035 65.209,106.980 65.735,106.513 66.226 C 104.521 68.323,102.224 69.922,101.203 69.922 C 100.577 69.922,99.766 70.316,99.240 70.876 C 98.587 71.570,97.744 71.904,96.144 72.100 C 93.357 72.442,92.178 72.886,91.506 73.846 C 91.134 74.377,90.517 74.609,89.480 74.609 C 86.694 74.609,85.729 75.045,83.126 77.474 C 78.700 81.607,77.952 81.960,73.525 82.009 C 71.378 82.032,70.530 82.555,67.631 85.645 C 66.949 86.372,66.229 86.719,65.404 86.719 C 64.443 86.719,63.682 87.209,61.807 89.038 C 59.511 91.278,59.331 91.372,56.622 91.747 C 54.643 92.021,53.546 92.390,52.898 92.998 C 52.084 93.763,51.439 93.883,47.209 94.057 C 41.882 94.277,42.952 93.778,37.988 98.348 C 36.860 99.386,35.936 100.402,35.935 100.606 C 35.934 100.810,35.406 101.276,34.763 101.642 C 32.770 102.776,33.049 105.376,35.417 107.746 L 37.240 109.570 42.242 109.778 C 46.751 109.965,47.322 110.070,48.047 110.847 C 48.945 111.811,49.326 111.921,53.601 112.445 C 55.593 112.689,56.955 113.081,57.616 113.601 C 58.167 114.034,59.358 114.514,60.264 114.667 C 61.170 114.820,62.137 115.267,62.413 115.660 C 62.969 116.455,65.172 117.182,67.036 117.185 C 67.784 117.187,68.794 117.619,69.661 118.308 C 70.593 119.048,71.743 119.517,73.051 119.690 C 75.182 119.973,76.953 120.634,76.953 121.146 C 76.953 121.320,77.950 121.752,79.169 122.107 C 80.387 122.461,81.731 123.074,82.155 123.469 C 82.580 123.865,83.692 124.303,84.627 124.443 C 85.563 124.583,86.328 124.850,86.328 125.035 C 86.328 125.727,88.265 126.603,90.642 126.986 C 92.200 127.237,93.490 127.713,94.176 128.290 C 94.770 128.790,95.928 129.323,96.749 129.475 C 97.570 129.627,98.639 130.120,99.123 130.570 C 99.728 131.133,100.821 131.489,102.606 131.703 C 104.364 131.915,105.482 132.275,106.055 132.812 C 106.563 133.290,108.005 133.818,109.665 134.135 C 111.185 134.424,112.977 135.052,113.647 135.529 C 114.318 136.007,115.520 136.576,116.320 136.794 C 117.119 137.012,118.086 137.522,118.468 137.927 C 119.197 138.699,119.746 138.871,122.726 139.256 C 123.732 139.386,124.965 139.816,125.468 140.211 C 125.977 140.612,127.718 141.145,129.401 141.417 C 131.063 141.685,132.422 142.018,132.422 142.157 C 132.422 142.683,134.739 143.750,135.881 143.750 C 137.606 143.750,141.298 144.781,142.848 145.695 C 143.583 146.129,144.502 146.484,144.890 146.484 C 145.277 146.484,146.244 146.925,147.037 147.464 C 147.831 148.003,149.200 148.605,150.078 148.802 C 150.957 149.000,151.782 149.324,151.912 149.522 C 152.376 150.230,153.858 150.769,156.053 151.027 C 157.527 151.200,158.645 151.594,159.355 152.192 C 159.945 152.688,161.144 153.255,162.019 153.452 C 162.894 153.649,164.072 154.271,164.636 154.834 C 166.456 156.655,178.125 156.182,178.125 154.287 C 178.125 154.078,178.614 153.906,179.212 153.906 C 179.810 153.906,181.255 153.291,182.422 152.539 C 183.589 151.787,184.814 151.170,185.143 151.167 C 185.473 151.164,186.940 150.198,188.403 149.020 C 189.867 147.842,191.537 146.766,192.114 146.630 C 192.692 146.493,193.691 145.992,194.336 145.516 C 194.980 145.039,196.211 144.425,197.070 144.150 C 197.930 143.876,198.903 143.416,199.233 143.130 C 199.563 142.843,200.510 142.325,201.337 141.980 C 202.164 141.634,203.739 140.679,204.838 139.857 C 206.991 138.246,210.080 136.440,212.891 135.147 C 213.857 134.702,215.088 134.077,215.625 133.758 C 216.162 133.438,217.700 132.643,219.043 131.990 C 220.386 131.337,221.484 130.654,221.484 130.472 C 221.484 130.290,222.370 129.847,223.452 129.487 C 224.597 129.107,225.678 128.440,226.036 127.893 C 226.375 127.376,226.826 126.953,227.039 126.953 C 227.252 126.953,227.941 126.520,228.569 125.992 C 229.198 125.463,230.316 124.863,231.056 124.659 C 231.795 124.455,232.888 123.946,233.485 123.529 C 234.082 123.112,235.010 122.664,235.548 122.535 C 236.086 122.405,237.718 121.316,239.175 120.114 C 240.632 118.913,242.565 117.595,243.470 117.186 C 244.376 116.778,245.557 116.186,246.094 115.871 C 246.631 115.556,247.773 114.963,248.633 114.554 C 249.492 114.144,250.811 113.484,251.563 113.087 C 252.314 112.689,253.457 112.100,254.102 111.778 C 254.746 111.456,255.361 111.085,255.469 110.954 C 255.966 110.348,259.725 107.813,260.125 107.813 C 260.620 107.813,262.392 106.746,263.231 105.943 C 263.525 105.661,264.234 105.337,264.806 105.222 C 265.378 105.108,266.544 104.410,267.396 103.671 C 268.828 102.428,269.970 101.770,276.912 98.184 C 278.286 97.475,279.706 96.626,280.068 96.299 C 280.430 95.971,281.091 95.703,281.537 95.703 C 281.983 95.703,283.084 95.088,283.984 94.336 C 284.884 93.584,286.009 92.969,286.484 92.969 C 286.959 92.969,288.544 91.983,290.005 90.777 C 291.466 89.572,293.280 88.415,294.037 88.206 C 294.793 87.997,295.815 87.424,296.307 86.931 C 296.800 86.439,297.851 85.915,298.644 85.766 C 299.436 85.617,300.465 85.085,300.930 84.584 C 301.395 84.082,302.495 83.478,303.374 83.241 C 304.254 83.004,305.393 82.409,305.905 81.919 C 309.021 78.934,312.243 76.463,313.451 76.129 C 314.219 75.917,315.242 75.327,315.724 74.817 C 316.207 74.308,317.339 73.697,318.241 73.460 C 319.142 73.222,320.222 72.593,320.641 72.061 C 321.136 71.431,321.795 71.094,322.528 71.094 C 323.570 71.094,325.268 70.236,325.821 69.429 C 325.951 69.240,327.283 68.878,328.781 68.625 C 332.153 68.055,335.138 65.609,335.150 63.409 C 335.154 62.558,335.524 61.802,336.328 60.998 C 338.245 59.081,337.997 57.443,335.394 54.840 L 333.288 52.734 323.829 52.734 C 314.482 52.734,314.358 52.724,313.284 51.820 C 312.279 50.974,311.741 50.888,306.074 50.667 L 299.950 50.427 298.594 49.237 C 297.385 48.175,296.968 48.047,294.735 48.047 C 292.749 48.047,292.126 47.898,291.721 47.328 C 290.818 46.055,289.579 45.703,285.996 45.703 C 282.618 45.703,282.458 45.663,281.706 44.629 C 280.938 43.574,280.835 43.551,275.888 43.359 C 271.099 43.174,270.788 43.111,269.575 42.090 C 268.373 41.078,268.070 41.014,264.325 40.986 C 255.959 40.924,251.461 40.472,250.195 39.566 C 249.322 38.941,248.030 38.624,245.122 38.322 C 242.679 38.068,241.072 37.717,240.825 37.382 C 240.027 36.300,238.646 35.937,235.331 35.938 C 232.160 35.938,231.857 35.865,230.674 34.826 C 229.527 33.820,229.058 33.694,225.699 33.494 C 222.482 33.302,221.854 33.146,220.963 32.321 C 220.023 31.450,219.521 31.350,214.997 31.136 C 210.577 30.927,209.958 30.809,209.114 30.016 C 208.253 29.208,207.617 29.099,201.839 28.772 C 196.028 28.443,195.417 28.338,194.404 27.488 C 192.831 26.170,190.148 26.194,188.901 27.539 M346.708 73.270 C 346.370 73.608,346.094 74.047,346.094 74.247 C 346.094 74.446,345.555 74.609,344.896 74.609 C 343.144 74.609,342.641 74.974,337.628 79.891 C 335.118 82.352,332.754 84.465,332.373 84.586 C 331.992 84.707,331.575 85.139,331.446 85.546 C 331.276 86.080,330.698 86.355,329.375 86.534 C 326.686 86.897,325.184 87.430,324.395 88.302 C 324.011 88.727,323.037 89.180,322.232 89.309 C 321.200 89.474,320.094 90.156,318.489 91.618 C 317.010 92.966,315.731 93.781,314.844 93.942 C 314.092 94.078,312.949 94.704,312.305 95.332 C 309.703 97.868,308.862 98.481,307.680 98.700 C 307.001 98.826,305.918 99.416,305.273 100.010 C 304.629 100.605,303.486 101.221,302.735 101.379 C 301.925 101.550,300.412 102.503,299.024 103.716 C 297.699 104.874,296.107 105.889,295.363 106.049 C 294.639 106.205,293.515 106.841,292.864 107.463 C 292.141 108.154,291.260 108.594,290.597 108.594 C 289.920 108.594,289.085 109.022,288.370 109.737 C 287.716 110.391,286.586 111.000,285.730 111.161 C 284.906 111.315,283.856 111.848,283.396 112.344 C 282.936 112.840,281.782 113.421,280.831 113.634 C 279.811 113.862,278.749 114.430,278.241 115.018 C 277.676 115.674,276.981 116.016,276.213 116.016 C 275.364 116.016,274.351 116.604,272.506 118.169 C 271.110 119.354,269.446 120.427,268.808 120.555 C 268.140 120.688,266.621 121.762,265.222 123.089 C 263.827 124.413,262.443 125.391,261.964 125.392 C 261.507 125.393,260.532 125.788,259.797 126.271 C 257.479 127.793,256.854 128.113,256.182 128.119 C 255.823 128.122,255.032 128.531,254.425 129.027 C 253.817 129.524,252.607 130.136,251.734 130.388 C 250.862 130.640,249.733 131.289,249.225 131.829 C 248.680 132.410,247.869 132.813,247.245 132.813 C 246.526 132.813,245.297 133.560,243.391 135.156 C 241.721 136.555,240.224 137.500,239.679 137.500 C 239.160 137.500,238.097 138.132,237.215 138.965 C 234.269 141.747,233.119 142.578,232.216 142.578 C 231.718 142.578,230.782 143.022,230.138 143.564 C 229.493 144.107,228.142 144.799,227.135 145.102 C 226.128 145.405,225.050 146.016,224.739 146.459 C 224.424 146.910,223.742 147.266,223.194 147.266 C 221.997 147.266,220.677 147.932,220.008 148.875 C 219.734 149.262,218.855 149.692,218.055 149.831 C 217.234 149.974,216.091 150.581,215.430 151.225 C 212.471 154.106,211.653 154.688,210.563 154.688 C 209.942 154.688,208.934 155.109,208.320 155.626 C 207.707 156.142,206.499 156.754,205.637 156.986 C 204.774 157.218,203.701 157.751,203.252 158.169 C 202.803 158.587,201.755 159.115,200.925 159.341 C 200.094 159.568,198.916 160.184,198.307 160.712 C 197.698 161.240,196.643 161.786,195.963 161.927 C 195.283 162.068,194.287 162.600,193.750 163.111 C 191.525 165.226,189.931 166.369,188.846 166.627 C 187.202 167.019,186.381 167.869,186.084 169.487 C 185.941 170.263,185.411 171.395,184.905 172.003 C 183.549 173.630,183.555 178.336,184.915 179.953 C 185.777 180.977,185.868 181.519,186.136 187.237 C 186.412 193.132,186.472 193.471,187.451 194.632 C 188.438 195.804,188.485 196.084,188.704 202.057 C 188.926 208.132,188.953 208.282,189.943 209.113 C 190.617 209.678,191.044 210.528,191.222 211.659 C 191.383 212.688,191.835 213.659,192.369 214.124 C 193.134 214.789,193.287 215.418,193.525 218.871 C 193.739 221.989,193.960 223.023,194.541 223.643 C 195.498 224.662,196.086 229.596,196.091 236.639 C 196.094 241.740,196.112 241.851,197.133 242.872 C 198.125 243.863,198.184 244.152,198.416 249.149 C 198.652 254.227,198.692 254.416,199.720 255.300 C 200.640 256.091,200.781 256.504,200.781 258.405 C 200.781 260.740,201.241 261.989,202.406 262.815 C 202.830 263.117,203.125 263.804,203.125 264.495 C 203.125 265.739,204.026 267.810,204.664 268.031 C 204.875 268.104,205.241 270.977,205.478 274.414 C 205.814 279.288,206.073 280.943,206.651 281.931 C 207.488 283.362,208.203 289.102,208.203 294.395 C 208.203 297.428,208.285 297.773,209.223 298.711 C 210.187 299.676,210.257 300.015,210.512 304.994 C 210.768 310.006,210.829 310.298,211.787 311.122 C 212.710 311.917,212.805 312.293,212.957 315.750 C 213.094 318.897,213.267 319.711,214.013 320.719 C 214.750 321.717,214.983 322.781,215.362 326.881 C 215.718 330.725,216.010 332.143,216.665 333.203 C 217.464 334.496,217.526 335.220,217.796 346.474 L 218.082 358.377 219.197 359.492 C 219.965 360.259,220.313 361.002,220.313 361.872 C 220.313 362.927,220.833 363.669,223.437 366.334 L 226.562 369.531 229.004 369.517 C 232.170 369.499,231.919 369.665,239.168 362.839 C 240.225 361.844,241.468 360.857,241.931 360.645 C 242.395 360.434,243.240 360.041,243.811 359.772 C 244.381 359.503,245.737 358.434,246.824 357.398 C 247.911 356.361,249.403 355.347,250.139 355.143 C 250.919 354.928,252.517 353.775,253.962 352.385 C 255.328 351.071,256.885 349.576,257.422 349.062 C 257.959 348.549,259.042 347.953,259.828 347.738 C 260.817 347.468,262.338 346.284,264.772 343.889 C 266.705 341.986,269.489 339.375,270.959 338.086 C 272.429 336.797,274.071 335.287,274.609 334.730 C 275.148 334.174,276.223 333.509,276.999 333.253 C 277.774 332.997,278.854 332.309,279.398 331.726 C 279.941 331.142,281.124 330.049,282.025 329.297 C 282.927 328.545,284.044 327.555,284.508 327.096 C 284.972 326.638,285.973 326.065,286.733 325.824 C 287.562 325.561,289.508 324.056,291.593 322.067 C 293.506 320.243,295.186 318.750,295.327 318.750 C 295.467 318.750,295.917 318.374,296.326 317.914 C 296.735 317.454,297.744 316.772,298.567 316.399 C 300.017 315.743,301.945 314.087,308.695 307.702 C 310.653 305.850,312.456 304.498,313.306 304.243 C 314.506 303.884,317.974 300.908,323.243 295.719 C 323.674 295.295,324.641 294.745,325.392 294.496 C 326.143 294.247,327.197 293.637,327.734 293.142 C 328.271 292.646,329.376 291.614,330.189 290.847 C 331.049 290.036,332.064 289.453,332.617 289.453 C 333.559 289.453,334.378 288.827,338.621 284.864 C 339.828 283.737,341.459 282.594,342.244 282.325 C 343.063 282.045,345.294 280.336,347.472 278.320 C 349.562 276.387,351.802 274.321,352.451 273.730 C 353.100 273.140,353.965 272.656,354.373 272.656 C 355.160 272.656,356.350 271.619,362.590 265.492 C 365.680 262.458,366.577 261.330,366.844 260.141 C 367.030 259.312,367.595 258.222,368.099 257.718 C 368.603 257.214,369.128 256.092,369.267 255.225 C 369.406 254.357,369.874 253.327,370.307 252.935 C 371.356 251.985,371.301 250.654,370.160 249.424 C 369.313 248.509,369.200 247.943,368.942 243.306 C 368.680 238.591,368.586 238.134,367.728 237.387 C 366.798 236.579,366.797 236.564,366.763 227.371 C 366.714 214.251,366.461 211.472,365.231 210.544 L 364.258 209.811 364.063 185.214 L 363.867 160.617 362.793 159.772 C 361.818 159.006,361.719 158.693,361.719 156.387 C 361.719 154.067,361.613 153.741,360.510 152.637 L 359.301 151.428 359.240 138.051 L 359.180 124.675 358.217 123.372 L 357.254 122.070 357.015 107.617 C 356.777 93.240,356.625 91.726,355.376 91.310 C 355.018 91.191,354.828 89.425,354.684 84.849 L 354.485 78.552 353.121 77.074 C 352.371 76.262,351.525 75.447,351.241 75.263 C 350.957 75.080,350.269 74.418,349.712 73.793 C 348.579 72.522,347.622 72.356,346.708 73.270 M28.027 120.635 L 26.172 122.511 26.172 126.125 C 26.172 129.808,26.517 131.048,27.796 131.956 C 28.199 132.242,28.516 132.943,28.516 133.549 C 28.516 134.144,29.067 135.464,29.740 136.480 C 30.893 138.220,30.976 138.596,31.165 142.873 C 31.346 146.978,31.454 147.505,32.283 148.334 C 33.013 149.064,33.249 149.828,33.438 152.067 C 33.638 154.438,33.832 155.015,34.665 155.722 C 35.493 156.424,35.697 157.020,35.913 159.385 C 36.127 161.717,36.336 162.343,37.109 162.969 C 37.869 163.584,38.102 164.253,38.343 166.513 C 38.546 168.412,38.913 169.665,39.496 170.454 C 40.233 171.451,40.396 172.372,40.677 177.114 C 41.059 183.552,41.166 184.121,42.179 185.064 C 42.791 185.634,42.995 186.534,43.211 189.609 C 43.436 192.805,43.631 193.622,44.381 194.514 C 44.877 195.102,45.456 196.358,45.668 197.304 C 45.881 198.250,46.402 199.305,46.827 199.649 C 47.251 199.993,47.722 200.960,47.871 201.797 C 48.021 202.635,48.537 203.848,49.017 204.492 C 49.958 205.754,50.781 210.946,50.781 215.613 C 50.781 217.664,50.921 218.135,51.758 218.911 C 52.581 219.674,52.737 220.177,52.751 222.115 C 52.775 225.368,53.288 227.637,54.224 228.634 C 54.668 229.106,55.208 230.283,55.425 231.250 C 55.642 232.217,56.154 233.278,56.561 233.608 C 57.077 234.025,57.388 234.971,57.586 236.714 C 57.865 239.182,58.348 240.584,59.087 241.066 C 59.577 241.386,60.118 244.230,60.139 246.601 C 60.156 248.479,60.946 250.589,61.729 250.850 C 61.978 250.933,62.316 253.576,62.568 257.428 C 62.957 263.357,63.064 263.946,63.917 264.865 C 64.486 265.478,64.844 266.339,64.844 267.098 C 64.844 267.906,65.239 268.783,65.989 269.637 C 67.007 270.796,67.165 271.328,67.408 274.435 C 67.683 277.957,67.916 278.798,68.882 279.764 C 69.173 280.055,69.597 281.547,69.825 283.081 C 70.057 284.650,70.580 286.353,71.020 286.977 C 71.450 287.587,71.913 288.738,72.048 289.534 C 72.195 290.398,72.683 291.287,73.257 291.739 C 73.786 292.155,74.219 292.655,74.219 292.851 C 74.219 293.254,79.674 298.766,80.566 299.266 C 80.886 299.444,82.093 300.486,83.249 301.579 C 84.406 302.673,86.100 303.902,87.014 304.311 C 87.929 304.719,89.061 305.410,89.529 305.847 C 89.998 306.283,90.598 306.641,90.862 306.641 C 91.125 306.641,92.455 307.231,93.815 307.952 C 95.176 308.673,96.725 309.401,97.258 309.569 C 98.480 309.956,100.354 311.267,101.265 312.374 C 101.650 312.842,102.622 313.438,103.424 313.699 C 104.786 314.143,105.514 314.658,108.948 317.607 C 109.680 318.236,110.677 318.750,111.164 318.750 C 111.651 318.750,112.546 319.168,113.154 319.679 C 113.761 320.190,115.084 320.996,116.093 321.470 C 117.103 321.945,118.135 322.581,118.387 322.885 C 118.639 323.189,119.021 323.438,119.235 323.438 C 119.448 323.438,120.197 323.941,120.899 324.557 C 121.600 325.173,122.854 325.803,123.685 325.957 C 125.545 326.302,128.609 327.805,130.228 329.167 C 130.894 329.728,132.169 330.500,133.061 330.882 C 134.675 331.574,135.320 332.025,137.645 334.090 C 138.315 334.685,139.425 335.328,140.111 335.517 C 140.797 335.706,141.941 336.304,142.652 336.846 C 143.363 337.387,144.473 337.958,145.117 338.115 C 145.762 338.272,146.780 338.808,147.381 339.307 C 147.982 339.806,149.140 340.393,149.956 340.613 C 150.771 340.833,151.751 341.358,152.134 341.781 C 152.516 342.203,153.429 342.747,154.161 342.989 C 154.894 343.230,157.253 344.885,159.403 346.666 C 162.013 348.826,163.745 349.973,164.614 350.114 C 165.329 350.230,166.357 350.768,166.898 351.309 C 167.439 351.849,168.531 352.414,169.326 352.563 C 170.120 352.712,171.216 353.247,171.761 353.752 C 172.306 354.257,173.366 354.785,174.117 354.926 C 174.868 355.067,176.033 355.661,176.706 356.246 C 177.379 356.832,178.584 357.430,179.383 357.577 C 180.183 357.724,181.064 358.167,181.341 358.563 C 181.618 358.959,182.589 359.534,183.499 359.842 C 185.038 360.362,188.665 363.228,190.949 365.728 C 191.491 366.321,192.638 367.018,193.497 367.275 C 194.357 367.532,195.494 368.145,196.024 368.637 C 196.555 369.129,197.158 369.531,197.364 369.531 C 197.570 369.531,198.071 369.953,198.476 370.468 C 199.081 371.238,199.715 371.455,202.034 371.688 C 204.445 371.930,205.007 372.134,205.904 373.095 C 206.718 373.966,207.301 374.219,208.495 374.219 C 211.080 374.219,211.328 373.628,211.328 367.461 L 211.328 362.133 210.156 361.266 C 209.255 360.600,208.984 360.094,208.984 359.076 C 208.984 358.126,208.654 357.422,207.813 356.581 C 206.961 355.729,206.641 355.038,206.641 354.054 C 206.641 353.095,206.328 352.390,205.572 351.642 C 204.404 350.488,204.004 347.924,203.937 341.166 C 203.912 338.571,203.758 337.807,203.089 336.957 C 202.320 335.980,201.645 330.519,201.577 324.737 C 201.569 324.012,201.169 323.030,200.615 322.371 C 199.811 321.416,199.625 320.660,199.384 317.382 C 199.140 314.063,198.971 313.389,198.183 312.601 C 197.518 311.935,197.262 311.232,197.253 310.041 C 197.246 309.138,196.881 307.432,196.442 306.250 C 195.438 303.548,195.012 300.579,194.557 293.102 C 194.301 288.885,194.007 286.813,193.538 285.906 C 193.116 285.088,192.644 282.332,192.222 278.217 C 191.645 272.581,191.465 271.724,190.735 271.155 C 190.099 270.658,189.842 269.888,189.631 267.843 C 189.435 265.941,189.106 264.880,188.481 264.133 C 187.862 263.393,187.524 262.318,187.328 260.464 C 187.147 258.755,186.775 257.493,186.259 256.837 C 185.703 256.131,185.318 254.689,184.967 251.998 C 184.691 249.890,184.291 247.831,184.077 247.423 C 183.403 246.139,182.775 242.544,182.420 237.956 C 182.181 234.858,181.873 233.215,181.395 232.487 C 180.692 231.416,179.752 223.850,179.708 218.916 C 179.691 216.941,179.532 216.397,178.763 215.674 C 178.046 215.001,177.778 214.220,177.572 212.203 C 177.425 210.771,176.977 209.066,176.576 208.413 C 176.070 207.589,175.709 205.795,175.394 202.539 C 175.055 199.043,174.709 197.405,174.032 196.094 C 173.443 194.954,173.024 193.259,172.841 191.274 C 172.658 189.295,172.246 187.627,171.676 186.554 C 171.191 185.642,170.666 183.944,170.508 182.780 C 170.213 180.594,169.788 179.497,168.884 178.593 C 168.595 178.305,168.359 177.685,168.359 177.215 C 168.359 175.421,162.885 169.887,160.443 169.215 C 159.635 168.992,158.435 168.357,157.777 167.803 C 157.099 167.233,156.094 166.797,155.459 166.797 C 154.804 166.797,153.899 166.391,153.283 165.820 C 152.575 165.164,151.769 164.839,150.822 164.830 C 148.621 164.809,144.569 163.827,143.798 163.129 C 143.413 162.781,142.191 162.227,141.081 161.897 C 139.971 161.568,139.062 161.133,139.063 160.932 C 139.063 160.396,136.912 159.375,135.782 159.375 C 135.245 159.375,134.366 158.968,133.829 158.470 C 133.196 157.883,131.938 157.396,130.255 157.086 C 128.826 156.822,127.191 156.264,126.622 155.845 C 126.052 155.426,124.531 154.891,123.242 154.656 C 121.953 154.421,120.371 153.907,119.727 153.514 C 119.082 153.121,117.412 152.573,116.016 152.297 C 114.619 152.021,112.864 151.391,112.116 150.897 C 111.368 150.404,110.276 150.000,109.689 150.000 C 109.073 150.000,108.078 149.527,107.338 148.881 C 106.368 148.035,105.483 147.694,103.711 147.484 C 102.312 147.318,100.816 146.843,100.000 146.306 C 99.248 145.812,97.508 145.196,96.134 144.938 C 94.759 144.680,93.177 144.133,92.618 143.721 C 92.059 143.310,90.547 142.784,89.258 142.552 C 87.969 142.321,86.299 141.721,85.547 141.219 C 84.795 140.718,83.564 140.181,82.813 140.025 C 82.061 139.870,80.968 139.342,80.385 138.853 C 79.801 138.364,78.603 137.842,77.721 137.693 C 76.839 137.544,76.029 137.192,75.921 136.911 C 75.616 136.115,73.910 135.631,70.526 135.382 C 68.070 135.201,67.118 134.944,65.979 134.154 C 65.080 133.532,63.642 133.029,62.157 132.819 C 59.933 132.505,56.250 130.319,56.250 129.313 C 56.250 128.721,54.172 128.125,52.111 128.125 C 50.295 128.125,49.830 127.971,49.102 127.130 C 48.423 126.345,47.671 126.055,45.522 125.753 C 43.710 125.498,42.516 125.102,41.946 124.566 C 41.475 124.124,40.338 123.593,39.419 123.386 C 38.500 123.180,37.340 122.603,36.841 122.103 C 36.304 121.567,35.262 121.106,34.289 120.976 C 33.133 120.820,32.429 120.458,31.915 119.753 C 30.880 118.331,30.140 118.499,28.027 120.635 M323.263 129.343 C 326.961 130.274,331.250 136.596,331.250 141.114 C 331.250 144.962,328.771 148.988,325.531 150.402 C 324.642 150.790,323.798 151.295,323.656 151.525 C 323.514 151.755,322.396 152.229,321.172 152.578 C 319.947 152.928,318.594 153.528,318.164 153.913 C 317.734 154.298,316.753 154.872,315.983 155.189 C 314.629 155.746,312.018 157.577,310.290 159.181 C 308.998 160.380,302.251 164.844,301.731 164.844 C 301.488 164.844,291.618 170.789,291.406 171.063 C 291.299 171.202,289.568 172.148,287.560 173.165 C 284.306 174.813,282.288 176.124,277.396 179.768 C 274.019 182.284,271.907 183.618,270.477 184.142 C 269.041 184.667,264.146 187.103,261.530 188.594 C 260.889 188.959,259.000 190.187,257.332 191.322 C 255.665 192.457,253.553 193.728,252.639 194.147 C 250.265 195.235,246.818 197.196,246.038 197.902 C 243.116 200.546,241.803 209.064,243.143 216.679 C 243.453 218.440,243.899 221.692,244.134 223.905 C 244.652 228.778,245.220 232.091,245.897 234.180 C 246.176 235.039,246.590 236.445,246.817 237.305 C 247.044 238.164,247.602 240.083,248.056 241.569 C 248.882 244.274,249.407 247.463,249.992 253.320 C 250.163 255.039,250.592 258.203,250.945 260.352 C 251.298 262.500,251.750 265.629,251.950 267.304 C 253.473 280.058,264.035 283.745,272.593 274.511 C 273.380 273.663,274.297 272.678,274.631 272.324 C 275.540 271.360,277.847 269.531,278.153 269.531 C 278.543 269.531,282.717 266.248,284.766 264.329 C 286.885 262.344,288.830 260.883,290.490 260.028 C 291.168 259.679,292.008 259.109,292.356 258.761 C 293.041 258.075,295.160 256.816,298.242 255.263 C 300.445 254.153,301.042 253.718,309.415 247.125 C 310.619 246.177,311.937 245.290,312.345 245.153 C 319.672 242.689,323.609 221.682,317.826 215.899 C 314.300 212.373,305.545 213.336,303.005 217.530 C 301.864 219.415,296.764 224.413,295.055 225.322 C 294.591 225.569,293.701 226.257,293.079 226.850 C 284.713 234.828,283.166 235.873,279.659 235.916 C 276.239 235.957,272.036 233.603,271.280 231.223 C 271.149 230.808,270.909 230.469,270.746 230.469 C 270.584 230.469,270.059 229.546,269.579 228.418 C 269.099 227.290,268.415 225.777,268.058 225.055 C 265.995 220.882,268.242 216.363,275.219 210.656 C 276.723 209.425,282.434 206.250,283.142 206.250 C 283.902 206.250,289.010 203.000,291.193 201.127 C 292.710 199.825,298.083 196.484,298.660 196.484 C 298.900 196.484,299.608 196.045,300.232 195.508 C 300.856 194.971,301.564 194.532,301.804 194.532 C 302.216 194.531,305.503 192.085,307.227 190.497 C 307.656 190.101,308.535 189.508,309.180 189.178 C 309.824 188.848,310.615 188.359,310.938 188.092 C 311.260 187.824,313.018 186.835,314.844 185.893 C 318.356 184.081,321.118 181.638,324.180 177.636 C 327.648 173.104,332.574 172.972,335.094 177.344 C 336.071 179.037,336.117 179.408,336.370 187.500 C 336.514 192.119,336.833 197.744,337.078 200.000 C 337.791 206.562,337.951 235.960,337.302 240.912 C 336.672 245.709,335.374 248.700,332.596 251.758 C 331.620 252.832,330.369 254.414,329.815 255.273 C 328.521 257.282,325.231 261.114,323.291 262.870 C 321.457 264.532,315.847 268.366,313.571 269.514 C 312.458 270.075,302.864 278.326,299.414 281.689 C 296.454 284.574,294.947 285.887,288.281 291.389 C 286.455 292.896,284.607 294.439,284.175 294.818 C 282.715 296.100,280.671 297.537,279.312 298.237 C 278.172 298.824,274.818 301.475,271.680 304.268 C 271.250 304.650,270.371 305.235,269.727 305.568 C 269.082 305.901,267.852 306.719,266.992 307.386 C 266.133 308.053,264.904 308.993,264.262 309.475 C 263.045 310.389,259.995 313.045,258.984 314.072 C 256.508 316.586,252.121 317.290,248.153 315.809 C 242.909 313.851,239.411 306.601,237.512 293.750 C 237.274 292.139,236.918 290.205,236.721 289.453 C 236.353 288.050,235.942 285.203,234.970 277.344 C 234.445 273.099,234.136 271.068,233.247 266.016 C 232.750 263.193,231.125 256.413,230.063 252.734 C 229.598 251.123,228.874 248.135,228.454 246.094 C 228.034 244.053,227.352 241.064,226.938 239.453 C 226.524 237.842,226.001 235.117,225.776 233.398 C 225.374 230.331,225.243 229.723,224.055 225.391 C 222.324 219.083,221.806 216.641,221.456 213.143 C 221.244 211.015,220.780 208.745,220.419 208.065 C 219.348 206.049,219.219 199.136,220.219 197.317 C 220.647 196.537,221.119 195.195,221.268 194.336 C 221.416 193.477,222.206 191.631,223.025 190.234 C 223.843 188.838,224.960 186.805,225.508 185.716 C 226.936 182.877,231.813 178.200,235.253 176.370 C 237.696 175.072,238.931 174.354,242.647 172.070 C 242.997 171.855,244.487 170.876,245.958 169.894 C 250.751 166.694,252.510 165.703,254.297 165.198 C 255.264 164.925,256.494 164.407,257.031 164.047 C 257.568 163.686,258.711 163.068,259.570 162.673 C 260.430 162.278,261.221 161.837,261.328 161.694 C 261.436 161.550,262.252 161.064,263.143 160.612 C 264.034 160.161,265.000 159.566,265.291 159.290 C 266.524 158.123,270.330 155.885,271.729 155.504 C 272.561 155.278,273.915 154.731,274.736 154.288 C 275.558 153.845,277.184 153.126,278.350 152.690 C 279.515 152.254,280.469 151.762,280.469 151.596 C 280.469 151.430,281.084 150.964,281.836 150.559 C 282.588 150.154,283.203 149.712,283.203 149.577 C 283.203 149.144,287.257 146.286,288.672 145.722 C 289.424 145.422,290.506 144.855,291.076 144.463 C 291.646 144.071,292.276 143.750,292.476 143.750 C 293.348 143.750,299.813 140.138,303.775 137.437 C 304.669 136.827,305.508 136.328,305.640 136.328 C 305.901 136.328,308.446 134.657,312.695 131.695 C 316.740 128.877,319.220 128.325,323.263 129.343 M379.106 190.723 C 379.014 190.991,378.768 194.787,378.558 199.158 C 378.144 207.762,378.311 208.984,379.898 208.984 C 381.337 208.984,381.514 209.696,381.213 214.258 C 380.152 230.313,380.176 230.562,382.813 230.921 C 383.657 231.037,383.805 231.280,383.909 232.715 C 384.026 234.326,384.069 234.375,385.385 234.375 L 386.740 234.375 386.519 231.934 C 386.397 230.591,386.245 229.006,386.180 228.412 C 386.115 227.818,385.697 226.939,385.251 226.459 C 384.489 225.639,384.427 225.007,384.231 216.016 C 383.979 204.450,384.021 205.147,383.550 204.856 C 383.302 204.703,383.317 204.435,383.590 204.106 C 383.917 203.713,383.741 203.473,382.828 203.069 L 381.641 202.544 381.641 196.389 L 381.641 190.234 380.456 190.234 C 379.805 190.234,379.197 190.454,379.106 190.723 " stroke="none" fill="#04a008" fill-rule="evenodd"></path></g></svg>