<svg id="svg" version="1.1" xmlns="http://www.w3.org/2000/svg" xmlns:xlink="http://www.w3.org/1999/xlink" width="400" height="402.4353120243531" viewBox="0, 0, 400,402.4353120243531"><g id="svgg"><path id="path0" d="M205.018 6.639 C 204.678 6.979,204.400 7.064,204.400 6.829 C 204.400 6.207,200.126 6.274,199.833 6.900 C 199.647 7.300,199.553 7.300,199.367 6.900 C 199.072 6.269,194.000 6.199,194.000 6.825 C 194.000 7.096,193.212 7.182,191.824 7.062 C 190.628 6.958,188.963 7.029,188.124 7.219 C 187.286 7.409,186.551 7.426,186.492 7.257 C 186.383 6.949,182.527 7.055,180.100 7.433 C 179.322 7.555,178.800 7.870,178.800 8.218 C 178.800 8.671,178.188 8.800,176.033 8.800 C 174.184 8.800,173.206 8.966,173.085 9.300 C 172.950 9.670,172.714 9.689,172.177 9.373 C 171.651 9.063,171.059 9.086,170.026 9.455 C 169.242 9.735,168.026 9.973,167.324 9.982 C 166.622 9.992,165.949 10.158,165.830 10.352 C 165.710 10.546,164.079 10.832,162.206 10.988 C 160.333 11.144,158.800 11.411,158.800 11.581 C 158.800 11.751,157.777 12.010,156.526 12.157 C 155.276 12.304,154.061 12.575,153.826 12.760 C 153.592 12.945,152.723 13.314,151.896 13.580 C 151.069 13.847,150.495 14.230,150.620 14.432 C 150.745 14.635,150.513 14.800,150.104 14.800 C 149.695 14.800,149.189 14.944,148.980 15.121 C 148.647 15.401,147.003 16.070,140.200 18.692 C 139.320 19.031,138.033 19.554,137.340 19.854 C 136.646 20.154,135.881 20.400,135.640 20.400 C 135.398 20.400,135.200 20.564,135.200 20.765 C 135.200 20.966,134.480 21.251,133.600 21.400 C 132.720 21.549,132.000 21.819,132.000 22.000 C 132.000 22.181,131.281 22.451,130.402 22.600 C 129.523 22.748,128.715 23.014,128.607 23.189 C 128.498 23.365,127.732 23.636,126.904 23.790 C 126.077 23.945,125.194 24.242,124.942 24.450 C 124.691 24.658,123.566 24.937,122.442 25.070 C 121.319 25.203,120.400 25.446,120.400 25.610 C 120.400 25.775,119.590 26.031,118.600 26.179 C 117.610 26.328,116.800 26.593,116.800 26.769 C 116.800 26.944,115.826 27.189,114.636 27.311 C 111.987 27.585,109.699 28.892,109.101 30.473 C 108.949 30.873,108.309 31.197,107.523 31.273 C 106.608 31.361,106.078 31.678,105.805 32.300 C 105.588 32.795,105.174 33.200,104.886 33.200 C 104.280 33.200,100.757 35.447,99.000 36.955 C 98.340 37.521,97.583 38.168,97.317 38.392 C 97.051 38.616,96.652 38.800,96.431 38.800 C 96.209 38.800,95.475 39.340,94.800 40.000 C 94.125 40.660,93.211 41.200,92.770 41.200 C 91.972 41.200,90.511 42.091,88.178 44.000 C 87.506 44.550,86.353 45.450,85.615 46.000 C 83.713 47.418,83.200 47.976,83.200 48.629 C 83.200 48.999,82.771 49.200,81.979 49.200 C 80.574 49.200,77.608 50.759,77.603 51.500 C 77.601 51.775,77.330 52.000,77.000 52.000 C 76.600 52.000,76.400 52.400,76.400 53.200 C 76.400 54.287,76.278 54.400,75.100 54.400 C 72.486 54.401,69.495 58.332,71.600 59.000 C 72.040 59.140,72.400 59.422,72.400 59.627 C 72.400 60.143,77.091 60.099,77.412 59.581 C 77.589 59.294,77.849 59.309,78.233 59.628 C 78.542 59.884,79.291 59.998,79.898 59.880 C 81.369 59.593,87.234 60.274,87.751 60.791 C 88.296 61.336,89.728 61.312,90.292 60.748 C 90.575 60.465,91.991 60.336,94.072 60.404 C 95.902 60.463,98.120 60.484,99.000 60.450 C 99.880 60.417,100.999 60.599,101.486 60.855 C 102.173 61.216,102.511 61.206,102.986 60.811 C 103.423 60.449,103.747 60.424,104.109 60.725 C 104.866 61.353,131.007 61.927,132.900 61.357 C 133.359 61.219,133.600 61.362,133.600 61.773 C 133.600 62.249,134.032 62.400,135.400 62.400 C 136.390 62.400,137.200 62.217,137.200 61.993 C 137.200 61.764,138.123 61.597,139.300 61.613 C 148.774 61.736,150.000 61.669,150.000 61.032 C 150.000 60.684,150.180 60.400,150.400 60.400 C 150.620 60.400,150.800 60.670,150.800 61.000 C 150.800 61.475,151.369 61.600,153.520 61.600 C 155.016 61.600,156.436 61.796,156.675 62.035 C 156.988 62.348,157.185 62.348,157.378 62.035 C 157.526 61.796,158.171 61.600,158.811 61.600 C 159.736 61.600,159.930 61.456,159.757 60.900 C 159.561 60.268,159.584 60.270,160.003 60.923 C 160.399 61.542,160.975 61.636,163.984 61.569 C 165.919 61.527,167.677 61.601,167.892 61.733 C 168.106 61.866,169.428 61.901,170.830 61.812 C 172.288 61.719,173.597 61.831,173.889 62.074 C 174.254 62.376,174.576 62.352,175.014 61.989 C 175.931 61.227,189.920 61.208,191.336 61.966 C 192.151 62.402,192.497 62.417,192.955 62.037 C 193.411 61.659,193.711 61.662,194.336 62.053 C 194.976 62.453,195.257 62.451,195.749 62.042 C 196.087 61.762,197.742 61.463,199.426 61.378 C 201.111 61.293,202.726 61.027,203.015 60.788 C 203.693 60.225,213.526 60.099,223.200 60.529 C 231.178 60.884,230.924 60.880,232.400 60.685 C 232.950 60.613,233.607 60.707,233.861 60.893 C 234.223 61.160,245.701 61.285,251.200 61.082 C 251.750 61.062,252.785 61.184,253.500 61.354 C 254.548 61.604,254.800 61.541,254.800 61.032 C 254.800 60.684,254.999 60.400,255.243 60.400 C 255.486 60.400,255.582 60.130,255.455 59.800 C 255.329 59.470,255.399 59.200,255.613 59.200 C 255.826 59.200,256.000 58.949,256.000 58.643 C 256.000 58.336,256.270 57.982,256.600 57.855 C 256.930 57.729,257.200 57.349,257.200 57.013 C 257.200 56.676,257.380 56.400,257.600 56.400 C 257.820 56.400,258.000 55.655,258.000 54.744 C 258.000 53.639,258.229 52.921,258.689 52.584 C 259.256 52.170,259.298 51.913,258.925 51.140 C 258.463 50.182,257.505 47.111,257.031 45.066 C 256.760 43.899,256.474 43.456,254.866 41.710 C 254.353 41.153,253.843 40.045,253.732 39.248 C 253.478 37.411,252.373 35.200,251.709 35.200 C 251.429 35.200,251.200 34.744,251.200 34.186 C 251.200 32.954,250.115 31.200,249.354 31.200 C 249.049 31.200,248.800 30.930,248.800 30.600 C 248.800 30.270,248.634 30.000,248.432 30.000 C 248.229 30.000,247.945 29.460,247.800 28.800 C 247.655 28.140,247.392 27.600,247.215 27.600 C 246.899 27.600,246.492 26.519,246.564 25.872 C 246.584 25.691,246.270 25.359,245.866 25.133 C 245.330 24.833,245.200 24.453,245.385 23.719 C 245.724 22.365,243.646 19.200,242.417 19.200 C 242.188 19.200,242.000 18.660,242.000 18.000 C 242.000 17.200,241.800 16.800,241.400 16.800 C 241.027 16.800,240.800 16.422,240.800 15.800 C 240.800 15.250,240.620 14.800,240.400 14.800 C 240.180 14.800,240.000 14.607,240.000 14.371 C 240.000 14.136,239.755 13.698,239.455 13.398 C 239.156 13.099,238.794 12.122,238.651 11.227 C 238.430 9.847,238.244 9.600,237.429 9.600 C 236.900 9.600,236.398 9.393,236.313 9.140 C 236.229 8.888,235.359 8.663,234.380 8.640 C 233.336 8.617,232.411 8.358,232.144 8.016 C 231.768 7.535,231.498 7.518,230.614 7.921 C 230.023 8.190,229.337 8.284,229.088 8.131 C 228.429 7.723,226.400 7.555,226.400 7.908 C 226.400 8.074,224.510 8.249,222.200 8.296 C 219.890 8.343,218.000 8.225,218.000 8.033 C 218.000 7.841,217.235 7.576,216.300 7.445 C 213.933 7.111,213.451 7.002,212.934 6.683 C 211.887 6.036,205.656 6.002,205.018 6.639 M263.200 18.757 C 263.200 19.220,263.366 19.600,263.568 19.600 C 263.771 19.600,264.055 20.140,264.200 20.800 C 264.345 21.460,264.617 22.000,264.805 22.000 C 264.993 22.000,265.272 22.405,265.427 22.900 C 265.581 23.395,265.819 23.891,265.954 24.001 C 266.208 24.209,267.834 27.119,268.577 28.697 C 268.810 29.190,269.135 29.595,269.300 29.597 C 269.465 29.599,269.600 29.876,269.600 30.213 C 269.600 30.549,269.859 30.924,270.176 31.046 C 270.492 31.167,270.866 31.792,271.007 32.433 C 271.148 33.075,271.410 33.600,271.588 33.600 C 271.767 33.600,272.026 34.050,272.164 34.600 C 272.302 35.150,272.578 35.600,272.776 35.600 C 272.974 35.600,273.255 36.140,273.400 36.800 C 273.545 37.460,273.826 38.000,274.024 38.000 C 274.222 38.000,274.498 38.450,274.636 39.000 C 274.774 39.550,275.008 40.000,275.156 40.000 C 275.304 40.000,275.638 40.495,275.898 41.100 C 276.358 42.169,277.194 43.594,277.600 44.000 C 277.710 44.110,278.250 45.100,278.800 46.200 C 279.350 47.300,279.890 48.290,280.000 48.400 C 280.202 48.602,280.908 49.845,282.262 52.382 C 282.972 53.711,283.227 54.085,284.284 55.352 C 284.550 55.671,284.884 56.397,285.027 56.966 C 285.170 57.535,285.428 58.000,285.600 58.000 C 285.772 58.000,286.026 58.450,286.164 59.000 C 286.302 59.550,286.578 60.000,286.776 60.000 C 286.974 60.000,287.255 60.540,287.400 61.200 C 287.545 61.860,287.800 62.400,287.967 62.400 C 288.134 62.400,288.753 63.345,289.342 64.500 C 290.445 66.660,291.249 68.049,291.600 68.400 C 291.710 68.510,292.250 69.500,292.800 70.600 C 293.350 71.700,293.935 72.660,294.100 72.733 C 294.265 72.807,294.400 73.009,294.400 73.183 C 294.400 73.554,298.032 79.707,298.425 80.000 C 298.572 80.110,298.830 80.642,298.999 81.181 C 299.168 81.721,299.552 82.409,299.853 82.710 C 300.154 83.011,300.400 83.514,300.400 83.829 C 300.400 84.143,300.566 84.400,300.768 84.400 C 300.971 84.400,301.252 84.925,301.393 85.567 C 301.534 86.208,301.908 86.833,302.224 86.954 C 302.541 87.076,302.800 87.451,302.800 87.787 C 302.800 88.124,302.966 88.400,303.168 88.400 C 303.371 88.400,303.655 88.940,303.800 89.600 C 303.945 90.260,304.226 90.800,304.424 90.800 C 304.622 90.800,304.898 91.250,305.036 91.800 C 305.174 92.350,305.408 92.800,305.556 92.800 C 305.704 92.800,306.035 93.295,306.293 93.900 C 306.895 95.315,308.319 97.772,309.706 99.793 C 310.308 100.669,310.800 101.614,310.800 101.893 C 310.800 102.172,310.960 102.400,311.157 102.400 C 311.353 102.400,311.626 102.850,311.764 103.400 C 311.902 103.950,312.178 104.400,312.376 104.400 C 312.574 104.400,312.855 104.940,313.000 105.600 C 313.145 106.260,313.388 106.800,313.540 106.800 C 313.692 106.800,314.259 107.610,314.800 108.600 C 315.341 109.590,315.908 110.400,316.060 110.400 C 316.212 110.400,316.455 110.940,316.600 111.600 C 316.745 112.260,317.029 112.800,317.232 112.800 C 317.434 112.800,317.600 113.057,317.600 113.371 C 317.600 113.686,317.827 114.181,318.105 114.471 C 318.382 114.762,318.831 115.450,319.102 116.000 C 319.373 116.550,319.770 117.270,319.986 117.600 C 321.358 119.703,323.600 123.678,323.600 124.007 C 323.600 124.223,323.766 124.400,323.968 124.400 C 324.171 124.400,324.455 124.940,324.600 125.600 C 324.745 126.260,325.026 126.800,325.224 126.800 C 325.422 126.800,325.698 127.250,325.836 127.800 C 325.974 128.350,326.233 128.800,326.412 128.800 C 326.590 128.800,326.855 129.340,327.000 130.000 C 327.145 130.660,327.424 131.200,327.620 131.200 C 327.816 131.200,328.431 132.145,328.987 133.300 C 329.970 135.342,330.793 136.793,331.200 137.200 C 331.310 137.310,331.850 138.300,332.400 139.400 C 332.950 140.500,333.490 141.490,333.600 141.600 C 333.806 141.806,334.161 142.416,335.907 145.568 C 336.465 146.576,337.074 147.460,337.261 147.533 C 337.447 147.607,337.600 147.922,337.600 148.233 C 337.600 148.545,337.766 148.800,337.968 148.800 C 338.171 148.800,338.455 149.340,338.600 150.000 C 338.745 150.660,339.026 151.200,339.224 151.200 C 339.422 151.200,339.698 151.650,339.836 152.200 C 339.974 152.750,340.208 153.200,340.356 153.200 C 340.504 153.200,340.838 153.695,341.098 154.300 C 341.625 155.525,342.458 156.892,342.868 157.204 C 343.016 157.316,343.260 157.901,343.412 158.504 C 343.563 159.107,343.835 159.600,344.016 159.600 C 344.198 159.600,344.472 160.005,344.627 160.500 C 344.781 160.995,345.019 161.490,345.154 161.600 C 345.289 161.710,345.850 162.700,346.400 163.800 C 346.950 164.900,347.490 165.890,347.600 166.000 C 347.920 166.320,348.764 167.715,349.295 168.800 C 349.564 169.350,349.877 169.890,349.992 170.000 C 350.391 170.384,351.225 171.805,351.458 172.500 C 351.588 172.885,351.852 173.200,352.047 173.200 C 352.241 173.200,352.400 173.470,352.400 173.800 C 352.400 174.667,361.120 174.665,362.947 173.798 C 364.125 173.240,366.800 169.785,366.800 168.824 C 366.800 168.591,366.977 168.400,367.192 168.400 C 367.408 168.400,367.698 167.950,367.836 167.400 C 367.974 166.850,368.233 166.400,368.412 166.400 C 368.590 166.400,368.855 165.860,369.000 165.200 C 369.145 164.540,369.400 164.000,369.566 164.000 C 369.733 164.000,370.360 163.055,370.960 161.900 C 372.283 159.351,372.920 158.265,373.246 158.000 C 373.381 157.890,373.630 157.358,373.799 156.819 C 373.968 156.279,374.352 155.591,374.653 155.290 C 374.954 154.989,375.200 154.486,375.200 154.171 C 375.200 153.857,375.366 153.600,375.568 153.600 C 375.771 153.600,376.052 153.075,376.193 152.433 C 376.334 151.792,376.708 151.167,377.024 151.046 C 377.341 150.924,377.600 150.549,377.600 150.213 C 377.600 149.876,377.766 149.600,377.968 149.600 C 378.171 149.600,378.455 149.060,378.600 148.400 C 378.745 147.740,378.988 147.200,379.141 147.200 C 379.293 147.200,379.772 146.525,380.205 145.700 C 380.638 144.875,381.084 144.110,381.196 144.000 C 381.308 143.890,381.850 142.900,382.400 141.800 C 382.950 140.700,383.580 139.671,383.800 139.514 C 384.404 139.083,384.182 135.960,383.451 134.600 C 383.096 133.940,382.804 133.175,382.802 132.900 C 382.801 132.625,382.620 132.400,382.400 132.400 C 382.180 132.400,382.000 132.114,382.000 131.765 C 382.000 131.415,381.460 129.963,380.800 128.537 C 380.140 127.111,379.600 125.777,379.600 125.572 C 379.600 125.367,379.422 125.200,379.205 125.200 C 378.987 125.200,378.694 124.480,378.554 123.600 C 378.413 122.720,378.155 122.000,377.981 122.000 C 377.806 122.000,377.545 121.460,377.400 120.800 C 377.255 120.140,376.971 119.600,376.768 119.600 C 376.566 119.600,376.394 119.285,376.386 118.900 C 376.379 118.515,376.025 117.480,375.600 116.600 C 375.175 115.720,374.821 114.685,374.814 114.300 C 374.806 113.915,374.634 113.600,374.432 113.600 C 374.229 113.600,373.945 113.060,373.800 112.400 C 373.655 111.740,373.371 111.200,373.168 111.200 C 372.966 111.200,372.800 110.744,372.800 110.187 C 372.800 109.631,372.530 109.071,372.200 108.945 C 371.870 108.818,371.600 108.505,371.600 108.248 C 371.600 107.992,371.015 106.884,370.300 105.787 C 369.585 104.690,368.644 103.119,368.209 102.296 C 367.774 101.473,367.300 100.800,367.156 100.800 C 367.011 100.800,366.788 100.485,366.658 100.100 C 366.324 99.104,365.485 97.855,364.900 97.480 C 364.625 97.304,364.400 96.899,364.400 96.580 C 364.400 96.261,364.256 96.000,364.080 96.000 C 363.905 96.000,363.320 95.285,362.780 94.411 C 362.241 93.537,361.665 92.817,361.500 92.811 C 361.335 92.805,361.200 92.524,361.200 92.187 C 361.200 91.851,360.930 91.471,360.600 91.345 C 360.270 91.218,360.000 90.891,360.000 90.618 C 360.000 90.346,359.640 89.707,359.200 89.200 C 358.760 88.693,358.397 88.170,358.394 88.039 C 358.390 87.907,357.854 87.170,357.201 86.400 C 356.549 85.630,355.427 84.291,354.708 83.424 C 353.989 82.558,352.815 81.235,352.100 80.484 C 351.385 79.734,350.800 78.983,350.800 78.816 C 350.800 78.649,350.215 77.880,349.500 77.108 C 348.785 76.335,347.930 75.299,347.600 74.804 C 347.270 74.309,346.505 73.400,345.900 72.783 C 345.295 72.166,344.800 71.508,344.800 71.320 C 344.800 71.132,344.284 70.525,343.653 69.972 C 343.023 69.418,342.393 68.613,342.254 68.183 C 342.115 67.752,341.331 66.950,340.512 66.400 C 339.693 65.850,338.343 64.725,337.511 63.900 C 336.680 63.075,335.865 62.396,335.700 62.391 C 335.404 62.382,334.306 61.453,330.000 57.572 C 328.790 56.481,326.990 54.860,326.000 53.968 C 325.010 53.077,323.685 51.954,323.056 51.474 C 322.427 50.993,321.429 50.150,320.837 49.600 C 320.246 49.050,317.610 47.160,314.981 45.400 C 312.351 43.640,310.140 42.065,310.067 41.900 C 309.993 41.735,309.673 41.600,309.354 41.600 C 309.036 41.600,308.674 41.337,308.550 41.015 C 308.427 40.694,307.955 40.313,307.501 40.168 C 307.047 40.024,306.298 39.509,305.838 39.023 C 305.377 38.538,304.685 38.024,304.300 37.883 C 303.915 37.741,303.600 37.459,303.600 37.256 C 303.600 37.053,303.150 36.774,302.600 36.636 C 302.050 36.498,301.600 36.222,301.600 36.024 C 301.600 35.826,301.060 35.545,300.400 35.400 C 299.740 35.255,299.200 34.971,299.200 34.768 C 299.200 34.566,298.930 34.400,298.600 34.400 C 298.270 34.400,298.000 34.223,298.000 34.008 C 298.000 33.792,297.550 33.502,297.000 33.364 C 296.450 33.226,296.000 32.953,296.000 32.757 C 296.000 32.560,295.752 32.400,295.449 32.400 C 295.146 32.400,294.690 32.150,294.437 31.844 C 294.183 31.538,292.856 30.875,291.488 30.369 C 290.119 29.864,288.908 29.319,288.796 29.157 C 288.684 28.996,288.099 28.740,287.496 28.588 C 286.893 28.437,286.400 28.161,286.400 27.975 C 286.400 27.789,285.770 27.518,285.000 27.374 C 284.230 27.229,283.600 26.971,283.600 26.800 C 283.600 26.629,282.970 26.371,282.200 26.226 C 281.430 26.082,280.800 25.806,280.800 25.614 C 280.800 25.421,280.260 25.145,279.600 25.000 C 278.940 24.855,278.400 24.591,278.400 24.413 C 278.400 24.235,277.770 23.971,277.000 23.826 C 276.230 23.682,275.600 23.400,275.600 23.200 C 275.600 23.000,274.970 22.718,274.200 22.574 C 273.430 22.429,272.800 22.171,272.800 22.000 C 272.800 21.829,272.183 21.573,271.429 21.432 C 270.675 21.290,270.000 21.045,269.929 20.887 C 269.753 20.495,266.905 19.200,266.220 19.200 C 265.916 19.200,265.607 19.033,265.533 18.830 C 265.214 17.943,263.200 17.880,263.200 18.757 M81.400 79.909 C 80.740 79.998,80.020 80.206,79.800 80.371 C 79.183 80.835,56.754 80.803,55.884 80.338 C 55.473 80.118,54.837 80.067,54.469 80.225 C 54.101 80.382,52.803 80.542,51.584 80.580 C 50.364 80.618,49.149 80.784,48.884 80.948 C 48.301 81.309,48.238 82.400,48.800 82.400 C 49.020 82.400,49.200 82.580,49.200 82.800 C 49.200 83.020,48.950 83.200,48.644 83.200 C 48.338 83.200,47.721 83.965,47.272 84.900 C 46.823 85.835,45.436 87.657,44.190 88.949 C 42.944 90.241,41.744 91.816,41.523 92.449 C 41.302 93.082,40.869 93.600,40.561 93.600 C 40.252 93.600,40.000 93.737,40.000 93.904 C 40.000 94.071,39.557 94.685,39.016 95.269 C 38.476 95.852,37.919 96.782,37.780 97.336 C 37.641 97.889,37.274 98.439,36.964 98.559 C 36.654 98.678,36.400 99.051,36.400 99.387 C 36.400 99.724,36.265 100.001,36.100 100.003 C 35.694 100.006,34.400 102.322,34.400 103.045 C 34.400 103.364,34.130 103.729,33.800 103.855 C 33.470 103.982,33.200 104.265,33.200 104.485 C 33.200 104.704,32.660 105.684,32.000 106.662 C 31.340 107.640,30.800 108.611,30.800 108.820 C 30.800 109.029,30.636 109.200,30.436 109.200 C 29.892 109.200,28.400 112.497,28.400 113.700 C 28.400 114.545,28.188 114.771,27.300 114.873 C 26.236 114.996,26.196 115.088,26.082 117.674 C 25.977 120.071,25.874 120.362,25.096 120.474 C 24.449 120.568,24.132 121.008,23.856 122.200 C 23.652 123.080,23.355 123.890,23.196 124.000 C 23.038 124.110,22.769 124.650,22.600 125.200 C 22.431 125.750,22.103 126.321,21.872 126.470 C 21.585 126.654,21.604 126.923,21.934 127.321 C 22.324 127.791,22.274 127.940,21.670 128.098 C 20.834 128.316,19.200 131.379,19.200 132.726 C 19.200 133.207,19.016 133.600,18.790 133.600 C 18.260 133.600,17.633 135.268,17.378 137.353 C 17.098 139.652,16.785 140.523,16.042 141.068 C 15.547 141.432,15.413 142.189,15.456 144.370 C 15.486 145.927,15.351 147.200,15.156 147.200 C 14.960 147.200,14.800 147.667,14.800 148.237 C 14.800 148.807,14.440 149.731,14.000 150.291 C 13.560 150.850,13.200 151.608,13.200 151.974 C 13.200 152.340,12.998 152.842,12.751 153.089 C 12.504 153.336,12.246 154.644,12.179 155.994 C 12.112 157.345,11.843 158.708,11.581 159.023 C 11.320 159.338,11.200 159.957,11.315 160.398 C 11.431 160.839,11.362 161.200,11.163 161.200 C 10.963 161.200,10.800 161.549,10.800 161.976 C 10.800 162.403,10.627 162.860,10.415 162.991 C 9.920 163.297,9.973 166.770,10.488 167.750 C 10.879 168.496,10.767 168.898,9.387 171.691 C 9.067 172.339,9.000 172.877,9.224 173.015 C 9.793 173.366,9.674 174.000,9.040 174.000 C 8.579 174.000,8.478 175.327,8.473 181.419 C 8.468 186.341,8.314 189.022,8.014 189.384 C 7.702 189.759,7.692 190.010,7.981 190.188 C 8.514 190.518,8.528 192.273,8.000 192.600 C 7.538 192.885,7.451 194.800,7.900 194.800 C 8.508 194.800,8.665 214.295,8.062 214.898 C 7.810 215.150,7.792 215.654,8.014 216.237 C 8.231 216.809,8.220 217.264,7.985 217.409 C 7.484 217.719,7.482 221.600,7.982 221.600 C 8.192 221.600,8.482 222.232,8.627 223.004 C 8.772 223.777,9.014 224.485,9.165 224.578 C 9.316 224.671,9.422 226.751,9.400 229.200 C 9.379 231.649,9.488 233.731,9.643 233.827 C 9.797 233.922,9.827 234.720,9.709 235.600 C 9.535 236.901,9.617 237.200,10.147 237.200 C 10.684 237.200,10.800 237.662,10.800 239.800 C 10.800 241.844,10.928 242.400,11.400 242.400 C 11.730 242.400,12.000 242.580,12.000 242.800 C 12.000 243.020,11.856 243.200,11.681 243.200 C 11.505 243.200,11.370 243.919,11.381 244.799 C 11.404 246.693,12.015 246.864,13.303 245.335 C 14.711 243.663,17.984 240.093,20.500 237.485 C 21.765 236.173,22.800 234.871,22.800 234.593 C 22.800 234.314,23.050 233.990,23.356 233.872 C 23.661 233.755,24.223 232.791,24.604 231.730 C 26.047 227.712,28.339 222.861,29.200 222.000 C 29.649 221.551,31.200 219.215,31.200 218.988 C 31.200 218.853,31.425 218.492,31.700 218.185 C 32.879 216.871,33.200 216.411,33.200 216.037 C 33.200 215.818,33.446 215.496,33.746 215.320 C 34.046 215.144,34.611 214.370,35.001 213.600 C 35.851 211.923,38.079 208.654,38.500 208.467 C 38.665 208.393,38.800 208.078,38.800 207.767 C 38.800 207.455,39.049 207.200,39.353 207.200 C 39.933 207.200,40.385 206.027,40.395 204.500 C 40.398 204.005,40.648 203.600,40.951 203.600 C 41.766 203.600,42.748 202.320,42.100 202.102 C 41.809 202.004,41.619 201.320,41.646 200.467 C 41.672 199.660,41.778 199.328,41.881 199.729 C 41.998 200.180,42.299 200.371,42.668 200.229 C 42.996 200.103,43.339 200.000,43.428 200.000 C 43.517 200.000,43.706 199.280,43.846 198.400 C 43.987 197.520,44.259 196.800,44.451 196.800 C 44.643 196.800,44.800 196.524,44.800 196.187 C 44.800 195.851,45.071 195.471,45.402 195.344 C 45.733 195.217,46.117 194.412,46.253 193.556 C 46.461 192.255,46.658 192.000,47.451 192.000 C 48.427 192.000,48.535 191.769,48.415 189.927 C 48.365 189.153,48.795 188.405,49.963 187.237 C 50.852 186.348,51.694 185.166,51.833 184.610 C 51.973 184.055,52.247 183.600,52.443 183.600 C 52.640 183.600,52.800 183.060,52.800 182.400 C 52.800 181.645,53.005 181.200,53.353 181.200 C 53.907 181.200,54.384 180.041,54.395 178.671 C 54.398 178.271,54.670 177.673,55.000 177.343 C 55.330 177.013,55.600 176.122,55.600 175.364 C 55.600 174.131,55.696 174.009,56.505 174.212 C 57.422 174.442,58.693 172.397,58.164 171.541 C 58.048 171.354,58.143 171.200,58.376 171.200 C 58.609 171.200,58.800 170.970,58.800 170.689 C 58.800 170.408,59.160 169.870,59.600 169.493 C 60.040 169.116,60.400 168.536,60.400 168.204 C 60.400 167.872,60.580 167.600,60.800 167.600 C 61.020 167.600,61.200 167.324,61.200 166.987 C 61.200 166.651,61.470 166.271,61.800 166.145 C 62.130 166.018,62.400 165.664,62.400 165.357 C 62.400 165.051,62.580 164.800,62.800 164.800 C 63.020 164.800,63.200 164.080,63.200 163.200 C 63.200 162.044,63.367 161.600,63.800 161.600 C 64.133 161.600,64.400 161.244,64.400 160.800 C 64.400 160.360,64.651 160.000,64.957 160.000 C 65.569 160.000,66.000 159.159,66.000 157.967 C 66.000 157.545,66.172 157.200,66.382 157.200 C 66.592 157.200,66.882 156.570,67.026 155.800 C 67.177 154.998,67.526 154.400,67.845 154.400 C 68.150 154.400,68.400 154.130,68.400 153.800 C 68.400 153.470,68.580 153.200,68.800 153.200 C 69.020 153.200,69.200 152.660,69.200 152.000 C 69.200 151.276,69.408 150.800,69.725 150.800 C 70.273 150.800,72.000 148.713,72.000 148.050 C 72.000 147.839,72.207 147.598,72.459 147.514 C 72.712 147.429,72.991 146.654,73.080 145.791 C 73.168 144.928,73.387 144.127,73.566 144.011 C 73.746 143.895,74.030 143.358,74.199 142.819 C 74.368 142.279,74.752 141.591,75.053 141.290 C 75.354 140.989,75.600 140.486,75.600 140.171 C 75.600 139.857,75.754 139.600,75.942 139.600 C 76.445 139.600,78.400 137.707,78.400 137.219 C 78.400 136.989,78.238 136.845,78.040 136.900 C 77.842 136.955,77.662 136.865,77.640 136.700 C 77.495 135.614,77.776 135.270,79.187 134.804 C 80.059 134.516,80.679 134.128,80.563 133.940 C 80.447 133.753,80.543 133.600,80.776 133.600 C 81.009 133.600,81.200 133.060,81.200 132.400 C 81.200 131.740,81.360 131.200,81.557 131.200 C 81.753 131.200,82.035 130.714,82.184 130.120 C 82.333 129.526,82.893 128.635,83.428 128.139 C 83.967 127.639,84.400 126.785,84.400 126.219 C 84.400 125.580,84.624 125.200,85.000 125.200 C 85.330 125.200,85.600 124.930,85.600 124.600 C 85.600 124.270,85.849 124.000,86.154 124.000 C 86.851 124.000,88.000 122.284,88.000 121.243 C 88.000 120.811,88.270 120.187,88.600 119.857 C 88.930 119.527,89.200 118.904,89.200 118.471 C 89.200 118.039,89.470 117.582,89.800 117.455 C 90.130 117.329,90.400 116.964,90.400 116.646 C 90.400 116.327,90.535 116.007,90.700 115.933 C 91.162 115.728,92.800 112.520,92.800 111.821 C 92.800 111.479,92.960 111.200,93.157 111.200 C 93.353 111.200,93.626 110.750,93.764 110.200 C 93.902 109.650,94.237 109.197,94.508 109.194 C 95.666 109.179,96.187 108.383,96.249 106.534 C 96.284 105.486,96.513 104.562,96.757 104.481 C 97.000 104.400,97.200 103.898,97.200 103.367 C 97.200 102.774,97.432 102.400,97.800 102.400 C 98.130 102.400,98.400 102.124,98.400 101.787 C 98.400 101.451,98.670 101.071,99.000 100.945 C 99.330 100.818,99.600 100.464,99.600 100.157 C 99.600 99.851,99.870 99.600,100.200 99.600 C 100.530 99.600,100.800 99.330,100.800 99.000 C 100.800 98.670,100.962 98.400,101.160 98.400 C 101.359 98.400,101.893 97.770,102.347 97.000 C 102.801 96.230,102.999 95.600,102.787 95.600 C 102.574 95.600,102.400 95.420,102.400 95.200 C 102.400 94.980,102.639 94.800,102.930 94.800 C 104.398 94.800,105.904 91.595,104.700 91.033 C 104.300 90.847,104.300 90.753,104.700 90.567 C 105.440 90.221,105.360 85.817,104.600 85.057 C 104.254 84.711,103.997 83.724,103.994 82.729 C 103.983 79.676,104.459 79.803,92.915 79.773 C 87.242 79.758,82.060 79.819,81.400 79.909 M391.000 165.106 C 390.780 165.268,390.150 166.300,389.600 167.400 C 389.050 168.500,388.489 169.490,388.354 169.600 C 388.219 169.710,387.969 170.250,387.800 170.800 C 387.631 171.350,387.381 171.890,387.246 172.000 C 387.111 172.110,386.550 173.100,386.000 174.200 C 385.450 175.300,384.879 176.292,384.732 176.404 C 384.584 176.516,384.340 177.101,384.188 177.704 C 384.037 178.307,383.767 178.800,383.588 178.800 C 383.410 178.800,383.145 179.340,383.000 180.000 C 382.855 180.660,382.604 181.200,382.442 181.200 C 382.280 181.200,381.530 182.415,380.775 183.900 C 380.021 185.385,378.638 187.883,377.702 189.451 C 376.766 191.019,376.000 192.504,376.000 192.751 C 376.000 192.998,375.834 193.200,375.632 193.200 C 375.429 193.200,375.145 193.740,375.000 194.400 C 374.855 195.060,374.616 195.604,374.468 195.608 C 374.321 195.613,373.750 196.599,373.200 197.800 C 372.650 199.001,372.079 199.987,371.932 199.992 C 371.784 199.996,371.545 200.540,371.400 201.200 C 371.255 201.860,371.016 202.404,370.868 202.408 C 370.721 202.413,370.150 203.399,369.600 204.600 C 369.050 205.801,368.479 206.787,368.332 206.792 C 368.184 206.796,367.945 207.340,367.800 208.000 C 367.655 208.660,367.385 209.200,367.200 209.200 C 367.015 209.200,366.745 209.740,366.600 210.400 C 366.455 211.060,366.210 211.600,366.056 211.600 C 365.901 211.600,365.150 212.815,364.387 214.300 C 363.624 215.785,362.910 217.091,362.800 217.201 C 362.610 217.392,361.403 219.568,360.027 222.200 C 359.682 222.860,359.289 223.490,359.154 223.600 C 359.019 223.710,358.769 224.250,358.600 224.800 C 358.431 225.350,358.181 225.890,358.046 226.000 C 357.911 226.110,357.350 227.100,356.800 228.200 C 356.250 229.300,355.689 230.290,355.554 230.400 C 355.419 230.510,355.170 231.042,355.001 231.581 C 354.832 232.121,354.448 232.809,354.147 233.110 C 353.846 233.411,353.600 233.914,353.600 234.229 C 353.600 234.543,353.420 234.800,353.200 234.800 C 352.980 234.800,352.800 235.057,352.800 235.371 C 352.800 235.686,352.569 236.181,352.286 236.471 C 351.550 237.228,349.200 241.138,349.200 241.606 C 349.200 241.823,349.040 242.000,348.843 242.000 C 348.647 242.000,348.374 242.450,348.236 243.000 C 348.098 243.550,347.822 244.000,347.624 244.000 C 347.426 244.000,347.148 244.525,347.007 245.167 C 346.866 245.808,346.492 246.433,346.176 246.554 C 345.859 246.676,345.600 247.051,345.600 247.387 C 345.600 247.724,345.420 248.000,345.200 248.000 C 344.980 248.000,344.800 248.257,344.800 248.571 C 344.800 248.886,344.554 249.389,344.253 249.690 C 343.952 249.991,343.568 250.679,343.399 251.219 C 343.230 251.758,342.970 252.290,342.822 252.400 C 342.348 252.750,339.600 257.486,339.600 257.952 C 339.600 258.199,339.423 258.400,339.208 258.400 C 338.992 258.400,338.702 258.850,338.564 259.400 C 338.426 259.950,338.153 260.400,337.957 260.400 C 337.760 260.400,337.600 260.670,337.600 261.000 C 337.600 261.330,337.461 261.600,337.292 261.600 C 337.122 261.600,336.537 262.452,335.992 263.493 C 335.446 264.534,334.775 265.627,334.500 265.921 C 334.225 266.216,334.000 266.714,334.000 267.029 C 334.000 267.343,333.840 267.600,333.643 267.600 C 333.447 267.600,333.174 268.050,333.036 268.600 C 332.898 269.150,332.622 269.600,332.424 269.600 C 332.226 269.600,331.948 270.125,331.807 270.767 C 331.666 271.408,331.292 272.033,330.976 272.154 C 330.659 272.276,330.400 272.651,330.400 272.987 C 330.400 273.324,330.240 273.600,330.043 273.600 C 329.847 273.600,329.574 274.050,329.436 274.600 C 329.298 275.150,329.022 275.600,328.824 275.600 C 328.626 275.600,328.348 276.125,328.207 276.767 C 328.066 277.408,327.692 278.033,327.376 278.154 C 327.059 278.276,326.800 278.651,326.800 278.987 C 326.800 279.324,326.620 279.600,326.400 279.600 C 326.180 279.600,326.000 279.857,326.000 280.171 C 326.000 280.486,325.754 280.989,325.453 281.290 C 325.152 281.591,324.770 282.265,324.604 282.788 C 324.438 283.311,323.957 284.109,323.536 284.561 C 323.114 285.014,322.666 285.793,322.541 286.292 C 322.416 286.791,322.194 287.200,322.048 287.200 C 321.903 287.200,321.337 288.052,320.792 289.093 C 320.246 290.134,319.575 291.227,319.300 291.521 C 319.025 291.816,318.800 292.314,318.800 292.629 C 318.800 292.943,318.641 293.200,318.447 293.200 C 318.252 293.200,317.978 293.515,317.837 293.900 C 317.696 294.285,317.135 295.320,316.589 296.200 C 316.044 297.080,315.487 298.115,315.352 298.500 C 315.217 298.885,314.967 299.200,314.797 299.200 C 314.626 299.200,314.374 299.650,314.236 300.200 C 314.098 300.750,313.822 301.200,313.624 301.200 C 313.426 301.200,313.148 301.725,313.007 302.367 C 312.866 303.008,312.492 303.633,312.176 303.754 C 311.859 303.876,311.600 304.251,311.600 304.587 C 311.600 304.924,311.420 305.200,311.200 305.200 C 310.980 305.200,310.800 305.457,310.800 305.771 C 310.800 306.086,310.575 306.581,310.300 306.873 C 309.669 307.542,308.086 310.255,307.483 311.700 C 307.231 312.305,306.884 312.800,306.712 312.800 C 306.541 312.800,306.400 313.076,306.400 313.413 C 306.400 313.749,306.141 314.124,305.824 314.246 C 305.508 314.367,305.134 314.992,304.993 315.633 C 304.852 316.275,304.574 316.800,304.376 316.800 C 304.178 316.800,303.902 317.250,303.764 317.800 C 303.626 318.350,303.353 318.800,303.157 318.800 C 302.960 318.800,302.800 319.610,302.800 320.600 C 302.800 321.590,302.966 322.400,303.168 322.400 C 303.371 322.400,303.655 322.940,303.800 323.600 C 303.945 324.260,304.212 324.800,304.393 324.800 C 304.574 324.800,305.071 325.475,305.498 326.300 C 306.515 328.264,306.878 328.301,325.900 328.357 C 335.538 328.385,340.800 328.541,340.800 328.800 C 340.800 329.845,351.985 329.270,352.473 328.200 C 352.723 327.650,353.067 327.200,353.237 327.200 C 353.407 327.200,353.669 326.812,353.820 326.338 C 353.970 325.863,354.523 325.078,355.047 324.592 C 355.571 324.106,356.000 323.544,356.000 323.343 C 356.000 323.142,356.360 322.670,356.800 322.293 C 357.240 321.916,357.600 321.336,357.600 321.004 C 357.600 320.672,357.765 320.400,357.967 320.400 C 358.169 320.400,358.745 319.725,359.246 318.900 C 359.748 318.075,360.267 317.310,360.400 317.200 C 360.533 317.090,361.076 316.280,361.606 315.400 C 362.136 314.520,362.757 313.581,362.985 313.314 C 364.122 311.982,364.323 311.674,364.578 310.869 C 364.730 310.391,365.022 310.000,365.227 310.000 C 365.432 310.000,365.600 309.749,365.600 309.443 C 365.600 309.136,365.870 308.782,366.200 308.655 C 366.530 308.529,366.800 308.149,366.800 307.813 C 366.800 307.476,366.977 307.200,367.192 307.200 C 367.408 307.200,367.698 306.750,367.836 306.200 C 367.974 305.650,368.235 305.200,368.415 305.200 C 368.596 305.200,369.162 304.345,369.672 303.300 C 370.182 302.255,370.825 301.162,371.100 300.871 C 371.375 300.581,371.600 300.101,371.600 299.805 C 371.600 299.509,371.735 299.207,371.900 299.133 C 372.065 299.060,372.650 298.100,373.200 297.000 C 373.750 295.900,374.294 294.910,374.408 294.800 C 374.523 294.690,374.883 294.074,375.208 293.431 C 376.344 291.188,376.592 290.800,376.890 290.800 C 377.055 290.800,377.306 290.080,377.446 289.200 C 377.587 288.320,377.845 287.600,378.019 287.600 C 378.194 287.600,378.455 287.062,378.599 286.405 C 378.743 285.747,379.028 285.106,379.231 284.981 C 379.434 284.855,379.600 284.403,379.600 283.976 C 379.600 283.549,379.772 283.200,379.982 283.200 C 380.192 283.200,380.482 282.570,380.626 281.800 C 380.771 281.030,381.035 280.400,381.213 280.400 C 381.391 280.400,381.664 279.821,381.819 279.113 C 381.975 278.405,382.253 277.550,382.437 277.213 C 383.237 275.748,384.400 272.793,384.400 272.222 C 384.400 271.880,384.560 271.600,384.755 271.600 C 384.951 271.600,385.229 270.970,385.374 270.200 C 385.518 269.430,385.785 268.800,385.967 268.800 C 386.149 268.800,386.413 268.080,386.554 267.200 C 386.694 266.320,386.976 265.600,387.180 265.600 C 387.384 265.600,387.673 264.788,387.822 263.795 C 387.971 262.802,388.239 261.900,388.418 261.789 C 388.597 261.678,388.867 260.600,389.018 259.394 C 389.169 258.187,389.431 257.200,389.600 257.200 C 389.769 257.200,390.031 256.213,390.182 255.006 C 390.333 253.800,390.607 252.719,390.792 252.605 C 390.977 252.491,391.256 250.868,391.412 248.999 C 391.567 247.129,391.832 245.600,392.000 245.600 C 392.168 245.600,392.433 244.070,392.589 242.200 C 392.744 240.330,393.017 238.800,393.194 238.800 C 393.371 238.800,393.616 238.125,393.739 237.300 C 394.121 234.724,395.040 230.228,395.311 229.600 C 395.454 229.270,395.753 227.380,395.975 225.400 C 396.198 223.420,396.569 220.360,396.800 218.600 C 397.271 215.019,396.921 186.074,396.399 185.400 C 396.228 185.180,395.960 183.514,395.802 181.698 C 395.645 179.882,395.377 178.309,395.206 178.204 C 395.035 178.098,394.768 176.480,394.612 174.607 C 394.456 172.735,394.165 171.102,393.964 170.978 C 393.764 170.854,393.600 169.953,393.600 168.976 C 393.600 167.999,393.420 167.200,393.200 167.200 C 392.980 167.200,392.800 166.660,392.800 166.000 C 392.800 164.800,391.975 164.390,391.000 165.106 M100.260 178.187 C 100.136 178.510,100.207 178.881,100.417 179.011 C 100.654 179.157,100.800 188.110,100.800 202.424 L 100.800 225.600 203.600 225.600 L 306.400 225.600 306.400 203.000 L 306.400 180.400 204.200 180.400 L 102.000 180.400 102.000 179.243 C 102.000 178.557,101.742 177.987,101.367 177.843 C 100.517 177.517,100.518 177.517,100.260 178.187 M256.676 228.388 C 255.406 229.733,255.237 231.200,256.351 231.200 C 257.309 231.200,257.931 230.445,258.238 228.910 C 258.573 227.237,257.957 227.031,256.676 228.388 M294.400 232.200 C 294.400 232.533,294.756 232.800,295.200 232.800 C 295.644 232.800,296.000 232.533,296.000 232.200 C 296.000 231.867,295.644 231.600,295.200 231.600 C 294.756 231.600,294.400 231.867,294.400 232.200 M41.780 233.350 C 41.461 233.806,41.200 234.408,41.200 234.689 C 41.200 234.970,41.023 235.200,40.808 235.200 C 40.592 235.200,40.302 235.650,40.164 236.200 C 40.026 236.750,39.753 237.200,39.557 237.200 C 39.360 237.200,39.200 237.448,39.200 237.751 C 39.200 238.054,38.914 238.539,38.566 238.829 C 38.139 239.183,38.005 239.723,38.156 240.478 C 38.376 241.581,37.840 242.079,37.486 241.100 C 37.385 240.821,37.062 241.131,36.757 241.800 C 36.456 242.460,35.982 243.238,35.705 243.529 C 35.427 243.819,35.200 244.314,35.200 244.629 C 35.200 244.943,35.020 245.200,34.800 245.200 C 34.580 245.200,34.400 245.451,34.400 245.757 C 34.400 246.064,34.130 246.418,33.800 246.545 C 33.470 246.671,33.200 247.061,33.200 247.411 C 33.200 247.761,33.380 247.936,33.600 247.800 C 33.820 247.664,34.000 247.763,34.000 248.019 C 34.000 248.276,33.742 248.387,33.426 248.265 C 32.565 247.935,31.076 250.679,31.356 252.080 C 31.479 252.696,31.405 253.200,31.190 253.200 C 30.976 253.200,30.800 253.020,30.800 252.800 C 30.800 251.882,30.022 252.513,29.197 254.100 C 28.710 255.035,28.197 255.890,28.056 256.000 C 27.915 256.110,27.350 257.100,26.800 258.200 C 26.250 259.300,25.575 260.344,25.300 260.520 C 25.025 260.696,24.800 261.101,24.800 261.420 C 24.800 261.739,24.620 262.000,24.400 262.000 C 24.180 262.000,24.000 262.191,24.000 262.424 C 24.000 262.657,24.180 262.736,24.400 262.600 C 24.620 262.464,24.800 262.648,24.800 263.010 C 24.800 263.371,24.577 263.592,24.304 263.501 C 23.642 263.281,22.898 264.069,22.584 265.323 C 22.443 265.883,22.074 266.439,21.764 266.559 C 21.454 266.678,21.200 267.051,21.200 267.387 C 21.200 267.724,21.040 268.000,20.843 268.000 C 20.035 268.000,20.007 270.059,20.792 271.781 C 21.236 272.757,21.600 273.836,21.600 274.178 C 21.600 274.520,21.766 274.800,21.968 274.800 C 22.171 274.800,22.458 275.352,22.606 276.027 C 22.754 276.702,23.127 277.737,23.435 278.327 C 23.743 278.917,23.996 279.625,23.998 279.900 C 23.999 280.175,24.160 280.400,24.355 280.400 C 24.551 280.400,24.829 281.030,24.974 281.800 C 25.118 282.570,25.392 283.200,25.583 283.200 C 25.774 283.200,26.051 283.920,26.200 284.800 C 26.349 285.680,26.620 286.400,26.803 286.400 C 26.987 286.400,27.258 286.952,27.406 287.627 C 27.554 288.302,27.927 289.337,28.235 289.927 C 28.543 290.517,28.796 291.225,28.798 291.500 C 28.799 291.775,28.960 292.000,29.155 292.000 C 29.351 292.000,29.629 292.630,29.774 293.400 C 29.918 294.170,30.208 294.800,30.418 294.800 C 30.628 294.800,30.800 294.998,30.800 295.240 C 30.800 296.103,34.382 303.713,34.891 303.933 C 35.061 304.007,35.200 304.405,35.200 304.820 C 35.200 305.234,35.725 306.109,36.367 306.766 C 37.008 307.422,37.645 308.312,37.782 308.743 C 37.919 309.174,38.294 309.627,38.615 309.750 C 38.937 309.874,39.200 310.251,39.200 310.587 C 39.200 310.924,39.335 311.201,39.500 311.203 C 39.665 311.204,40.250 311.879,40.800 312.703 C 41.350 313.526,42.205 314.648,42.700 315.196 C 43.195 315.744,43.600 316.302,43.600 316.438 C 43.600 316.573,44.005 317.138,44.500 317.694 C 44.995 318.250,45.940 319.385,46.600 320.216 C 47.260 321.047,48.205 322.175,48.700 322.722 C 49.195 323.269,49.600 323.879,49.600 324.078 C 49.600 324.276,50.005 324.835,50.500 325.319 C 50.995 325.804,51.842 326.830,52.382 327.600 C 53.769 329.577,53.923 329.760,56.600 332.608 C 57.920 334.013,60.260 336.542,61.800 338.228 C 66.040 342.871,79.700 356.400,80.148 356.400 C 81.053 356.400,83.269 359.398,82.854 360.062 C 82.227 361.067,82.247 361.103,83.600 361.400 C 84.260 361.545,84.800 361.841,84.800 362.059 C 84.800 362.276,85.162 362.339,85.604 362.199 C 86.370 361.956,87.917 363.061,89.944 365.300 C 90.293 365.685,90.808 366.000,91.089 366.000 C 91.370 366.000,91.600 366.168,91.600 366.373 C 91.600 366.578,91.992 366.870,92.471 367.022 C 92.950 367.174,93.803 367.727,94.367 368.249 C 94.930 368.772,95.619 369.200,95.896 369.200 C 96.173 369.200,96.400 369.377,96.400 369.592 C 96.400 369.808,96.837 370.094,97.371 370.228 C 97.905 370.363,98.439 370.726,98.559 371.036 C 98.678 371.346,99.051 371.600,99.387 371.600 C 99.724 371.600,100.000 371.777,100.000 371.992 C 100.000 372.208,100.450 372.498,101.000 372.636 C 101.550 372.774,102.000 373.028,102.000 373.200 C 102.000 373.372,102.444 373.625,102.986 373.761 C 103.624 373.921,103.895 374.209,103.753 374.578 C 103.590 375.002,103.861 375.139,104.805 375.112 C 105.504 375.092,106.196 375.270,106.342 375.506 C 106.488 375.743,107.101 376.060,107.704 376.212 C 108.307 376.363,108.800 376.606,108.800 376.752 C 108.800 377.193,114.642 380.000,115.560 380.000 C 115.802 380.000,116.000 380.166,116.000 380.368 C 116.000 380.571,116.540 380.855,117.200 381.000 C 117.860 381.145,118.400 381.400,118.400 381.567 C 118.400 381.734,119.390 382.207,120.600 382.618 C 121.810 383.029,122.800 383.494,122.800 383.651 C 122.800 383.808,123.352 384.058,124.027 384.206 C 124.702 384.354,125.737 384.727,126.327 385.035 C 126.917 385.343,127.715 385.596,128.100 385.598 C 128.485 385.599,128.800 385.778,128.800 385.995 C 128.800 386.213,129.520 386.506,130.400 386.646 C 131.280 386.787,132.000 387.059,132.000 387.251 C 132.000 387.443,132.190 387.600,132.422 387.600 C 132.833 387.600,135.983 388.891,137.213 389.563 C 137.550 389.747,138.405 390.025,139.113 390.181 C 139.821 390.336,140.400 390.629,140.400 390.832 C 140.400 391.034,140.784 391.200,141.252 391.200 C 142.122 391.200,142.165 388.651,141.306 388.032 C 141.129 387.905,140.764 387.350,140.495 386.800 C 139.894 385.572,139.084 384.268,138.754 384.000 C 138.619 383.890,138.369 383.350,138.200 382.800 C 138.031 382.250,137.781 381.710,137.646 381.600 C 137.511 381.490,136.950 380.500,136.400 379.400 C 135.850 378.300,135.289 377.310,135.154 377.200 C 135.019 377.090,134.769 376.550,134.600 376.000 C 134.431 375.450,134.181 374.909,134.046 374.799 C 133.792 374.591,132.166 371.681,131.423 370.103 C 131.190 369.610,130.879 369.205,130.732 369.203 C 130.584 369.201,130.345 368.660,130.200 368.000 C 130.055 367.340,129.774 366.800,129.576 366.800 C 129.378 366.800,129.102 366.350,128.964 365.800 C 128.826 365.250,128.567 364.800,128.388 364.800 C 128.210 364.800,127.945 364.260,127.800 363.600 C 127.655 362.940,127.410 362.400,127.256 362.400 C 127.102 362.400,126.762 361.905,126.502 361.300 C 125.994 360.119,125.154 358.725,124.754 358.400 C 124.619 358.290,124.369 357.750,124.200 357.200 C 124.031 356.650,123.781 356.110,123.646 356.000 C 123.511 355.890,122.950 354.900,122.400 353.800 C 121.850 352.700,121.289 351.710,121.154 351.600 C 121.019 351.490,120.769 350.950,120.600 350.400 C 120.431 349.850,120.181 349.309,120.046 349.199 C 119.792 348.991,118.166 346.081,117.423 344.503 C 117.190 344.010,116.879 343.605,116.732 343.603 C 116.584 343.601,116.345 343.060,116.200 342.400 C 116.055 341.740,115.803 341.200,115.639 341.200 C 115.292 341.200,113.600 337.927,113.600 337.256 C 113.600 337.005,113.459 336.800,113.288 336.800 C 113.116 336.800,112.762 336.305,112.502 335.700 C 111.994 334.519,111.154 333.125,110.754 332.800 C 110.619 332.690,110.369 332.150,110.200 331.600 C 110.031 331.050,109.781 330.510,109.646 330.400 C 109.511 330.290,108.950 329.300,108.400 328.200 C 107.850 327.100,107.289 326.110,107.154 326.000 C 107.019 325.890,106.769 325.350,106.600 324.800 C 106.431 324.250,106.181 323.710,106.046 323.600 C 105.911 323.490,105.468 322.770,105.062 322.000 C 103.686 319.388,103.001 318.201,102.754 318.000 C 102.619 317.890,102.370 317.358,102.201 316.819 C 102.032 316.279,101.693 315.610,101.447 315.333 C 100.357 314.102,100.000 313.616,100.000 313.361 C 100.000 312.891,98.225 309.426,97.700 308.871 C 97.425 308.581,97.200 308.086,97.200 307.771 C 97.200 307.457,97.034 307.200,96.832 307.200 C 96.629 307.200,96.345 306.660,96.200 306.000 C 96.055 305.340,95.816 304.796,95.668 304.792 C 95.521 304.787,94.950 303.801,94.400 302.600 C 93.850 301.399,93.279 300.413,93.132 300.408 C 92.984 300.404,92.745 299.860,92.600 299.200 C 92.455 298.540,92.216 297.999,92.068 297.997 C 91.921 297.995,91.613 297.590,91.383 297.097 C 90.688 295.599,89.016 292.613,88.754 292.400 C 88.619 292.290,88.370 291.758,88.201 291.219 C 88.032 290.679,87.693 290.010,87.447 289.733 C 86.210 288.336,86.000 287.969,86.000 287.204 C 86.000 286.748,85.741 286.276,85.424 286.154 C 85.108 286.033,84.734 285.408,84.593 284.767 C 84.452 284.125,84.174 283.600,83.976 283.600 C 83.778 283.600,83.502 283.150,83.364 282.600 C 83.226 282.050,82.972 281.600,82.800 281.600 C 82.628 281.600,82.363 281.107,82.212 280.504 C 82.060 279.901,81.816 279.316,81.668 279.204 C 81.521 279.092,80.950 278.100,80.400 277.000 C 79.850 275.900,79.310 274.910,79.200 274.800 C 79.090 274.690,78.376 273.385,77.613 271.900 C 76.850 270.415,76.104 269.200,75.956 269.200 C 75.808 269.200,75.563 268.707,75.412 268.104 C 75.260 267.501,75.016 266.916,74.868 266.804 C 74.109 266.227,73.028 263.457,73.501 263.300 C 74.279 263.040,74.087 262.400,73.231 262.400 C 72.448 262.400,71.443 260.287,71.684 259.147 C 71.748 258.846,71.530 258.600,71.200 258.600 C 70.474 258.600,69.200 257.287,69.200 256.539 C 69.200 256.242,69.040 256.000,68.843 256.000 C 68.647 256.000,68.363 255.507,68.212 254.904 C 68.060 254.301,67.816 253.716,67.668 253.604 C 67.521 253.492,66.950 252.500,66.400 251.400 C 65.850 250.300,65.310 249.310,65.200 249.200 C 65.090 249.090,64.650 248.280,64.223 247.400 C 63.795 246.520,63.065 245.260,62.600 244.600 C 62.136 243.940,61.064 242.005,60.220 240.300 C 59.375 238.595,58.554 237.200,58.393 237.200 C 58.233 237.200,57.984 236.462,57.840 235.560 C 57.425 232.965,57.338 232.935,49.465 232.718 C 42.620 232.530,42.338 232.553,41.780 233.350 M154.572 349.994 C 153.818 350.321,153.200 350.734,153.200 350.913 C 153.200 351.092,152.775 351.635,152.256 352.119 C 151.736 352.604,151.189 353.388,151.040 353.863 C 150.891 354.338,150.506 354.827,150.185 354.950 C 149.863 355.074,149.600 355.373,149.600 355.616 C 149.600 355.859,149.330 356.327,149.000 356.657 C 148.256 357.401,148.184 361.312,148.900 362.079 C 149.175 362.373,149.850 363.511,150.400 364.607 C 150.950 365.703,151.490 366.690,151.600 366.800 C 151.917 367.117,152.690 368.459,153.623 370.314 C 154.097 371.256,154.691 372.255,154.942 372.532 C 155.194 372.809,155.732 373.658,156.138 374.418 C 157.492 376.955,158.198 378.198,158.400 378.400 C 158.751 378.751,159.555 380.140,160.658 382.300 C 161.247 383.455,161.866 384.400,162.033 384.400 C 162.200 384.400,162.455 384.940,162.600 385.600 C 162.745 386.260,163.017 386.800,163.205 386.800 C 163.393 386.800,163.672 387.205,163.827 387.700 C 163.981 388.195,164.219 388.690,164.354 388.800 C 164.754 389.125,165.594 390.519,166.102 391.700 C 166.362 392.305,166.716 392.800,166.888 392.800 C 167.059 392.800,167.200 393.057,167.200 393.371 C 167.200 394.673,168.395 395.200,171.349 395.200 C 172.939 395.200,174.411 395.367,174.620 395.571 C 174.829 395.775,176.440 396.038,178.200 396.156 C 183.860 396.536,194.987 397.455,195.400 397.577 C 195.620 397.642,195.890 397.644,196.000 397.582 C 196.110 397.520,201.600 397.231,208.200 396.940 C 222.423 396.313,226.000 396.046,226.000 395.610 C 226.000 395.432,227.800 395.157,230.000 395.000 C 232.200 394.843,234.000 394.570,234.000 394.394 C 234.000 394.218,235.713 393.946,237.806 393.789 C 239.899 393.632,241.698 393.365,241.803 393.195 C 241.908 393.025,243.616 392.757,245.597 392.600 C 247.579 392.443,249.200 392.175,249.200 392.003 C 249.200 391.831,250.010 391.569,251.000 391.421 C 251.990 391.272,252.800 391.002,252.800 390.821 C 252.800 390.639,253.606 390.370,254.591 390.222 C 255.576 390.075,256.486 389.784,256.614 389.577 C 256.742 389.370,257.152 389.199,257.524 389.198 C 257.896 389.196,258.703 388.933,259.317 388.612 C 259.931 388.292,261.056 387.913,261.817 387.770 C 262.578 387.628,263.200 387.371,263.200 387.201 C 263.200 387.030,264.010 386.769,265.000 386.621 C 265.990 386.472,266.800 386.182,266.800 385.975 C 266.800 385.769,267.205 385.599,267.700 385.598 C 268.195 385.596,269.103 385.333,269.717 385.012 C 270.331 384.692,271.456 384.313,272.217 384.170 C 272.978 384.028,273.600 383.788,273.600 383.638 C 273.600 383.488,274.590 383.029,275.800 382.618 C 277.010 382.207,278.000 381.719,278.000 381.535 C 278.000 381.351,278.190 381.200,278.422 381.200 C 278.787 381.200,280.034 380.699,283.400 379.200 C 286.766 377.701,288.013 377.200,288.378 377.200 C 288.610 377.200,288.800 377.034,288.800 376.832 C 288.800 376.629,289.352 376.342,290.027 376.194 C 290.702 376.046,291.737 375.673,292.327 375.365 C 292.917 375.057,293.625 374.804,293.900 374.802 C 294.175 374.801,294.400 374.620,294.400 374.400 C 294.400 374.180,294.679 374.000,295.021 374.000 C 295.647 374.000,298.822 372.429,299.203 371.932 C 299.316 371.784,299.901 371.540,300.504 371.388 C 301.107 371.237,301.600 370.953,301.600 370.757 C 301.600 370.560,301.857 370.400,302.171 370.400 C 302.486 370.400,302.983 370.175,303.278 369.900 C 303.572 369.625,304.529 369.042,305.406 368.604 C 306.283 368.166,307.090 367.716,307.200 367.604 C 307.485 367.313,309.471 366.210,311.800 365.048 C 316.025 362.939,317.153 362.064,324.100 355.500 C 325.439 354.235,326.656 353.200,326.805 353.200 C 326.954 353.200,327.406 352.836,327.809 352.391 C 329.445 350.582,329.953 350.606,287.680 350.499 C 262.957 350.436,247.496 350.250,247.000 350.010 C 245.530 349.297,156.218 349.282,154.572 349.994 " stroke="none" fill="#040404" fill-rule="evenodd"></path><path id="path1" d="M77.600 135.800 C 77.600 136.130,77.600 136.490,77.600 136.600 C 77.600 136.710,77.735 136.782,77.900 136.760 C 78.065 136.738,78.155 136.558,78.100 136.360 C 78.045 136.162,78.180 136.000,78.400 136.000 C 78.620 136.000,78.800 135.820,78.800 135.600 C 78.800 135.380,78.530 135.200,78.200 135.200 C 77.870 135.200,77.600 135.470,77.600 135.800 M357.300 180.500 C 357.392 180.775,357.707 181.000,358.000 181.000 C 358.293 181.000,358.608 180.775,358.700 180.500 C 358.799 180.203,358.516 180.000,358.000 180.000 C 357.484 180.000,357.201 180.203,357.300 180.500 M41.625 200.380 C 41.608 201.327,41.729 201.631,42.012 201.348 C 42.285 201.075,42.294 200.609,42.038 199.968 C 41.674 199.058,41.649 199.083,41.625 200.380 M10.800 245.000 C 10.800 245.550,10.980 246.000,11.200 246.000 C 11.420 246.000,11.600 245.550,11.600 245.000 C 11.600 244.450,11.420 244.000,11.200 244.000 C 10.980 244.000,10.800 244.450,10.800 245.000 M72.279 261.862 C 72.506 262.453,74.000 262.613,74.000 262.047 C 74.000 261.852,73.566 261.610,73.037 261.509 C 72.346 261.377,72.132 261.477,72.279 261.862 M83.677 362.030 C 83.756 362.267,83.991 362.460,84.200 362.460 C 84.409 362.460,84.644 362.267,84.723 362.030 C 84.802 361.793,84.567 361.600,84.200 361.600 C 83.833 361.600,83.598 361.793,83.677 362.030 " stroke="none" fill="#140406" fill-rule="evenodd"></path></g></svg>